<svg width="78" height="55" viewBox="0 0 78 55" fill="none" xmlns="http://www.w3.org/2000/svg">
<mask id="path-1-inside-1_142_61914" fill="white">
<path d="M44.9746 0C38.2926 4.27181 33.8623 11.7563 33.8623 20.2754C33.8624 33.5561 44.6294 44.3223 57.9102 44.3223C62.3651 44.3222 66.5357 43.1085 70.1133 40.9971C65.3627 48.2407 57.1728 53.0264 47.8633 53.0264C33.1772 53.0263 21.2716 41.1206 21.2715 26.4346C21.2715 12.7246 31.6473 1.43989 44.9746 0Z"/>
</mask>
<path d="M44.9746 0C38.2926 4.27181 33.8623 11.7563 33.8623 20.2754C33.8624 33.5561 44.6294 44.3223 57.9102 44.3223C62.3651 44.3222 66.5357 43.1085 70.1133 40.9971C65.3627 48.2407 57.1728 53.0264 47.8633 53.0264C33.1772 53.0263 21.2716 41.1206 21.2715 26.4346C21.2715 12.7246 31.6473 1.43989 44.9746 0Z" fill="#2B2B2B"/>
<path d="M44.9746 0L45.1901 0.337015L44.9316 -0.397686L44.9746 0ZM33.8623 20.2754H33.4623V20.2754L33.8623 20.2754ZM57.9102 44.3223V44.7223H57.9102L57.9102 44.3223ZM70.1133 40.9971L70.4478 41.2164L69.91 40.6526L70.1133 40.9971ZM47.8633 53.0264L47.8633 53.4264H47.8633V53.0264ZM21.2715 26.4346H20.8715V26.4346L21.2715 26.4346ZM44.9746 0L44.7592 -0.337015C37.9671 4.00518 33.4623 11.6142 33.4623 20.2754H33.8623H34.2623C34.2623 11.8985 38.6182 4.53843 45.1901 0.337015L44.9746 0ZM33.8623 20.2754L33.4623 20.2754C33.4624 33.7771 44.4085 44.7223 57.9102 44.7223V44.3223V43.9223C44.8503 43.9223 34.2624 33.3352 34.2623 20.2754L33.8623 20.2754ZM57.9102 44.3223L57.9102 44.7223C62.4387 44.7222 66.6793 43.4883 70.3166 41.3415L70.1133 40.9971L69.91 40.6526C66.3922 42.7288 62.2915 43.9222 57.9101 43.9223L57.9102 44.3223ZM70.1133 40.9971L69.7788 40.7777C65.0989 47.9134 57.0322 52.6264 47.8633 52.6264V53.0264V53.4264C57.3133 53.4264 65.6264 48.5679 70.4478 41.2164L70.1133 40.9971ZM47.8633 53.0264L47.8633 52.6264C33.3981 52.6263 21.6716 40.8997 21.6715 26.4346L21.2715 26.4346L20.8715 26.4346C20.8716 41.3416 32.9563 53.4263 47.8633 53.4264L47.8633 53.0264ZM21.2715 26.4346H21.6715C21.6715 12.9311 31.8912 1.81588 45.0176 0.397686L44.9746 0L44.9316 -0.397686C31.4035 1.0639 20.8715 12.518 20.8715 26.4346H21.2715Z" fill="white" mask="url(#path-1-inside-1_142_61914)"/>
<path d="M50.0014 17.2017C50.1372 17.1691 50.3481 17.1535 50.6339 17.1548C51.3057 17.158 51.7582 17.7265 51.8797 18.3361C52.0413 19.1494 51.8289 19.8298 51.2427 20.3773C50.9586 20.6429 50.6629 20.7735 50.2476 20.9632C50.0355 21.0605 49.8328 21.121 49.6395 21.1445C48.5949 21.2738 47.4668 21.2404 46.4517 20.8892C46.1953 20.8005 45.8668 20.6121 45.6996 20.5182C45.203 20.2395 44.7935 19.8391 44.4712 19.3169C44.2494 18.9561 44.1228 18.4268 44.0225 18.0152C43.9158 17.5779 44.0875 17.1329 44.2475 16.7104C44.5207 15.9895 44.9784 15.4287 45.6411 15.021C45.7427 14.9584 45.8481 14.9046 45.9574 14.8596C46.1033 14.7991 46.2338 14.72 46.3952 14.6769C46.7603 14.5787 47.1344 14.5153 47.5175 14.4866C47.6242 14.4784 47.7207 14.4505 47.8068 14.403C47.8179 14.3966 47.8272 14.3877 47.8339 14.3769C47.8406 14.3661 47.8446 14.3538 47.8454 14.3412C47.8514 14.2233 47.8623 14.1449 47.8782 14.1058C48.0534 13.663 48.1786 13.3873 48.2536 13.2788C48.6367 12.7275 49.0882 12.3131 49.608 12.0357C50.8596 11.3682 52.3348 11.2865 53.6983 11.5701C54.4594 11.7283 55.189 12.0859 55.7669 12.6389C56.2854 13.1345 56.6177 13.7453 56.7639 14.4711C56.7909 14.6053 56.787 14.9022 56.7523 15.3618C56.7485 15.4133 56.7319 15.4632 56.7041 15.5072C56.6347 15.6152 56.6098 15.7382 56.6295 15.8763C56.6308 15.8857 56.6349 15.8944 56.6414 15.9013C56.6478 15.9082 56.6563 15.913 56.6655 15.9149C56.6964 15.9209 56.7431 15.9091 56.8056 15.8795C56.8434 15.8615 56.8888 15.8467 56.9419 15.8351C57.9357 15.6139 58.897 15.6761 59.8256 16.0216C60.5912 16.3065 61.2912 16.8133 61.7226 17.4647C61.8216 17.6144 61.9281 17.8328 62.0421 18.1201C62.2439 18.6281 62.2195 19.2436 62.1166 19.7606C62.0948 19.8686 61.8756 20.2101 61.8209 20.2719C61.6984 20.4112 61.543 20.4873 61.3549 20.5002C61.084 20.5186 60.7521 20.5267 60.3592 20.5246C58.7791 20.5165 57.4652 20.516 56.4174 20.5233C55.9288 20.5272 55.394 20.6597 55.2745 21.2108C55.1028 21.9979 55.9018 22.2044 56.5402 22.2005C58.2629 22.1902 59.969 22.1832 61.4198 22.1902C62.7813 22.1975 63.9973 22.1964 65.0678 22.187C65.8083 22.1806 66.4782 22.1857 67.0773 22.2024C67.313 22.2093 67.6974 22.249 68.2305 22.3214C69.0366 22.4314 69.9262 22.7947 70.3852 23.4803C70.869 24.2027 70.9704 24.966 70.6893 25.7704C70.5213 26.251 70.2365 26.6617 69.835 27.0025C68.9916 27.7196 67.9258 28.0006 66.8195 28.0083C64.7226 28.0229 62.7408 28.0175 60.8741 27.9923C60.5089 27.9878 59.8674 27.8083 59.6938 27.472C59.5209 27.1376 59.735 26.7376 60.032 26.5382C60.3388 26.3328 60.6896 26.2212 61.0843 26.2032C61.3551 26.1912 61.6761 26.1834 62.0472 26.18C62.8906 26.1716 63.9487 25.6996 63.9339 24.7157C63.9229 24.0192 63.1079 23.6906 62.5036 23.661C62.1128 23.6417 61.3864 23.6308 60.8657 23.6301C56.6951 23.6228 52.9479 23.6175 49.6241 23.614C48.9907 23.6136 48.0871 23.6177 46.9133 23.6263C45.8359 23.634 44.9325 23.6351 44.2032 23.6295C42.6077 23.6179 40.7024 23.6205 38.4872 23.6372C37.989 23.6411 37.4626 23.7478 37.1546 24.1504C36.9862 24.3703 36.9354 24.6265 37.0023 24.9189C37.097 25.3318 37.3676 25.58 37.8142 25.6636C38.2622 25.7478 38.5373 25.7395 39.1217 25.7395C43.7817 25.7378 48.8627 25.7335 54.3649 25.7266C55.0921 25.7258 55.7242 25.7296 56.2612 25.7382C56.7041 25.7453 57.2228 25.9935 57.3193 26.4488C57.4118 26.8874 56.9979 27.2437 56.5916 27.3588C56.4545 27.3978 56.2537 27.4188 55.9893 27.4218C54.875 27.4347 54.2157 27.4422 54.0113 27.4443C53.5622 27.4491 53.2194 27.511 52.9828 27.6302C52.4216 27.9125 52.0732 28.4939 52.4396 29.0797C52.7475 29.5723 53.2624 29.6688 53.8185 29.6849C54.3409 29.6995 54.8123 29.7012 55.2327 29.69C55.4062 29.6857 55.8669 29.6883 56.6147 29.6977C57.9415 29.7158 59.1082 29.6913 60.5732 29.7048C61.1719 29.7104 61.7791 29.7113 62.395 29.7074C63.1629 29.7027 63.77 29.701 64.2161 29.7023C68.7754 29.7143 71.6466 29.7267 72.8299 29.7396C73.6951 29.749 74.654 29.7642 75.7065 29.7852C76.4541 29.8 77.1085 29.9955 77.5861 30.5634C77.6461 30.6345 77.6744 30.7123 77.6709 30.7968C77.6702 30.8125 77.6638 30.8274 77.653 30.8388C77.6421 30.8501 77.6275 30.8572 77.6118 30.8585C77.0603 30.9093 76.4387 30.8804 75.7933 30.883C71.4088 30.898 69.1514 30.9059 69.0212 30.9068C68.6089 30.9098 67.6822 30.919 66.241 30.9344C65.02 30.9477 61.1048 30.9546 54.4954 30.955C49.5889 30.9554 46.332 30.97 44.7245 30.9987C44.3332 31.0056 44.021 30.9777 43.7879 30.9151C43.5494 30.8508 43.1721 30.6547 43.084 30.4045C43.054 30.3196 43.0397 30.1801 43.0409 29.9859C43.0435 29.6714 43.2248 29.555 43.4883 29.3929C43.9891 29.0855 44.4834 29.1248 45.044 29.0997C45.2107 29.092 46.1535 29.0896 47.8724 29.0926C48.3551 29.0932 48.9832 28.8784 49.0025 28.2977C49.0275 27.5543 48.3159 27.3961 47.7277 27.3839C46.2107 27.3543 44.979 27.3865 43.3559 27.3768C42.1594 27.3691 39.433 27.3624 35.1767 27.3569C34.9971 27.3569 34.7293 27.3311 34.3732 27.2797C33.5896 27.1665 32.9185 26.7607 32.4055 26.1691C32.3515 26.1069 32.2401 25.8842 32.0712 25.5009C32.0533 25.4591 32.0418 25.4151 32.0372 25.3703C31.9917 24.9052 32.0072 24.5223 32.0834 24.2218C32.1014 24.1497 32.1756 23.9804 32.3059 23.7137C32.3804 23.5607 32.4878 23.4113 32.6279 23.2655C33.2341 22.634 33.9303 22.387 34.7743 22.2462C34.959 22.2153 35.1855 22.199 35.4537 22.1973C36.0194 22.1939 37.0734 22.1926 38.6158 22.1934C40.9813 22.1943 43.2151 22.1956 45.3172 22.1973C45.7626 22.1979 46.1875 22.1761 46.561 22.1832C47.527 22.2007 48.72 22.2014 50.1402 22.1851C50.3948 22.1821 50.6886 22.1587 51.0216 22.115C51.8037 22.0125 52.4443 21.6695 52.9436 21.086C53.2547 20.7225 53.4726 20.3462 53.5973 19.9574C53.6766 19.7096 53.7538 19.3121 53.8287 18.7651C53.836 18.7111 53.8221 18.555 53.787 18.2969C53.775 18.206 53.7068 17.9554 53.5825 17.5451C53.5093 17.3038 53.4083 17.096 53.2798 16.922C52.5849 15.9805 51.4934 15.4924 50.3273 15.7342C50.125 15.7758 49.8928 15.8714 49.6305 16.021C49.1722 16.2827 48.7093 16.7933 48.6296 17.3445C48.5718 17.7438 48.5608 18.1863 48.782 18.5059C48.9311 18.722 49.131 18.9445 49.3997 19.0223C49.6547 19.0961 49.8966 19.1016 50.1255 19.039C50.4321 18.9548 50.6005 18.6339 50.7124 18.295C50.7196 18.2742 50.722 18.2523 50.7194 18.2307C50.6764 17.8448 50.5459 17.6596 50.2142 17.4737C50.1988 17.4653 50.1862 17.4525 50.1779 17.437C50.1696 17.4215 50.1659 17.4039 50.1672 17.3863C50.1724 17.3241 50.1167 17.2752 50.0001 17.2397C49.9961 17.2382 49.9927 17.2356 49.9904 17.2321C49.988 17.2286 49.9868 17.2244 49.9869 17.2202C49.9871 17.216 49.9885 17.2119 49.9911 17.2086C49.9938 17.2053 49.9973 17.2029 50.0014 17.2017Z" fill="#F7E9DA"/>
<path d="M26.3163 47.3752C26.1925 47.7507 26.2831 48.0768 26.5882 48.3533C26.8029 48.548 27.0746 48.6712 27.4033 48.7231C27.6999 48.7703 27.9356 48.7911 28.1104 48.7855C28.8012 48.8284 29.4963 48.8526 30.1957 48.8582C34.2086 48.8895 36.3407 48.9042 36.5918 48.9025C36.9805 48.9 37.6878 48.9036 38.7137 48.9135C39.0827 48.9167 40.0797 48.9938 40.2192 49.3707C40.3266 49.662 40.1247 49.846 39.8535 49.9077C39.475 49.9947 39.0628 50.0389 38.6167 50.0402C38.531 50.0402 36.5489 50.0402 32.6706 50.0402C31.9382 50.0402 31.1732 50.0436 30.3757 50.0505C30.2694 50.0174 30.1531 49.9997 30.0267 49.9971C29.1923 49.9808 28.0541 49.9731 26.612 49.9739C23.3658 49.9756 21.5552 49.9776 21.1802 49.9797C20.2935 49.9857 19.4043 49.9855 18.5125 49.9791C18.4482 49.9786 18.1054 49.9789 17.484 49.9797C15.4895 49.981 13.9208 49.9737 12.7779 49.9579C11.7725 49.9431 10.6617 49.4678 10.224 48.5032C10.1125 48.2584 10.0557 48.0088 10.0536 47.7546C10.0465 47.0189 10.2805 46.3649 10.8777 45.898C11.4826 45.4253 12.1042 45.1919 12.8627 45.1269C13.512 45.071 14.0899 45.1275 14.6208 44.7455C14.8645 44.57 14.9262 44.2465 14.9313 43.9378C14.9377 43.541 14.7063 43.2536 14.3438 43.0928C14.1642 43.013 14.0207 42.9654 13.9131 42.95C13.7995 42.9337 13.5703 42.926 13.2253 42.9269C9.78405 42.9367 6.32353 42.9408 2.84374 42.9391C2.08392 42.9391 1.5221 42.8651 0.865778 42.404C0.452231 42.1129 0.18696 41.7138 0.0699672 41.2066C-0.339509 39.4291 1.11262 38.2766 2.7486 38.2695C4.63785 38.2605 5.83156 38.2798 8.24921 38.2933C8.74504 38.2963 9.78019 38.3116 11.3547 38.339C12.6677 38.3622 13.9609 38.3718 15.2341 38.3679C15.9108 38.3658 16.5769 38.3634 17.2326 38.3609C17.3136 38.3604 17.481 38.3658 17.7347 38.3769C18.0766 38.3919 18.4223 38.3461 18.7715 38.2393C18.7776 38.2374 18.7833 38.2343 18.7882 38.2302C18.793 38.2261 18.797 38.221 18.7999 38.2153C18.8028 38.2096 18.8045 38.2034 18.8049 38.197C18.8053 38.1907 18.8045 38.1843 18.8024 38.1782L18.6179 37.6573C18.6138 37.6455 18.6066 37.635 18.597 37.627C18.5873 37.6189 18.5757 37.6136 18.5633 37.6117C18.3768 37.5851 18.2684 37.5756 18.238 37.5834C17.9637 37.6545 17.6749 37.6895 17.3715 37.6882C16.0948 37.6824 14.779 37.7853 13.8192 36.8342C13.5874 36.6044 13.4089 36.286 13.2838 35.8792C13.1237 35.3582 13.1796 34.8894 13.4291 34.4045C13.807 33.6705 14.4194 33.2159 15.2662 33.0405C15.5881 32.9736 15.8619 32.9235 16.0878 32.89C16.1279 32.8841 16.1654 32.8668 16.1961 32.8401C16.2267 32.8134 16.2491 32.7785 16.2607 32.7395L16.3172 32.5485C16.3232 32.529 16.3328 32.5109 16.3455 32.4952C16.4964 32.3035 16.6371 32.123 16.7679 31.9537C16.8321 31.8705 16.8669 31.7996 16.872 31.7408C17.202 31.5204 17.526 31.3076 17.8439 31.1022C18.0029 30.9993 18.1658 30.9222 18.3325 30.8707C19.49 30.5136 20.6428 30.5119 21.7909 30.8656C22.318 31.0276 22.9087 31.3743 23.3008 31.6739C23.3887 31.7412 23.5464 31.8971 23.774 32.1415C24.3795 32.7923 24.7967 33.6843 24.6649 34.5968C24.6637 34.6051 24.6645 34.6135 24.6672 34.6213C24.6699 34.6292 24.6744 34.6363 24.6805 34.642C24.6865 34.6477 24.6937 34.6518 24.7017 34.654C24.7096 34.6562 24.7179 34.6565 24.726 34.6547C25.3096 34.5304 25.8788 34.5464 26.4333 34.7029C27.3686 34.9679 28.0256 35.5763 28.2865 36.5081C28.419 36.9821 28.1921 37.7641 27.9696 38.1879C27.9585 38.2092 27.9452 38.2291 27.9298 38.247C27.8874 38.2968 27.7288 38.4449 27.4541 38.6914C27.2377 38.8856 27.0283 39.0072 26.8261 39.0561C26.4931 39.1364 26.0045 39.1937 25.6343 39.1577C25.6258 39.1569 25.6177 39.1544 25.6102 39.1505C25.6028 39.1466 25.5964 39.1414 25.5913 39.1351C25.5863 39.1288 25.5827 39.1217 25.5809 39.1141C25.5791 39.1066 25.5791 39.0989 25.5809 39.0914C25.5843 39.076 25.5972 39.0653 25.6195 39.0593C25.7253 39.031 25.81 38.9973 25.8734 38.9583C26.1742 38.7712 25.9898 38.4708 25.7423 38.3679C25.2987 38.184 24.888 38.3814 24.492 38.6239C24.0054 38.9229 23.8781 39.4799 23.9186 40.0149C23.9687 40.6825 24.6154 41.1616 25.2261 41.2799C25.4536 41.3245 25.7069 41.3481 25.9859 41.3506C27.9834 41.3686 30.6187 41.3764 33.8919 41.3738C34.4512 41.3731 35.0599 41.3706 35.5433 41.5384C35.8125 41.6319 36.0927 41.7791 36.3842 41.9802C36.6053 42.1326 36.7647 42.2799 36.8868 42.5172C37.0891 42.9108 37.2046 43.2407 37.2333 43.5069C37.3207 44.3108 37.0238 45.2137 36.3681 45.7243C36.2609 45.8075 36.1073 45.9046 35.9072 46.0157C35.4437 46.2742 34.7739 46.325 34.2616 46.3263C32.3507 46.331 30.3954 46.3323 28.3958 46.3301C28.0718 46.3301 27.7087 46.3218 27.4329 46.3829C27.2353 46.427 27.0088 46.5456 26.7534 46.7385C26.5259 46.9104 26.3802 47.1226 26.3163 47.3752ZM17.7906 35.7158C17.6804 35.9683 17.6974 36.2052 17.8414 36.4264C17.8469 36.4351 17.8548 36.442 17.864 36.4465C17.8733 36.451 17.8836 36.4528 17.8938 36.4518C17.904 36.4508 17.9138 36.447 17.922 36.4408C17.9302 36.4347 17.9366 36.4263 17.9404 36.4168L17.9629 36.3621C18.052 36.4277 18.1253 36.5214 18.1827 36.6432C18.1908 36.6599 18.2023 36.6747 18.2167 36.6866C18.231 36.6985 18.2477 36.7071 18.2656 36.712C18.476 36.7681 18.6631 36.7598 18.8268 36.6869C19.0128 36.6041 19.0929 36.4466 19.0672 36.2142C19.0428 35.9949 18.9162 35.8843 18.7285 35.7795C18.7203 35.7749 18.7134 35.7684 18.7084 35.7605C18.7034 35.7526 18.7005 35.7436 18.6998 35.7343C18.6992 35.725 18.7009 35.7158 18.7048 35.7074C18.7086 35.699 18.7146 35.6917 18.722 35.6862C18.8101 35.6206 18.9579 35.5943 19.0685 35.6097C19.4512 35.6607 19.728 35.8423 19.899 36.1544C20.1259 36.5686 19.9601 37.2258 19.71 37.5975C19.5211 37.8779 19.2794 38.0001 19.0229 38.166C19.0111 38.1736 19.0011 38.1834 18.9932 38.1949C18.9854 38.2065 18.98 38.2195 18.9774 38.2331C18.9747 38.2468 18.9749 38.2608 18.9779 38.2744C18.9808 38.2879 18.9865 38.3007 18.9946 38.312C19.2024 38.6052 19.3657 38.891 19.4844 39.1692C19.5015 39.2085 19.5238 39.2451 19.5506 39.2779L19.7338 39.5049C19.7368 39.5086 19.7404 39.5116 19.7445 39.5139C19.7486 39.5161 19.7532 39.5175 19.7578 39.518C19.7625 39.5185 19.7672 39.518 19.7717 39.5167C19.7762 39.5153 19.7804 39.5131 19.784 39.5101C19.8028 39.4929 19.9299 39.4363 20.1652 39.3403C20.5341 39.1894 20.8446 38.9375 21.0966 38.5847C21.5757 37.9128 21.7396 37.1838 21.5884 36.3975C21.4649 35.7563 21.0683 35.1878 20.5309 34.8476C20.0278 34.5291 19.4698 34.4167 18.857 34.5106C18.3582 34.5874 17.9924 34.8281 17.7597 35.2328C17.7487 35.2524 17.7417 35.274 17.7392 35.2965C17.7254 35.429 17.7426 35.5687 17.7906 35.7158ZM23.8672 44.9816C23.9404 45.0424 24.0435 45.0703 24.1764 45.0652C24.3383 45.0583 24.4206 45.0549 24.4206 45.0549C26.6615 45.116 28.7012 45.0838 31.6491 45.087C31.7336 45.087 31.8465 45.0836 31.9879 45.0767C32.3055 45.0613 32.5915 45.0645 32.8306 44.9944C33.3548 44.8418 33.619 44.4694 33.6232 43.8774C33.6241 43.7432 33.5894 43.6216 33.5191 43.5127C33.1392 42.9236 32.6018 42.8799 31.9635 42.8818C29.4736 42.8891 27.5139 42.8893 26.0842 42.8825C25.2595 42.8786 24.4431 42.9101 23.6075 42.831C23.4069 42.8117 22.8849 42.7429 22.8599 42.5005C22.8269 42.1794 22.7317 41.8823 22.5745 41.6092C22.1997 40.9577 21.6758 40.4921 20.9275 40.3287C20.9211 40.327 20.8215 40.3005 20.6286 40.249C20.4568 40.2031 20.2935 40.2087 20.1388 40.2657C19.9922 40.0771 19.8722 39.8655 19.7788 39.631C19.7755 39.6227 19.7699 39.6155 19.7626 39.6103C19.7553 39.605 19.7467 39.602 19.7377 39.6014C19.5633 39.5903 19.4017 39.6059 19.253 39.6483C18.9329 39.739 18.7426 39.7133 18.2836 39.7114C15.4985 39.7007 14.0481 39.6951 13.9324 39.6947C8.45041 39.6874 5.55236 39.6846 5.23824 39.6863C5.04325 39.6876 4.84076 39.7437 4.63077 39.8548C4.17823 40.0927 4.07731 40.6915 4.30037 41.1069C4.50414 41.4863 5.09039 41.5699 5.47994 41.5693C8.79518 41.562 12.6842 41.5601 17.1471 41.5635C17.8221 41.5641 18.3723 41.5905 18.9644 41.7474C19.2875 41.8332 19.5997 41.9819 19.901 42.1937C20.5978 42.6838 21.0098 43.4036 21.1371 44.3533C21.1879 44.7333 21.0683 45.1693 21.0246 45.4195C20.9545 45.8221 20.8048 46.1385 20.5618 46.4555C20.2719 46.8337 19.9601 47.1546 19.5429 47.3347C19.0985 47.5267 18.6125 47.5923 18.085 47.5314C17.7205 47.489 17.4055 47.2523 17.151 47.033C17.1433 47.0267 17.1368 47.0188 17.1317 47.0099L16.8296 46.5057C16.8228 46.4942 16.8182 46.4816 16.8161 46.4684C16.8041 46.3955 16.7972 46.2978 16.7955 46.1751C16.791 45.8523 16.9446 45.7591 17.178 45.5494C17.394 45.3552 17.5695 45.388 17.8054 45.5108C17.8101 45.5133 17.8141 45.517 17.8171 45.5215C17.82 45.5259 17.8217 45.5311 17.8221 45.5364C17.8225 45.5418 17.8215 45.5471 17.8193 45.552C17.817 45.5569 17.8136 45.5611 17.8092 45.5642C17.7857 45.5814 17.7717 45.6079 17.7674 45.6439C17.7539 45.7488 17.6871 45.8195 17.5977 45.9546C17.59 45.9664 17.5856 45.9801 17.5852 45.9942C17.5847 46.0082 17.5882 46.0221 17.5952 46.0343L17.7269 46.262C17.7314 46.2698 17.7374 46.2766 17.7448 46.2818C17.7521 46.2871 17.7605 46.2906 17.7694 46.2922C17.9464 46.3256 18.1058 46.325 18.2476 46.2903C18.2727 46.2839 18.2965 46.2728 18.3177 46.2575C18.5825 46.0641 18.7417 45.8202 18.7953 45.5256C18.836 45.3031 18.8086 45.1042 18.713 44.9288C18.5054 44.5468 18.0991 44.4047 17.6736 44.3565C16.8161 44.2587 15.8486 45.0009 15.7111 45.8542C15.632 46.3462 15.6224 46.8163 15.8596 47.2884C16.0867 47.7402 16.4257 48.0785 16.8765 48.3032C17.5386 48.6324 18.2496 48.7454 19.0094 48.6421C19.5146 48.5733 20.1092 48.453 20.5708 48.1868C21.2402 47.8005 21.7186 47.2819 22.0062 46.6311C22.1373 46.334 22.2029 46.0105 22.2929 45.7468C22.3816 45.4858 22.5616 45.3023 22.8329 45.1964C23.0578 45.1085 23.2205 45.0607 23.3208 45.0529C23.5877 45.0319 23.7699 45.0081 23.8672 44.9816Z" fill="#F7E9DA"/>
<path d="M50.0371 52.7597C50.3013 52.7764 50.5758 52.8375 50.8162 52.8414C51.7425 52.8575 52.7897 52.8806 53.597 52.9166C54.2291 52.9445 54.851 52.9544 55.4625 52.9462C56.3367 52.9346 57.2547 53.1436 57.8223 53.8433C57.8891 53.9261 57.9286 54.032 57.9406 54.161C57.9415 54.1709 57.9394 54.1808 57.9346 54.1895C57.9298 54.1982 57.9225 54.2053 57.9136 54.2099C57.8287 54.2528 57.7546 54.2761 57.6912 54.28C56.9564 54.3244 56.0925 54.2781 55.1642 54.2832C52.7659 54.2961 49.9857 54.2723 47.7602 54.2839C46.7651 54.289 44.076 54.2879 39.6928 54.2806C38.762 54.2794 38.0453 54.1951 37.3555 53.6112C37.245 53.5173 37.1704 53.4178 37.1318 53.3128C37.0581 53.1121 36.9767 52.9106 36.8876 52.7083C36.9369 52.4455 37.0256 52.1895 37.1537 51.9404C37.3703 51.5185 37.8164 51.141 38.2645 51.0034C38.798 50.8392 39.3303 50.7599 39.8613 50.7655C40.5542 50.7728 41.2823 50.753 42.0456 50.7063C42.307 50.69 42.5208 50.5867 42.6871 50.3963C43.022 50.013 43.2322 49.6394 42.9262 49.1346C42.6093 48.6124 42.2127 48.5121 41.6007 48.4973C41.1694 48.487 40.7811 48.5043 40.2997 48.4915C39.872 48.4799 39.3766 48.4743 38.8135 48.4747C38.3755 48.4752 38.0245 48.4377 37.7605 48.3622C37.5608 48.3052 37.3622 48.2265 37.1646 48.1262C37.0116 48.049 36.9094 47.9311 36.858 47.7725C36.66 47.1648 37.2418 46.8188 37.7567 46.6529C37.8231 46.6314 38.0177 46.6117 38.3403 46.5937C38.5529 46.5821 38.7477 46.5763 38.9247 46.5763C39.7038 46.5755 41.0848 46.5783 43.0676 46.5847C43.749 46.5866 44.4221 46.5873 44.9749 46.7905C45.3786 46.9392 45.7343 47.1836 46.042 47.5236C46.2605 47.7661 46.3306 48.2059 46.346 48.541C46.3717 49.0947 46.0368 49.7429 45.6036 50.0349C45.4956 50.1076 45.3149 50.2819 45.1414 50.3513C45.015 50.4023 44.9498 50.4323 44.946 50.4413C44.9443 50.446 44.9439 50.451 44.945 50.4558C44.946 50.4606 44.9484 50.465 44.9518 50.4686C44.9552 50.4721 44.9595 50.4747 44.9643 50.4759C44.969 50.4771 44.9741 50.4769 44.9787 50.4754C45.0362 50.4566 45.2078 50.4557 45.4936 50.4729C45.5858 50.4784 45.7578 50.4821 46.0098 50.4838C48.4358 50.5001 50.3799 50.5112 51.8421 50.5172C51.885 50.5177 52.0442 50.541 52.3198 50.5873C52.5615 50.6276 52.7579 50.7312 52.9092 50.8979C53.1631 51.179 52.7472 51.4008 52.5107 51.4388C52.149 51.4971 51.744 51.525 51.2957 51.5224C48.832 51.5082 47.6 51.5012 47.5995 51.5012C46.2629 51.5003 44.9239 51.487 43.5825 51.4613C43.2142 51.4542 42.401 51.6137 42.3818 52.1038C42.3625 52.597 42.9545 52.8041 43.3415 52.8002C43.9477 52.7944 44.5275 52.8195 45.0334 52.8215C46.5419 52.8279 47.9972 52.8339 49.3994 52.8395C49.6386 52.8403 49.8511 52.8137 50.0371 52.7597Z" fill="#F7E9DA"/>
</svg>
