<svg width="16" height="16" viewBox="0 0 16 16" fill="none" xmlns="http://www.w3.org/2000/svg">
<path d="M14.4709 8.47203L9.80485 13.138C9.67485 13.268 9.50416 13.3334 9.3335 13.3334C9.16283 13.3334 8.99214 13.268 8.86214 13.138C8.60148 12.8774 8.60148 12.456 8.86214 12.1953L12.3908 8.66669H2.00016C1.6315 8.66669 1.3335 8.36802 1.3335 8.00002C1.3335 7.63202 1.6315 7.33336 2.00016 7.33336H12.3908L8.86214 3.80471C8.60148 3.54405 8.60148 3.12267 8.86214 2.862C9.12281 2.60134 9.54418 2.60134 9.80485 2.862L14.4709 7.52802C14.5329 7.59002 14.5816 7.6633 14.6156 7.7453C14.6829 7.90797 14.6829 8.09208 14.6156 8.25475C14.5816 8.33675 14.5329 8.41003 14.4709 8.47203Z" fill="#BD0000"/>
</svg>
