<svg width="50" height="78" viewBox="0 0 50 78" fill="none" xmlns="http://www.w3.org/2000/svg">
<path d="M17.5163 38.2433L17.6123 38.1233L17.7803 38.0753C17.9723 38.0753 18.1323 38.1393 18.2603 38.2673C18.4043 38.3953 18.5643 38.4593 18.7403 38.4593C18.8203 38.4593 18.9003 38.4353 18.9803 38.3873C19.0603 38.3553 19.1323 38.3233 19.1963 38.2913C19.6443 38.2913 20.0363 38.2033 20.3723 38.0273C20.7083 37.8673 21.0843 37.7313 21.5003 37.6193L21.6203 37.6673L22.1723 37.2833H22.4843V37.1153L22.5563 37.0433C22.8763 37.0753 23.0683 36.9473 23.1323 36.6593C23.1963 36.5953 23.2683 36.5553 23.3483 36.5393C23.4283 36.5393 23.5083 36.5393 23.5883 36.5393C23.6523 36.4433 23.7483 36.2993 23.8763 36.1073C24.0203 35.9153 24.1643 35.7153 24.3083 35.5073C24.4683 35.3153 24.6283 35.1473 24.7883 35.0033C24.9483 34.8433 25.0843 34.7633 25.1963 34.7633L25.2683 34.6913C25.3003 34.5473 25.3883 34.3953 25.5323 34.2353C25.6763 34.0753 25.8203 33.9713 25.9643 33.9233C26.0603 33.9553 26.1163 33.9153 26.1323 33.8033C26.1483 33.6913 26.1723 33.6113 26.2043 33.5633C26.2683 33.3873 26.3643 33.2113 26.4923 33.0353C26.6203 32.8593 26.7323 32.6913 26.8283 32.5313L26.7323 32.4593C26.5403 32.5393 26.3403 32.6273 26.1323 32.7233C25.9403 32.8033 25.7323 32.8433 25.5083 32.8433C25.2683 32.8433 25.0443 32.7873 24.8363 32.6753C24.6283 32.5633 24.4443 32.4193 24.2843 32.2433C24.1403 32.0513 24.0283 31.8433 23.9483 31.6193C23.8683 31.3793 23.8283 31.1473 23.8283 30.9233C23.8283 30.8113 23.8523 30.7073 23.9003 30.6113L24.0443 30.4913C24.2523 30.4433 24.4683 30.4033 24.6923 30.3713C24.9163 30.3233 25.1083 30.2193 25.2683 30.0593C25.4763 29.9793 25.6843 29.9073 25.8923 29.8433C26.1163 29.7793 26.3243 29.6913 26.5163 29.5793C26.6923 29.5473 26.8363 29.4753 26.9483 29.3633C27.0763 29.2513 27.2283 29.1953 27.4043 29.1953C27.5003 29.0193 27.6283 28.9073 27.7883 28.8593C27.9483 28.8113 28.1163 28.7553 28.2923 28.6913C28.3403 28.5633 28.3723 28.4273 28.3883 28.2833C28.4043 28.1393 28.4123 27.9953 28.4123 27.8513C28.4123 26.8913 28.3803 25.9393 28.3163 24.9953C28.2683 24.0513 28.2603 23.0993 28.2923 22.1393C28.0683 22.3633 27.8603 22.5313 27.6683 22.6433C27.4763 22.7393 27.2203 22.8273 26.9003 22.9073C26.6763 22.8913 26.4923 22.8593 26.3483 22.8113C26.2203 22.7473 26.1083 22.6833 26.0123 22.6193C25.9163 22.5553 25.8123 22.4833 25.7003 22.4033C25.5883 22.3233 25.4443 22.2433 25.2683 22.1633H25.1243C25.0443 22.2593 24.9883 22.3313 24.9563 22.3793C24.9243 22.4273 24.8443 22.4673 24.7163 22.4993L24.5243 22.6913C24.4443 22.9793 24.3163 23.2513 24.1403 23.5073C23.9803 23.7633 23.8043 24.0193 23.6123 24.2753C23.4363 24.5153 23.2523 24.7633 23.0603 25.0193C22.8683 25.2593 22.7083 25.5153 22.5803 25.7873C22.2283 26.4913 21.9003 27.1393 21.5963 27.7313C21.2923 28.3073 21.0203 28.8913 20.7803 29.4833C20.5563 30.0593 20.3803 30.6673 20.2523 31.3073C20.1243 31.9473 20.0603 32.6833 20.0603 33.5153L19.8443 33.8033C19.7163 33.8833 19.5723 33.9393 19.4123 33.9713C19.2683 34.0033 19.1163 34.0193 18.9563 34.0193C18.7643 34.0193 18.5803 33.9553 18.4043 33.8273C18.2283 33.6833 18.0763 33.5153 17.9483 33.3233C17.8203 33.1153 17.7163 32.8993 17.6363 32.6753C17.5723 32.4513 17.5403 32.2513 17.5403 32.0753C17.5403 31.8353 17.5723 31.6033 17.6363 31.3793C17.7163 31.1393 17.7963 30.9073 17.8763 30.6833C17.9723 30.4433 18.0523 30.2113 18.1163 29.9873C18.1963 29.7473 18.2363 29.5073 18.2363 29.2673C18.2363 29.0113 18.1883 28.7313 18.0923 28.4273C18.0123 28.1073 17.8843 27.8513 17.7083 27.6593C17.5643 27.5793 17.4043 27.5473 17.2283 27.5633C17.0683 27.5633 16.9083 27.5313 16.7483 27.4673C16.6043 27.4033 16.4603 27.2993 16.3163 27.1553C16.1723 27.0113 16.0443 26.8433 15.9323 26.6513C15.8203 26.4593 15.7243 26.2673 15.6443 26.0753C15.5803 25.8833 15.5483 25.7073 15.5483 25.5473L15.5723 25.3073L15.6443 25.1633L15.7403 25.1393L16.0523 25.2353L16.1723 25.2113L16.2923 25.1153H16.5083C16.5883 25.1153 16.6683 25.1393 16.7483 25.1873C16.8443 25.2193 16.9243 25.2593 16.9883 25.3073H17.1563C17.1883 25.3073 17.2443 25.2913 17.3243 25.2593C17.4203 25.2113 17.5083 25.1633 17.5883 25.1153C17.6843 25.0673 17.7643 25.0273 17.8283 24.9953C17.9083 24.9473 17.9483 24.9233 17.9483 24.9233C17.9483 24.8593 17.9803 24.8273 18.0443 24.8273C18.1243 24.8113 18.1803 24.8033 18.2123 24.8033C18.3563 24.8033 18.4683 24.7473 18.5483 24.6353C18.6283 24.5073 18.7323 24.4433 18.8603 24.4433C18.9083 24.3953 18.9723 24.3233 19.0523 24.2273C19.1323 24.1313 19.2123 24.0273 19.2923 23.9153C19.3723 23.8033 19.4363 23.6993 19.4843 23.6033C19.5483 23.5073 19.5803 23.4273 19.5803 23.3633C19.5803 23.1393 19.5243 22.9313 19.4123 22.7393C19.3163 22.5473 19.2683 22.3393 19.2683 22.1153L19.2923 21.8993L19.3643 21.8033H19.4843C19.6123 21.8033 19.7483 21.8513 19.8923 21.9473C20.0363 22.0273 20.1883 22.1233 20.3483 22.2353C20.5243 22.3313 20.6923 22.4273 20.8523 22.5233C21.0283 22.6033 21.2043 22.6433 21.3803 22.6433L21.5483 22.8113C21.7083 22.8433 21.8363 22.8913 21.9323 22.9553C22.0443 23.0033 22.1643 23.0833 22.2923 23.1953L22.4843 23.8913C22.3883 24.1473 22.1643 24.3473 21.8123 24.4913C21.4603 24.6353 21.0763 24.7793 20.6603 24.9233C20.2603 25.0513 19.8683 25.2033 19.4843 25.3793C19.1163 25.5553 18.8603 25.7873 18.7163 26.0753C18.9243 26.2673 19.0843 26.5073 19.1963 26.7953C19.3243 27.0833 19.4203 27.3873 19.4843 27.7073C19.5483 28.0113 19.5963 28.3233 19.6283 28.6433C19.6763 28.9633 19.7243 29.2593 19.7723 29.5313C19.9323 29.2753 20.0923 29.0193 20.2523 28.7633C20.4123 28.5073 20.5563 28.2433 20.6843 27.9713C20.7643 27.9393 20.8283 27.8833 20.8763 27.8033C20.9243 27.7233 20.9643 27.6433 20.9963 27.5633C20.9963 27.5313 21.0683 27.3793 21.2123 27.1073C21.3723 26.8193 21.5403 26.5153 21.7163 26.1953C21.9083 25.8753 22.0843 25.5793 22.2443 25.3073C22.4043 25.0353 22.5003 24.8833 22.5323 24.8513C22.5483 24.7553 22.5723 24.6673 22.6043 24.5873C22.6523 24.4913 22.6763 24.4033 22.6763 24.3233C23.0763 24.0033 23.4043 23.5713 23.6603 23.0273C23.9163 22.4833 24.1243 21.9473 24.2843 21.4193C24.4603 20.8913 24.5883 20.4273 24.6683 20.0273C24.7643 19.6273 24.8363 19.4113 24.8843 19.3793C24.9323 19.3953 25.0043 19.4353 25.1003 19.4993C25.1963 19.5473 25.3003 19.6033 25.4123 19.6673C25.5243 19.7153 25.6203 19.7713 25.7003 19.8353C25.7803 19.8833 25.8283 19.9233 25.8443 19.9553C26.0683 20.1313 26.3403 20.2193 26.6603 20.2193C26.7243 20.2193 26.7883 20.2513 26.8523 20.3153C26.9163 20.3793 26.9723 20.4593 27.0203 20.5553C27.0843 20.6353 27.1403 20.7233 27.1883 20.8193C27.2523 20.8993 27.3003 20.9633 27.3323 21.0113C27.5243 21.0913 27.7003 21.1313 27.8603 21.1313L27.9083 20.9393H28.0523L28.2203 20.8433L28.2443 20.5553C28.2443 20.2193 28.1963 19.8833 28.1003 19.5473C28.0203 19.2113 27.9323 18.8753 27.8363 18.5393C27.7403 18.2033 27.6443 17.8753 27.5483 17.5553C27.4683 17.2193 27.4283 16.8833 27.4283 16.5473V16.3793L27.5483 16.2113L27.7163 16.1873C28.0683 16.2833 28.4203 16.4353 28.7723 16.6433C29.1243 16.8353 29.4603 17.0193 29.7803 17.1953C29.8763 17.2433 30.0043 17.4433 30.1643 17.7953C30.3243 18.1313 30.4923 18.4993 30.6683 18.8993C30.8603 19.2993 31.0443 19.6673 31.2203 20.0033C31.3963 20.3393 31.5403 20.5153 31.6523 20.5313C31.7323 20.4033 31.8523 20.3153 32.0123 20.2673C32.1883 20.2033 32.3723 20.1473 32.5643 20.0993C32.7563 20.0513 32.9403 20.0033 33.1163 19.9553C33.2923 19.8913 33.4283 19.7953 33.5243 19.6673C33.6043 19.5393 33.6763 19.4193 33.7403 19.3073C33.8043 19.1953 33.9003 19.0913 34.0283 18.9953C34.0603 19.0593 34.1003 19.1313 34.1483 19.2113C34.2123 19.2753 34.2843 19.3073 34.3643 19.3073C34.5563 19.3873 34.7643 19.4673 34.9883 19.5473C35.2123 19.6113 35.4203 19.6993 35.6123 19.8113C35.8203 19.9073 35.9963 20.0353 36.1403 20.1953C36.3003 20.3553 36.4043 20.5553 36.4523 20.7953L36.3563 21.1313C36.2603 21.2273 36.1243 21.3153 35.9483 21.3953C35.7723 21.4593 35.5883 21.5153 35.3963 21.5633C35.2043 21.6113 35.0123 21.6513 34.8203 21.6833C34.6443 21.6993 34.4843 21.7073 34.3403 21.7073C34.2283 21.7073 34.1323 21.6913 34.0523 21.6593C33.9723 21.6273 33.8923 21.5873 33.8123 21.5393C33.7163 21.4113 33.6043 21.2593 33.4763 21.0833C33.3643 20.8913 33.2443 20.7553 33.1163 20.6753C32.9083 20.7073 32.6923 20.7473 32.4683 20.7953C32.2603 20.8273 32.0603 20.8833 31.8683 20.9633L31.8443 21.0593L33.1883 24.1073C33.2683 24.2833 33.3883 24.4353 33.5483 24.5633C33.7243 24.6753 33.8603 24.8193 33.9563 24.9953C34.0843 25.2513 34.1723 25.5153 34.2203 25.7873C34.2843 26.0593 34.3963 26.3233 34.5563 26.5793C34.6523 26.7393 34.7963 26.9313 34.9883 27.1553C35.1803 27.3633 35.3643 27.5793 35.5403 27.8033C35.7163 28.0273 35.8683 28.2513 35.9963 28.4753C36.1403 28.6993 36.2123 28.9073 36.2123 29.0993C36.2123 29.1793 36.1963 29.2673 36.1643 29.3633C35.9083 29.6033 35.5083 29.7793 34.9643 29.8913C34.4203 29.9873 33.8283 30.0673 33.1883 30.1313C32.5643 30.1953 31.9403 30.2753 31.3163 30.3713C30.7083 30.4513 30.2123 30.5953 29.8283 30.8033C29.7323 30.8513 29.6603 31.0353 29.6123 31.3553C29.5803 31.6753 29.5483 32.0353 29.5163 32.4353C29.5003 32.8193 29.4923 33.1953 29.4923 33.5633C29.4923 33.9153 29.4923 34.1553 29.4923 34.2833C29.0763 34.6993 28.7323 35.1153 28.4603 35.5313C28.2043 35.9473 27.9163 36.3793 27.5963 36.8273C27.5163 36.9393 27.3003 37.0433 26.9483 37.1393C26.5963 37.2513 26.1723 37.3713 25.6763 37.4993C25.1803 37.6273 24.6443 37.7633 24.0683 37.9073C23.4923 38.0673 22.9323 38.2513 22.3883 38.4593C21.8443 38.6673 21.3483 38.8993 20.9003 39.1553C20.4683 39.4273 20.1403 39.7393 19.9163 40.0913C19.6283 40.2673 19.2843 40.3553 18.8843 40.3553C18.7083 40.3553 18.5323 40.2833 18.3563 40.1393C18.1963 39.9953 18.0523 39.8193 17.9243 39.6113C17.7963 39.4193 17.6923 39.2113 17.6123 38.9873C17.5323 38.7633 17.4923 38.5713 17.4923 38.4113L17.5163 38.2433ZM32.0363 29.3153C32.1963 29.1873 32.4043 29.0433 32.6603 28.8833C32.9163 28.7073 33.1483 28.6193 33.3563 28.6193C33.4843 28.5553 33.5563 28.3953 33.5723 28.1393C33.6043 27.8673 33.6203 27.6673 33.6203 27.5393C33.6203 27.4113 33.6043 27.2753 33.5723 27.1313C33.5403 26.9713 33.4843 26.8353 33.4043 26.7233L33.3083 26.7473C33.0683 26.9233 32.8283 27.1233 32.5883 27.3473C32.3643 27.5553 32.1403 27.7713 31.9163 27.9953C31.6923 28.2033 31.4523 28.4113 31.1963 28.6193C30.9563 28.8113 30.7003 28.9633 30.4283 29.0753C30.3803 29.1233 30.3243 29.1953 30.2603 29.2913C30.2123 29.3873 30.1643 29.4993 30.1163 29.6273C30.0683 29.7393 30.0283 29.8513 29.9963 29.9633C29.9643 30.0593 29.9483 30.1393 29.9483 30.2033H29.9963C30.2043 30.1233 30.4123 30.0673 30.6203 30.0353C30.8443 30.0033 31.0603 29.9473 31.2683 29.8673C31.4123 29.8193 31.5403 29.7153 31.6523 29.5553C31.7643 29.3953 31.8923 29.3153 32.0363 29.3153ZM31.4363 25.0913C31.4363 24.8513 31.3643 24.6353 31.2203 24.4433C31.0923 24.2353 31.0283 24.0113 31.0283 23.7713L31.0523 23.5793L31.1483 23.4593H31.2443C31.2923 23.4593 31.3723 23.4913 31.4843 23.5553C31.5963 23.6193 31.7163 23.6913 31.8443 23.7713C31.9883 23.8513 32.1163 23.9313 32.2283 24.0113C32.3563 24.0913 32.4603 24.1393 32.5403 24.1553C32.5083 24.0433 32.4283 23.8353 32.3003 23.5313C32.1883 23.2113 32.0523 22.8833 31.8923 22.5473C31.7323 22.1953 31.5723 21.8833 31.4123 21.6113C31.2683 21.3233 31.1563 21.1553 31.0763 21.1073H30.9803C30.9323 21.1073 30.8763 21.1153 30.8123 21.1313C30.7483 21.1473 30.6923 21.1633 30.6443 21.1793L30.5483 21.2993L30.5243 21.5633C30.5243 21.7553 30.5483 21.9393 30.5963 22.1153C30.6603 22.2913 30.7003 22.4753 30.7163 22.6673C30.7483 23.0993 30.7643 23.5393 30.7643 23.9873C30.7643 24.4193 30.7643 24.8513 30.7643 25.2833V26.1713C30.8923 26.0433 31.0363 25.8753 31.1963 25.6673C31.3563 25.4593 31.4363 25.2673 31.4363 25.0913ZM30.1883 19.5473V19.5953C30.1883 19.7393 30.2203 19.9393 30.2843 20.1953C30.3643 20.4513 30.4523 20.6273 30.5483 20.7233L30.6683 20.7473L30.7643 20.6033C30.7643 20.5393 30.7403 20.4593 30.6923 20.3633C30.6603 20.2513 30.6123 20.1393 30.5483 20.0273C30.5003 19.9153 30.4363 19.8193 30.3563 19.7393C30.2923 19.6433 30.2363 19.5793 30.1883 19.5473ZM32.0843 34.9793L32.0603 34.8353H32.2043C32.3643 34.8353 32.5243 34.9153 32.6843 35.0753C32.8443 35.2193 33.0123 35.3793 33.1883 35.5553C33.3803 35.7313 33.5803 35.8833 33.7883 36.0113C34.0123 36.1553 34.2443 36.2193 34.4843 36.2033L34.6283 36.0833L34.6523 35.7233C34.5563 35.4513 34.4123 35.2353 34.2203 35.0753C34.0443 34.8993 33.8603 34.7313 33.6683 34.5713C33.4763 34.3953 33.2843 34.1953 33.0923 33.9713C32.9163 33.7473 32.7803 33.4273 32.6843 33.0113L32.7323 32.6513H32.9243C32.9563 32.6513 33.0203 32.6753 33.1163 32.7233C33.2123 32.7553 33.3083 32.8033 33.4043 32.8673C33.5163 32.9313 33.6123 32.9953 33.6923 33.0593C33.7883 33.1073 33.8523 33.1473 33.8843 33.1793C35.0523 33.4993 35.9003 34.0033 36.4283 34.6913C36.9563 35.3793 37.2203 36.3313 37.2203 37.5473C37.2203 37.9793 37.1003 38.2513 36.8603 38.3633C36.6203 38.4913 36.3163 38.5553 35.9483 38.5553C35.6763 38.5553 35.3483 38.4113 34.9643 38.1233C34.5963 37.8353 34.2203 37.4913 33.8363 37.0913C33.4523 36.6913 33.1003 36.2913 32.7803 35.8913C32.4603 35.5073 32.2283 35.2033 32.0843 34.9793ZM25.0283 26.7473C25.0283 26.7153 25.0443 26.6353 25.0763 26.5073C25.1243 26.3793 25.1723 26.2433 25.2203 26.0993C25.2683 25.9393 25.3163 25.7953 25.3643 25.6673C25.4123 25.5233 25.4443 25.4353 25.4603 25.4033H25.5803L25.9163 25.5473C25.9803 25.6593 26.0843 25.7553 26.2283 25.8353C26.3883 25.9153 26.5483 25.9873 26.7083 26.0513C26.8843 26.1153 27.0523 26.1793 27.2123 26.2433C27.3883 26.2913 27.5323 26.3473 27.6443 26.4113L27.8123 26.6513L27.8603 26.9873L27.5483 28.1873L27.3083 28.4993C27.2763 28.5153 27.1963 28.5473 27.0683 28.5953C26.9403 28.6273 26.8603 28.6433 26.8283 28.6433H26.2763L25.8203 28.4273C25.6123 28.2033 25.4283 27.9473 25.2683 27.6593C25.1083 27.3713 25.0283 27.0673 25.0283 26.7473ZM30.2363 57.8513L30.3083 57.7793C30.5003 57.8593 30.6843 57.9873 30.8603 58.1633C31.0523 58.3233 31.2363 58.5073 31.4123 58.7153C31.6043 58.9073 31.7883 59.0993 31.9643 59.2913C32.1563 59.4673 32.3643 59.6033 32.5883 59.6993L32.6603 59.6033C32.6283 59.3313 32.4603 58.9553 32.1563 58.4753C31.8523 57.9953 31.4923 57.5313 31.0763 57.0833C30.6763 56.6193 30.2603 56.2193 29.8283 55.8833C29.3963 55.5473 29.0363 55.3793 28.7483 55.3793C28.7483 55.4273 28.6923 55.4993 28.5803 55.5953C28.4843 55.6753 28.3723 55.7633 28.2443 55.8593C28.1323 55.9553 28.0123 56.0433 27.8843 56.1233C27.7723 56.2033 27.6923 56.2673 27.6443 56.3153C27.1803 56.7313 26.7323 57.1473 26.3003 57.5633C25.8843 57.9633 25.4363 58.3233 24.9563 58.6433C24.4923 58.9633 23.9883 59.2193 23.4443 59.4113C22.9163 59.6193 22.3083 59.7233 21.6203 59.7233C21.2683 59.7233 20.9083 59.6033 20.5403 59.3633C20.1883 59.1393 19.8443 58.8433 19.5083 58.4753C19.1883 58.1073 18.8843 57.6913 18.5963 57.2273C18.3243 56.7473 18.0843 56.2673 17.8763 55.7873C17.6683 55.3073 17.5003 54.8513 17.3723 54.4193C17.2603 53.9713 17.2043 53.5873 17.2043 53.2673C17.2043 52.6753 17.3163 52.2193 17.5403 51.8993C17.7803 51.5633 18.0843 51.3153 18.4523 51.1553C18.8203 50.9793 19.2443 50.8753 19.7243 50.8433C20.2043 50.7953 20.6843 50.7713 21.1643 50.7713C21.2763 50.7713 21.4043 50.7793 21.5483 50.7953C21.7083 50.7953 21.8443 50.8193 21.9563 50.8673C22.2923 50.8353 22.6763 50.9153 23.1083 51.1073C23.5563 51.2993 24.0123 51.5153 24.4763 51.7553C24.9403 51.9953 25.4043 52.2193 25.8683 52.4273C26.3323 52.6193 26.7563 52.7153 27.1403 52.7153L27.2123 52.6673C27.3883 52.2513 27.5963 51.8433 27.8363 51.4433C28.0923 51.0433 28.3483 50.6513 28.6043 50.2673C28.6523 50.0433 28.7563 49.7393 28.9163 49.3553C29.0763 48.9713 29.2443 48.5713 29.4203 48.1553C29.5963 47.7393 29.7723 47.3313 29.9483 46.9313C30.1403 46.5313 30.2843 46.1953 30.3803 45.9233L30.3563 45.8033C30.2603 45.6913 30.1563 45.5633 30.0443 45.4193C29.9323 45.2753 29.8283 45.1313 29.7323 44.9873C29.6363 44.8273 29.5483 44.6673 29.4683 44.5073C29.4043 44.3313 29.3723 44.1713 29.3723 44.0273L29.3963 43.6193L29.5403 43.4753C29.7803 43.6353 30.1003 43.8193 30.5003 44.0273C30.9163 44.2353 31.3163 44.4673 31.7003 44.7233C32.1003 44.9793 32.4443 45.2593 32.7323 45.5633C33.0363 45.8673 33.1883 46.1873 33.1883 46.5233C33.1883 46.5553 33.1723 46.6113 33.1403 46.6913C33.1243 46.7713 33.1083 46.8273 33.0923 46.8593C32.8843 47.0513 32.7643 47.2113 32.7323 47.3393C32.7003 47.4673 32.6523 47.6593 32.5883 47.9153C32.4603 48.0753 32.3243 48.2913 32.1803 48.5633C32.0523 48.8193 32.0043 49.0513 32.0363 49.2593L32.0603 49.2833C32.0603 49.5713 31.9483 49.9153 31.7243 50.3153C31.5163 50.7153 31.2763 51.1313 31.0043 51.5633C30.7323 51.9953 30.4683 52.4193 30.2123 52.8353C29.9563 53.2353 29.7963 53.5793 29.7323 53.8673L29.7803 53.9873C30.0043 54.1793 30.2443 54.3313 30.5003 54.4433C30.7563 54.5553 30.9963 54.6993 31.2203 54.8753C31.6203 55.1793 32.0603 55.5633 32.5403 56.0273C33.0203 56.4913 33.4603 56.9953 33.8603 57.5393C34.2763 58.0833 34.6203 58.6513 34.8923 59.2433C35.1643 59.8193 35.3003 60.3713 35.3003 60.8993C35.3003 61.2193 35.2443 61.4513 35.1323 61.5953C35.0363 61.7393 34.8683 61.9073 34.6283 62.0993C34.5643 62.1153 34.4763 62.1393 34.3643 62.1713C34.2683 62.2033 34.1963 62.2193 34.1483 62.2193C33.7803 62.2193 33.4043 62.0433 33.0203 61.6913C32.6363 61.3553 32.2683 60.9473 31.9163 60.4673C31.5803 60.0033 31.2603 59.5233 30.9563 59.0273C30.6683 58.5313 30.4283 58.1393 30.2363 57.8513ZM26.0363 54.0353C26.0043 53.9873 25.7723 53.8753 25.3403 53.6993C24.9083 53.5073 24.4283 53.3153 23.9003 53.1233C23.3723 52.9313 22.8763 52.7633 22.4123 52.6193C21.9483 52.4593 21.6683 52.3793 21.5723 52.3793C21.2363 52.3793 20.9083 52.4433 20.5883 52.5713C20.2683 52.6833 19.9883 52.8513 19.7483 53.0753C19.5083 53.2833 19.3163 53.5313 19.1723 53.8193C19.0283 54.1073 18.9563 54.4193 18.9563 54.7553C18.9563 55.3153 19.0683 55.8593 19.2923 56.3873C19.5323 56.8993 19.8923 57.3233 20.3723 57.6593L20.6363 57.6833C21.1963 57.6833 21.6763 57.5953 22.0763 57.4193C22.4923 57.2273 22.8763 56.9873 23.2283 56.6993C23.5803 56.4113 23.9163 56.0993 24.2363 55.7633C24.5563 55.4273 24.9003 55.1073 25.2683 54.8033C25.3963 54.6913 25.5243 54.5713 25.6523 54.4433C25.7803 54.2993 25.9083 54.1633 26.0363 54.0353ZM23.9483 48.8753C24.0283 48.7473 24.1243 48.6273 24.2363 48.5153C24.3483 48.3873 24.4683 48.2673 24.5963 48.1553C24.2443 47.9793 23.9323 47.6993 23.6603 47.3153C23.4043 46.9313 23.2763 46.5393 23.2763 46.1393L23.3003 45.8993L23.4203 45.7793L23.8523 45.9953C23.9963 46.0113 24.1483 46.0593 24.3083 46.1393C24.4683 46.2033 24.6203 46.2513 24.7643 46.2833L24.8363 46.2593C24.9803 46.2593 25.1723 46.3153 25.4123 46.4273C25.6683 46.5393 25.9323 46.6673 26.2043 46.8113C26.4923 46.9553 26.7643 47.0833 27.0203 47.1953C27.2763 47.3073 27.4763 47.3633 27.6203 47.3633L27.7163 47.4353C27.7963 47.5633 27.8603 47.6913 27.9083 47.8193C27.9563 47.9313 27.9803 48.0593 27.9803 48.2033C27.9803 48.2993 27.8363 48.4433 27.5483 48.6353C27.2603 48.8113 26.9323 48.9873 26.5643 49.1633C26.2123 49.3393 25.8603 49.4993 25.5083 49.6433C25.1723 49.7713 24.9483 49.8353 24.8363 49.8353L24.5483 49.8113C24.3883 49.7313 24.2443 49.6193 24.1163 49.4753C24.0043 49.3313 23.9483 49.1713 23.9483 48.9953V48.8753Z" fill="#BD0000"/>
<path d="M2.00046 23.6094C2.91535 21.1678 1.17614 18.7893 2.21871 15.5637C2.62951 14.3232 3.09778 13.5276 3.55553 12.816C4.30765 11.7571 4.75245 10.8507 5.93002 8.3686C6.68356 6.88399 7.92818 5.70182 9.04828 4.90751C10.8783 3.59156 12.6655 2.70414 13.5321 1.92143C14.9598 0.709795 15.6345 1.7711 18.006 0.822779C18.9599 0.48476 19.8479 0.348042 20.6832 0.361237C21.6964 0.381173 22.6911 0.479528 23.9492 0.690784C25.1557 0.940952 27.989 0.846528 30.5386 1.97225C31.6963 2.44021 33.4036 2.3108 34.3805 2.2888C35.3129 2.23764 36.6386 2.53122 37.4707 3.71815C37.9905 4.58993 39.0701 5.80688 39.5218 6.74536C39.7787 7.22702 39.8354 7.70533 39.7659 8.03216C39.7376 8.17234 39.646 8.23126 39.5603 8.23073C39.5602 8.23073 39.5601 8.23073 39.5601 8.23073C39.4516 8.22863 39.3498 8.15146 39.3179 8.02236C39.1795 7.3518 38.316 6.69604 37.0473 6.14603C36.4773 5.88242 36.0227 5.60212 35.6387 5.18376C35.2131 4.85641 34.7014 4.22405 32.0911 4.30521C31.3162 4.2996 30.5593 4.34213 29.6145 4.05154C27.8262 3.70826 26.1769 4.12152 23.0795 3.91051C22.1785 3.85006 21.4142 3.90501 20.6832 3.9853C18.7462 4.39079 18.0384 5.42123 14.263 6.70302C13.1317 7.12416 12.2972 7.64673 11.6526 8.18152C9.66199 10.0325 10.5106 10.9125 9.60862 14.6869C9.58691 14.7807 9.56443 14.8763 9.54113 14.9737C8.68879 18.4496 7.53872 22.9799 6.53283 26.5922C6.16689 27.86 5.9523 29.0329 5.89436 29.9366C5.67294 33.1033 5.97065 37.4518 5.92663 42.2089C5.91578 43.0405 5.93864 43.9089 5.97822 44.8066C6.08837 47.5666 6.75634 50.7453 6.74649 54.1781C6.7383 55.3884 6.79559 56.5773 6.87972 57.7443C7.03781 60.5321 8.14244 64.0037 9.79274 66.7518C10.7041 68.3986 12.1869 69.4729 13.2962 70.0885C16.1571 71.5291 17.1349 71.6331 20.3529 71.5444C22.2183 71.461 24.8219 71.4965 27.0647 72.0087C28.1873 72.2756 27.9273 72.6552 26.817 72.8512C25.1914 73.1471 23.8387 73.0124 22.9915 73.4987C21.2963 74.4641 20.5064 74.8563 18.2903 74.1445C16.1183 73.3991 14.8212 74.4031 13.4471 73.8675C12.7975 73.5946 12.5239 73.2936 11.6427 72.7681C10.8158 72.1808 9.10851 71.6146 6.76155 68.9563C6.63476 68.8075 6.50563 68.6542 6.37281 68.4937C2.01745 63.106 1.42353 58.8142 1.02418 56.2187C0.951097 55.6565 0.921366 54.9604 0.946093 54.1781C1.06847 51.8659 0.954587 48.2617 0.64631 45.0436C0.639707 44.9753 0.632831 44.9073 0.625675 44.8394C0.180198 41.0044 0.0998452 32.8748 0.164416 29.4137C0.138219 27.2367 0.543693 26.4426 1.05095 25.5197C1.33984 25.0427 1.6664 24.5062 2.00046 23.6094Z" fill="#BD0000"/>
<path d="M47.0533 20.7706C46.6596 21.2143 48.7374 21.1534 48.5275 21.6539C48.3168 22.1535 47.2516 22.3988 47.5768 22.8716C47.9023 23.3484 47.2427 23.9775 47.7199 24.1412C48.1976 24.3074 46.8596 24.5266 47.2037 24.8094C47.5476 25.0947 47.3993 25.3211 46.9988 25.6634C46.6004 26.0082 46.325 26.9163 46.8892 27.1974C47.4579 27.4854 46.5438 27.9415 46.3252 28.1665C46.2576 28.2402 46.1632 28.2976 46.0645 28.3383C46.0227 28.3556 45.935 28.3633 45.8485 28.3633C45.8484 28.3633 45.8484 28.3633 45.8483 28.3633C45.7406 28.3632 45.6347 28.3518 45.621 28.3312C45.5546 28.2297 45.3763 28.0725 44.9769 27.9191C44.2306 27.6358 45.0317 27.5449 44.6164 27.12C44.1982 26.697 43.4245 26.5223 43.8356 25.9239C44.2429 25.3147 42.2223 25.4785 43.2444 24.5511C44.2613 23.6091 42.1553 23.8526 41.7533 23.1456C41.4659 22.6419 41.8823 21.9041 42.079 21.3697C42.1509 21.1146 42.1946 20.906 42.1439 20.7621C41.9668 20.2615 41.6374 19.638 41.8242 18.9601C42.0094 18.2694 41.1979 17.6559 41.5469 16.9495C41.9033 16.2291 42.2286 15.1965 42.4322 14.6283C42.6432 14.066 42.6643 13.8962 42.2323 13.6627C41.9817 13.5293 41.9351 13.2043 42.1817 12.6343C42.3044 12.3468 42.6179 12.1261 42.8685 12.1507C43.2349 12.1889 43.2058 12.4634 43.6778 12.3122C44.6246 12.0181 45.0307 11.9773 44.7247 12.571C44.4052 13.146 45.6052 12.736 45.572 13.0088C45.5265 13.2793 44.8679 13.5418 45.7564 14.3362C46.6337 15.1653 46.8873 15.7173 47.1051 16.0661C47.3243 16.4295 46.8248 17.3167 47.137 17.8517C47.4555 18.4052 47.3875 19.5441 47.8282 19.8706C48.1065 20.0829 47.8786 20.2031 47.5723 20.3709C47.3973 20.4784 47.1969 20.6051 47.0533 20.7706Z" fill="#BD0000"/>
<path d="M48.3525 65.0767C47.4963 66.0623 48.2343 67.5445 47.7411 68.7812C47.7079 68.9178 47.6364 69.0516 47.5082 69.181C46.656 70.0842 45.5898 69.8538 44.997 71.5272C44.3933 73.2735 42.5668 74.5648 42.0216 75.5539C41.3981 76.6003 40.5961 75.6276 39.2865 76.3582C38.7831 76.599 38.3028 76.6913 37.8643 76.6894C37.5685 76.692 37.3748 76.5426 36.7636 76.4804C35.9853 76.4845 33.266 77.0221 31.9517 77.1751C31.6654 77.2158 31.382 77.2067 31.1442 77.1856C28.8742 76.5875 29.5562 74.6034 29.4297 73.9703C29.4068 73.7386 29.4248 73.5449 29.4569 73.3839C29.4704 73.3154 29.5374 73.2538 29.6147 73.2149C29.6147 73.2149 29.6148 73.2148 29.6148 73.2148C29.711 73.1665 29.8247 73.1562 29.8707 73.2213C30.0898 73.5222 30.4529 73.9915 31.0548 74.3456C31.9971 74.8191 31.744 75.2147 31.9517 75.1607C32.0949 75.1449 32.2437 75.1147 32.4125 75.063C33.9835 74.5672 33.7288 73.7785 36.1418 73.3308C36.7931 73.2421 37.3604 73.1375 37.8643 73.0374C38.5819 72.6003 37.9764 72.0585 39.4794 71.7669C41.7086 70.7559 39.9044 69.335 40.8942 66.8336C41.1331 66.2461 41.4811 65.6138 41.985 64.9438C43.3177 63.2925 44.3407 62.4666 44.1612 61.7676C43.9941 60.853 43.1802 58.2363 43.4689 55.8573C43.4773 55.7793 43.4864 55.7011 43.4961 55.6228C43.7755 53.3649 43.0701 50.5776 43.5687 48.0853C44.0674 45.593 44.6972 42.0694 45.1192 40.4416C45.5412 38.8138 45.6364 38.417 45.3785 36.8502C45.2303 35.9495 45.37 34.7088 45.9151 33.6609C46.1895 33.1334 46.5715 33.2529 46.7543 33.7838C47.0215 34.5601 46.843 35.1974 47.3204 35.5974C48.2744 36.3966 48.6404 36.7363 48.0851 37.7453C47.5299 38.7543 48.7918 39.2297 48.6465 39.8179C48.5012 40.4061 47.7569 40.3964 48.3304 43.3871C48.9038 46.3778 49.0502 48.0173 49.1878 49.1499C49.3255 50.2824 48.6795 52.6473 48.9127 54.4931C48.9613 54.8776 48.9904 55.3448 49.0097 55.8573C49.0311 57.6537 49.4172 59.5419 49.899 61.3391C50.3455 63.6566 49.2957 63.8473 48.3525 65.0767Z" fill="#BD0000"/>
</svg>
