<svg width="120" height="40" viewBox="0 0 120 40" fill="none" xmlns="http://www.w3.org/2000/svg">
<path d="M10.0009 28.0083L10.0298 27.7771L10.1165 27.7482C10.6753 27.9023 11.1571 28.0372 11.5617 28.1528C11.9857 28.2684 12.5059 28.3262 13.1226 28.3262C13.3538 28.3262 13.5754 28.3262 13.7874 28.3262C14.0186 28.3262 14.2498 28.3166 14.4811 28.2973L14.5389 28.2395L17.1114 27.199C17.1499 27.1026 17.1884 27.0545 17.227 27.0545C17.2848 27.0737 17.3522 27.0834 17.4293 27.0834C17.8147 27.0834 18.123 26.9003 18.3543 26.5342C18.6048 26.1873 18.8071 25.7345 18.9612 25.1757C19.1154 24.6169 19.2214 23.9906 19.2792 23.2969C19.3563 22.6225 19.4044 21.9673 19.4237 21.3314C19.443 20.6762 19.443 20.0885 19.4237 19.5682C19.4237 19.0287 19.4237 18.6337 19.4237 18.3832C19.4237 18.2675 19.4141 18.1519 19.3948 18.0363C19.3948 17.9014 19.3852 17.7762 19.3659 17.6605H19.3081C18.9998 17.6605 18.624 17.7665 18.1808 17.9785C17.7376 18.1905 17.2848 18.4217 16.8223 18.6722C16.3599 18.9034 15.907 19.125 15.4638 19.337C15.0206 19.549 14.6449 19.6549 14.3365 19.6549C14.0475 19.6549 13.7874 19.5682 13.5561 19.3948C13.3249 19.2214 13.1322 19.0094 12.978 18.7589C12.8432 18.4891 12.7372 18.2097 12.6601 17.9207C12.583 17.6124 12.5445 17.333 12.5445 17.0825V16.9668C12.6216 16.9668 12.7853 16.9476 13.0359 16.909C13.2864 16.8705 13.5369 16.8223 13.7874 16.7645C14.0379 16.6874 14.2595 16.6104 14.4522 16.5333C14.6449 16.4562 14.7316 16.3791 14.7123 16.302L14.8279 16.0997L15.3771 15.7529C15.512 15.7336 15.6083 15.6854 15.6661 15.6083C15.7432 15.512 15.8107 15.4253 15.8685 15.3482C15.9263 15.2519 15.9937 15.1748 16.0708 15.117C16.1672 15.0399 16.2924 15.0013 16.4466 15.0013L16.5333 14.8279L16.8512 14.7123C17.0054 14.7316 17.1403 14.7797 17.2559 14.8568C17.3715 14.9146 17.4968 14.9724 17.6316 15.0302L17.6027 14.4522C17.7184 14.3751 17.8918 14.2787 18.123 14.1631C18.3735 14.0282 18.624 13.8837 18.8745 13.7296C19.125 13.5754 19.3466 13.4116 19.5393 13.2382C19.732 13.0648 19.8284 12.901 19.8284 12.7468H19.7995C19.6453 12.7468 19.5008 12.7757 19.3659 12.8335C19.2503 12.8913 19.1154 12.9202 18.9612 12.9202C18.4602 12.9202 17.9689 12.8239 17.4871 12.6312C17.0054 12.4192 16.514 12.3132 16.013 12.3132C15.6661 12.3132 15.3578 12.3903 15.0881 12.5445C14.8376 12.6986 14.5871 12.8624 14.3365 13.0359C14.086 13.2093 13.8163 13.3731 13.5272 13.5272C13.2575 13.6814 12.9491 13.7585 12.6023 13.7585C12.294 13.7585 12.0146 13.6814 11.7641 13.5272C11.5328 13.3538 11.3305 13.1418 11.1571 12.8913C10.9836 12.6408 10.8488 12.3711 10.7524 12.082C10.6753 11.7737 10.6368 11.4847 10.6368 11.2149L10.7235 10.9836C10.9547 10.8873 11.2823 10.8391 11.7063 10.8391C12.1495 10.8199 12.6023 10.8102 13.0648 10.8102C13.5272 10.8102 13.9512 10.8006 14.3365 10.7813C14.7412 10.762 15.0206 10.7042 15.1748 10.6079H15.6951C15.9263 10.5115 16.1961 10.4152 16.5044 10.3188C16.8127 10.2032 17.0921 10.1454 17.3426 10.1454L17.5738 10.0587C17.6316 10.0009 17.7473 9.76003 17.9207 9.3361C18.1134 8.91217 18.3061 8.45933 18.4988 7.9776C18.7107 7.47659 18.8938 7.01412 19.048 6.59019C19.2021 6.16626 19.2792 5.92539 19.2792 5.86758L19.2214 5.80977L19.0769 5.78087C18.8071 5.85794 18.5469 5.96393 18.2964 6.09881C18.0459 6.2337 17.7954 6.37822 17.5449 6.53238C17.2944 6.66726 17.0343 6.79252 16.7645 6.90813C16.514 7.00448 16.2442 7.05266 15.9552 7.05266C15.5698 7.05266 15.2422 6.95631 14.9724 6.76361C14.7027 6.57092 14.4811 6.33005 14.3076 6.041C14.1342 5.75196 13.9993 5.43401 13.903 5.08716C13.8259 4.74031 13.7874 4.40309 13.7874 4.07551C13.7874 4.03697 13.797 3.97916 13.8163 3.90208C13.8548 3.80574 13.8837 3.73829 13.903 3.69975H13.9608C14.0764 3.69975 14.1631 3.73829 14.2209 3.81537C14.298 3.89245 14.404 3.93099 14.5389 3.93099L14.51 3.9888C14.51 4.06588 14.616 4.15259 14.8279 4.24894C15.0399 4.32601 15.2808 4.40309 15.5505 4.48017C15.8203 4.55725 16.0708 4.62469 16.302 4.6825C16.5525 4.72104 16.7163 4.74031 16.7934 4.74031C16.8705 4.74031 17.0247 4.73067 17.2559 4.71141C17.5064 4.69214 17.7569 4.67287 18.0074 4.6536C18.2772 4.61506 18.5084 4.57652 18.7011 4.53798C18.9131 4.48017 19.0191 4.41273 19.0191 4.33565C19.0191 4.25857 18.8938 4.09478 18.6433 3.84428C18.3928 3.59377 18.1134 3.29509 17.8051 2.94824C17.516 2.60139 17.2463 2.216 16.9957 1.79207C16.7452 1.34887 16.62 0.905668 16.62 0.462468C16.62 0.404661 16.6393 0.317948 16.6778 0.202329L16.8512 0.0867119L17.2559 0.173425C17.2752 0.134887 17.3137 0.105982 17.3715 0.0867119C17.4486 0.0674426 17.5064 0.0578079 17.5449 0.0578079C17.5642 0.0578079 17.6124 0.0770778 17.6895 0.115618C17.7665 0.134887 17.8436 0.163791 17.9207 0.202329C18.017 0.2216 18.1037 0.250504 18.1808 0.289043C18.2772 0.327582 18.335 0.346851 18.3543 0.346851C18.4506 0.385391 18.6144 0.462469 18.8456 0.578086C19.0961 0.674434 19.3466 0.780417 19.5971 0.896035C19.8669 1.01165 20.1078 1.12727 20.3197 1.24289C20.5317 1.33923 20.6666 1.41631 20.7244 1.47412C20.9364 1.68609 21.0809 1.93659 21.158 2.22563C21.2543 2.49541 21.3699 2.76518 21.5048 3.03495C21.6397 3.28546 21.8324 3.50706 22.0829 3.69975C22.3527 3.87318 22.767 3.95989 23.3258 3.95989C23.5185 4.05624 23.6245 4.22967 23.6437 4.48017C23.6823 4.71141 23.7016 4.92337 23.7016 5.11607L23.4125 5.46292C23.0271 5.63634 22.6225 5.70379 22.1985 5.66525C21.7939 5.62671 21.3988 5.66525 21.0134 5.78087L20.8978 5.89648L20.9267 6.12772C20.9267 6.648 20.8497 7.17791 20.6955 7.71746C20.5606 8.23773 20.4932 8.76765 20.4932 9.30719V9.3361L20.6377 9.39391C20.8304 9.39391 20.9942 9.31683 21.1291 9.16267C21.264 8.98925 21.447 8.90253 21.6782 8.90253C21.8517 8.84472 22.0251 8.78692 22.1985 8.72911C22.3912 8.65203 22.5646 8.56532 22.7188 8.46897C22.8922 8.37262 23.0271 8.26664 23.1235 8.15102C23.2391 8.01613 23.3065 7.84271 23.3258 7.63074L23.4414 7.45732H23.6437C24.0869 7.66928 24.482 7.89088 24.8288 8.12212C25.1757 8.33408 25.5996 8.48824 26.1006 8.58458C26.2355 8.68093 26.3318 8.81582 26.3897 8.98925C26.4475 9.1434 26.4764 9.29756 26.4764 9.45171C26.4764 9.49025 26.4571 9.54806 26.4186 9.62514C26.3993 9.70222 26.38 9.76003 26.3608 9.79857C26.0717 10.0876 25.6959 10.3381 25.2335 10.5501C24.7903 10.7428 24.3182 10.9547 23.8172 11.186C23.3162 11.3979 22.8055 11.6388 22.2852 11.9086C21.7842 12.1784 21.3314 12.5156 20.9267 12.9202L20.7244 12.8624L20.551 12.6601C20.5124 12.583 20.4932 12.5156 20.4932 12.4578C20.4932 12.3614 20.5702 12.2169 20.7244 12.0242C20.8786 11.8122 21.052 11.5906 21.2447 11.3594C21.4566 11.1282 21.659 10.9066 21.8517 10.6946C22.0636 10.4826 22.2082 10.3092 22.2852 10.1743L22.1407 10.1165C21.9866 10.1165 21.8324 10.1454 21.6782 10.2032C21.5241 10.2418 21.3603 10.2803 21.1869 10.3188C21.0327 10.3574 20.8689 10.3863 20.6955 10.4056C20.5413 10.4248 20.3968 10.4152 20.2619 10.3767L20.1463 10.4634C20.1078 10.579 20.0885 10.685 20.0885 10.7813C20.0885 11.0896 20.0885 11.3979 20.0885 11.7063C20.1078 11.9953 20.127 12.294 20.1463 12.6023C20.1849 12.6601 20.2716 12.7179 20.4065 12.7757C20.5413 12.8143 20.6088 12.8624 20.6088 12.9202C20.6088 13.0744 20.5317 13.2189 20.3776 13.3538C20.2234 13.4887 20.0981 13.6043 20.0018 13.7007C20.2523 13.8355 20.5124 13.9608 20.7822 14.0764C21.052 14.1728 21.3314 14.2209 21.6204 14.2209C21.7553 14.2209 21.8709 14.2017 21.9673 14.1631C22.0829 14.1246 22.2082 14.0764 22.343 14.0186C22.4587 14.1728 22.6417 14.2498 22.8922 14.2498C22.9115 14.3076 23.0175 14.3944 23.2102 14.51C23.4029 14.6063 23.6148 14.7123 23.8461 14.8279C24.0966 14.9435 24.3278 15.0399 24.5398 15.117C24.7517 15.194 24.8866 15.2229 24.9444 15.2037L25.089 15.3482C25.1275 15.4831 25.1757 15.618 25.2335 15.7529C25.2913 15.8685 25.3202 16.0034 25.3202 16.1575C25.3202 16.2539 25.3106 16.3406 25.2913 16.4177C25.1371 16.5911 24.9252 16.7163 24.6554 16.7934C24.4049 16.8512 24.164 16.8801 23.9328 16.8801C23.7594 16.8801 23.5859 16.8609 23.4125 16.8223C23.2584 16.7645 23.1042 16.7163 22.95 16.6778L22.6321 16.7356C22.5936 16.8898 22.5646 17.0921 22.5454 17.3426C22.5454 17.5738 22.5454 17.8243 22.5454 18.0941C22.5646 18.3639 22.5839 18.624 22.6032 18.8745C22.6225 19.125 22.6321 19.337 22.6321 19.5104C22.6321 20.9749 22.5646 22.4298 22.4298 23.875C22.3141 25.3202 22.1504 26.7654 21.9384 28.2106L21.7939 28.3841C21.2929 28.6538 20.8015 28.9429 20.3197 29.2512C19.838 29.5788 19.3563 29.9063 18.8745 30.2339H16.6778C16.4466 30.2339 16.119 30.2243 15.6951 30.205C15.2711 30.1858 14.8087 30.1472 14.3076 30.0894C13.8259 30.0316 13.3249 29.9545 12.8046 29.8582C12.3036 29.7618 11.8411 29.6269 11.4172 29.4535C11.0125 29.2994 10.6753 29.097 10.4056 28.8465C10.1358 28.6153 10.0009 28.3359 10.0009 28.0083ZM16.7934 16.7067L16.4755 16.9668L16.5044 17.0246H16.62L16.7645 16.8512C16.7645 16.832 16.7645 16.8127 16.7645 16.7934C16.7838 16.7741 16.7934 16.7452 16.7934 16.7067ZM19.4526 15.9263V15.4638C19.4526 15.0977 19.4141 14.7701 19.337 14.4811L19.1925 14.4233C18.7878 14.6738 18.4121 15.0206 18.0652 15.4638C17.7184 15.8877 17.3522 16.2635 16.9668 16.5911C17.0054 16.6104 17.0632 16.6393 17.1403 16.6778C17.2173 16.6971 17.2752 16.7067 17.3137 16.7067C17.41 16.7067 17.5738 16.6874 17.8051 16.6489C18.0363 16.6104 18.2772 16.5525 18.5277 16.4755C18.7782 16.3984 18.9901 16.3213 19.1636 16.2442C19.3563 16.1479 19.4526 16.0419 19.4526 15.9263ZM12.5445 22.1407L12.8046 21.8806C12.7853 21.9577 12.8046 22.0155 12.8624 22.054C12.9395 22.0733 13.0069 22.0636 13.0648 22.0251C13.1996 22.0636 13.3249 22.1118 13.4405 22.1696C13.5754 22.2082 13.7199 22.2274 13.8741 22.2274L13.9608 22.1118L14.3076 22.054L14.5389 22.1407C14.6545 22.1407 14.7894 22.0925 14.9435 21.9962C15.0977 21.8998 15.2422 21.7939 15.3771 21.6782C15.5313 21.5434 15.6758 21.4085 15.8107 21.2736C15.9456 21.1387 16.0515 21.0231 16.1286 20.9267C16.3599 21.0616 16.6296 21.1965 16.9379 21.3314C17.2655 21.4663 17.5835 21.6108 17.8918 21.765C18.2001 21.9191 18.4602 22.1022 18.6722 22.3141C18.8842 22.5068 19.0094 22.7381 19.048 23.0078C18.9901 23.162 18.8553 23.3162 18.6433 23.4703C18.4313 23.6245 18.1905 23.769 17.9207 23.9039C17.6509 24.058 17.3811 24.1737 17.1114 24.2507C16.8609 24.3471 16.6585 24.3953 16.5044 24.3953C16.2924 24.3953 16.1286 24.3471 16.013 24.2507C15.9167 24.1737 15.801 24.1351 15.6661 24.1351V24.164C15.5505 24.3182 15.3675 24.4242 15.117 24.482C14.8857 24.559 14.6834 24.5976 14.51 24.5976C14.2595 24.5976 14.009 24.5205 13.7585 24.3663C13.5272 24.2315 13.3153 24.0484 13.1226 23.8172C12.9491 23.6052 12.8046 23.3643 12.689 23.0946C12.5927 22.8248 12.5445 22.5743 12.5445 22.343V22.1407ZM3.20838 19.944L3.38181 19.4526C3.45888 19.3755 3.53596 19.125 3.61304 18.7011C3.70939 18.2772 3.7961 17.8051 3.87318 17.2848C3.95026 16.7645 4.00807 16.2635 4.04661 15.7818C4.10442 15.3 4.13332 14.9821 4.13332 14.8279C4.13332 14.6545 4.12368 14.4811 4.10442 14.3076C4.10442 14.1149 4.07551 13.9415 4.0177 13.7874H3.9888C3.83464 14.1149 3.60341 14.3847 3.29509 14.5967C2.98678 14.8086 2.64956 14.9146 2.28344 14.9146C1.95586 14.9146 1.64755 14.8279 1.3585 14.6545C1.08873 14.4618 0.84786 14.2209 0.635895 13.9319C0.4432 13.6428 0.289043 13.3345 0.173426 13.0069C0.0578086 12.6601 0 12.3421 0 12.0531C0.346852 12.0146 0.674434 11.9857 0.982747 11.9664C1.29106 11.9471 1.61864 11.8893 1.96549 11.793C2.216 11.6195 2.45687 11.4461 2.6881 11.2727C2.93861 11.0993 3.17948 10.9162 3.41071 10.7235C3.85391 10.9933 4.28748 11.2438 4.71141 11.475C5.15461 11.687 5.62671 11.8604 6.12772 11.9953L6.35895 12.1687C6.59019 12.6119 6.74434 13.0744 6.82142 13.5561C6.91777 14.0379 6.96594 14.5292 6.96594 15.0302C6.96594 15.5891 6.93704 16.1479 6.87923 16.7067C6.82142 17.2655 6.79252 17.8243 6.79252 18.3832C6.79252 18.441 6.80215 18.5084 6.82142 18.5855C6.84069 18.6433 6.85996 18.7011 6.87923 18.7589L6.99485 18.8456H7.08156C7.13937 18.8456 7.18754 18.8264 7.22608 18.7878C7.28389 18.73 7.3417 18.6722 7.39951 18.6144C7.47659 18.5566 7.5633 18.5084 7.65965 18.4699C7.756 18.4121 7.89088 18.3832 8.06431 18.3832L8.09321 18.3253L8.0354 18.0074C8.11248 18.0074 8.17029 18.017 8.20883 18.0363L8.55568 17.9207L8.49787 17.5449H8.72911C8.78692 17.1595 8.85436 16.9476 8.93144 16.909C9.02779 16.8705 9.21085 16.8512 9.48062 16.8512V16.7645L9.50952 16.5044C9.54806 16.3888 9.62514 16.2539 9.74076 16.0997C9.85638 15.9263 9.96236 15.8107 10.0587 15.7529C10.1358 15.7529 10.261 15.7721 10.4345 15.8107C10.6272 15.8492 10.7235 15.9263 10.7235 16.0419C10.7235 16.0804 10.6175 16.225 10.4056 16.4755C10.2129 16.726 9.99126 17.0054 9.74076 17.3137C9.50952 17.622 9.27829 17.9014 9.04705 18.1519C8.81582 18.4024 8.6713 18.5469 8.61349 18.5855C8.28591 18.7974 8.0065 19.0961 7.77526 19.4815C7.5633 19.8669 7.36097 20.2619 7.16827 20.6666C6.97558 21.0713 6.78288 21.447 6.59019 21.7939C6.41676 22.1407 6.21443 22.3816 5.9832 22.5165C5.86758 22.5743 5.74233 22.6128 5.60744 22.6321C5.47255 22.6514 5.3473 22.661 5.23168 22.661C4.92337 22.661 4.64396 22.5743 4.39346 22.4009C4.16222 22.2082 3.95989 21.9769 3.78647 21.7072C3.61304 21.4181 3.47815 21.1194 3.38181 20.8111C3.28546 20.5028 3.22765 20.2138 3.20838 19.944ZM1.73426 5.46292L1.76316 5.26059L1.84988 5.14497L1.9944 5.11607C2.09075 5.11607 2.17746 5.1546 2.25454 5.23168C2.33162 5.30876 2.38942 5.37621 2.42796 5.43401C2.94824 5.68452 3.51669 5.93502 4.13332 6.18553C4.74994 6.43603 5.29913 6.7058 5.78087 6.99485C5.91575 7.07193 6.0121 7.22608 6.06991 7.45732C6.12772 7.66928 6.16626 7.85234 6.18553 8.0065C6.16626 8.14139 6.09881 8.27627 5.9832 8.41116C5.86758 8.54605 5.73269 8.6713 5.57854 8.78692C5.42438 8.90253 5.26059 8.99888 5.08716 9.07596C4.93301 9.13377 4.78848 9.16267 4.6536 9.16267C4.40309 9.16267 4.10441 9.01815 3.75756 8.72911C3.42998 8.42079 3.11203 8.06431 2.80372 7.65965C2.51468 7.25499 2.26417 6.85033 2.05221 6.44566C1.84024 6.02173 1.73426 5.69415 1.73426 5.46292Z" fill="#747474"/>
<path d="M47.8078 15.7818C47.8078 14.3558 47.8559 12.9491 47.9523 11.5617C48.0486 10.1551 48.0968 8.73874 48.0968 7.3128C48.0968 6.81179 48.0583 6.41676 47.9812 6.12772C47.9041 5.83867 47.7692 5.62671 47.5765 5.49182C47.4031 5.33767 47.1622 5.24132 46.8539 5.20278C46.5649 5.16424 46.2084 5.14497 45.7845 5.14497C45.4376 5.14497 45.1293 5.06789 44.8595 4.91374C44.5897 4.74031 44.3007 4.6536 43.9924 4.6536C43.6841 4.6536 43.2891 4.80775 42.8073 5.11607C42.3448 5.42438 41.8631 5.78087 41.3621 6.18553C40.8611 6.59019 40.3793 6.99485 39.9169 7.39951C39.4737 7.80417 39.1172 8.10285 38.8474 8.29554C38.7896 8.48824 38.7029 8.63276 38.5873 8.72911C38.4909 8.80619 38.3849 8.87363 38.2693 8.93144C38.173 8.98925 38.0863 9.05669 38.0092 9.13377C37.9321 9.19158 37.9128 9.27829 37.9514 9.39391L36.6507 11.3594L36.4195 11.7063L36.2749 11.7352L36.1015 11.6484L35.8703 11.2727L36.7085 9.97199C36.9205 9.89491 37.0264 9.7793 37.0264 9.62514C37.0457 9.45172 37.0554 9.27829 37.0554 9.10486V8.87363L37.1999 8.84472L37.7202 9.04705L37.7491 9.01815C37.6527 8.90253 37.5756 8.69057 37.5178 8.38226C37.4793 8.05467 37.4407 7.69819 37.4022 7.3128C37.3829 6.9274 37.3637 6.56128 37.3444 6.21443C37.3444 5.84831 37.3444 5.57853 37.3444 5.40511C37.4407 5.21241 37.6334 5.04862 37.9225 4.91374C38.2308 4.77885 38.5584 4.67287 38.9052 4.59579C39.2521 4.51871 39.5893 4.47054 39.9169 4.45127C40.2637 4.41273 40.5431 4.39346 40.7551 4.39346C40.9671 4.16222 41.1983 4.05624 41.4488 4.07551C41.4295 4.13332 41.4392 4.18149 41.4777 4.22003C41.5355 4.2393 41.5837 4.24894 41.6222 4.24894C41.7186 4.24894 41.7571 4.19113 41.7379 4.07551C41.7186 3.95989 41.7571 3.88281 41.8535 3.84428C42.0847 3.72866 42.287 3.67085 42.4605 3.67085C42.6532 3.67085 42.8169 3.65158 42.9518 3.61304C43.0867 3.5745 43.1927 3.47815 43.2698 3.324C43.3469 3.16984 43.395 2.87116 43.4143 2.42796L43.5299 2.25454H43.7901C44.3874 2.25454 44.8884 2.31235 45.2931 2.42796C45.717 2.54358 46.1024 2.6881 46.4493 2.86153C46.8154 3.01568 47.1815 3.18911 47.5476 3.38181C47.9137 3.55523 48.3473 3.69975 48.8483 3.81537C49.3108 4.14295 49.6865 4.54761 49.9756 5.02935C50.2646 5.51109 50.4862 6.03137 50.6404 6.59019C50.7945 7.12973 50.8909 7.69819 50.9294 8.29554C50.9872 8.87363 51.0161 9.42281 51.0161 9.94309C51.0161 11.0993 50.9487 12.2458 50.8138 13.3827C50.6789 14.5196 50.6115 15.6661 50.6115 16.8223C50.6115 17.7473 50.6211 18.7011 50.6404 19.6838C50.6789 20.6666 50.8138 21.6108 51.045 22.5165L51.5653 23.1813C51.8544 23.2391 52.1434 23.2873 52.4325 23.3258C52.7408 23.3643 53.0394 23.3836 53.3285 23.3836C53.5405 23.3836 53.7428 23.3258 53.9355 23.2102C54.1282 23.0946 54.3209 23.0078 54.5136 22.95C54.687 22.8151 54.8604 22.6803 55.0338 22.5454C55.2073 22.4105 55.294 22.2178 55.294 21.9673C55.294 21.6012 55.1206 21.264 54.7737 20.9556C54.4269 20.6281 54.0222 20.3197 53.5597 20.0307C53.1165 19.7224 52.6733 19.4333 52.2301 19.1636C51.8062 18.8745 51.4979 18.5662 51.3052 18.2386L51.2474 17.9207L51.3052 17.834C51.652 17.8532 52.0567 17.9785 52.5192 18.2097C53.0009 18.4217 53.4923 18.7107 53.9933 19.0769C54.5136 19.4237 55.0242 19.8284 55.5252 20.2908C56.0455 20.7533 56.4983 21.2158 56.8837 21.6782C57.2884 22.1407 57.616 22.5936 57.8665 23.0368C58.117 23.48 58.2422 23.875 58.2422 24.2218L58.2133 24.5976C58.117 24.8674 57.905 25.089 57.5774 25.2624C57.2691 25.4551 56.9223 25.6092 56.5369 25.7249C56.1515 25.8405 55.7661 25.9175 55.3807 25.9561C54.9953 26.0139 54.6774 26.0428 54.4269 26.0428C52.7697 26.0428 51.4882 25.7441 50.5826 25.1468C49.6962 24.5687 49.041 23.7979 48.6171 22.8344C48.2124 21.8709 47.9716 20.7822 47.8945 19.5682C47.8367 18.335 47.8078 17.0728 47.8078 15.7818ZM27.9505 17.834C28.1817 17.7569 28.4515 17.6702 28.7598 17.5738C29.0681 17.4582 29.3668 17.333 29.6558 17.1981C29.9642 17.0632 30.2436 16.909 30.4941 16.7356C30.7638 16.5622 30.9662 16.3599 31.1011 16.1286L31.2456 16.1864L31.3612 16.302H31.3901L31.3612 16.2731V16.1575L31.5635 15.7818C31.5828 15.1844 31.6021 14.5967 31.6213 14.0186C31.6406 13.4405 31.6502 12.8528 31.6502 12.2554C31.6502 11.793 31.5635 11.3979 31.3901 11.0704C31.2359 10.7235 31.0529 10.4056 30.8409 10.1165C30.6482 9.8082 30.4652 9.50952 30.2917 9.22048C30.1376 8.93144 30.0605 8.60385 30.0605 8.23773L30.205 7.91979L30.3495 7.89088C30.4844 8.04504 30.6771 8.17993 30.9276 8.29554C31.1974 8.41116 31.4286 8.52678 31.6213 8.64239L31.6502 8.7002C31.8622 8.85436 32.0934 8.94107 32.3439 8.96034C32.6137 8.97961 32.8546 9.04705 33.0666 9.16267C33.2207 9.23975 33.3267 9.49025 33.3845 9.91418C33.4616 10.3188 33.5098 10.7813 33.529 11.3016C33.5676 11.8026 33.5772 12.2843 33.5579 12.7468C33.5579 13.2093 33.5579 13.5272 33.5579 13.7007H33.7024L33.9915 13.8741L33.9048 13.585L33.9337 13.3827L34.0204 13.2382C34.136 13.2189 34.242 13.1611 34.3383 13.0648C34.4347 12.9491 34.5214 12.8335 34.5985 12.7179C34.6948 12.6023 34.7815 12.5059 34.8586 12.4289C34.955 12.3518 35.0513 12.3421 35.1477 12.4C35.1862 12.2458 35.2344 12.1109 35.2922 11.9953C35.35 11.8797 35.4752 11.8219 35.6679 11.8219L36.1304 11.9953L36.2171 12.1109V12.1976L36.1015 12.2265C35.5234 12.978 35.0031 13.6043 34.5407 14.1053C34.0782 14.5871 33.6928 15.0881 33.3845 15.6083C33.0762 16.1093 32.8353 16.6874 32.6619 17.3426C32.5077 17.9785 32.4307 18.8167 32.4307 19.8573C32.4307 20.4354 32.5077 21.0038 32.6619 21.5626C32.816 22.1214 32.8931 22.6803 32.8931 23.2391C32.8931 23.5281 32.7486 23.7305 32.4596 23.8461C32.1705 23.981 31.9104 24.0484 31.6791 24.0484C31.3708 24.0484 31.0722 23.9231 30.7831 23.6726C30.4941 23.4414 30.2147 23.1427 29.9449 22.7766C29.6751 22.3912 29.415 21.9673 29.1645 21.5048C28.9332 21.0424 28.7309 20.5799 28.5575 20.1174C28.3841 19.6549 28.2395 19.2214 28.1239 18.8167C28.0276 18.4121 27.9698 18.0845 27.9505 17.834ZM31.5346 18.4699H31.5057C31.4479 18.4699 31.3901 18.518 31.3323 18.6144C31.2745 18.6915 31.2167 18.7878 31.1589 18.9034C31.1203 18.9998 31.0818 19.1058 31.0432 19.2214C31.024 19.3177 31.0143 19.3948 31.0143 19.4526V19.626L31.0432 19.6838C31.0818 19.4719 31.1685 19.2696 31.3034 19.0769C31.4575 18.8842 31.5346 18.6818 31.5346 18.4699ZM35.6968 17.8918L35.8125 17.7762C35.9473 17.8147 36.063 17.8821 36.1593 17.9785C36.2749 18.0748 36.4098 18.123 36.564 18.123C36.853 18.123 37.1035 18.0748 37.3155 17.9785C37.5275 17.8629 37.7201 17.7376 37.8936 17.6027C38.0863 17.4486 38.279 17.3041 38.4717 17.1692C38.6644 17.0343 38.886 16.9379 39.1365 16.8801C39.2328 16.9187 39.281 16.8898 39.281 16.7934C39.3003 16.6971 39.3003 16.6296 39.281 16.5911C39.3195 16.4755 39.3773 16.4369 39.4544 16.4755C39.5315 16.4947 39.5604 16.4273 39.5411 16.2731L39.7435 15.8107C39.3773 15.5216 38.9919 15.3097 38.5873 15.1748C38.2019 15.0206 37.8454 14.8568 37.5178 14.6834C37.2095 14.4907 36.9494 14.2306 36.7374 13.903C36.5447 13.5754 36.4484 13.084 36.4484 12.4289C36.4484 12.3903 36.458 12.3518 36.4773 12.3132C36.4965 12.2747 36.5158 12.2362 36.5351 12.1976C36.7856 12.294 37.1421 12.4578 37.6045 12.689C38.0863 12.9202 38.5776 13.1611 39.0787 13.4116C39.5797 13.6428 40.0421 13.8548 40.4661 14.0475C40.9093 14.2209 41.2272 14.298 41.4199 14.2787C41.786 14.086 42.0847 13.8452 42.3159 13.5561C42.5472 13.2671 42.7206 12.9588 42.8362 12.6312C42.9518 12.2843 43.0289 11.9279 43.0675 11.5617C43.1253 11.1763 43.1638 10.8006 43.1831 10.4345L43.4143 10.261H43.4432C43.6359 10.473 43.8575 10.6368 44.108 10.7524C44.3778 10.868 44.6476 10.974 44.9173 11.0704C45.1871 11.1667 45.4472 11.2727 45.6977 11.3883C45.9483 11.5039 46.1506 11.6484 46.3047 11.8219L46.4204 12.1687C46.3818 12.6119 46.2951 13.0069 46.1602 13.3538C46.0253 13.7007 45.8712 14.0282 45.6977 14.3365C45.5243 14.6256 45.3316 14.9243 45.1197 15.2326C44.927 15.5409 44.7439 15.8781 44.5705 16.2442C44.7632 16.3984 45.0137 16.5622 45.322 16.7356C45.6303 16.909 45.9193 17.1114 46.1891 17.3426C46.4589 17.5546 46.6901 17.7858 46.8828 18.0363C47.0948 18.2868 47.2008 18.5566 47.2008 18.8456C47.2008 18.9227 47.1815 18.9998 47.143 19.0769L46.9984 19.2792C46.825 19.3755 46.6516 19.4719 46.4782 19.5682C46.3047 19.6646 46.112 19.7128 45.9001 19.7128C45.7074 19.7128 45.4761 19.6838 45.2064 19.626C44.9366 19.5682 44.6668 19.4912 44.3971 19.3948C44.1273 19.2985 43.8671 19.1925 43.6166 19.0769C43.3854 18.942 43.2023 18.8167 43.0675 18.7011L42.9518 18.441L43.0096 18.3253C43.106 18.2868 43.2216 18.2483 43.3565 18.2097C43.4914 18.1519 43.5685 18.0652 43.5877 17.9496L43.2409 17.6605L43.0675 17.6894C42.4701 18.0941 42.0269 18.4602 41.7379 18.7878C41.4488 19.1154 41.1598 19.4044 40.8707 19.6549C40.5817 19.8862 40.2059 20.0789 39.7435 20.233C39.3003 20.3872 38.6355 20.4932 37.7491 20.551C37.2288 20.339 36.747 20.0018 36.3038 19.5393C35.8799 19.0576 35.6776 18.5084 35.6968 17.8918Z" fill="#747474"/>
<path d="M60.9592 26.5631L61.0748 26.4186L61.2772 26.3607C61.5084 26.3607 61.7011 26.4378 61.8553 26.592C62.0287 26.7461 62.2214 26.8232 62.4334 26.8232C62.5297 26.8232 62.626 26.7943 62.7224 26.7365C62.8187 26.698 62.9055 26.6594 62.9825 26.6209C63.5221 26.6209 63.9942 26.5149 64.3988 26.3029C64.8035 26.1102 65.2563 25.9465 65.7574 25.8116L65.9019 25.8694L66.5667 25.4069H66.9424V25.2046L67.0291 25.1179C67.4145 25.1564 67.6458 25.0022 67.7228 24.6554C67.7999 24.5783 67.8866 24.5301 67.983 24.5109C68.0793 24.5109 68.1757 24.5109 68.272 24.5109C68.3491 24.3953 68.4647 24.2218 68.6189 23.9906C68.7923 23.7594 68.9657 23.5185 69.1392 23.268C69.3318 23.0367 69.5245 22.8344 69.7172 22.661C69.9099 22.4683 70.0737 22.372 70.2086 22.372L70.2953 22.2852C70.3339 22.1118 70.4399 21.9288 70.6133 21.7361C70.7867 21.5434 70.9601 21.4181 71.1336 21.3603C71.2492 21.3988 71.3166 21.3507 71.3359 21.2158C71.3552 21.0809 71.3841 20.9845 71.4226 20.9267C71.4997 20.7148 71.6153 20.5028 71.7695 20.2908C71.9236 20.0789 72.0585 19.8765 72.1741 19.6838L72.0585 19.5971C71.8273 19.6935 71.5864 19.7995 71.3359 19.9151C71.1046 20.0114 70.8542 20.0596 70.5844 20.0596C70.2953 20.0596 70.0256 19.9922 69.7751 19.8573C69.5245 19.7224 69.3029 19.549 69.1103 19.337C68.9368 19.1058 68.8019 18.8553 68.7056 18.5855C68.6092 18.2964 68.5611 18.017 68.5611 17.7473C68.5611 17.6124 68.59 17.4871 68.6478 17.3715L68.8212 17.227C69.0717 17.1692 69.3319 17.121 69.6016 17.0825C69.8714 17.0246 70.1026 16.8994 70.2953 16.7067C70.5458 16.6104 70.7963 16.5236 71.0468 16.4466C71.3166 16.3695 71.5671 16.2635 71.7984 16.1286C72.0103 16.0901 72.1837 16.0034 72.3186 15.8685C72.4728 15.7336 72.6559 15.6661 72.8678 15.6661C72.9834 15.4542 73.1376 15.3193 73.3303 15.2615C73.523 15.2037 73.7253 15.1362 73.9373 15.0592C73.9951 14.905 74.0336 14.7412 74.0529 14.5678C74.0722 14.3944 74.0818 14.2209 74.0818 14.0475C74.0818 12.8913 74.0433 11.7448 73.9662 10.6079C73.9084 9.47098 73.8987 8.32445 73.9373 7.16827C73.6675 7.43805 73.417 7.64038 73.1858 7.77526C72.9545 7.89088 72.6462 7.99686 72.2608 8.09321C71.991 8.07394 71.7694 8.0354 71.596 7.9776C71.4419 7.90052 71.307 7.82344 71.1914 7.74636C71.0757 7.66928 70.9505 7.58257 70.8156 7.48622C70.6807 7.38987 70.5073 7.29353 70.2953 7.19718H70.1219C70.0256 7.31279 69.9581 7.39951 69.9196 7.45732C69.881 7.51512 69.7847 7.5633 69.6305 7.60184L69.3993 7.83307C69.3029 8.17992 69.1488 8.50751 68.9368 8.81582C68.7441 9.12413 68.5322 9.43245 68.3009 9.74076C68.089 10.0298 67.8674 10.3285 67.6361 10.6368C67.4049 10.9258 67.2122 11.2341 67.058 11.5617C66.6341 12.4096 66.2391 13.19 65.873 13.903C65.5068 14.5967 65.1793 15.3 64.8902 16.013C64.6204 16.7067 64.4085 17.4389 64.2543 18.2097C64.1002 18.9805 64.0231 19.8669 64.0231 20.8689L63.763 21.2158C63.6088 21.3121 63.4354 21.3796 63.2427 21.4181C63.0692 21.4566 62.8862 21.4759 62.6935 21.4759C62.4623 21.4759 62.2407 21.3988 62.0287 21.2447C61.8167 21.0713 61.6337 20.8689 61.4795 20.6377C61.3254 20.3872 61.2001 20.127 61.1038 19.8573C61.0267 19.5875 60.9881 19.3466 60.9881 19.1347C60.9881 18.8456 61.0267 18.5662 61.1038 18.2964C61.2001 18.0074 61.2964 17.728 61.3928 17.4582C61.5084 17.1692 61.6048 16.8898 61.6818 16.62C61.7782 16.3309 61.8264 16.0419 61.8264 15.7529C61.8264 15.4445 61.7685 15.1073 61.6529 14.7412C61.5566 14.3558 61.4024 14.0475 61.1905 13.8163C61.017 13.7199 60.8243 13.6814 60.6124 13.7007C60.4197 13.7007 60.227 13.6621 60.0343 13.585C59.8609 13.508 59.6874 13.3827 59.514 13.2093C59.3406 13.0359 59.1864 12.8335 59.0515 12.6023C58.9167 12.3711 58.801 12.1398 58.7047 11.9086C58.6276 11.6773 58.5891 11.4654 58.5891 11.2727L58.618 10.9836L58.7047 10.8102L58.8203 10.7813L59.1961 10.8969L59.3406 10.868L59.4851 10.7524H59.7452C59.8416 10.7524 59.9379 10.7813 60.0343 10.8391C60.1499 10.8777 60.2463 10.9258 60.3233 10.9836H60.5257C60.5642 10.9836 60.6317 10.9644 60.728 10.9258C60.8436 10.868 60.9496 10.8102 61.0459 10.7524C61.1616 10.6946 61.2579 10.6464 61.335 10.6079C61.4313 10.5501 61.4795 10.5212 61.4795 10.5212C61.4795 10.4441 61.518 10.4056 61.5951 10.4056C61.6915 10.3863 61.7589 10.3767 61.7975 10.3767C61.9709 10.3767 62.1058 10.3092 62.2021 10.1743C62.2985 10.0202 62.4237 9.94309 62.5779 9.94309C62.6357 9.88528 62.7128 9.79857 62.8091 9.68295C62.9055 9.56733 63.0018 9.44208 63.0982 9.30719C63.1945 9.17231 63.2716 9.04705 63.3294 8.93144C63.4065 8.81582 63.445 8.71947 63.445 8.64239C63.445 8.37262 63.3776 8.12212 63.2427 7.89088C63.1271 7.65965 63.0692 7.40914 63.0692 7.13937L63.0982 6.87923L63.1849 6.76361H63.3294C63.4835 6.76361 63.6473 6.82142 63.8208 6.93704C63.9942 7.03339 64.1772 7.149 64.3699 7.28389C64.5819 7.39951 64.7842 7.51513 64.9769 7.63074C65.1889 7.72709 65.4009 7.77526 65.6128 7.77526L65.8152 7.9776C66.0079 8.01613 66.162 8.07394 66.2776 8.15102C66.4125 8.20883 66.557 8.30518 66.7112 8.44006L66.9424 9.27829C66.8268 9.5866 66.557 9.82747 66.1331 10.0009C65.7092 10.1743 65.2467 10.3477 64.7457 10.5212C64.264 10.6753 63.7919 10.8584 63.3294 11.0704C62.8862 11.2823 62.5779 11.5617 62.4044 11.9086C62.6549 12.1398 62.8476 12.4289 62.9825 12.7757C63.1367 13.1226 63.2523 13.4887 63.3294 13.8741C63.4065 14.2402 63.4643 14.616 63.5028 15.0013C63.5606 15.3867 63.6184 15.7432 63.6762 16.0708C63.8689 15.7625 64.0616 15.4542 64.2543 15.1459C64.447 14.8376 64.6204 14.5196 64.7746 14.192C64.8709 14.1535 64.948 14.086 65.0058 13.9897C65.0636 13.8933 65.1118 13.797 65.1504 13.7007C65.1504 13.6621 65.2371 13.4791 65.4105 13.1515C65.6032 12.8046 65.8055 12.4385 66.0175 12.0531C66.2487 11.6677 66.4607 11.3112 66.6534 10.9836C66.8461 10.6561 66.9617 10.473 67.0002 10.4345C67.0195 10.3188 67.0484 10.2129 67.087 10.1165C67.1448 10.0009 67.1737 9.89492 67.1737 9.79857C67.6554 9.41318 68.0504 8.8929 68.3587 8.23773C68.6671 7.58257 68.9176 6.93704 69.1103 6.30114C69.3222 5.66525 69.4764 5.10643 69.5727 4.62469C69.6883 4.14295 69.7751 3.88281 69.8329 3.84428C69.8907 3.86355 69.9774 3.91172 70.093 3.9888C70.2086 4.04661 70.3339 4.11405 70.4688 4.19113C70.6036 4.24894 70.7193 4.31638 70.8156 4.39346C70.912 4.45127 70.9698 4.49944 70.989 4.53798C71.2588 4.74994 71.5864 4.85593 71.9718 4.85593C72.0489 4.85593 72.1259 4.89447 72.203 4.97154C72.2801 5.04862 72.3475 5.14497 72.4053 5.26059C72.4824 5.35693 72.5499 5.46292 72.6077 5.57854C72.6848 5.67488 72.7426 5.75196 72.7811 5.80977C73.0123 5.90612 73.2243 5.95429 73.417 5.95429L73.4748 5.72306H73.6482L73.8506 5.60744L73.8795 5.26059C73.8795 4.85593 73.8217 4.45127 73.706 4.04661C73.6097 3.64195 73.5037 3.23728 73.3881 2.83262C73.2725 2.42796 73.1569 2.03294 73.0412 1.64755C72.9449 1.24289 72.8967 0.838226 72.8967 0.433564V0.231235L73.0412 0.028904L73.2436 0C73.6675 0.115617 74.0914 0.298678 74.5154 0.549182C74.9393 0.780417 75.344 1.00202 75.7293 1.21398C75.845 1.27179 75.9991 1.51266 76.1918 1.93659C76.3845 2.34125 76.5868 2.78445 76.7988 3.26619C77.03 3.74793 77.2516 4.19113 77.4636 4.59579C77.6756 5.00045 77.849 5.21241 77.9839 5.23168C78.0802 5.07753 78.2248 4.97154 78.4174 4.91374C78.6294 4.83666 78.851 4.76921 79.0822 4.71141C79.3135 4.6536 79.5351 4.59579 79.747 4.53798C79.959 4.4609 80.1228 4.34528 80.2384 4.19113C80.3348 4.03697 80.4215 3.89245 80.4986 3.75756C80.5756 3.62268 80.6913 3.49742 80.8454 3.38181C80.884 3.45888 80.9321 3.5456 80.9899 3.64194C81.067 3.71902 81.1537 3.75756 81.2501 3.75756C81.4813 3.85391 81.7318 3.95026 82.0016 4.04661C82.2714 4.12368 82.5219 4.22967 82.7531 4.36455C83.0036 4.48017 83.2156 4.63433 83.389 4.82702C83.5817 5.01972 83.7069 5.26059 83.7647 5.54963L83.6491 5.95429C83.5335 6.06991 83.3697 6.17589 83.1578 6.27224C82.9458 6.34932 82.7242 6.41676 82.493 6.47457C82.2617 6.53238 82.0305 6.58055 81.7993 6.61909C81.5873 6.63836 81.3946 6.648 81.2212 6.648C81.0863 6.648 80.9707 6.62873 80.8743 6.59019C80.778 6.55165 80.6816 6.50347 80.5853 6.44566C80.4697 6.29151 80.3348 6.10845 80.1806 5.89648C80.0457 5.66525 79.9012 5.50146 79.747 5.40511C79.4965 5.44365 79.2364 5.49182 78.9666 5.54963C78.7161 5.58817 78.4753 5.65561 78.244 5.75196L78.2151 5.86758L79.8338 9.53843C79.9301 9.75039 80.0746 9.93345 80.2673 10.0876C80.4793 10.2225 80.6431 10.3959 80.7587 10.6079C80.9129 10.9162 81.0188 11.2341 81.0766 11.5617C81.1537 11.8893 81.2886 12.2073 81.4813 12.5156C81.5969 12.7083 81.7704 12.9395 82.0016 13.2093C82.2328 13.4598 82.4544 13.7199 82.6664 13.9897C82.8784 14.2595 83.0614 14.5292 83.2156 14.799C83.389 15.0688 83.4757 15.3193 83.4757 15.5505C83.4757 15.6469 83.4564 15.7529 83.4179 15.8685C83.1096 16.1575 82.6278 16.3695 81.9727 16.5044C81.3175 16.62 80.6045 16.7163 79.8338 16.7934C79.0822 16.8705 78.3307 16.9668 77.5792 17.0825C76.847 17.1788 76.2496 17.3522 75.7872 17.6027C75.6715 17.6605 75.5848 17.8821 75.527 18.2675C75.4885 18.6529 75.4499 19.0865 75.4114 19.5682C75.3921 20.0307 75.3825 20.4835 75.3825 20.9267C75.3825 21.3507 75.3825 21.6397 75.3825 21.7939C74.8815 22.2949 74.4672 22.7959 74.1396 23.2969C73.8313 23.7979 73.4844 24.3182 73.0991 24.8577C73.0027 24.9926 72.7426 25.1179 72.3186 25.2335C71.8947 25.3684 71.3841 25.5129 70.7867 25.667C70.1894 25.8212 69.5438 25.985 68.8501 26.1584C68.1564 26.3511 67.482 26.5727 66.8268 26.8232C66.1716 27.0737 65.5743 27.3531 65.0347 27.6614C64.5145 27.989 64.1194 28.3648 63.8497 28.7887C63.5028 29.0007 63.0885 29.1067 62.6068 29.1067C62.3948 29.1067 62.1828 29.0199 61.9709 28.8465C61.7782 28.6731 61.6048 28.4611 61.4506 28.2106C61.2964 27.9794 61.1712 27.7289 61.0748 27.4591C60.9785 27.1893 60.9303 26.9581 60.9303 26.7654L60.9592 26.5631ZM78.4463 15.8107C78.639 15.6565 78.8896 15.4831 79.1979 15.2904C79.5062 15.0784 79.7856 14.9724 80.0361 14.9724C80.1902 14.8954 80.277 14.7027 80.2962 14.3944C80.3348 14.0668 80.354 13.8259 80.354 13.6717C80.354 13.5176 80.3348 13.3538 80.2962 13.1804C80.2577 12.9877 80.1902 12.8239 80.0939 12.689L79.9783 12.7179C79.6892 12.9299 79.4002 13.1707 79.1111 13.4405C78.8414 13.691 78.5716 13.9512 78.3018 14.2209C78.0321 14.4714 77.743 14.7219 77.4347 14.9724C77.1457 15.2037 76.8373 15.3867 76.5098 15.5216C76.452 15.5794 76.3845 15.6661 76.3074 15.7818C76.2496 15.8974 76.1918 16.0323 76.134 16.1864C76.0762 16.3213 76.028 16.4562 75.9895 16.5911C75.9509 16.7067 75.9317 16.803 75.9317 16.8801H75.9895C76.24 16.7838 76.4905 16.7163 76.741 16.6778C77.0108 16.6393 77.2709 16.5718 77.5214 16.4755C77.6948 16.4177 77.849 16.2924 77.9839 16.0997C78.1188 15.907 78.2729 15.8107 78.4463 15.8107ZM77.7237 10.7235C77.7237 10.4345 77.637 10.1743 77.4636 9.94309C77.3094 9.69258 77.2324 9.42281 77.2324 9.13377L77.2613 8.90253L77.3769 8.75801H77.4925C77.5503 8.75801 77.6467 8.79655 77.7815 8.87363C77.9164 8.95071 78.061 9.03742 78.2151 9.13377C78.3885 9.23012 78.5427 9.32646 78.6776 9.42281C78.8317 9.51916 78.957 9.57697 79.0533 9.59624C79.0148 9.46135 78.9185 9.21085 78.7643 8.84472C78.6294 8.45933 78.4656 8.06431 78.2729 7.65965C78.0802 7.23572 77.8875 6.85996 77.6948 6.53238C77.5214 6.18553 77.3865 5.9832 77.2902 5.92539H77.1746C77.1168 5.92539 77.0493 5.93502 76.9722 5.95429C76.8952 5.97356 76.8277 5.99283 76.7699 6.0121L76.6543 6.15662L76.6254 6.47457C76.6254 6.7058 76.6543 6.9274 76.7121 7.13937C76.7892 7.35133 76.8373 7.57293 76.8566 7.80417C76.8952 8.32445 76.9144 8.85436 76.9144 9.39391C76.9144 9.91418 76.9144 10.4345 76.9144 10.9547V12.0242C77.0686 11.87 77.242 11.6677 77.4347 11.4172C77.6274 11.1667 77.7237 10.9355 77.7237 10.7235ZM76.2207 4.04661V4.10442C76.2207 4.27784 76.2593 4.51871 76.3363 4.82702C76.4327 5.13533 76.5387 5.3473 76.6543 5.46292L76.7988 5.49182L76.9144 5.3184C76.9144 5.24132 76.8855 5.14497 76.8277 5.02935C76.7892 4.89447 76.7314 4.75958 76.6543 4.62469C76.5965 4.48981 76.5194 4.37419 76.423 4.27784C76.346 4.16222 76.2785 4.08515 76.2207 4.04661ZM78.5042 22.6321L78.4753 22.4587H78.6487C78.8414 22.4587 79.0341 22.555 79.2268 22.7477C79.4195 22.9211 79.6218 23.1138 79.8338 23.3258C80.065 23.5378 80.3059 23.7208 80.5564 23.875C80.8261 24.0484 81.1055 24.1255 81.3946 24.1062L81.568 23.9617L81.5969 23.5281C81.4813 23.2005 81.3079 22.9404 81.0766 22.7477C80.8647 22.5357 80.6431 22.3334 80.4118 22.1407C80.1806 21.9288 79.9494 21.6879 79.7181 21.4181C79.5062 21.1483 79.3424 20.7629 79.2268 20.2619L79.2846 19.8284H79.5158C79.5544 19.8284 79.6314 19.8573 79.747 19.9151C79.8627 19.9536 79.9783 20.0114 80.0939 20.0885C80.2288 20.1656 80.3444 20.2427 80.4407 20.3197C80.5564 20.3776 80.6334 20.4257 80.672 20.4643C82.0787 20.8497 83.0999 21.4566 83.7358 22.2852C84.3717 23.1138 84.6897 24.2604 84.6897 25.7249C84.6897 26.2451 84.5452 26.5727 84.2561 26.7076C83.9671 26.8618 83.601 26.9388 83.1578 26.9388C82.8302 26.9388 82.4351 26.7654 81.9727 26.4186C81.5295 26.0717 81.0766 25.6574 80.6142 25.1757C80.1517 24.6939 79.7278 24.2122 79.3424 23.7305C78.957 23.268 78.6776 22.9019 78.5042 22.6321ZM70.0063 12.7179C70.0063 12.6794 70.0256 12.583 70.0641 12.4289C70.1219 12.2747 70.1797 12.1109 70.2375 11.9375C70.2953 11.7448 70.3531 11.5714 70.4109 11.4172C70.4688 11.2438 70.5073 11.1378 70.5266 11.0993H70.6711L71.0757 11.2727C71.1528 11.4076 71.2781 11.5232 71.4515 11.6195C71.6442 11.7159 71.8369 11.8026 72.0296 11.8797C72.2416 11.9568 72.4439 12.0338 72.6366 12.1109C72.8485 12.1687 73.022 12.2362 73.1569 12.3132L73.3592 12.6023L73.417 13.0069L73.0412 14.4522L72.7522 14.8279C72.7137 14.8472 72.6173 14.8857 72.4632 14.9435C72.309 14.9821 72.2126 15.0013 72.1741 15.0013H71.5093L70.9601 14.7412C70.7096 14.4714 70.488 14.1631 70.2953 13.8163C70.1026 13.4694 70.0063 13.1033 70.0063 12.7179Z" fill="black"/>
<path d="M97.0029 32.026V31.9971C97.2727 31.8815 97.5232 31.737 97.7544 31.5635C97.9857 31.3901 98.2458 31.3034 98.5349 31.3034C98.5734 31.3034 98.6119 31.2841 98.6505 31.2456C98.689 31.2263 98.689 31.1974 98.6505 31.1589C98.6505 31.0818 98.6986 31.0143 98.795 30.9565C98.8913 30.918 98.9973 30.8795 99.1129 30.8409C99.2286 30.8216 99.3442 30.8024 99.4598 30.7831C99.5754 30.7831 99.6621 30.7831 99.7199 30.7831C99.7392 30.7253 99.7392 30.6579 99.7199 30.5808C99.7007 30.523 99.6814 30.4652 99.6621 30.4074C99.6814 30.3303 99.7199 30.2917 99.7777 30.2917C99.8548 30.2917 99.9126 30.311 99.9512 30.3495C100.067 30.3495 100.182 30.3014 100.298 30.205C100.433 30.1087 100.558 30.0027 100.674 29.8871C100.789 29.7715 100.905 29.6558 101.021 29.5402C101.156 29.4439 101.3 29.3764 101.454 29.3379C101.589 29.2223 101.666 29.097 101.685 28.9621C101.705 28.8465 101.82 28.7983 102.032 28.8176L102.09 28.6731C102.225 28.5189 102.408 28.3359 102.639 28.1239C102.871 27.9119 103.102 27.6903 103.333 27.4591C103.564 27.2279 103.776 27.0063 103.969 26.7943C104.181 26.5823 104.316 26.3897 104.374 26.2162C104.451 26.0428 104.499 25.8694 104.518 25.6959C104.537 25.5418 104.605 25.378 104.72 25.2046C104.99 25.0697 105.318 24.8385 105.703 24.5109C106.108 24.2026 106.484 23.8557 106.83 23.4703C107.197 23.0849 107.505 22.6899 107.755 22.2852C108.025 21.8806 108.16 21.5145 108.16 21.1869L108.247 21.0713L108.536 21.1291C108.613 21.0134 108.69 20.8689 108.767 20.6955C108.863 20.5028 108.95 20.3005 109.027 20.0885C109.104 19.8573 109.172 19.6453 109.229 19.4526C109.307 19.2406 109.364 19.0576 109.403 18.9034C109.017 19.1732 108.565 19.4333 108.044 19.6838C107.543 19.9344 107.052 20.0789 106.57 20.1174L105.848 19.9151C105.578 19.6646 105.308 19.337 105.038 18.9323C104.788 18.5277 104.663 18.1326 104.663 17.7473C104.663 17.5931 104.701 17.4582 104.778 17.3426C104.855 17.2077 104.942 17.0921 105.038 16.9957C105.192 16.9572 105.462 16.726 105.848 16.302C106.252 15.8588 106.667 15.3771 107.091 14.8568C107.514 14.3173 107.89 13.8163 108.218 13.3538C108.545 12.8721 108.709 12.5541 108.709 12.4L108.622 12.3421C108.449 12.4192 108.256 12.5059 108.044 12.6023C107.832 12.6986 107.611 12.795 107.38 12.8913C107.168 12.9684 106.946 13.0359 106.715 13.0937C106.503 13.1515 106.31 13.1804 106.137 13.1804C105.809 13.1804 105.51 13.1129 105.241 12.978C104.971 12.8239 104.74 12.6312 104.547 12.4C104.374 12.1687 104.229 11.9086 104.113 11.6195C104.017 11.3112 103.969 11.0029 103.969 10.6946C103.969 10.6561 104.007 10.6175 104.084 10.579C104.162 10.5212 104.248 10.473 104.345 10.4345C104.46 10.3959 104.566 10.3574 104.663 10.3188C104.778 10.2803 104.855 10.2418 104.894 10.2032C105.067 10.0876 105.279 9.93345 105.53 9.74076C105.78 9.54806 106.031 9.34573 106.281 9.13377C106.532 8.9218 106.753 8.70984 106.946 8.49787C107.139 8.26664 107.264 8.04504 107.322 7.83307C107.38 7.756 107.447 7.64038 107.524 7.48622C107.62 7.31279 107.707 7.13937 107.784 6.96594C107.861 6.77325 107.929 6.59019 107.987 6.41676C108.044 6.24333 108.073 6.10845 108.073 6.0121C107.649 5.64598 107.322 5.27986 107.091 4.91374C106.879 4.52834 106.773 4.05624 106.773 3.49742L106.802 3.324L106.888 3.26619H107.062C107.235 3.26619 107.514 3.36254 107.9 3.55523C108.285 3.72866 108.671 3.92135 109.056 4.13332C109.461 4.32601 109.827 4.50908 110.154 4.6825C110.482 4.83666 110.694 4.89447 110.79 4.85593C110.944 5.06789 111.089 5.30876 111.224 5.57854C111.359 5.82904 111.426 6.08918 111.426 6.35895C111.426 6.4553 111.349 6.59982 111.195 6.79252C111.041 6.98521 110.858 7.19718 110.646 7.42841C110.453 7.64038 110.26 7.84271 110.068 8.0354C109.894 8.2281 109.769 8.37262 109.692 8.46897C109.384 8.64239 109.133 8.91217 108.94 9.27829C108.767 9.64441 108.584 9.97199 108.391 10.261V10.3188L109.461 9.94309L109.547 9.68295H109.692C109.981 9.7793 110.27 9.88528 110.559 10.0009C110.848 10.0972 111.118 10.2225 111.368 10.3767C111.638 10.5308 111.869 10.7139 112.062 10.9258C112.255 11.1378 112.39 11.3979 112.467 11.7063C112.293 12.0338 111.985 12.4096 111.542 12.8335C111.118 13.2382 110.675 13.6621 110.212 14.1053C109.769 14.5292 109.364 14.9532 108.998 15.3771C108.651 15.7818 108.478 16.1382 108.478 16.4466L108.622 16.5622C108.834 16.4658 109.008 16.3309 109.143 16.1575C109.297 15.9841 109.47 15.8396 109.663 15.724L109.808 15.695C110.154 15.9263 110.511 16.119 110.877 16.2731C111.262 16.408 111.609 16.5622 111.918 16.7356C112.226 16.909 112.476 17.1306 112.669 17.4004C112.881 17.6702 112.987 18.0556 112.987 18.5566C112.987 18.7685 112.92 19.1058 112.785 19.5682C112.65 20.0114 112.486 20.4835 112.293 20.9845C112.101 21.4663 111.908 21.9288 111.715 22.372C111.523 22.7959 111.368 23.1042 111.253 23.2969C111.041 23.6245 110.8 23.9328 110.53 24.2218C110.28 24.5109 110.02 24.7903 109.75 25.0601C109.499 25.3491 109.249 25.6381 108.998 25.9272C108.748 26.2355 108.526 26.5631 108.333 26.9099C108.237 27.0641 108.131 27.2086 108.015 27.3435C107.919 27.4977 107.794 27.6229 107.64 27.7193C107.37 27.8927 107.071 28.0083 106.744 28.0661C106.416 28.1239 106.108 28.2106 105.819 28.3262C105.087 28.6346 104.354 28.9332 103.622 29.2223C102.909 29.5113 102.215 29.8678 101.541 30.2917C101.406 30.3881 101.146 30.5615 100.76 30.812C100.375 31.0625 99.9704 31.3227 99.5465 31.5924C99.1418 31.8622 98.7565 32.1031 98.3903 32.315C98.0435 32.527 97.8315 32.633 97.7544 32.633C97.6388 32.633 97.4847 32.6137 97.292 32.5752L97.0029 32.026ZM92.754 25.0311C92.4842 25.378 92.1855 25.6478 91.858 25.8405C91.5304 26.0524 91.145 26.1584 90.7018 26.1584C90.143 26.0043 89.7479 25.7056 89.5167 25.2624C89.2855 24.8385 89.1699 24.3471 89.1699 23.7883C89.1699 23.3065 89.1988 22.8248 89.2566 22.343C89.3336 21.842 89.5167 21.3988 89.8058 21.0134C90.1911 21.1676 90.6536 21.3603 91.1932 21.5915C91.7327 21.8035 92.1566 22.0347 92.465 22.2852C92.6576 22.4394 92.8214 22.6321 92.9563 22.8633C93.0912 23.0753 93.2357 23.2776 93.3899 23.4703C93.544 23.6823 93.7175 23.8557 93.9102 23.9906C94.1221 24.1255 94.3919 24.1929 94.7195 24.1929L95.0374 24.164L95.2976 24.0195C95.4517 23.8268 95.5384 23.5956 95.5577 23.3258C95.577 23.056 95.5866 22.8055 95.5866 22.5743C95.5866 22.2274 95.5866 21.8806 95.5866 21.5337C95.5866 21.1869 95.5673 20.84 95.5288 20.4932H95.471C95.1627 20.4932 94.8736 20.5606 94.6039 20.6955C94.3534 20.8304 94.074 20.8978 93.7656 20.8978C93.4766 20.8978 93.2165 20.8111 92.9852 20.6377C92.754 20.4643 92.5517 20.2523 92.3782 20.0018C92.2241 19.7513 92.0988 19.4815 92.0025 19.1925C91.9061 18.9034 91.858 18.6337 91.858 18.3832C91.858 18.3253 91.8772 18.2579 91.9158 18.1808C92.0892 18.0459 92.2241 17.8821 92.3204 17.6894C92.4168 17.4968 92.5517 17.3426 92.7251 17.227V17.1114L92.6384 16.9957C92.1952 16.8223 91.8002 16.5044 91.4533 16.0419C91.1064 15.5794 90.933 15.0977 90.933 14.5967L90.9619 14.2498C91.1161 14.0571 91.2895 13.9608 91.4822 13.9608L91.7134 13.8163C91.8676 13.7777 92.0314 13.7681 92.2048 13.7874C92.3782 13.7874 92.542 13.797 92.6962 13.8163C92.6769 13.7199 92.6576 13.6428 92.6384 13.585C92.6384 13.508 92.6384 13.4212 92.6384 13.3249C92.6384 13.1322 92.6673 12.9491 92.7251 12.7757L92.8985 12.7468C92.9756 12.7853 93.043 12.8335 93.1008 12.8913C93.1779 12.9299 93.2646 12.9491 93.361 12.9491C93.5537 13.084 93.7849 13.2285 94.0547 13.3827C94.3245 13.5176 94.575 13.585 94.8062 13.585C94.9604 13.508 95.0856 13.4598 95.182 13.4405C95.2783 13.4212 95.4036 13.4309 95.5577 13.4694C95.7697 13.4116 96.0009 13.3056 96.2514 13.1515C96.5019 12.978 96.7235 12.8913 96.9162 12.8913C96.974 12.7564 97.0607 12.6697 97.1764 12.6312C97.292 12.5734 97.398 12.5059 97.4943 12.4289L97.6099 11.9086L97.7255 11.7641H97.9279C98.082 11.7641 98.3229 11.8315 98.6505 11.9664C98.9781 12.1013 99.3056 12.2651 99.6332 12.4578C99.9608 12.6505 100.24 12.8624 100.471 13.0937C100.722 13.3056 100.847 13.508 100.847 13.7007C100.847 13.7777 100.828 13.8548 100.789 13.9319C100.635 14.1246 100.414 14.3076 100.125 14.4811C99.8548 14.6352 99.5658 14.7894 99.2575 14.9435C98.9492 15.0977 98.6601 15.2518 98.3903 15.406C98.1398 15.5409 97.976 15.6758 97.899 15.8107C98.1109 16.0226 98.3325 16.1672 98.5638 16.2442C98.8143 16.302 99.0455 16.3695 99.2575 16.4466C99.4694 16.5236 99.6429 16.6489 99.7777 16.8223C99.9319 16.9765 100.009 17.2462 100.009 17.6316C99.9126 17.8436 99.7392 17.9881 99.4887 18.0652C99.2382 18.123 99.007 18.1519 98.795 18.1519C98.7179 18.1519 98.6216 18.1326 98.506 18.0941L98.188 17.8629C98.0917 17.8629 97.9664 17.9014 97.8123 17.9785C97.6774 18.0363 97.5328 18.1134 97.3787 18.2097C97.2245 18.2868 97.08 18.3832 96.9451 18.4988C96.8102 18.5951 96.7042 18.6722 96.6272 18.73L97.3209 18.9612C97.5714 19.1732 97.7833 19.5393 97.9568 20.0596C98.1302 20.5799 98.2651 21.1387 98.3614 21.7361C98.4578 22.3334 98.5252 22.9211 98.5638 23.4992C98.6216 24.0773 98.6505 24.5301 98.6505 24.8577C98.6505 25.1082 98.6119 25.3587 98.5349 25.6092C98.477 25.8597 98.3711 26.0813 98.2169 26.274C98.082 26.486 97.9086 26.6498 97.6966 26.7654C97.5039 26.9003 97.2631 26.9677 96.974 26.9677C96.5694 26.9677 96.184 26.9003 95.8179 26.7654C95.4517 26.6305 95.0952 26.4667 94.7484 26.274C94.4015 26.0813 94.0643 25.8694 93.7367 25.6381C93.4092 25.4069 93.0816 25.2046 92.754 25.0311ZM95.471 16.8223C95.5288 16.803 95.5962 16.803 95.6733 16.8223C95.7504 16.8416 95.8178 16.8609 95.8757 16.8801L95.9046 16.8223L95.8179 16.5044L95.9624 16.1575L96.1069 16.1286L96.1647 16.1575L96.2514 16.0708C96.2707 15.8974 96.3189 15.7529 96.3959 15.6372C96.4923 15.5024 96.5886 15.3675 96.685 15.2326C96.7813 15.0977 96.8584 14.9532 96.9162 14.799C96.9933 14.6256 97.0318 14.4233 97.0318 14.192C97.0318 14.0957 97.0126 14.0282 96.974 13.9897C96.7621 14.009 96.5501 14.1053 96.3381 14.2787C96.1454 14.4522 96.0009 14.616 95.9046 14.7701C95.8853 14.9628 95.7793 15.1459 95.5866 15.3193C95.4132 15.4734 95.2687 15.6276 95.1531 15.7818C95.1531 16.0515 95.0567 16.3117 94.864 16.5622C94.6713 16.7934 94.575 17.0728 94.575 17.4004V17.5738L94.6617 17.6605C94.7966 17.4486 94.8929 17.3233 94.9507 17.2848C95.0278 17.2463 95.1723 17.227 95.3843 17.227C95.4421 17.227 95.471 17.1692 95.471 17.0536C95.471 16.9379 95.471 16.8609 95.471 16.8223ZM97.1475 16.7645L97.3209 16.6489L97.292 16.5044L97.2053 16.3888L97.1186 16.3598C97.08 16.3598 97.0607 16.3791 97.0607 16.4177C97.08 16.4562 97.0704 16.4947 97.0318 16.5333C96.9162 16.6489 96.791 16.7549 96.6561 16.8512C96.5405 16.9476 96.4056 17.015 96.2514 17.0536L96.1647 17.1981L96.2225 17.3137H96.3381C96.4345 17.3137 96.5116 17.2848 96.5694 17.227C96.6464 17.1692 96.7043 17.1114 96.7428 17.0536C96.8006 16.9765 96.8584 16.909 96.9162 16.8512C96.974 16.7934 97.0511 16.7645 97.1475 16.7645ZM99.4887 22.4587C99.4887 22.343 99.5272 22.2274 99.6043 22.1118C99.7007 21.9962 99.7681 21.8902 99.8067 21.7939V21.6782C99.8067 21.4663 99.7777 21.264 99.7199 21.0713C99.6621 20.8786 99.6332 20.6762 99.6332 20.4643V19.7417L99.6621 19.5971L99.8356 19.5104C99.8934 19.5104 99.9415 19.5297 99.9801 19.5682C100.019 19.6068 100.057 19.6549 100.096 19.7128C100.134 19.7513 100.173 19.7898 100.211 19.8284C100.269 19.8669 100.327 19.8765 100.385 19.8573C100.751 19.9536 101.088 20.0981 101.396 20.2908C101.705 20.4835 102.052 20.6281 102.437 20.7244C102.61 20.7629 102.707 20.8882 102.726 21.1002C102.765 21.2929 102.784 21.4566 102.784 21.5915C102.784 22.054 102.726 22.5165 102.61 22.9789C102.514 23.4221 102.418 23.8653 102.321 24.3085L102.119 24.5687C101.907 24.7036 101.637 24.771 101.31 24.771C101.213 24.771 101.127 24.7614 101.05 24.7421C100.992 24.7421 100.915 24.7325 100.818 24.7132C100.433 24.5012 100.115 24.1833 99.8645 23.7594C99.614 23.3354 99.4887 22.9019 99.4887 22.4587ZM85.1811 11.5617L85.3256 11.186L85.5279 11.2149C85.6243 11.2149 85.7206 11.186 85.817 11.1282C85.9133 11.0511 86.0097 11.0125 86.106 11.0125C86.318 11.0125 86.5107 11.0896 86.6841 11.2438C86.8768 11.3979 87.0791 11.4943 87.2911 11.5328C87.5608 11.4943 87.8306 11.475 88.1004 11.475C88.3702 11.475 88.6399 11.475 88.9097 11.475C89.4493 11.475 89.9695 11.3787 90.4706 11.186C90.9716 10.9933 91.4918 10.8969 92.0314 10.8969C92.1085 10.8969 92.1855 10.9258 92.2626 10.9836C92.359 11.0222 92.436 11.0607 92.4939 11.0993H92.5806L92.6962 10.8391L92.8985 11.0125L93.0141 11.0415L93.0719 10.9547C93.0912 10.8199 93.1587 10.685 93.2743 10.5501C93.3899 10.3959 93.5055 10.2514 93.6211 10.1165C93.756 9.98163 93.8716 9.85638 93.968 9.74076C94.0836 9.60587 94.1414 9.49989 94.1414 9.42281C93.9294 9.15304 93.6886 8.8929 93.4188 8.64239C93.1683 8.37262 92.9274 8.10285 92.6962 7.83307L92.6095 7.86198C92.5131 7.95833 92.4071 8.0354 92.2915 8.09321C92.1952 8.15102 92.0988 8.21846 92.0025 8.29554C91.9254 8.31481 91.8387 8.34372 91.7423 8.38226C91.646 8.40152 91.5689 8.41116 91.5111 8.41116C91.2028 8.41116 90.9234 8.33408 90.6729 8.17992C90.4416 8.02577 90.2393 7.83307 90.0659 7.60184C89.8925 7.35133 89.7576 7.08156 89.6612 6.79252C89.5649 6.4842 89.5167 6.19516 89.5167 5.92539C89.6131 5.77123 89.7768 5.58817 90.0081 5.3762C90.2586 5.16424 90.4513 4.99081 90.5862 4.85593L90.5573 2.48577C90.5573 2.29308 90.5573 2.11002 90.5573 1.93659C90.5765 1.74389 90.6054 1.5512 90.644 1.3585H90.7307L90.8463 1.38741C90.9234 1.46449 91.039 1.5801 91.1932 1.73426C91.3666 1.86915 91.5111 1.92695 91.6267 1.90769C91.7423 1.96549 91.9061 2.03294 92.1181 2.11002C92.3301 2.18709 92.542 2.27381 92.754 2.37016C92.966 2.44723 93.1587 2.53395 93.3321 2.63029C93.5055 2.72664 93.6115 2.82299 93.65 2.91934C93.6693 3.09276 93.7078 3.25655 93.7656 3.41071C93.8235 3.56487 93.9294 3.69012 94.0836 3.78647L94.1125 3.93099C94.0161 4.08514 93.9391 4.22967 93.8813 4.36455C93.8427 4.48017 93.8235 4.62469 93.8235 4.79812V4.91374L93.9102 5.05826L94.1703 4.76921C94.1896 4.63433 94.2377 4.56688 94.3148 4.56688C94.4112 4.54761 94.4979 4.58615 94.575 4.6825C94.652 4.6825 94.6906 4.6536 94.6906 4.59579C94.7099 4.53798 94.7388 4.48017 94.7773 4.42236C94.8351 4.36455 94.9315 4.30674 95.0663 4.24894C95.2012 4.19113 95.4325 4.16222 95.76 4.16222C95.9335 4.16222 96.1454 4.20076 96.3959 4.27784C96.6657 4.35492 96.9162 4.44163 97.1475 4.53798C97.398 4.63433 97.6099 4.72104 97.7833 4.79812C97.976 4.8752 98.0724 4.91374 98.0724 4.91374C98.3036 4.48981 98.4192 4.04661 98.4192 3.58414C98.4192 3.31436 98.4096 3.05422 98.3903 2.80372C98.3711 2.55322 98.3133 2.30271 98.2169 2.05221L98.1013 1.96549C97.7159 2.13892 97.3016 2.2449 96.8584 2.28344C96.4345 2.30271 96.0202 2.38942 95.6155 2.54358C95.4228 2.79409 95.2012 3.00605 94.9507 3.17948C94.7002 3.33363 94.4304 3.45888 94.1414 3.55523L93.968 3.43962L93.8524 3.23728L93.8235 3.00605L93.9391 2.83262C94.0932 2.73628 94.2474 2.64956 94.4015 2.57248C94.575 2.47614 94.7388 2.37015 94.8929 2.25454C94.97 2.17746 95.0374 2.08111 95.0952 1.96549C95.1531 1.84988 95.2109 1.74389 95.2687 1.64755C95.3265 1.53193 95.3939 1.43558 95.471 1.3585C95.5673 1.28142 95.7022 1.24289 95.8757 1.24289C95.8949 1.12727 95.9527 1.01165 96.0491 0.896035L96.1647 0.809321H96.3092L96.3381 0.635896C96.473 0.481739 96.685 0.366121 96.974 0.289043C97.2823 0.192695 97.5328 0.105982 97.7255 0.028904C98.0531 0.221599 98.3807 0.385391 98.7083 0.520278C99.0551 0.635895 99.3538 0.780417 99.6043 0.953843C99.8741 1.12727 100.086 1.34887 100.24 1.61864C100.414 1.88842 100.5 2.25454 100.5 2.71701C100.5 2.98678 100.443 3.24692 100.327 3.49742C100.211 3.72866 100.086 3.96953 99.9512 4.22003C99.8356 4.45127 99.7199 4.69214 99.6043 4.94264C99.4887 5.17387 99.4309 5.42438 99.4309 5.69415C99.4309 5.7905 99.4502 5.89648 99.4887 6.0121C99.5465 6.10845 99.5754 6.21443 99.5754 6.33005L99.5465 6.59019L99.3731 6.79252C98.9877 6.96594 98.7372 7.149 98.6216 7.3417C98.5252 7.53439 98.3807 7.79453 98.188 8.12212L98.0146 8.23773L97.6966 9.71185L97.7255 9.74076C97.9568 9.74076 98.2073 9.70222 98.4771 9.62514C98.7468 9.54806 99.0166 9.45172 99.2864 9.3361C99.5561 9.22048 99.8066 9.08559 100.038 8.93144C100.269 8.75801 100.462 8.58459 100.616 8.41116L100.703 8.38226C101.088 8.53641 101.454 8.70984 101.801 8.90253C102.148 9.09523 102.514 9.26865 102.899 9.42281L103.073 9.59624C103.111 9.69258 103.14 9.78893 103.16 9.88528C103.179 9.98163 103.188 10.078 103.188 10.1743C103.073 10.4056 102.851 10.6272 102.524 10.8391C102.215 11.0511 101.859 11.2341 101.454 11.3883C101.069 11.5425 100.683 11.6773 100.298 11.793C99.9126 11.9086 99.5947 11.9953 99.3442 12.0531L99.1708 12.0242C98.9202 11.9086 98.795 11.687 98.795 11.3594C98.795 11.2823 98.8143 11.2149 98.8528 11.1571C98.8913 11.08 98.9588 11.0607 99.0551 11.0993L99.3442 10.3188H99.3731C99.4694 10.3188 99.5272 10.2707 99.5465 10.1743C99.5851 10.078 99.614 10.0009 99.6332 9.94309L99.5754 9.88528C99.19 10.0009 98.7757 10.1261 98.3325 10.261C97.8893 10.3959 97.4654 10.4634 97.0607 10.4634C96.868 10.579 96.6561 10.7428 96.4248 10.9547C96.2129 11.1667 95.9816 11.3787 95.7311 11.5906C95.4999 11.7833 95.259 11.9568 95.0085 12.1109C94.7773 12.2651 94.5461 12.3421 94.3148 12.3421C94.1607 12.3421 94.0258 12.294 93.9102 12.1976C93.8138 12.1013 93.6982 12.0531 93.5633 12.0531C93.1779 12.2843 92.7347 12.5348 92.2337 12.8046C91.7327 13.0551 91.2124 13.296 90.6729 13.5272C90.1333 13.7392 89.5938 13.9223 89.0542 14.0764C88.534 14.2113 88.0522 14.2787 87.609 14.2787C87.2622 14.2787 86.9346 14.2017 86.6263 14.0475C86.3372 13.8741 86.0867 13.6621 85.8748 13.4116C85.6628 13.1418 85.4894 12.8528 85.3545 12.5445C85.2389 12.2169 85.1811 11.8893 85.1811 11.5617ZM96.2225 6.73471C96.4345 6.65763 96.6079 6.54201 96.7428 6.38786C96.8777 6.2337 97.0607 6.12772 97.292 6.06991L97.2631 6.0121C97.186 5.97356 97.1185 5.95429 97.0607 5.95429C96.9451 5.95429 96.791 5.9832 96.5983 6.041C96.4056 6.09881 96.2032 6.17589 95.9913 6.27224C95.7986 6.34932 95.6252 6.44567 95.471 6.56128C95.3168 6.65763 95.2301 6.76361 95.2109 6.87923C95.3843 6.93704 95.5288 7.02375 95.6444 7.13937H95.8757L96.2225 6.73471Z" fill="#747474"/>
<path d="M112.833 31.1557L112.855 31.1292L112.892 31.1187C112.934 31.1187 112.969 31.1328 112.998 31.161C113.029 31.1892 113.065 31.2034 113.103 31.2034C113.121 31.2034 113.139 31.1981 113.156 31.1875C113.174 31.1804 113.19 31.1734 113.204 31.1663C113.303 31.1663 113.389 31.1469 113.463 31.1081C113.538 31.0728 113.62 31.0428 113.712 31.0181L113.739 31.0287L113.86 30.944H113.929V30.9069L113.945 30.891C114.016 30.8981 114.058 30.8698 114.072 30.8063C114.086 30.7922 114.102 30.7834 114.12 30.7798C114.138 30.7798 114.155 30.7798 114.173 30.7798C114.187 30.7587 114.208 30.7269 114.236 30.6845C114.268 30.6422 114.3 30.5981 114.332 30.5522C114.367 30.5098 114.402 30.4728 114.438 30.441C114.473 30.4057 114.503 30.3881 114.528 30.3881L114.543 30.3722C114.55 30.3404 114.57 30.3069 114.602 30.2716C114.633 30.2363 114.665 30.2134 114.697 30.2028C114.718 30.2098 114.73 30.201 114.734 30.1763C114.738 30.1516 114.743 30.134 114.75 30.1234C114.764 30.0846 114.785 30.0457 114.813 30.0069C114.842 29.9681 114.866 29.931 114.888 29.8957L114.866 29.8798C114.824 29.8975 114.78 29.9169 114.734 29.9381C114.692 29.9557 114.646 29.9646 114.596 29.9646C114.543 29.9646 114.494 29.9522 114.448 29.9275C114.402 29.9028 114.362 29.871 114.326 29.8322C114.295 29.7898 114.27 29.744 114.252 29.6946C114.235 29.6416 114.226 29.5904 114.226 29.541C114.226 29.5163 114.231 29.4934 114.242 29.4722L114.273 29.4457C114.319 29.4351 114.367 29.4263 114.416 29.4193C114.466 29.4087 114.508 29.3857 114.543 29.3504C114.589 29.3328 114.635 29.3169 114.681 29.3028C114.73 29.2887 114.776 29.2693 114.819 29.2446C114.858 29.2375 114.889 29.2216 114.914 29.1969C114.942 29.1722 114.976 29.1599 115.015 29.1599C115.036 29.121 115.064 29.0963 115.099 29.0857C115.135 29.0752 115.172 29.0628 115.21 29.0487C115.221 29.0204 115.228 28.9904 115.232 28.9587C115.235 28.9269 115.237 28.8952 115.237 28.8634C115.237 28.6516 115.23 28.4416 115.216 28.2334C115.205 28.0252 115.203 27.8152 115.21 27.6034C115.161 27.6528 115.115 27.6899 115.073 27.7146C115.03 27.7358 114.974 27.7552 114.903 27.7728C114.854 27.7693 114.813 27.7622 114.782 27.7516C114.753 27.7375 114.729 27.7234 114.708 27.7093C114.686 27.6952 114.663 27.6793 114.639 27.6616C114.614 27.644 114.582 27.6263 114.543 27.6087H114.512C114.494 27.6299 114.482 27.6458 114.475 27.6563C114.468 27.6669 114.45 27.6758 114.422 27.6828L114.379 27.7252C114.362 27.7887 114.333 27.8487 114.295 27.9052C114.259 27.9616 114.22 28.0181 114.178 28.0746C114.139 28.1275 114.099 28.1822 114.056 28.2387C114.014 28.2916 113.979 28.3481 113.95 28.4081C113.873 28.5634 113.8 28.7063 113.733 28.8369C113.666 28.964 113.606 29.0928 113.553 29.2234C113.504 29.3504 113.465 29.4846 113.437 29.6257C113.409 29.7669 113.395 29.9293 113.395 30.1128L113.347 30.1763C113.319 30.194 113.287 30.2063 113.252 30.2134C113.22 30.2204 113.186 30.224 113.151 30.224C113.109 30.224 113.068 30.2098 113.029 30.1816C112.99 30.1498 112.957 30.1128 112.929 30.0704C112.9 30.0246 112.878 29.9769 112.86 29.9275C112.846 29.8781 112.839 29.834 112.839 29.7951C112.839 29.7422 112.846 29.691 112.86 29.6416C112.878 29.5887 112.895 29.5375 112.913 29.4881C112.934 29.4351 112.952 29.384 112.966 29.3346C112.983 29.2816 112.992 29.2287 112.992 29.1757C112.992 29.1193 112.982 29.0575 112.96 28.9904C112.943 28.9199 112.915 28.8634 112.876 28.821C112.844 28.8034 112.809 28.7963 112.77 28.7999C112.735 28.7999 112.699 28.7928 112.664 28.7787C112.632 28.7646 112.6 28.7416 112.569 28.7099C112.537 28.6781 112.509 28.641 112.484 28.5987C112.459 28.5563 112.438 28.514 112.42 28.4716C112.406 28.4293 112.399 28.3905 112.399 28.3552L112.405 28.3022L112.42 28.2705L112.442 28.2652L112.51 28.2863L112.537 28.281L112.563 28.2599H112.611C112.629 28.2599 112.646 28.2652 112.664 28.2758C112.685 28.2828 112.703 28.2916 112.717 28.3022H112.754C112.761 28.3022 112.773 28.2987 112.791 28.2916C112.812 28.281 112.832 28.2705 112.849 28.2599C112.87 28.2493 112.888 28.2405 112.902 28.2334C112.92 28.2228 112.929 28.2175 112.929 28.2175C112.929 28.2034 112.936 28.1963 112.95 28.1963C112.968 28.1928 112.98 28.191 112.987 28.191C113.019 28.191 113.043 28.1787 113.061 28.154C113.079 28.1258 113.102 28.1116 113.13 28.1116C113.14 28.101 113.155 28.0852 113.172 28.064C113.19 28.0428 113.208 28.0199 113.225 27.9952C113.243 27.9705 113.257 27.9475 113.268 27.9263C113.282 27.9052 113.289 27.8875 113.289 27.8734C113.289 27.824 113.276 27.7781 113.252 27.7358C113.23 27.6934 113.22 27.6475 113.22 27.5981L113.225 27.5505L113.241 27.5293H113.268C113.296 27.5293 113.326 27.5399 113.358 27.5611C113.389 27.5787 113.423 27.5999 113.458 27.6246C113.497 27.6458 113.534 27.6669 113.569 27.6881C113.608 27.7058 113.647 27.7146 113.686 27.7146L113.723 27.7516C113.758 27.7587 113.786 27.7693 113.808 27.7834C113.832 27.794 113.859 27.8116 113.887 27.8363L113.929 27.9899C113.908 28.0463 113.859 28.0905 113.781 28.1222C113.703 28.154 113.619 28.1858 113.527 28.2175C113.439 28.2458 113.352 28.2793 113.268 28.3181C113.186 28.3569 113.13 28.4081 113.098 28.4716C113.144 28.514 113.179 28.5669 113.204 28.6305C113.232 28.694 113.253 28.761 113.268 28.8316C113.282 28.8987 113.292 28.9675 113.299 29.0381C113.31 29.1087 113.32 29.174 113.331 29.234C113.366 29.1775 113.402 29.121 113.437 29.0646C113.472 29.0081 113.504 28.9499 113.532 28.8899C113.55 28.8828 113.564 28.8704 113.575 28.8528C113.585 28.8352 113.594 28.8175 113.601 28.7999C113.601 28.7928 113.617 28.7593 113.649 28.6993C113.684 28.6357 113.721 28.5687 113.76 28.4981C113.802 28.4275 113.841 28.3622 113.876 28.3022C113.912 28.2422 113.933 28.2087 113.94 28.2016C113.943 28.1805 113.949 28.161 113.956 28.1434C113.966 28.1222 113.972 28.1028 113.972 28.0852C114.06 28.0146 114.132 27.9193 114.189 27.7993C114.245 27.6793 114.291 27.5611 114.326 27.4446C114.365 27.3281 114.393 27.2258 114.411 27.1375C114.432 27.0493 114.448 27.0016 114.459 26.9946C114.469 26.9981 114.485 27.0069 114.506 27.0211C114.528 27.0316 114.55 27.044 114.575 27.0581C114.6 27.0687 114.621 27.0811 114.639 27.0952C114.656 27.1058 114.667 27.1146 114.67 27.1216C114.72 27.1605 114.78 27.1799 114.85 27.1799C114.865 27.1799 114.879 27.1869 114.893 27.2011C114.907 27.2152 114.919 27.2328 114.93 27.254C114.944 27.2716 114.956 27.2911 114.967 27.3122C114.981 27.3299 114.992 27.344 114.999 27.3546C115.041 27.3722 115.08 27.3811 115.115 27.3811L115.126 27.3387H115.158L115.195 27.3175L115.2 27.254C115.2 27.1799 115.189 27.1058 115.168 27.0316C115.15 26.9575 115.131 26.8834 115.11 26.8093C115.089 26.7352 115.068 26.6628 115.046 26.5922C115.029 26.5181 115.02 26.444 115.02 26.3699V26.3328L115.046 26.2958L115.083 26.2905C115.161 26.3117 115.239 26.3452 115.316 26.3911C115.394 26.4334 115.468 26.474 115.539 26.5128C115.56 26.5234 115.588 26.5675 115.623 26.6452C115.659 26.7193 115.696 26.8005 115.735 26.8887C115.777 26.9769 115.817 27.0581 115.856 27.1322C115.895 27.2064 115.927 27.2452 115.952 27.2487C115.969 27.2205 115.996 27.2011 116.031 27.1905C116.07 27.1764 116.11 27.164 116.153 27.1534C116.195 27.1428 116.236 27.1322 116.275 27.1216C116.313 27.1075 116.343 27.0864 116.365 27.0581C116.382 27.0299 116.398 27.0034 116.412 26.9787C116.426 26.954 116.447 26.9311 116.476 26.9099C116.483 26.924 116.492 26.9399 116.502 26.9575C116.516 26.9716 116.532 26.9787 116.55 26.9787C116.592 26.9964 116.638 27.014 116.687 27.0316C116.737 27.0458 116.783 27.0652 116.825 27.0899C116.871 27.1111 116.91 27.1393 116.942 27.1746C116.977 27.2099 117 27.254 117.01 27.3069L116.989 27.3811C116.968 27.4022 116.938 27.4216 116.899 27.4393C116.86 27.4534 116.82 27.4658 116.777 27.4763C116.735 27.4869 116.693 27.4958 116.65 27.5028C116.612 27.5063 116.576 27.5081 116.545 27.5081C116.52 27.5081 116.499 27.5046 116.481 27.4975C116.463 27.4905 116.446 27.4816 116.428 27.4711C116.407 27.4428 116.382 27.4093 116.354 27.3705C116.329 27.3281 116.303 27.2981 116.275 27.2805C116.229 27.2875 116.181 27.2964 116.132 27.3069C116.086 27.314 116.042 27.3264 115.999 27.344L115.994 27.3652L116.29 28.0375C116.308 28.0763 116.335 28.1099 116.37 28.1381C116.409 28.1628 116.439 28.1946 116.46 28.2334C116.488 28.2899 116.507 28.3481 116.518 28.4081C116.532 28.4681 116.557 28.5263 116.592 28.5828C116.613 28.6181 116.645 28.6605 116.687 28.7099C116.73 28.7557 116.77 28.8034 116.809 28.8528C116.848 28.9022 116.882 28.9516 116.91 29.001C116.942 29.0504 116.957 29.0963 116.957 29.1387C116.957 29.1563 116.954 29.1757 116.947 29.1969C116.89 29.2499 116.802 29.2887 116.682 29.3134C116.562 29.3346 116.432 29.3522 116.29 29.3663C116.153 29.3804 116.015 29.3981 115.877 29.4193C115.743 29.4369 115.634 29.4687 115.549 29.5146C115.528 29.5251 115.512 29.5657 115.502 29.6363C115.495 29.7069 115.488 29.7863 115.48 29.8746C115.477 29.9593 115.475 30.0422 115.475 30.1234C115.475 30.201 115.475 30.254 115.475 30.2822C115.383 30.374 115.308 30.4657 115.248 30.5575C115.191 30.6493 115.128 30.7445 115.057 30.8434C115.039 30.8681 114.992 30.891 114.914 30.9122C114.836 30.9369 114.743 30.9634 114.633 30.9916C114.524 31.0198 114.406 31.0498 114.279 31.0816C114.152 31.1169 114.028 31.1575 113.908 31.2034C113.788 31.2492 113.679 31.3004 113.58 31.3569C113.485 31.4169 113.412 31.4857 113.363 31.5634C113.299 31.6022 113.223 31.6216 113.135 31.6216C113.096 31.6216 113.058 31.6057 113.019 31.5739C112.983 31.5422 112.952 31.5034 112.923 31.4575C112.895 31.4151 112.872 31.3692 112.855 31.3198C112.837 31.2704 112.828 31.2281 112.828 31.1928L112.833 31.1557ZM116.036 29.1863C116.072 29.1581 116.117 29.1263 116.174 29.091C116.23 29.0522 116.282 29.0328 116.327 29.0328C116.356 29.0187 116.372 28.9834 116.375 28.9269C116.382 28.8669 116.386 28.8228 116.386 28.7946C116.386 28.7663 116.382 28.7363 116.375 28.7046C116.368 28.6693 116.356 28.6393 116.338 28.6146L116.317 28.6199C116.264 28.6587 116.211 28.7028 116.158 28.7522C116.109 28.7981 116.059 28.8457 116.01 28.8952C115.96 28.941 115.907 28.9869 115.851 29.0328C115.798 29.0752 115.742 29.1087 115.682 29.1334C115.671 29.144 115.659 29.1599 115.645 29.181C115.634 29.2022 115.623 29.2269 115.613 29.2552C115.602 29.2799 115.593 29.3046 115.586 29.3293C115.579 29.3504 115.576 29.3681 115.576 29.3822H115.586C115.632 29.3646 115.678 29.3522 115.724 29.3451C115.773 29.3381 115.821 29.3257 115.867 29.3081C115.899 29.2975 115.927 29.2746 115.952 29.2393C115.976 29.204 116.005 29.1863 116.036 29.1863ZM115.904 28.2546C115.904 28.2016 115.888 28.154 115.856 28.1116C115.828 28.0658 115.814 28.0163 115.814 27.9634L115.819 27.921L115.84 27.8946H115.862C115.872 27.8946 115.89 27.9016 115.915 27.9158C115.939 27.9299 115.966 27.9458 115.994 27.9634C116.026 27.981 116.054 27.9987 116.079 28.0163C116.107 28.034 116.13 28.0446 116.147 28.0481C116.14 28.0234 116.123 27.9775 116.095 27.9105C116.07 27.8399 116.04 27.7675 116.005 27.6934C115.969 27.6158 115.934 27.5469 115.899 27.4869C115.867 27.4234 115.842 27.3864 115.825 27.3758H115.803C115.793 27.3758 115.78 27.3775 115.766 27.3811C115.752 27.3846 115.74 27.3881 115.729 27.3916L115.708 27.4181L115.703 27.4763C115.703 27.5187 115.708 27.5593 115.719 27.5981C115.733 27.6369 115.742 27.6775 115.745 27.7199C115.752 27.8152 115.756 27.9122 115.756 28.011C115.756 28.1063 115.756 28.2016 115.756 28.2969V28.4928C115.784 28.4646 115.816 28.4275 115.851 28.3816C115.886 28.3358 115.904 28.2934 115.904 28.2546ZM115.629 27.0316V27.0422C115.629 27.074 115.636 27.1181 115.65 27.1746C115.667 27.2311 115.687 27.2699 115.708 27.2911L115.735 27.2964L115.756 27.2646C115.756 27.2505 115.75 27.2328 115.74 27.2116C115.733 27.1869 115.722 27.1622 115.708 27.1375C115.697 27.1128 115.683 27.0916 115.666 27.074C115.652 27.0528 115.639 27.0387 115.629 27.0316ZM116.047 30.4357L116.042 30.404H116.073C116.109 30.404 116.144 30.4216 116.179 30.4569C116.215 30.4887 116.252 30.524 116.29 30.5628C116.333 30.6016 116.377 30.6351 116.423 30.6634C116.472 30.6951 116.523 30.7092 116.576 30.7057L116.608 30.6792L116.613 30.5998C116.592 30.5398 116.56 30.4922 116.518 30.4569C116.479 30.4181 116.439 30.381 116.396 30.3457C116.354 30.3069 116.312 30.2628 116.269 30.2134C116.23 30.164 116.2 30.0934 116.179 30.0016L116.19 29.9222H116.232C116.239 29.9222 116.253 29.9275 116.275 29.9381C116.296 29.9451 116.317 29.9557 116.338 29.9698C116.363 29.984 116.384 29.9981 116.402 30.0122C116.423 30.0228 116.437 30.0316 116.444 30.0387C116.702 30.1093 116.889 30.2204 117.005 30.3722C117.122 30.524 117.18 30.734 117.18 31.0022C117.18 31.0975 117.153 31.1575 117.1 31.1822C117.047 31.2104 116.98 31.2245 116.899 31.2245C116.839 31.2245 116.767 31.1928 116.682 31.1292C116.601 31.0657 116.518 30.9898 116.433 30.9016C116.349 30.8134 116.271 30.7251 116.2 30.6369C116.13 30.5522 116.079 30.4851 116.047 30.4357ZM114.49 28.6199C114.49 28.6128 114.494 28.5952 114.501 28.5669C114.512 28.5387 114.522 28.5087 114.533 28.4769C114.543 28.4416 114.554 28.4099 114.565 28.3816C114.575 28.3499 114.582 28.3305 114.586 28.3234H114.612L114.686 28.3552C114.7 28.3799 114.723 28.401 114.755 28.4187C114.79 28.4363 114.826 28.4522 114.861 28.4663C114.9 28.4805 114.937 28.4946 114.972 28.5087C115.011 28.5193 115.043 28.5316 115.068 28.5457L115.105 28.5987L115.115 28.6728L115.046 28.9375L114.993 29.0063C114.986 29.0099 114.969 29.0169 114.94 29.0275C114.912 29.0346 114.895 29.0381 114.888 29.0381H114.766L114.665 28.9904C114.619 28.941 114.579 28.8846 114.543 28.821C114.508 28.7575 114.49 28.6905 114.49 28.6199Z" fill="#BD0000"/>
<path d="M115.639 35.481L115.655 35.4651C115.697 35.4827 115.738 35.511 115.777 35.5498C115.819 35.5851 115.86 35.6257 115.899 35.6715C115.941 35.7139 115.982 35.7562 116.02 35.7986C116.063 35.8374 116.109 35.8674 116.158 35.8886L116.174 35.8674C116.167 35.8074 116.13 35.7245 116.063 35.6186C115.996 35.5127 115.916 35.4104 115.825 35.3115C115.736 35.2092 115.645 35.121 115.549 35.0468C115.454 34.9727 115.375 34.9357 115.311 34.9357C115.311 34.9463 115.299 34.9621 115.274 34.9833C115.253 35.001 115.228 35.0204 115.2 35.0415C115.175 35.0627 115.149 35.0821 115.12 35.0998C115.096 35.1174 115.078 35.1315 115.068 35.1421C114.965 35.2339 114.866 35.3257 114.771 35.4174C114.679 35.5057 114.58 35.5851 114.475 35.6557C114.372 35.7262 114.261 35.7827 114.141 35.8251C114.025 35.8709 113.89 35.8939 113.739 35.8939C113.661 35.8939 113.582 35.8674 113.5 35.8145C113.423 35.7651 113.347 35.6998 113.273 35.6186C113.202 35.5374 113.135 35.4457 113.072 35.3433C113.012 35.2374 112.959 35.1315 112.913 35.0257C112.867 34.9198 112.83 34.8192 112.802 34.7239C112.777 34.6251 112.765 34.5404 112.765 34.4698C112.765 34.3392 112.789 34.2386 112.839 34.168C112.892 34.0939 112.959 34.0392 113.04 34.0039C113.121 33.9651 113.215 33.9421 113.32 33.9351C113.426 33.9245 113.532 33.9192 113.638 33.9192C113.663 33.9192 113.691 33.921 113.723 33.9245C113.758 33.9245 113.788 33.9298 113.813 33.9404C113.887 33.9333 113.972 33.951 114.067 33.9933C114.166 34.0357 114.266 34.0833 114.369 34.1363C114.471 34.1892 114.573 34.2386 114.676 34.2845C114.778 34.3269 114.872 34.348 114.956 34.348L114.972 34.3374C115.011 34.2457 115.057 34.1557 115.11 34.0674C115.166 33.9792 115.223 33.8927 115.279 33.808C115.29 33.7586 115.313 33.6916 115.348 33.6069C115.383 33.5222 115.42 33.4339 115.459 33.3422C115.498 33.2504 115.537 33.1604 115.576 33.0722C115.618 32.9839 115.65 32.9098 115.671 32.8498L115.666 32.8233C115.645 32.7986 115.622 32.7704 115.597 32.7386C115.572 32.7069 115.549 32.6751 115.528 32.6433C115.507 32.608 115.488 32.5728 115.47 32.5375C115.456 32.4986 115.449 32.4633 115.449 32.4316L115.454 32.3416L115.486 32.3098C115.539 32.3451 115.609 32.3857 115.697 32.4316C115.789 32.4775 115.877 32.5286 115.962 32.5851C116.05 32.6416 116.126 32.7033 116.19 32.7704C116.257 32.8375 116.29 32.908 116.29 32.9822C116.29 32.9892 116.287 33.0016 116.28 33.0192C116.276 33.0369 116.273 33.0492 116.269 33.0563C116.223 33.0986 116.197 33.1339 116.19 33.1622C116.183 33.1904 116.172 33.2327 116.158 33.2892C116.13 33.3245 116.1 33.3722 116.068 33.4322C116.04 33.4886 116.029 33.5398 116.036 33.5857L116.042 33.591C116.042 33.6545 116.017 33.7304 115.967 33.8186C115.922 33.9069 115.869 33.9986 115.809 34.0939C115.749 34.1892 115.69 34.2827 115.634 34.3745C115.578 34.4627 115.542 34.5386 115.528 34.6021L115.539 34.6286C115.588 34.671 115.641 34.7045 115.697 34.7292C115.754 34.7539 115.807 34.7857 115.856 34.8245C115.945 34.8915 116.042 34.9763 116.147 35.0786C116.253 35.181 116.35 35.2921 116.439 35.4121C116.53 35.5321 116.606 35.6574 116.666 35.788C116.726 35.9151 116.756 36.0368 116.756 36.1533C116.756 36.2239 116.744 36.2751 116.719 36.3068C116.698 36.3386 116.661 36.3756 116.608 36.418C116.594 36.4215 116.575 36.4268 116.55 36.4339C116.529 36.4409 116.513 36.4445 116.502 36.4445C116.421 36.4445 116.338 36.4056 116.253 36.328C116.169 36.2539 116.087 36.1639 116.01 36.058C115.936 35.9557 115.865 35.8498 115.798 35.7404C115.735 35.631 115.682 35.5445 115.639 35.481ZM114.713 34.6392C114.706 34.6286 114.655 34.6039 114.559 34.5651C114.464 34.5227 114.358 34.4804 114.242 34.438C114.125 34.3957 114.016 34.3586 113.913 34.3269C113.811 34.2916 113.749 34.2739 113.728 34.2739C113.654 34.2739 113.582 34.288 113.511 34.3163C113.44 34.341 113.379 34.378 113.326 34.4274C113.273 34.4733 113.23 34.528 113.199 34.5916C113.167 34.6551 113.151 34.7239 113.151 34.798C113.151 34.9215 113.176 35.0415 113.225 35.158C113.278 35.271 113.358 35.3645 113.463 35.4386L113.522 35.4439C113.645 35.4439 113.751 35.4245 113.839 35.3857C113.931 35.3433 114.016 35.2904 114.093 35.2268C114.171 35.1633 114.245 35.0945 114.316 35.0204C114.386 34.9463 114.462 34.8757 114.543 34.8086C114.572 34.7839 114.6 34.7574 114.628 34.7292C114.656 34.6974 114.685 34.6674 114.713 34.6392ZM114.252 33.501C114.27 33.4727 114.291 33.4463 114.316 33.4216C114.34 33.3933 114.367 33.3669 114.395 33.3422C114.318 33.3033 114.249 33.2416 114.189 33.1569C114.132 33.0722 114.104 32.9857 114.104 32.8975L114.109 32.8445L114.136 32.818L114.231 32.8657C114.263 32.8692 114.296 32.8798 114.332 32.8975C114.367 32.9116 114.4 32.9222 114.432 32.9292L114.448 32.9239C114.48 32.9239 114.522 32.9363 114.575 32.961C114.632 32.9857 114.69 33.0139 114.75 33.0457C114.813 33.0775 114.873 33.1057 114.93 33.1304C114.986 33.1551 115.03 33.1675 115.062 33.1675L115.083 33.1833C115.101 33.2116 115.115 33.2398 115.126 33.268C115.136 33.2927 115.142 33.321 115.142 33.3527C115.142 33.3739 115.11 33.4057 115.046 33.448C114.983 33.4869 114.91 33.5257 114.829 33.5645C114.752 33.6033 114.674 33.6386 114.596 33.6704C114.522 33.6986 114.473 33.7127 114.448 33.7127L114.385 33.7074C114.349 33.6898 114.318 33.6651 114.289 33.6333C114.265 33.6016 114.252 33.5663 114.252 33.5274V33.501Z" fill="#BD0000"/>
<path d="M113.532 22.7995C113.756 22.8039 113.975 22.8255 114.252 22.8721C114.519 22.9273 115.144 22.9066 115.706 23.1549C115.961 23.2581 116.338 23.2296 116.554 23.2247C116.759 23.2135 117.052 23.2782 117.235 23.5399C117.35 23.7322 117.588 24.0007 117.687 24.2077C117.744 24.3139 117.757 24.4195 117.741 24.4916C117.735 24.5225 117.715 24.5354 117.696 24.5353L117.679 24.5321C117.662 24.5258 117.648 24.5108 117.643 24.4894C117.612 24.3415 117.421 24.197 117.142 24.0756C117.016 24.0175 116.916 23.9555 116.831 23.8632C116.737 23.791 116.624 23.6517 116.048 23.6696C115.877 23.6683 115.71 23.6777 115.502 23.6136C115.108 23.5379 114.744 23.6289 114.06 23.5823C113.862 23.569 113.693 23.5812 113.532 23.5989C113.105 23.6884 112.949 23.9157 112.116 24.1984C111.866 24.2913 111.682 24.4066 111.54 24.5246C111.101 24.9328 111.288 25.1269 111.089 25.9594C111.084 25.9801 111.079 26.0013 111.074 26.0228C110.886 26.7895 110.633 27.7888 110.411 28.5856C110.33 28.8652 110.283 29.124 110.27 29.3234C110.221 30.0219 110.287 30.9811 110.277 32.0305C110.275 32.2139 110.28 32.4055 110.288 32.6035C110.313 33.2123 110.46 33.9134 110.458 34.6706C110.456 34.9376 110.469 35.1999 110.487 35.4573C110.522 36.0722 110.766 36.8381 111.13 37.4443C111.331 37.8075 111.658 38.0446 111.902 38.1804C112.534 38.4981 112.749 38.5211 113.459 38.5016C113.871 38.4832 114.445 38.4909 114.94 38.6039C115.187 38.6628 115.13 38.7466 114.885 38.7898C114.527 38.8551 114.228 38.8253 114.041 38.9326C113.667 39.1455 113.493 39.232 113.004 39.075C112.525 38.9106 112.239 39.132 111.936 39.0138C111.793 38.9536 111.732 38.8874 111.538 38.7715C111.355 38.6419 110.979 38.5169 110.461 37.9305C110.433 37.8977 110.405 37.864 110.375 37.8286C109.415 36.6402 109.284 35.6934 109.196 35.1208C109.179 34.9968 109.173 34.8432 109.178 34.6706C109.205 34.1606 109.18 33.3657 109.112 32.6558C109.111 32.6408 109.109 32.6258 109.108 32.6108C109.009 31.7649 108.992 29.9716 109.006 29.2081C109 28.7279 109.089 28.5526 109.201 28.349C109.265 28.2438 109.337 28.1255 109.411 27.9277C109.613 27.3891 109.229 26.8644 109.459 26.1529C109.55 25.8793 109.653 25.7039 109.754 25.5469C109.92 25.3133 110.018 25.1132 110.278 24.5657C110.444 24.2383 110.718 23.9775 110.965 23.8023C111.369 23.512 111.763 23.3164 111.955 23.1437C112.27 22.8765 112.418 23.1105 112.941 22.9014C113.152 22.8268 113.348 22.7966 113.532 22.7995Z" fill="#BD0000"/>
<path d="M118.604 25.4358C118.813 25.3709 118.903 25.3619 118.835 25.4928C118.765 25.6196 119.029 25.5292 119.022 25.5894C119.012 25.649 118.867 25.7069 119.063 25.8821C119.256 26.065 119.312 26.1869 119.36 26.2638C119.409 26.344 119.298 26.5396 119.367 26.6576C119.437 26.7797 119.423 27.0308 119.52 27.1029C119.581 27.1497 119.531 27.1763 119.463 27.2134C119.425 27.2371 119.381 27.265 119.349 27.3015C119.262 27.3993 119.72 27.386 119.674 27.4964C119.627 27.6066 119.393 27.6608 119.464 27.765C119.536 27.8702 119.391 28.009 119.496 28.0451C119.601 28.0818 119.306 28.13 119.382 28.1924C119.458 28.2553 119.425 28.3053 119.337 28.3807C119.249 28.4568 119.188 28.6571 119.313 28.7191C119.438 28.7826 119.237 28.8832 119.188 28.9328C119.173 28.9491 119.152 28.9618 119.131 28.9707C119.122 28.9746 119.102 28.9763 119.083 28.9763L119.05 28.9744C119.041 28.9732 119.034 28.9715 119.033 28.9692C119.018 28.9468 118.979 28.9122 118.891 28.8783C118.726 28.8158 118.903 28.7958 118.811 28.7021C118.719 28.6088 118.548 28.5702 118.639 28.4382C118.729 28.3039 118.283 28.3399 118.509 28.1353C118.733 27.9275 118.268 27.9813 118.18 27.8254C118.116 27.7143 118.208 27.5516 118.252 27.4337C118.267 27.3775 118.277 27.3313 118.266 27.2995C118.227 27.1891 118.154 27.0516 118.195 26.9021C118.236 26.7497 118.057 26.6144 118.134 26.4586C118.213 26.2996 118.285 26.0718 118.33 25.9465C118.376 25.8226 118.381 25.7852 118.285 25.7337C118.23 25.7043 118.22 25.6325 118.274 25.5068C118.301 25.4435 118.37 25.3946 118.426 25.4C118.506 25.4084 118.5 25.4691 118.604 25.4358Z" fill="#BD0000"/>
<path d="M119.098 30.145C119.158 30.0286 119.242 30.055 119.283 30.1721C119.342 30.3433 119.302 30.4839 119.408 30.5721C119.618 30.7484 119.699 30.8233 119.576 31.0458C119.454 31.2684 119.732 31.3734 119.7 31.5032C119.668 31.6328 119.504 31.6308 119.63 32.2903C119.757 32.9499 119.789 33.3116 119.82 33.5614C119.85 33.8113 119.708 34.333 119.759 34.7402C119.77 34.825 119.776 34.9281 119.78 35.0411C119.785 35.4374 119.87 35.8538 119.977 36.2503C120.075 36.7615 119.844 36.8037 119.635 37.0749C119.447 37.2923 119.609 37.6192 119.501 37.8919C119.493 37.9221 119.477 37.9515 119.449 37.98C119.261 38.1793 119.026 38.1286 118.895 38.4977C118.762 38.8829 118.359 39.1677 118.239 39.3859C118.101 39.6167 117.924 39.4022 117.636 39.5634C117.525 39.6164 117.419 39.6368 117.322 39.6364C117.257 39.6369 117.214 39.604 117.079 39.5903C116.907 39.5912 116.308 39.7097 116.018 39.7434C115.955 39.7524 115.892 39.7505 115.84 39.7458C115.339 39.6139 115.489 39.1764 115.461 39.0367C115.456 38.9855 115.46 38.9427 115.467 38.9072C115.47 38.8921 115.485 38.8785 115.502 38.8699C115.523 38.8593 115.549 38.8571 115.559 38.8714C115.607 38.9378 115.687 39.0413 115.82 39.1194C116.028 39.2238 115.972 39.3112 116.018 39.2993C116.049 39.2958 116.082 39.2891 116.119 39.2777C116.466 39.1683 116.41 38.9943 116.942 38.8956C117.086 38.876 117.211 38.8528 117.322 38.8307C117.48 38.7343 117.347 38.6148 117.678 38.5505C118.17 38.3275 117.772 38.0141 117.99 37.4624C118.043 37.3328 118.12 37.1932 118.231 37.0454C118.525 36.6812 118.75 36.499 118.711 36.3448C118.674 36.1431 118.494 35.5659 118.558 35.0411C118.56 35.0239 118.562 35.0067 118.564 34.9894C118.626 34.4914 118.47 33.8764 118.58 33.3266C118.69 32.7769 118.829 31.9997 118.922 31.6406C119.015 31.2816 119.036 31.194 118.98 30.8485C118.947 30.6499 118.978 30.3761 119.098 30.145Z" fill="#BD0000"/>
</svg>
