<svg width="56" height="210" viewBox="0 0 56 210" fill="none" xmlns="http://www.w3.org/2000/svg">
<path d="M9.848 47.112L10.04 46.872L10.376 46.776C10.76 46.776 11.08 46.904 11.336 47.16C11.624 47.416 11.944 47.544 12.296 47.544C12.456 47.544 12.616 47.496 12.776 47.4C12.936 47.336 13.08 47.272 13.208 47.208C14.104 47.208 14.888 47.032 15.56 46.68C16.232 46.36 16.984 46.088 17.816 45.864L18.056 45.96L19.16 45.192H19.784V44.856L19.928 44.712C20.568 44.776 20.952 44.52 21.08 43.944C21.208 43.816 21.352 43.736 21.512 43.704C21.672 43.704 21.832 43.704 21.992 43.704C22.12 43.512 22.312 43.224 22.568 42.84C22.856 42.456 23.144 42.056 23.432 41.64C23.752 41.256 24.072 40.92 24.392 40.632C24.712 40.312 24.984 40.152 25.208 40.152L25.352 40.008C25.416 39.72 25.592 39.416 25.88 39.096C26.168 38.776 26.456 38.568 26.744 38.472C26.936 38.536 27.048 38.456 27.08 38.232C27.112 38.008 27.16 37.848 27.224 37.752C27.352 37.4 27.544 37.048 27.8 36.696C28.056 36.344 28.28 36.008 28.472 35.688L28.28 35.544C27.896 35.704 27.496 35.88 27.08 36.072C26.696 36.232 26.28 36.312 25.832 36.312C25.352 36.312 24.904 36.2 24.488 35.976C24.072 35.752 23.704 35.464 23.384 35.112C23.096 34.728 22.872 34.312 22.712 33.864C22.552 33.384 22.472 32.92 22.472 32.472C22.472 32.248 22.52 32.04 22.616 31.848L22.904 31.608C23.32 31.512 23.752 31.432 24.2 31.368C24.648 31.272 25.032 31.064 25.352 30.744C25.768 30.584 26.184 30.44 26.6 30.312C27.048 30.184 27.464 30.008 27.848 29.784C28.2 29.72 28.488 29.576 28.712 29.352C28.968 29.128 29.272 29.016 29.624 29.016C29.816 28.664 30.072 28.44 30.392 28.344C30.712 28.248 31.048 28.136 31.4 28.008C31.496 27.752 31.56 27.48 31.592 27.192C31.624 26.904 31.64 26.616 31.64 26.328C31.64 24.408 31.576 22.504 31.448 20.616C31.352 18.728 31.336 16.824 31.4 14.904C30.952 15.352 30.536 15.688 30.152 15.912C29.768 16.104 29.256 16.28 28.616 16.44C28.168 16.408 27.8 16.344 27.512 16.248C27.256 16.12 27.032 15.992 26.84 15.864C26.648 15.736 26.44 15.592 26.216 15.432C25.992 15.272 25.704 15.112 25.352 14.952H25.064C24.904 15.144 24.792 15.288 24.728 15.384C24.664 15.48 24.504 15.56 24.248 15.624L23.864 16.008C23.704 16.584 23.448 17.128 23.096 17.64C22.776 18.152 22.424 18.664 22.04 19.176C21.688 19.656 21.32 20.152 20.936 20.664C20.552 21.144 20.232 21.656 19.976 22.2C19.272 23.608 18.616 24.904 18.008 26.088C17.4 27.24 16.856 28.408 16.376 29.592C15.928 30.744 15.576 31.96 15.32 33.24C15.064 34.52 14.936 35.992 14.936 37.656L14.504 38.232C14.248 38.392 13.96 38.504 13.64 38.568C13.352 38.632 13.048 38.664 12.728 38.664C12.344 38.664 11.976 38.536 11.624 38.28C11.272 37.992 10.968 37.656 10.712 37.272C10.456 36.856 10.248 36.424 10.088 35.976C9.96 35.528 9.896 35.128 9.896 34.776C9.896 34.296 9.96 33.832 10.088 33.384C10.248 32.904 10.408 32.44 10.568 31.992C10.76 31.512 10.92 31.048 11.048 30.6C11.208 30.12 11.288 29.64 11.288 29.16C11.288 28.648 11.192 28.088 11 27.48C10.84 26.84 10.584 26.328 10.232 25.944C9.944 25.784 9.624 25.72 9.272 25.752C8.952 25.752 8.632 25.688 8.312 25.56C8.024 25.432 7.736 25.224 7.448 24.936C7.16 24.648 6.904 24.312 6.68 23.928C6.456 23.544 6.264 23.16 6.104 22.776C5.976 22.392 5.912 22.04 5.912 21.72L5.96 21.24L6.104 20.952L6.296 20.904L6.92 21.096L7.16 21.048L7.4 20.856H7.832C7.992 20.856 8.152 20.904 8.312 21C8.504 21.064 8.664 21.144 8.792 21.24H9.128C9.192 21.24 9.304 21.208 9.464 21.144C9.656 21.048 9.832 20.952 9.992 20.856C10.184 20.76 10.344 20.68 10.472 20.616C10.632 20.52 10.712 20.472 10.712 20.472C10.712 20.344 10.776 20.28 10.904 20.28C11.064 20.248 11.176 20.232 11.24 20.232C11.528 20.232 11.752 20.12 11.912 19.896C12.072 19.64 12.28 19.512 12.536 19.512C12.632 19.416 12.76 19.272 12.92 19.08C13.08 18.888 13.24 18.68 13.4 18.456C13.56 18.232 13.688 18.024 13.784 17.832C13.912 17.64 13.976 17.48 13.976 17.352C13.976 16.904 13.864 16.488 13.64 16.104C13.448 15.72 13.352 15.304 13.352 14.856L13.4 14.424L13.544 14.232H13.784C14.04 14.232 14.312 14.328 14.6 14.52C14.888 14.68 15.192 14.872 15.512 15.096C15.864 15.288 16.2 15.48 16.52 15.672C16.872 15.832 17.224 15.912 17.576 15.912L17.912 16.248C18.232 16.312 18.488 16.408 18.68 16.536C18.904 16.632 19.144 16.792 19.4 17.016L19.784 18.408C19.592 18.92 19.144 19.32 18.44 19.608C17.736 19.896 16.968 20.184 16.136 20.472C15.336 20.728 14.552 21.032 13.784 21.384C13.048 21.736 12.536 22.2 12.248 22.776C12.664 23.16 12.984 23.64 13.208 24.216C13.464 24.792 13.656 25.4 13.784 26.04C13.912 26.648 14.008 27.272 14.072 27.912C14.168 28.552 14.264 29.144 14.36 29.688C14.68 29.176 15 28.664 15.32 28.152C15.64 27.64 15.928 27.112 16.184 26.568C16.344 26.504 16.472 26.392 16.568 26.232C16.664 26.072 16.744 25.912 16.808 25.752C16.808 25.688 16.952 25.384 17.24 24.84C17.56 24.264 17.896 23.656 18.248 23.016C18.632 22.376 18.984 21.784 19.304 21.24C19.624 20.696 19.816 20.392 19.88 20.328C19.912 20.136 19.96 19.96 20.024 19.8C20.12 19.608 20.168 19.432 20.168 19.272C20.968 18.632 21.624 17.768 22.136 16.68C22.648 15.592 23.064 14.52 23.384 13.464C23.736 12.408 23.992 11.48 24.152 10.68C24.344 9.88 24.488 9.448 24.584 9.384C24.68 9.416 24.824 9.496 25.016 9.624C25.208 9.72 25.416 9.832 25.64 9.96C25.864 10.056 26.056 10.168 26.216 10.296C26.376 10.392 26.472 10.472 26.504 10.536C26.952 10.888 27.496 11.064 28.136 11.064C28.264 11.064 28.392 11.128 28.52 11.256C28.648 11.384 28.76 11.544 28.856 11.736C28.984 11.896 29.096 12.072 29.192 12.264C29.32 12.424 29.416 12.552 29.48 12.648C29.864 12.808 30.216 12.888 30.536 12.888L30.632 12.504H30.92L31.256 12.312L31.304 11.736C31.304 11.064 31.208 10.392 31.016 9.72C30.856 9.048 30.68 8.376 30.488 7.704C30.296 7.032 30.104 6.376 29.912 5.736C29.752 5.064 29.672 4.392 29.672 3.72V3.384L29.912 3.048L30.248 3C30.952 3.192 31.656 3.496 32.36 3.912C33.064 4.296 33.736 4.664 34.376 5.016C34.568 5.112 34.824 5.512 35.144 6.216C35.464 6.888 35.8 7.624 36.152 8.424C36.536 9.224 36.904 9.96 37.256 10.632C37.608 11.304 37.896 11.656 38.12 11.688C38.28 11.432 38.52 11.256 38.84 11.16C39.192 11.032 39.56 10.92 39.944 10.824C40.328 10.728 40.696 10.632 41.048 10.536C41.4 10.408 41.672 10.216 41.864 9.96C42.024 9.704 42.168 9.464 42.296 9.24C42.424 9.016 42.616 8.808 42.872 8.616C42.936 8.744 43.016 8.888 43.112 9.048C43.24 9.176 43.384 9.24 43.544 9.24C43.928 9.4 44.344 9.56 44.792 9.72C45.24 9.848 45.656 10.024 46.04 10.248C46.456 10.44 46.808 10.696 47.096 11.016C47.416 11.336 47.624 11.736 47.72 12.216L47.528 12.888C47.336 13.08 47.064 13.256 46.712 13.416C46.36 13.544 45.992 13.656 45.608 13.752C45.224 13.848 44.84 13.928 44.456 13.992C44.104 14.024 43.784 14.04 43.496 14.04C43.272 14.04 43.08 14.008 42.92 13.944C42.76 13.88 42.6 13.8 42.44 13.704C42.248 13.448 42.024 13.144 41.768 12.792C41.544 12.408 41.304 12.136 41.048 11.976C40.632 12.04 40.2 12.12 39.752 12.216C39.336 12.28 38.936 12.392 38.552 12.552L38.504 12.744L41.192 18.84C41.352 19.192 41.592 19.496 41.912 19.752C42.264 19.976 42.536 20.264 42.728 20.616C42.984 21.128 43.16 21.656 43.256 22.2C43.384 22.744 43.608 23.272 43.928 23.784C44.12 24.104 44.408 24.488 44.792 24.936C45.176 25.352 45.544 25.784 45.896 26.232C46.248 26.68 46.552 27.128 46.808 27.576C47.096 28.024 47.24 28.44 47.24 28.824C47.24 28.984 47.208 29.16 47.144 29.352C46.632 29.832 45.832 30.184 44.744 30.408C43.656 30.6 42.472 30.76 41.192 30.888C39.944 31.016 38.696 31.176 37.448 31.368C36.232 31.528 35.24 31.816 34.472 32.232C34.28 32.328 34.136 32.696 34.04 33.336C33.976 33.976 33.912 34.696 33.848 35.496C33.816 36.264 33.8 37.016 33.8 37.752C33.8 38.456 33.8 38.936 33.8 39.192C32.968 40.024 32.28 40.856 31.736 41.688C31.224 42.52 30.648 43.384 30.008 44.28C29.848 44.504 29.416 44.712 28.712 44.904C28.008 45.128 27.16 45.368 26.168 45.624C25.176 45.88 24.104 46.152 22.952 46.44C21.8 46.76 20.68 47.128 19.592 47.544C18.504 47.96 17.512 48.424 16.616 48.936C15.752 49.48 15.096 50.104 14.648 50.808C14.072 51.16 13.384 51.336 12.584 51.336C12.232 51.336 11.88 51.192 11.528 50.904C11.208 50.616 10.92 50.264 10.664 49.848C10.408 49.464 10.2 49.048 10.04 48.6C9.88 48.152 9.8 47.768 9.8 47.448L9.848 47.112ZM38.888 29.256C39.208 29 39.624 28.712 40.136 28.392C40.648 28.04 41.112 27.864 41.528 27.864C41.784 27.736 41.928 27.416 41.96 26.904C42.024 26.36 42.056 25.96 42.056 25.704C42.056 25.448 42.024 25.176 41.96 24.888C41.896 24.568 41.784 24.296 41.624 24.072L41.432 24.12C40.952 24.472 40.472 24.872 39.992 25.32C39.544 25.736 39.096 26.168 38.648 26.616C38.2 27.032 37.72 27.448 37.208 27.864C36.728 28.248 36.216 28.552 35.672 28.776C35.576 28.872 35.464 29.016 35.336 29.208C35.24 29.4 35.144 29.624 35.048 29.88C34.952 30.104 34.872 30.328 34.808 30.552C34.744 30.744 34.712 30.904 34.712 31.032H34.808C35.224 30.872 35.64 30.76 36.056 30.696C36.504 30.632 36.936 30.52 37.352 30.36C37.64 30.264 37.896 30.056 38.12 29.736C38.344 29.416 38.6 29.256 38.888 29.256ZM37.688 20.808C37.688 20.328 37.544 19.896 37.256 19.512C37 19.096 36.872 18.648 36.872 18.168L36.92 17.784L37.112 17.544H37.304C37.4 17.544 37.56 17.608 37.784 17.736C38.008 17.864 38.248 18.008 38.504 18.168C38.792 18.328 39.048 18.488 39.272 18.648C39.528 18.808 39.736 18.904 39.896 18.936C39.832 18.712 39.672 18.296 39.416 17.688C39.192 17.048 38.92 16.392 38.6 15.72C38.28 15.016 37.96 14.392 37.64 13.848C37.352 13.272 37.128 12.936 36.968 12.84H36.776C36.68 12.84 36.568 12.856 36.44 12.888C36.312 12.92 36.2 12.952 36.104 12.984L35.912 13.224L35.864 13.752C35.864 14.136 35.912 14.504 36.008 14.856C36.136 15.208 36.216 15.576 36.248 15.96C36.312 16.824 36.344 17.704 36.344 18.6C36.344 19.464 36.344 20.328 36.344 21.192V22.968C36.6 22.712 36.888 22.376 37.208 21.96C37.528 21.544 37.688 21.16 37.688 20.808ZM35.192 9.72V9.816C35.192 10.104 35.256 10.504 35.384 11.016C35.544 11.528 35.72 11.88 35.912 12.072L36.152 12.12L36.344 11.832C36.344 11.704 36.296 11.544 36.2 11.352C36.136 11.128 36.04 10.904 35.912 10.68C35.816 10.456 35.688 10.264 35.528 10.104C35.4 9.912 35.288 9.784 35.192 9.72ZM38.984 40.584L38.936 40.296H39.224C39.544 40.296 39.864 40.456 40.184 40.776C40.504 41.064 40.84 41.384 41.192 41.736C41.576 42.088 41.976 42.392 42.392 42.648C42.84 42.936 43.304 43.064 43.784 43.032L44.072 42.792L44.12 42.072C43.928 41.528 43.64 41.096 43.256 40.776C42.904 40.424 42.536 40.088 42.152 39.768C41.768 39.416 41.384 39.016 41 38.568C40.648 38.12 40.376 37.48 40.184 36.648L40.28 35.928H40.664C40.728 35.928 40.856 35.976 41.048 36.072C41.24 36.136 41.432 36.232 41.624 36.36C41.848 36.488 42.04 36.616 42.2 36.744C42.392 36.84 42.52 36.92 42.584 36.984C44.92 37.624 46.616 38.632 47.672 40.008C48.728 41.384 49.256 43.288 49.256 45.72C49.256 46.584 49.016 47.128 48.536 47.352C48.056 47.608 47.448 47.736 46.712 47.736C46.168 47.736 45.512 47.448 44.744 46.872C44.008 46.296 43.256 45.608 42.488 44.808C41.72 44.008 41.016 43.208 40.376 42.408C39.736 41.64 39.272 41.032 38.984 40.584ZM24.872 24.12C24.872 24.056 24.904 23.896 24.968 23.64C25.064 23.384 25.16 23.112 25.256 22.824C25.352 22.504 25.448 22.216 25.544 21.96C25.64 21.672 25.704 21.496 25.736 21.432H25.976L26.648 21.72C26.776 21.944 26.984 22.136 27.272 22.296C27.592 22.456 27.912 22.6 28.232 22.728C28.584 22.856 28.92 22.984 29.24 23.112C29.592 23.208 29.88 23.32 30.104 23.448L30.44 23.928L30.536 24.6L29.912 27L29.432 27.624C29.368 27.656 29.208 27.72 28.952 27.816C28.696 27.88 28.536 27.912 28.472 27.912H27.368L26.456 27.48C26.04 27.032 25.672 26.52 25.352 25.944C25.032 25.368 24.872 24.76 24.872 24.12Z" fill="black"/>
<path d="M26.072 92.2L25.784 92.104L25.736 92.44C25.832 92.6 25.976 92.712 26.168 92.776C26.36 93.128 26.456 93.496 26.456 93.88V94.12C26.168 94.504 25.784 94.776 25.304 94.936C24.824 95.096 24.36 95.176 23.912 95.176L22.664 94.696L21.608 93.544L21.032 91.96C21.064 91.672 21.08 91.32 21.08 90.904C21.08 90.488 21.16 90.152 21.32 89.896C21.416 89.736 21.512 89.672 21.608 89.704C21.704 89.736 21.736 89.656 21.704 89.464C21.832 89.208 21.928 88.936 21.992 88.648C22.088 88.36 22.168 88.072 22.232 87.784C22.296 87.496 22.36 87.224 22.424 86.968C22.52 86.68 22.648 86.424 22.808 86.2L23.048 86.104C23.272 86.168 23.48 86.28 23.672 86.44C23.864 86.6 24.04 86.76 24.2 86.92C24.456 86.952 24.728 87.048 25.016 87.208C25.304 87.368 25.576 87.496 25.832 87.592C26.056 87.688 26.296 87.768 26.552 87.832C26.84 87.864 27.08 87.928 27.272 88.024C27.496 88.152 27.72 88.472 27.944 88.984C28.168 89.464 28.392 89.976 28.616 90.52C28.84 91.032 29.08 91.512 29.336 91.96C29.592 92.376 29.864 92.584 30.152 92.584C30.184 92.488 30.168 92.408 30.104 92.344C30.072 92.248 30.056 92.152 30.056 92.056C30.056 91.032 30.184 90.008 30.44 88.984C30.728 87.96 30.872 86.92 30.872 85.864C30.872 85.672 30.84 85.448 30.776 85.192L30.536 85.096L28.376 85.96C27.416 85.8 26.568 85.384 25.832 84.712C25.096 84.008 24.648 83.16 24.488 82.168L24.824 81.016C24.952 80.888 25.144 80.728 25.4 80.536C25.688 80.312 25.992 80.104 26.312 79.912C26.632 79.688 26.936 79.496 27.224 79.336C27.512 79.176 27.736 79.096 27.896 79.096L27.992 79.144V78.52L28.088 78.328L28.328 78.28L29 78.52C28.968 78.2 29.016 77.928 29.144 77.704C29.272 77.48 29.432 77.288 29.624 77.128C29.816 76.968 29.992 76.84 30.152 76.744C30.344 76.616 30.456 76.472 30.488 76.312L30.824 76.216L30.776 76.072C30.488 75.88 30.168 75.752 29.816 75.688C29.496 75.624 29.208 75.464 28.952 75.208C28.504 74.792 28.232 74.392 28.136 74.008C28.04 73.592 27.944 73.24 27.848 72.952C27.752 72.632 27.576 72.392 27.32 72.232C27.064 72.04 26.584 71.944 25.88 71.944C25.464 71.944 25.064 71.8 24.68 71.512C24.296 71.224 23.96 70.872 23.672 70.456C23.384 70.04 23.16 69.608 23 69.16C22.84 68.68 22.76 68.248 22.76 67.864C22.76 67.608 22.776 67.288 22.808 66.904C22.84 66.52 22.952 66.232 23.144 66.04C23.144 65.784 23.144 65.512 23.144 65.224C23.144 64.904 23.064 64.616 22.904 64.36V63.928L23.24 63.496L23.576 63.544L23.912 63.256L24.488 63.064L24.536 62.728C24.536 62.088 24.408 61.464 24.152 60.856C23.928 60.216 23.816 59.576 23.816 58.936V58.696L24.152 58.264C24.28 58.36 24.472 58.504 24.728 58.696C24.984 58.856 25.256 59.032 25.544 59.224C25.832 59.384 26.104 59.544 26.36 59.704C26.616 59.832 26.808 59.912 26.936 59.944C27.704 60.04 28.248 60.2 28.568 60.424C28.888 60.648 29.08 61.176 29.144 62.008C29.08 62.168 28.984 62.312 28.856 62.44C28.76 62.568 28.664 62.696 28.568 62.824L28.472 63.304L28.808 63.4C29.064 63.272 29.4 63.208 29.816 63.208C30.232 63.208 30.6 63.208 30.92 63.208C30.92 63.112 31.032 63.032 31.256 62.968C31.512 62.872 31.784 62.808 32.072 62.776C32.392 62.712 32.68 62.664 32.936 62.632C33.224 62.568 33.416 62.536 33.512 62.536L34.088 62.776C34.088 62.616 34.104 62.504 34.136 62.44L34.376 62.344H34.616L35.096 62.632C35.224 62.44 35.432 62.264 35.72 62.104C36.04 61.912 36.36 61.752 36.68 61.624C37.032 61.464 37.336 61.32 37.592 61.192C37.848 61.032 37.976 60.872 37.976 60.712C38.456 60.36 38.936 60.072 39.416 59.848C39.928 59.592 40.488 59.464 41.096 59.464C41.384 59.464 41.704 59.544 42.056 59.704C42.44 59.864 42.824 60.056 43.208 60.28C43.592 60.504 43.976 60.712 44.36 60.904C44.744 61.096 45.112 61.24 45.464 61.336C45.816 61.496 46.056 61.848 46.184 62.392C46.312 62.904 46.376 63.336 46.376 63.688C46.376 64.072 46.008 64.504 45.272 64.984C44.536 65.432 43.688 65.896 42.728 66.376C41.768 66.856 40.84 67.352 39.944 67.864C39.08 68.344 38.504 68.792 38.216 69.208C38.568 69.624 38.952 69.896 39.368 70.024C39.784 70.12 40.168 70.216 40.52 70.312C40.904 70.408 41.208 70.552 41.432 70.744C41.688 70.936 41.816 71.336 41.816 71.944V72.232C41.624 72.584 41.336 72.904 40.952 73.192C40.568 73.448 40.152 73.704 39.704 73.96C39.256 74.184 38.792 74.424 38.312 74.68C37.864 74.904 37.48 75.144 37.16 75.4L31.976 79.672V79.768L32.216 79.864C33.496 79.864 34.776 79.592 36.056 79.048C37.368 78.504 38.488 77.816 39.416 76.984L39.704 76.936C40.376 77.384 41.064 77.736 41.768 77.992C42.472 78.216 43.144 78.536 43.784 78.952L44.12 79.432L44.216 80.296L43.928 80.92C43.704 81.08 43.32 81.224 42.776 81.352C42.264 81.448 41.672 81.56 41 81.688C40.36 81.784 39.688 81.896 38.984 82.024C38.28 82.12 37.624 82.232 37.016 82.36C36.44 82.488 35.96 82.648 35.576 82.84C35.224 83 35.048 83.192 35.048 83.416C35.048 84.504 35.16 85.576 35.384 86.632C35.64 87.688 35.768 88.776 35.768 89.896C35.768 90.44 35.736 91.16 35.672 92.056C35.64 92.92 35.528 93.768 35.336 94.6C35.144 95.432 34.824 96.152 34.376 96.76C33.96 97.368 33.368 97.672 32.6 97.672C31.96 97.672 31.336 97.464 30.728 97.048C30.12 96.632 29.528 96.136 28.952 95.56C28.408 94.984 27.88 94.376 27.368 93.736C26.888 93.128 26.456 92.616 26.072 92.2ZM31.88 69.736L32.312 70.024H32.552L32.696 69.88C32.664 69.656 32.808 69.384 33.128 69.064C33.48 68.744 33.88 68.44 34.328 68.152C34.808 67.864 35.272 67.592 35.72 67.336C36.2 67.08 36.536 66.872 36.728 66.712C37.208 66.36 37.608 65.992 37.928 65.608C38.248 65.192 38.632 64.776 39.08 64.36C38.504 64.456 37.672 64.632 36.584 64.888C35.496 65.112 34.36 65.384 33.176 65.704C32.024 65.992 30.936 66.312 29.912 66.664C28.888 66.984 28.136 67.288 27.656 67.576L27.944 70.744L28.088 70.936L28.904 70.984C28.904 70.952 29.032 70.888 29.288 70.792C29.576 70.664 29.896 70.536 30.248 70.408C30.6 70.248 30.936 70.12 31.256 70.024C31.576 69.896 31.784 69.8 31.88 69.736ZM38.216 89.512H38.456C38.616 89.576 38.872 89.736 39.224 89.992C39.576 90.248 39.944 90.52 40.328 90.808C40.712 91.064 41.064 91.304 41.384 91.528C41.704 91.72 41.912 91.8 42.008 91.768C42.04 91.704 42.088 91.592 42.152 91.432C42.216 91.24 42.248 91.112 42.248 91.048C42.248 90.184 42.136 89.352 41.912 88.552C41.688 87.72 41.576 86.872 41.576 86.008C41.576 85.88 41.592 85.752 41.624 85.624C41.656 85.464 41.688 85.32 41.72 85.192C41.88 85.32 42.024 85.464 42.152 85.624C42.312 85.752 42.504 85.816 42.728 85.816C42.856 85.976 43.064 86.152 43.352 86.344C43.672 86.504 44.008 86.664 44.36 86.824C44.712 86.984 45.048 87.128 45.368 87.256C45.72 87.352 46.008 87.4 46.232 87.4L46.472 87.544C46.6 87.896 46.696 88.36 46.76 88.936C46.856 89.48 46.92 90.072 46.952 90.712C47.016 91.32 47.048 91.912 47.048 92.488C47.048 93.064 47.048 93.56 47.048 93.976C47.048 94.2 46.968 94.52 46.808 94.936C46.648 95.384 46.536 95.736 46.472 95.992L45.704 96.568L44.648 96.712L43.592 96.376C43.208 96.056 42.728 95.608 42.152 95.032C41.608 94.456 41.064 93.848 40.52 93.208C39.976 92.536 39.48 91.88 39.032 91.24C38.616 90.568 38.344 89.992 38.216 89.512ZM6.728 91.48C6.728 90.392 6.776 89.304 6.872 88.216C7 87.128 7.064 86.04 7.064 84.952C7.064 84.728 7.048 84.52 7.016 84.328C7.016 84.136 7 83.928 6.968 83.704C6.552 83.064 6.12 82.328 5.672 81.496C5.224 80.664 5 79.88 5 79.144V78.952L5.24 78.712C5.432 78.648 5.592 78.616 5.72 78.616C6.072 78.616 6.392 78.664 6.68 78.76C7 78.856 7.336 78.904 7.688 78.904C8.072 78.904 8.44 78.872 8.792 78.808C9.176 78.712 9.56 78.664 9.944 78.664H10.184C10.344 78.824 10.6 78.904 10.952 78.904C11.304 78.904 11.592 78.904 11.816 78.904C12.008 78.904 12.2 78.92 12.392 78.952C12.584 78.952 12.776 78.92 12.968 78.856C13.192 78.632 13.48 78.536 13.832 78.568C14.216 78.6 14.584 78.552 14.936 78.424C15.32 78.264 15.64 77.928 15.896 77.416C16.152 76.872 16.28 75.928 16.28 74.584C16.28 74.456 16.248 74.328 16.184 74.2H15.992C15.544 74.392 15.112 74.68 14.696 75.064C14.28 75.416 13.848 75.784 13.4 76.168C12.984 76.552 12.552 76.888 12.104 77.176C11.656 77.464 11.192 77.608 10.712 77.608C9.88 77.608 9.16 77.32 8.552 76.744C7.944 76.136 7.432 75.416 7.016 74.584C6.632 73.752 6.344 72.872 6.152 71.944C5.96 71.016 5.864 70.216 5.864 69.544C5.864 68.936 5.72 68.376 5.432 67.864C5.144 67.352 5 66.792 5 66.184L5.048 65.944C5.208 65.784 5.368 65.688 5.528 65.656C5.72 65.624 5.912 65.576 6.104 65.512L6.296 65.32L6.44 64.6C6.216 63.768 5.928 62.968 5.576 62.2C5.256 61.432 5.096 60.616 5.096 59.752C5.096 59.688 5.112 59.608 5.144 59.512C5.176 59.416 5.208 59.336 5.24 59.272L5.528 59.224C5.656 59.224 5.784 59.272 5.912 59.368C6.072 59.464 6.2 59.544 6.296 59.608L6.44 59.896L6.68 60.04C6.936 60.04 7.16 60.12 7.352 60.28C7.576 60.408 7.8 60.52 8.024 60.616C8.408 60.776 8.744 60.888 9.032 60.952C9.32 60.984 9.56 61.064 9.752 61.192C9.976 61.288 10.136 61.464 10.232 61.72C10.328 61.976 10.376 62.36 10.376 62.872C10.376 63.224 10.312 63.576 10.184 63.928C10.056 64.28 9.976 64.632 9.944 64.984C10.392 64.792 10.872 64.712 11.384 64.744C11.896 64.744 12.376 64.616 12.824 64.36C12.888 64.136 13.064 63.928 13.352 63.736C13.64 63.544 13.976 63.384 14.36 63.256C14.744 63.096 15.112 62.952 15.464 62.824C15.848 62.696 16.152 62.552 16.376 62.392L16.664 62.344C16.824 62.344 17 62.408 17.192 62.536C17.416 62.664 17.56 62.808 17.624 62.968C17.848 63 18.072 63.096 18.296 63.256C18.552 63.384 18.776 63.496 18.968 63.592C19.224 63.752 19.576 63.88 20.024 63.976C20.472 64.04 20.776 64.152 20.936 64.312C21.096 64.472 21.176 64.664 21.176 64.888C21.176 65.112 21.24 65.304 21.368 65.464L21.32 65.896C21.064 66.344 20.744 66.728 20.36 67.048C20.008 67.336 19.608 67.608 19.16 67.864C18.744 68.088 18.312 68.312 17.864 68.536C17.416 68.728 17 68.952 16.616 69.208L16.664 69.4C16.952 69.72 17.336 69.976 17.816 70.168C18.296 70.36 18.76 70.568 19.208 70.792C19.688 71.016 20.104 71.272 20.456 71.56C20.808 71.816 20.984 72.168 20.984 72.616C20.984 73 20.824 73.4 20.504 73.816C20.184 74.232 19.832 74.68 19.448 75.16C19.096 75.608 18.76 76.088 18.44 76.6C18.12 77.08 17.96 77.576 17.96 78.088V78.28C18.28 78.504 18.664 78.696 19.112 78.856C19.56 78.984 19.992 79.144 20.408 79.336C20.824 79.528 21.176 79.768 21.464 80.056C21.752 80.312 21.896 80.696 21.896 81.208C21.896 81.4 21.672 81.816 21.224 82.456C20.808 83.064 20.328 83.72 19.784 84.424C19.24 85.128 18.712 85.784 18.2 86.392C17.688 86.968 17.336 87.32 17.144 87.448L16.328 87.592L14.84 87.016L13.736 85.672L13.256 84.136C13.352 83.848 13.448 83.56 13.544 83.272C13.64 82.952 13.8 82.68 14.024 82.456L14.12 82.12L14.072 81.928L13.736 81.832C13.192 81.896 12.664 81.976 12.152 82.072C11.64 82.136 11.128 82.232 10.616 82.36V82.552C10.616 83.48 10.712 84.376 10.904 85.24C11.096 86.104 11.192 87 11.192 87.928L11.144 88.6C11.048 88.632 10.952 88.728 10.856 88.888C10.792 89.016 10.728 89.176 10.664 89.368C10.632 89.56 10.6 89.752 10.568 89.944C10.568 90.136 10.568 90.28 10.568 90.376V90.472L10.76 90.616H11.192C11.608 90.616 12.008 90.584 12.392 90.52C12.776 90.424 13.16 90.328 13.544 90.232C13.64 90.136 13.8 90.04 14.024 89.944C14.248 89.848 14.488 89.752 14.744 89.656C15.032 89.528 15.288 89.416 15.512 89.32C15.768 89.224 15.976 89.144 16.136 89.08C16.232 89.176 16.344 89.224 16.472 89.224V89.08L16.424 88.696C16.68 88.632 16.872 88.568 17 88.504C17.16 88.44 17.32 88.296 17.48 88.072C17.64 88.104 17.8 88.168 17.96 88.264C18.12 88.36 18.264 88.472 18.392 88.6L18.536 88.936L18.392 89.224C17.944 89.576 17.352 90.088 16.616 90.76C15.88 91.432 15.112 92.104 14.312 92.776C13.544 93.416 12.76 93.976 11.96 94.456C11.192 94.936 10.536 95.176 9.992 95.176C9.576 95.176 9.16 95.048 8.744 94.792C8.36 94.568 8.008 94.28 7.688 93.928C7.4 93.576 7.16 93.176 6.968 92.728C6.808 92.28 6.728 91.864 6.728 91.48ZM13.688 69.256C13.944 69 14.136 68.696 14.264 68.344C14.424 67.992 14.552 67.64 14.648 67.288H14.696C14.984 67.288 15.128 67.112 15.128 66.76L14.888 66.664C14.44 66.664 13.992 66.76 13.544 66.952C13.128 67.144 12.712 67.384 12.296 67.672C11.912 67.96 11.528 68.28 11.144 68.632C10.792 68.952 10.456 69.256 10.136 69.544C10.2 70.344 10.312 71.064 10.472 71.704L10.664 71.944L10.904 71.992L11.144 71.848C11.304 71.592 11.496 71.384 11.72 71.224C11.944 71.064 12.168 70.904 12.392 70.744C12.648 70.552 12.888 70.344 13.112 70.12C13.336 69.896 13.528 69.608 13.688 69.256ZM15.032 71.128C15.288 71.128 15.528 70.952 15.752 70.6C16.008 70.248 16.136 69.944 16.136 69.688H15.992C15.544 69.688 15.112 69.944 14.696 70.456C14.312 70.936 13.992 71.336 13.736 71.656H13.88C14.072 71.656 14.264 71.608 14.456 71.512C14.68 71.384 14.872 71.256 15.032 71.128ZM31.832 56.68C31.832 56.392 31.768 56.12 31.64 55.864C31.512 55.576 31.448 55.272 31.448 54.952C31.448 54.856 31.464 54.76 31.496 54.664C31.528 54.536 31.56 54.424 31.592 54.328H31.736C32.536 54.68 33.304 55.048 34.04 55.432C34.808 55.816 35.592 56.184 36.392 56.536L37.016 57.208L37.304 58.072L37.064 58.984C36.712 59.496 36.184 59.912 35.48 60.232C34.808 60.52 34.152 60.664 33.512 60.664C33.224 60.664 32.952 60.568 32.696 60.376C32.44 60.152 32.216 59.88 32.024 59.56C31.832 59.24 31.672 58.92 31.544 58.6C31.448 58.28 31.4 57.992 31.4 57.736C31.4 57.544 31.464 57.384 31.592 57.256C31.752 57.096 31.832 56.904 31.832 56.68Z" fill="black"/>
<path d="M26.936 134.984L27.08 134.6C27.528 134.696 27.928 134.856 28.28 135.08C28.632 135.304 29 135.512 29.384 135.704C29.736 135.864 30.12 135.992 30.536 136.088C30.952 136.152 31.336 136.296 31.688 136.52C32.232 136.872 32.888 137.432 33.656 138.2C34.424 138.968 35.208 139.752 36.008 140.552C36.84 141.32 37.64 142.008 38.408 142.616C39.208 143.224 39.896 143.528 40.472 143.528C40.472 143.624 40.504 143.704 40.568 143.768C40.664 143.8 40.76 143.784 40.856 143.72H41.048C41.272 143.72 41.608 143.768 42.056 143.864C42.504 143.96 42.952 144.056 43.4 144.152C43.88 144.216 44.312 144.264 44.696 144.296C45.112 144.328 45.4 144.28 45.56 144.152L45.752 144.104C46.072 144.104 46.488 144.168 47 144.296C47.512 144.392 47.928 144.488 48.248 144.584L49.016 145.016L48.968 144.68H49.016C49.176 144.68 49.4 144.712 49.688 144.776C49.976 144.84 50.264 144.92 50.552 145.016C50.872 145.112 51.144 145.224 51.368 145.352C51.624 145.512 51.784 145.672 51.848 145.832L51.704 146.12C51.64 146.184 51.368 146.264 50.888 146.36C50.44 146.488 49.88 146.616 49.208 146.744C48.568 146.904 47.864 147.064 47.096 147.224C46.328 147.384 45.592 147.528 44.888 147.656C44.216 147.784 43.608 147.88 43.064 147.944C42.552 148.04 42.216 148.088 42.056 148.088C40.904 148.088 39.848 147.832 38.888 147.32C37.928 146.808 37.016 146.168 36.152 145.4C35.32 144.664 34.52 143.864 33.752 143C32.984 142.136 32.232 141.336 31.496 140.6C30.952 140.088 30.424 139.688 29.912 139.4C29.4 139.08 28.92 138.76 28.472 138.44C28.056 138.088 27.704 137.656 27.416 137.144C27.128 136.632 26.968 135.912 26.936 134.984ZM6.44 138.536L6.776 138.392L8.6 139.352C9.016 139.288 9.304 139.368 9.464 139.592C9.656 139.816 9.848 140.088 10.04 140.408C10.264 140.696 10.568 140.968 10.952 141.224C11.336 141.48 11.944 141.608 12.776 141.608C12.904 141.608 13.144 141.48 13.496 141.224C13.88 140.968 14.28 140.68 14.696 140.36C15.144 140.008 15.576 139.688 15.992 139.4C16.44 139.08 16.776 138.872 17 138.776L17.48 138.056C17.608 138.024 17.8 137.88 18.056 137.624C18.312 137.336 18.568 137.016 18.824 136.664C19.08 136.312 19.304 135.976 19.496 135.656C19.688 135.336 19.816 135.112 19.88 134.984C19.432 134.984 18.984 135.016 18.536 135.08C18.12 135.144 17.688 135.176 17.24 135.176C16.728 135.176 16.2 135.032 15.656 134.744C15.144 134.424 14.664 134.024 14.216 133.544C13.8 133.064 13.448 132.552 13.16 132.008C12.904 131.432 12.776 130.888 12.776 130.376C12.776 129.96 12.856 129.656 13.016 129.464C13.176 129.24 13.368 129.064 13.592 128.936C13.848 128.776 14.104 128.648 14.36 128.552C14.616 128.424 14.856 128.264 15.08 128.072L15.848 127.976L15.944 127.64L16.472 127.064H16.76C16.76 126.904 16.792 126.808 16.856 126.776C17.112 126.712 17.32 126.552 17.48 126.296C17.672 126.008 17.88 125.864 18.104 125.864L18.824 126.296L18.872 126.2L18.824 125.672L19.112 125.336C19.4 125.176 19.64 125.048 19.832 124.952C20.056 124.856 20.264 124.776 20.456 124.712C20.68 124.616 20.888 124.504 21.08 124.376C21.304 124.216 21.544 124.008 21.8 123.752V123.464C21.8 123.016 21.736 122.6 21.608 122.216C21.512 121.8 21.464 121.368 21.464 120.92L21.512 120.536L21.704 120.392H21.896C22.088 120.392 22.296 120.456 22.52 120.584C22.776 120.712 23.016 120.856 23.24 121.016C23.496 121.176 23.736 121.32 23.96 121.448C24.184 121.576 24.408 121.64 24.632 121.64C24.984 121.64 25.288 121.464 25.544 121.112C25.8 120.728 26.008 120.408 26.168 120.152L26.648 120.44C26.68 120.312 26.76 120.152 26.888 119.96C27.016 119.736 27.16 119.528 27.32 119.336C27.512 119.144 27.688 118.984 27.848 118.856C28.04 118.696 28.2 118.616 28.328 118.616C28.488 118.616 28.616 118.68 28.712 118.808C28.84 118.904 28.984 118.968 29.144 119C29.144 118.904 29.128 118.824 29.096 118.76C29.096 118.664 29.096 118.568 29.096 118.472C29.096 118.248 29.112 118.072 29.144 117.944C29.176 117.784 29.32 117.704 29.576 117.704C29.768 117.704 29.912 117.64 30.008 117.512C30.104 117.384 30.184 117.24 30.248 117.08C30.344 116.888 30.44 116.728 30.536 116.6C30.664 116.44 30.84 116.344 31.064 116.312C31.16 116.024 31.352 115.768 31.64 115.544L31.88 114.968L32.408 114.44V114.344H32.216C31.416 114.344 30.632 114.472 29.864 114.728C29.128 114.952 28.392 115.208 27.656 115.496C26.92 115.784 26.168 116.056 25.4 116.312C24.664 116.536 23.912 116.648 23.144 116.648C22.6 116.648 22.104 116.52 21.656 116.264C21.24 116.008 20.888 115.672 20.6 115.256C20.312 114.84 20.072 114.376 19.88 113.864C19.72 113.352 19.624 112.856 19.592 112.376L19.784 112.088C20.2 111.992 20.616 111.976 21.032 112.04C21.48 112.072 21.912 112.088 22.328 112.088C23 112.088 23.864 111.976 24.92 111.752C26.008 111.528 27.096 111.272 28.184 110.984C29.272 110.696 30.264 110.44 31.16 110.216C32.088 109.992 32.744 109.88 33.128 109.88C33.256 109.88 33.576 109.976 34.088 110.168C34.6 110.36 35.144 110.584 35.72 110.84C36.296 111.096 36.824 111.352 37.304 111.608C37.784 111.864 38.056 112.04 38.12 112.136L38.072 112.28L38.216 112.376L38.408 112.712V113.288C38.408 113.576 38.264 113.912 37.976 114.296C37.72 114.68 37.464 114.92 37.208 115.016C36.28 115.368 35.432 115.832 34.664 116.408C33.896 116.984 33.144 117.592 32.408 118.232C31.704 118.84 30.984 119.432 30.248 120.008C29.512 120.584 28.696 121.064 27.8 121.448C27.544 121.544 27.304 121.656 27.08 121.784C26.888 121.912 26.68 122.056 26.456 122.216V122.456C27.288 123.192 28.216 123.736 29.24 124.088C30.264 124.408 31.32 124.568 32.408 124.568C32.76 124.568 33.096 124.504 33.416 124.376C33.768 124.216 34.12 124.136 34.472 124.136C34.632 124.136 34.856 124.248 35.144 124.472C35.432 124.696 35.656 124.856 35.816 124.952C35.944 125.048 36.168 125.16 36.488 125.288C36.84 125.416 37.176 125.544 37.496 125.672C37.848 125.8 38.168 125.928 38.456 126.056C38.744 126.184 38.92 126.28 38.984 126.344C39.176 126.6 39.288 126.872 39.32 127.16C39.384 127.448 39.416 127.736 39.416 128.024L39.128 128.312C38.2 128.696 37.24 128.888 36.248 128.888C35.288 128.888 34.344 128.984 33.416 129.176C33.16 129.24 32.664 129.4 31.928 129.656C31.192 129.88 30.424 130.152 29.624 130.472C28.824 130.76 28.088 131.064 27.416 131.384C26.776 131.672 26.392 131.912 26.264 132.104C25.976 132.552 25.768 133.112 25.64 133.784C25.512 134.456 25.384 135.176 25.256 135.944C25.16 136.712 24.984 137.48 24.728 138.248C24.504 139.016 24.12 139.736 23.576 140.408C23.032 141.048 22.424 141.688 21.752 142.328C21.08 142.968 20.36 143.544 19.592 144.056C18.824 144.568 18.008 144.984 17.144 145.304C16.312 145.624 15.464 145.784 14.6 145.784C13.768 145.784 12.872 145.576 11.912 145.16C10.984 144.712 10.12 144.136 9.32 143.432C8.552 142.728 7.896 141.96 7.352 141.128C6.808 140.264 6.504 139.4 6.44 138.536ZM20.456 131.432L20.84 131.192C21 130.488 21.176 129.736 21.368 128.936C21.592 128.136 21.704 127.368 21.704 126.632L21.656 126.008L21.512 125.72C21.224 125.88 21.032 126.088 20.936 126.344C20.872 126.568 20.728 126.76 20.504 126.92C20.184 127.176 19.848 127.48 19.496 127.832C19.176 128.152 18.872 128.504 18.584 128.888C18.296 129.272 18.056 129.672 17.864 130.088C17.672 130.504 17.576 130.936 17.576 131.384L17.624 131.672L17.768 131.72C18.216 131.56 18.664 131.48 19.112 131.48C19.56 131.48 20.008 131.464 20.456 131.432ZM31.544 128.216V127.736L31.784 127.544L32.072 127.448L32.6 127.688C32.696 127.592 32.744 127.528 32.744 127.496L32.648 127.304C32.456 127.176 32.072 127 31.496 126.776C30.92 126.552 30.296 126.344 29.624 126.152C28.984 125.96 28.36 125.784 27.752 125.624C27.144 125.464 26.712 125.352 26.456 125.288C26.52 125.736 26.568 126.184 26.6 126.632C26.632 127.048 26.648 127.48 26.648 127.928C26.648 128.28 26.632 128.648 26.6 129.032C26.568 129.416 26.504 129.784 26.408 130.136L26.648 130.28C27.032 130.28 27.432 130.184 27.848 129.992C28.264 129.768 28.68 129.528 29.096 129.272C29.512 129.016 29.928 128.792 30.344 128.6C30.76 128.376 31.16 128.248 31.544 128.216Z" fill="black"/>
<path d="M20.36 199.032C20.36 198.68 20.392 198.2 20.456 197.592C20.52 196.984 20.664 196.552 20.888 196.296L21.224 196.2C21.288 196.072 21.368 195.592 21.464 194.76C21.592 193.896 21.704 192.84 21.8 191.592C21.896 190.344 21.992 189 22.088 187.56C22.216 186.088 22.328 184.696 22.424 183.384C22.52 182.072 22.584 180.92 22.616 179.928C22.68 178.936 22.712 178.264 22.712 177.912C22.712 177.464 22.68 176.904 22.616 176.232C22.552 175.528 22.408 174.968 22.184 174.552L21.944 174.456C21.272 174.456 20.584 174.6 19.88 174.888C19.176 175.144 18.456 175.432 17.72 175.752C17.016 176.072 16.296 176.376 15.56 176.664C14.856 176.92 14.152 177.048 13.448 177.048C12.84 177.048 12.136 176.888 11.336 176.568C10.568 176.248 9.832 175.832 9.128 175.32C8.424 174.776 7.832 174.184 7.352 173.544C6.872 172.904 6.632 172.248 6.632 171.576L6.68 170.952L6.92 170.712L7.256 170.904C7.48 171.064 7.832 171.24 8.312 171.432C8.792 171.624 9.272 171.816 9.752 172.008C10.232 172.2 10.664 172.376 11.048 172.536C11.432 172.664 11.656 172.76 11.72 172.824C12.136 172.952 12.68 173.016 13.352 173.016C14.056 173.016 14.632 173.016 15.08 173.016H16.04C16.296 172.856 16.568 172.728 16.856 172.632C17.144 172.504 17.432 172.44 17.72 172.44L17.96 172.536L18.008 172.68C18.456 172.328 18.936 172.184 19.448 172.248C19.96 172.28 20.472 172.248 20.984 172.152C20.952 171.928 20.92 171.72 20.888 171.528C20.888 171.336 20.888 171.128 20.888 170.904C20.888 170.808 20.904 170.68 20.936 170.52C20.968 170.328 21.064 170.232 21.224 170.232C21.32 170.232 21.464 170.296 21.656 170.424C21.848 170.52 22.04 170.632 22.232 170.76C22.456 170.888 22.664 171.016 22.856 171.144C23.08 171.272 23.272 171.352 23.432 171.384L24.104 171.288L24.872 171.576H25.016L25.208 171.096C26.968 170.456 28.776 169.976 30.632 169.656C32.52 169.336 34.392 169.016 36.248 168.696L36.44 168.408L37.304 168.648L37.256 168.168C37.256 168.008 37.32 167.944 37.448 167.976C37.608 168.008 37.72 168.04 37.784 168.072L39.848 167.064C40.04 167.16 40.216 167.32 40.376 167.544C40.536 167.736 40.744 167.848 41 167.88L44.12 169.368C44.184 169.528 44.216 169.704 44.216 169.896C44.248 170.056 44.264 170.216 44.264 170.376V170.664L43.976 171.048C43.464 171.4 43 171.576 42.584 171.576C42.168 171.576 41.672 171.576 41.096 171.576C39.88 171.576 38.728 171.848 37.64 172.392C36.584 172.904 35.512 173.48 34.424 174.12C33.368 174.728 32.232 175.288 31.016 175.8C29.832 176.28 28.52 176.488 27.08 176.424C27.208 177.352 27.304 178.296 27.368 179.256C27.464 180.184 27.512 181.112 27.512 182.04C27.512 182.712 27.448 183.384 27.32 184.056C27.192 184.728 27.112 185.4 27.08 186.072C26.952 188.344 26.84 190.6 26.744 192.84C26.648 195.048 26.6 197.288 26.6 199.56C26.6 200.008 26.6 200.536 26.6 201.144C26.6 201.784 26.584 202.424 26.552 203.064C26.52 203.704 26.44 204.312 26.312 204.888C26.216 205.496 26.056 205.976 25.832 206.328C25.416 206.616 24.904 206.76 24.296 206.76C23.464 206.76 22.792 206.472 22.28 205.896C21.768 205.32 21.368 204.616 21.08 203.784C20.792 202.984 20.6 202.136 20.504 201.24C20.408 200.376 20.36 199.64 20.36 199.032ZM30.92 172.968C30.984 172.84 31.112 172.728 31.304 172.632C31.528 172.504 31.752 172.392 31.976 172.296C32.232 172.168 32.472 172.072 32.696 172.008C32.952 171.912 33.16 171.832 33.32 171.768C33.48 171.768 33.592 171.688 33.656 171.528C33.752 171.368 33.896 171.304 34.088 171.336L34.616 171.624L34.76 171.192H35.096L36.344 170.28L35.768 170.136C35.384 170.232 34.712 170.392 33.752 170.616C32.792 170.84 31.784 171.08 30.728 171.336C29.704 171.592 28.744 171.848 27.848 172.104C26.984 172.328 26.456 172.504 26.264 172.632L26.216 172.824C26.536 172.984 26.84 173.128 27.128 173.256C27.416 173.352 27.736 173.4 28.088 173.4C28.44 173.4 28.776 173.384 29.096 173.352C29.416 173.32 29.736 173.24 30.056 173.112L30.44 172.728L30.92 172.968ZM28.568 188.232V187.608L28.808 187.32L29.432 187.272C30.264 187.272 31.064 187.4 31.832 187.656C32.6 187.88 33.4 187.992 34.232 187.992L34.328 187.8C34.584 187.8 34.808 187.784 35 187.752C35.192 187.72 35.384 187.608 35.576 187.416C35.8 187.416 35.992 187.512 36.152 187.704C36.344 187.864 36.52 188.024 36.68 188.184C36.904 188.216 37.224 188.312 37.64 188.472C38.088 188.6 38.52 188.776 38.936 189C39.352 189.192 39.704 189.416 39.992 189.672C40.312 189.928 40.472 190.2 40.472 190.488C40.472 190.904 40.184 191.272 39.608 191.592C39.064 191.88 38.408 192.12 37.64 192.312C36.904 192.504 36.168 192.648 35.432 192.744C34.696 192.84 34.168 192.888 33.848 192.888C33.432 192.728 32.92 192.504 32.312 192.216C31.704 191.896 31.128 191.528 30.584 191.112C30.04 190.696 29.56 190.248 29.144 189.768C28.76 189.256 28.568 188.744 28.568 188.232Z" fill="black"/>
</svg>
