<svg width="56" height="210" viewBox="0 0 56 210" fill="none" xmlns="http://www.w3.org/2000/svg">
<path d="M11.168 46.112L11.36 45.872L11.696 45.776C12.08 45.776 12.4 45.904 12.656 46.16C12.944 46.416 13.264 46.544 13.616 46.544C13.776 46.544 13.936 46.496 14.096 46.4C14.256 46.336 14.4 46.272 14.528 46.208C15.424 46.208 16.208 46.032 16.88 45.68C17.552 45.36 18.304 45.088 19.136 44.864L19.376 44.96L20.48 44.192H21.104V43.856L21.248 43.712C21.888 43.776 22.272 43.52 22.4 42.944C22.528 42.816 22.672 42.736 22.832 42.704C22.992 42.704 23.152 42.704 23.312 42.704C23.44 42.512 23.632 42.224 23.888 41.84C24.176 41.456 24.464 41.056 24.752 40.64C25.072 40.256 25.392 39.92 25.712 39.632C26.032 39.312 26.304 39.152 26.528 39.152L26.672 39.008C26.736 38.72 26.912 38.416 27.2 38.096C27.488 37.776 27.776 37.568 28.064 37.472C28.256 37.536 28.368 37.456 28.4 37.232C28.432 37.008 28.48 36.848 28.544 36.752C28.672 36.4 28.864 36.048 29.12 35.696C29.376 35.344 29.6 35.008 29.792 34.688L29.6 34.544C29.216 34.704 28.816 34.88 28.4 35.072C28.016 35.232 27.6 35.312 27.152 35.312C26.672 35.312 26.224 35.2 25.808 34.976C25.392 34.752 25.024 34.464 24.704 34.112C24.416 33.728 24.192 33.312 24.032 32.864C23.872 32.384 23.792 31.92 23.792 31.472C23.792 31.248 23.84 31.04 23.936 30.848L24.224 30.608C24.64 30.512 25.072 30.432 25.52 30.368C25.968 30.272 26.352 30.064 26.672 29.744C27.088 29.584 27.504 29.44 27.92 29.312C28.368 29.184 28.784 29.008 29.168 28.784C29.52 28.72 29.808 28.576 30.032 28.352C30.288 28.128 30.592 28.016 30.944 28.016C31.136 27.664 31.392 27.44 31.712 27.344C32.032 27.248 32.368 27.136 32.72 27.008C32.816 26.752 32.88 26.48 32.912 26.192C32.944 25.904 32.96 25.616 32.96 25.328C32.96 23.408 32.896 21.504 32.768 19.616C32.672 17.728 32.656 15.824 32.72 13.904C32.272 14.352 31.856 14.688 31.472 14.912C31.088 15.104 30.576 15.28 29.936 15.44C29.488 15.408 29.12 15.344 28.832 15.248C28.576 15.12 28.352 14.992 28.16 14.864C27.968 14.736 27.76 14.592 27.536 14.432C27.312 14.272 27.024 14.112 26.672 13.952H26.384C26.224 14.144 26.112 14.288 26.048 14.384C25.984 14.48 25.824 14.56 25.568 14.624L25.184 15.008C25.024 15.584 24.768 16.128 24.416 16.64C24.096 17.152 23.744 17.664 23.36 18.176C23.008 18.656 22.64 19.152 22.256 19.664C21.872 20.144 21.552 20.656 21.296 21.2C20.592 22.608 19.936 23.904 19.328 25.088C18.72 26.24 18.176 27.408 17.696 28.592C17.248 29.744 16.896 30.96 16.64 32.24C16.384 33.52 16.256 34.992 16.256 36.656L15.824 37.232C15.568 37.392 15.28 37.504 14.96 37.568C14.672 37.632 14.368 37.664 14.048 37.664C13.664 37.664 13.296 37.536 12.944 37.28C12.592 36.992 12.288 36.656 12.032 36.272C11.776 35.856 11.568 35.424 11.408 34.976C11.28 34.528 11.216 34.128 11.216 33.776C11.216 33.296 11.28 32.832 11.408 32.384C11.568 31.904 11.728 31.44 11.888 30.992C12.08 30.512 12.24 30.048 12.368 29.6C12.528 29.12 12.608 28.64 12.608 28.16C12.608 27.648 12.512 27.088 12.32 26.48C12.16 25.84 11.904 25.328 11.552 24.944C11.264 24.784 10.944 24.72 10.592 24.752C10.272 24.752 9.952 24.688 9.632 24.56C9.344 24.432 9.056 24.224 8.768 23.936C8.48 23.648 8.224 23.312 8 22.928C7.776 22.544 7.584 22.16 7.424 21.776C7.296 21.392 7.232 21.04 7.232 20.72L7.28 20.24L7.424 19.952L7.616 19.904L8.24 20.096L8.48 20.048L8.72 19.856H9.152C9.312 19.856 9.472 19.904 9.632 20C9.824 20.064 9.984 20.144 10.112 20.24H10.448C10.512 20.24 10.624 20.208 10.784 20.144C10.976 20.048 11.152 19.952 11.312 19.856C11.504 19.76 11.664 19.68 11.792 19.616C11.952 19.52 12.032 19.472 12.032 19.472C12.032 19.344 12.096 19.28 12.224 19.28C12.384 19.248 12.496 19.232 12.56 19.232C12.848 19.232 13.072 19.12 13.232 18.896C13.392 18.64 13.6 18.512 13.856 18.512C13.952 18.416 14.08 18.272 14.24 18.08C14.4 17.888 14.56 17.68 14.72 17.456C14.88 17.232 15.008 17.024 15.104 16.832C15.232 16.64 15.296 16.48 15.296 16.352C15.296 15.904 15.184 15.488 14.96 15.104C14.768 14.72 14.672 14.304 14.672 13.856L14.72 13.424L14.864 13.232H15.104C15.36 13.232 15.632 13.328 15.92 13.52C16.208 13.68 16.512 13.872 16.832 14.096C17.184 14.288 17.52 14.48 17.84 14.672C18.192 14.832 18.544 14.912 18.896 14.912L19.232 15.248C19.552 15.312 19.808 15.408 20 15.536C20.224 15.632 20.464 15.792 20.72 16.016L21.104 17.408C20.912 17.92 20.464 18.32 19.76 18.608C19.056 18.896 18.288 19.184 17.456 19.472C16.656 19.728 15.872 20.032 15.104 20.384C14.368 20.736 13.856 21.2 13.568 21.776C13.984 22.16 14.304 22.64 14.528 23.216C14.784 23.792 14.976 24.4 15.104 25.04C15.232 25.648 15.328 26.272 15.392 26.912C15.488 27.552 15.584 28.144 15.68 28.688C16 28.176 16.32 27.664 16.64 27.152C16.96 26.64 17.248 26.112 17.504 25.568C17.664 25.504 17.792 25.392 17.888 25.232C17.984 25.072 18.064 24.912 18.128 24.752C18.128 24.688 18.272 24.384 18.56 23.84C18.88 23.264 19.216 22.656 19.568 22.016C19.952 21.376 20.304 20.784 20.624 20.24C20.944 19.696 21.136 19.392 21.2 19.328C21.232 19.136 21.28 18.96 21.344 18.8C21.44 18.608 21.488 18.432 21.488 18.272C22.288 17.632 22.944 16.768 23.456 15.68C23.968 14.592 24.384 13.52 24.704 12.464C25.056 11.408 25.312 10.48 25.472 9.68C25.664 8.88 25.808 8.448 25.904 8.384C26 8.416 26.144 8.496 26.336 8.624C26.528 8.72 26.736 8.832 26.96 8.96C27.184 9.056 27.376 9.168 27.536 9.296C27.696 9.392 27.792 9.472 27.824 9.536C28.272 9.888 28.816 10.064 29.456 10.064C29.584 10.064 29.712 10.128 29.84 10.256C29.968 10.384 30.08 10.544 30.176 10.736C30.304 10.896 30.416 11.072 30.512 11.264C30.64 11.424 30.736 11.552 30.8 11.648C31.184 11.808 31.536 11.888 31.856 11.888L31.952 11.504H32.24L32.576 11.312L32.624 10.736C32.624 10.064 32.528 9.392 32.336 8.72C32.176 8.048 32 7.376 31.808 6.704C31.616 6.032 31.424 5.376 31.232 4.736C31.072 4.064 30.992 3.392 30.992 2.72V2.384L31.232 2.048L31.568 2C32.272 2.192 32.976 2.496 33.68 2.912C34.384 3.296 35.056 3.664 35.696 4.016C35.888 4.112 36.144 4.512 36.464 5.216C36.784 5.888 37.12 6.624 37.472 7.424C37.856 8.224 38.224 8.96 38.576 9.632C38.928 10.304 39.216 10.656 39.44 10.688C39.6 10.432 39.84 10.256 40.16 10.16C40.512 10.032 40.88 9.92 41.264 9.824C41.648 9.728 42.016 9.632 42.368 9.536C42.72 9.408 42.992 9.216 43.184 8.96C43.344 8.704 43.488 8.464 43.616 8.24C43.744 8.016 43.936 7.808 44.192 7.616C44.256 7.744 44.336 7.888 44.432 8.048C44.56 8.176 44.704 8.24 44.864 8.24C45.248 8.4 45.664 8.56 46.112 8.72C46.56 8.848 46.976 9.024 47.36 9.248C47.776 9.44 48.128 9.696 48.416 10.016C48.736 10.336 48.944 10.736 49.04 11.216L48.848 11.888C48.656 12.08 48.384 12.256 48.032 12.416C47.68 12.544 47.312 12.656 46.928 12.752C46.544 12.848 46.16 12.928 45.776 12.992C45.424 13.024 45.104 13.04 44.816 13.04C44.592 13.04 44.4 13.008 44.24 12.944C44.08 12.88 43.92 12.8 43.76 12.704C43.568 12.448 43.344 12.144 43.088 11.792C42.864 11.408 42.624 11.136 42.368 10.976C41.952 11.04 41.52 11.12 41.072 11.216C40.656 11.28 40.256 11.392 39.872 11.552L39.824 11.744L42.512 17.84C42.672 18.192 42.912 18.496 43.232 18.752C43.584 18.976 43.856 19.264 44.048 19.616C44.304 20.128 44.48 20.656 44.576 21.2C44.704 21.744 44.928 22.272 45.248 22.784C45.44 23.104 45.728 23.488 46.112 23.936C46.496 24.352 46.864 24.784 47.216 25.232C47.568 25.68 47.872 26.128 48.128 26.576C48.416 27.024 48.56 27.44 48.56 27.824C48.56 27.984 48.528 28.16 48.464 28.352C47.952 28.832 47.152 29.184 46.064 29.408C44.976 29.6 43.792 29.76 42.512 29.888C41.264 30.016 40.016 30.176 38.768 30.368C37.552 30.528 36.56 30.816 35.792 31.232C35.6 31.328 35.456 31.696 35.36 32.336C35.296 32.976 35.232 33.696 35.168 34.496C35.136 35.264 35.12 36.016 35.12 36.752C35.12 37.456 35.12 37.936 35.12 38.192C34.288 39.024 33.6 39.856 33.056 40.688C32.544 41.52 31.968 42.384 31.328 43.28C31.168 43.504 30.736 43.712 30.032 43.904C29.328 44.128 28.48 44.368 27.488 44.624C26.496 44.88 25.424 45.152 24.272 45.44C23.12 45.76 22 46.128 20.912 46.544C19.824 46.96 18.832 47.424 17.936 47.936C17.072 48.48 16.416 49.104 15.968 49.808C15.392 50.16 14.704 50.336 13.904 50.336C13.552 50.336 13.2 50.192 12.848 49.904C12.528 49.616 12.24 49.264 11.984 48.848C11.728 48.464 11.52 48.048 11.36 47.6C11.2 47.152 11.12 46.768 11.12 46.448L11.168 46.112ZM40.208 28.256C40.528 28 40.944 27.712 41.456 27.392C41.968 27.04 42.432 26.864 42.848 26.864C43.104 26.736 43.248 26.416 43.28 25.904C43.344 25.36 43.376 24.96 43.376 24.704C43.376 24.448 43.344 24.176 43.28 23.888C43.216 23.568 43.104 23.296 42.944 23.072L42.752 23.12C42.272 23.472 41.792 23.872 41.312 24.32C40.864 24.736 40.416 25.168 39.968 25.616C39.52 26.032 39.04 26.448 38.528 26.864C38.048 27.248 37.536 27.552 36.992 27.776C36.896 27.872 36.784 28.016 36.656 28.208C36.56 28.4 36.464 28.624 36.368 28.88C36.272 29.104 36.192 29.328 36.128 29.552C36.064 29.744 36.032 29.904 36.032 30.032H36.128C36.544 29.872 36.96 29.76 37.376 29.696C37.824 29.632 38.256 29.52 38.672 29.36C38.96 29.264 39.216 29.056 39.44 28.736C39.664 28.416 39.92 28.256 40.208 28.256ZM39.008 19.808C39.008 19.328 38.864 18.896 38.576 18.512C38.32 18.096 38.192 17.648 38.192 17.168L38.24 16.784L38.432 16.544H38.624C38.72 16.544 38.88 16.608 39.104 16.736C39.328 16.864 39.568 17.008 39.824 17.168C40.112 17.328 40.368 17.488 40.592 17.648C40.848 17.808 41.056 17.904 41.216 17.936C41.152 17.712 40.992 17.296 40.736 16.688C40.512 16.048 40.24 15.392 39.92 14.72C39.6 14.016 39.28 13.392 38.96 12.848C38.672 12.272 38.448 11.936 38.288 11.84H38.096C38 11.84 37.888 11.856 37.76 11.888C37.632 11.92 37.52 11.952 37.424 11.984L37.232 12.224L37.184 12.752C37.184 13.136 37.232 13.504 37.328 13.856C37.456 14.208 37.536 14.576 37.568 14.96C37.632 15.824 37.664 16.704 37.664 17.6C37.664 18.464 37.664 19.328 37.664 20.192V21.968C37.92 21.712 38.208 21.376 38.528 20.96C38.848 20.544 39.008 20.16 39.008 19.808ZM36.512 8.72V8.816C36.512 9.104 36.576 9.504 36.704 10.016C36.864 10.528 37.04 10.88 37.232 11.072L37.472 11.12L37.664 10.832C37.664 10.704 37.616 10.544 37.52 10.352C37.456 10.128 37.36 9.904 37.232 9.68C37.136 9.456 37.008 9.264 36.848 9.104C36.72 8.912 36.608 8.784 36.512 8.72ZM40.304 39.584L40.256 39.296H40.544C40.864 39.296 41.184 39.456 41.504 39.776C41.824 40.064 42.16 40.384 42.512 40.736C42.896 41.088 43.296 41.392 43.712 41.648C44.16 41.936 44.624 42.064 45.104 42.032L45.392 41.792L45.44 41.072C45.248 40.528 44.96 40.096 44.576 39.776C44.224 39.424 43.856 39.088 43.472 38.768C43.088 38.416 42.704 38.016 42.32 37.568C41.968 37.12 41.696 36.48 41.504 35.648L41.6 34.928H41.984C42.048 34.928 42.176 34.976 42.368 35.072C42.56 35.136 42.752 35.232 42.944 35.36C43.168 35.488 43.36 35.616 43.52 35.744C43.712 35.84 43.84 35.92 43.904 35.984C46.24 36.624 47.936 37.632 48.992 39.008C50.048 40.384 50.576 42.288 50.576 44.72C50.576 45.584 50.336 46.128 49.856 46.352C49.376 46.608 48.768 46.736 48.032 46.736C47.488 46.736 46.832 46.448 46.064 45.872C45.328 45.296 44.576 44.608 43.808 43.808C43.04 43.008 42.336 42.208 41.696 41.408C41.056 40.64 40.592 40.032 40.304 39.584ZM26.192 23.12C26.192 23.056 26.224 22.896 26.288 22.64C26.384 22.384 26.48 22.112 26.576 21.824C26.672 21.504 26.768 21.216 26.864 20.96C26.96 20.672 27.024 20.496 27.056 20.432H27.296L27.968 20.72C28.096 20.944 28.304 21.136 28.592 21.296C28.912 21.456 29.232 21.6 29.552 21.728C29.904 21.856 30.24 21.984 30.56 22.112C30.912 22.208 31.2 22.32 31.424 22.448L31.76 22.928L31.856 23.6L31.232 26L30.752 26.624C30.688 26.656 30.528 26.72 30.272 26.816C30.016 26.88 29.856 26.912 29.792 26.912H28.688L27.776 26.48C27.36 26.032 26.992 25.52 26.672 24.944C26.352 24.368 26.192 23.76 26.192 23.12Z" fill="black"/>
<path d="M25.136 96.576L25.28 96.48C25.696 96.672 26.128 96.992 26.576 97.44C27.056 97.92 27.52 98.416 27.968 98.928C28.416 99.44 28.864 99.888 29.312 100.272C29.76 100.688 30.176 100.912 30.56 100.944C30.656 100.56 30.72 100.16 30.752 99.744C30.784 99.36 30.8 98.96 30.8 98.544C30.8 97.744 30.8 96.912 30.8 96.048C30.8 95.184 30.752 94.368 30.656 93.6L30.56 93.408C30.368 93.408 30.064 93.488 29.648 93.648C29.232 93.808 28.784 93.984 28.304 94.176C27.856 94.4 27.424 94.608 27.008 94.8C26.624 95.024 26.368 95.2 26.24 95.328C25.536 95.584 24.832 95.712 24.128 95.712C24 95.712 23.824 95.664 23.6 95.568C23.472 95.504 23.328 95.44 23.168 95.376V95.424C23.168 95.584 23.232 95.872 23.36 96.288C23.488 96.736 23.616 97.216 23.744 97.728C23.904 98.272 24.048 98.784 24.176 99.264C24.336 99.776 24.432 100.192 24.464 100.512L24.128 100.944C23.936 101.104 23.648 101.232 23.264 101.328C22.912 101.424 22.608 101.472 22.352 101.472C21.424 101.312 20.688 100.848 20.144 100.08C19.6 99.312 19.328 98.464 19.328 97.536C19.328 97.152 19.488 96.736 19.808 96.288C20.16 95.84 20.4 95.408 20.528 94.992C20.88 93.872 21.104 92.624 21.2 91.248C21.296 89.872 21.344 88.592 21.344 87.408C21.088 86.864 20.816 86.336 20.528 85.824C20.272 85.28 20.144 84.688 20.144 84.048C20.144 83.856 20.176 83.728 20.24 83.664C20.336 83.6 20.416 83.552 20.48 83.52C20.576 83.488 20.656 83.44 20.72 83.376C20.816 83.312 20.864 83.184 20.864 82.992C20.864 82.448 20.976 82.064 21.2 81.84C21.424 81.616 21.664 81.328 21.92 80.976C22.208 80.624 22.464 80.112 22.688 79.44C22.912 78.736 23.024 77.648 23.024 76.176C23.024 75.44 23.088 74.768 23.216 74.16H23.36C23.776 74.16 24.176 74.24 24.56 74.4C24.944 74.528 25.344 74.592 25.76 74.592C26.24 74.592 26.832 74.528 27.536 74.4C28.272 74.24 28.992 74.048 29.696 73.824C30.432 73.568 31.12 73.296 31.76 73.008C32.432 72.688 32.944 72.384 33.296 72.096C33.488 72.096 33.728 72 34.016 71.808C34.304 71.584 34.592 71.344 34.88 71.088C35.168 70.8 35.44 70.528 35.696 70.272C35.952 69.984 36.128 69.76 36.224 69.6C35.296 69.664 34.32 69.808 33.296 70.032C32.272 70.256 31.248 70.496 30.224 70.752C29.2 70.976 28.192 71.184 27.2 71.376C26.24 71.536 25.328 71.616 24.464 71.616C24.336 71.616 24.144 71.584 23.888 71.52L23.648 71.232V70.992C23.744 70.768 23.984 70.608 24.368 70.512C24.752 70.416 25.056 70.368 25.28 70.368V70.224C25.088 69.808 24.848 69.392 24.56 68.976C24.304 68.56 24.176 68.112 24.176 67.632C24.176 67.248 24.256 66.944 24.416 66.72C24.576 66.464 24.752 66.24 24.944 66.048C25.136 65.824 25.328 65.6 25.52 65.376C25.712 65.152 25.84 64.896 25.904 64.608L25.76 64.512C25.6 64.576 25.328 64.752 24.944 65.04C24.592 65.328 24.208 65.648 23.792 66C23.376 66.352 23.008 66.688 22.688 67.008C22.368 67.328 22.176 67.552 22.112 67.68V67.968C22.112 68.48 22.128 68.992 22.16 69.504C22.224 69.984 22.288 70.48 22.352 70.992L22.544 71.232L23.168 71.568L23.312 71.76L23.264 71.952L22.688 72.528C22.656 72.72 22.672 72.912 22.736 73.104C22.8 73.264 22.832 73.424 22.832 73.584L22.688 73.968C22.496 74.192 22.208 74.368 21.824 74.496C21.44 74.592 21.104 74.64 20.816 74.64C20.624 74.64 20.336 74.528 19.952 74.304C19.568 74.08 19.296 73.904 19.136 73.776L19.088 73.68L18.896 73.536C18.512 73.6 17.936 73.856 17.168 74.304C16.432 74.752 15.648 75.248 14.816 75.792C14.016 76.336 13.232 76.832 12.464 77.28C11.728 77.696 11.168 77.904 10.784 77.904C10.24 77.904 9.76 77.776 9.344 77.52C8.928 77.232 8.56 76.88 8.24 76.464C7.952 76.016 7.728 75.536 7.568 75.024C7.408 74.512 7.328 74.016 7.328 73.536L7.376 73.344L7.568 73.2C7.856 73.168 8.064 73.104 8.192 73.008C8.32 72.912 8.432 72.816 8.528 72.72C8.624 72.592 8.704 72.464 8.768 72.336C8.864 72.176 9.008 72.032 9.2 71.904C9.648 71.904 10.08 71.68 10.496 71.232C10.944 70.784 11.376 70.272 11.792 69.696C12.208 69.088 12.592 68.496 12.944 67.92C13.296 67.312 13.616 66.848 13.904 66.528L14.192 66.432C14.896 66.848 15.648 67.216 16.448 67.536C17.28 67.856 18 68.256 18.608 68.736C18.608 68.608 18.608 68.496 18.608 68.4C18.64 68.304 18.656 68.192 18.656 68.064C18.656 67.648 18.576 67.28 18.416 66.96C18.288 66.64 18.128 66.32 17.936 66C17.744 65.68 17.568 65.344 17.408 64.992C17.28 64.608 17.216 64.16 17.216 63.648C17.216 63.232 17.424 63.024 17.84 63.024C18.096 63.024 18.224 63.136 18.224 63.36L18.368 62.928C18.368 62.576 18.144 62.192 17.696 61.776C17.248 61.36 16.752 60.912 16.208 60.432C15.664 59.92 15.168 59.392 14.72 58.848C14.272 58.272 14.048 57.664 14.048 57.024L14.096 56.496L14.48 56.064L14.672 56.256C15.088 56.448 15.52 56.624 15.968 56.784C16.416 56.944 16.848 57.12 17.264 57.312C17.712 57.504 18.112 57.744 18.464 58.032C18.848 58.288 19.152 58.624 19.376 59.04C19.76 59.232 20.048 59.52 20.24 59.904C20.464 60.288 20.64 60.672 20.768 61.056C20.928 61.44 21.072 61.808 21.2 62.16C21.328 62.512 21.504 62.768 21.728 62.928C21.76 62.832 21.888 62.768 22.112 62.736C22.336 62.672 22.592 62.624 22.88 62.592C23.2 62.56 23.488 62.544 23.744 62.544C24.032 62.512 24.24 62.48 24.368 62.448C24.72 62.32 25.072 62.24 25.424 62.208C25.808 62.144 26.176 62.096 26.528 62.064L27.056 60.864C27.216 60.96 27.52 61.104 27.968 61.296C28.416 61.488 28.88 61.712 29.36 61.968C29.872 62.192 30.32 62.416 30.704 62.64C31.12 62.864 31.376 63.024 31.472 63.12L31.712 63.792L31.664 64.608L30.944 65.808H31.04C31.36 65.584 31.648 65.328 31.904 65.04C32.192 64.752 32.48 64.48 32.768 64.224C32.896 64.16 33.056 63.952 33.248 63.6C33.472 63.216 33.696 62.8 33.92 62.352C34.144 61.904 34.368 61.488 34.592 61.104C34.848 60.688 35.072 60.416 35.264 60.288C35.328 60 35.408 59.712 35.504 59.424C35.6 59.136 35.68 58.848 35.744 58.56L35.648 58.176L35.312 57.984C35.056 57.984 34.816 57.968 34.592 57.936C34.4 57.904 34.176 57.888 33.92 57.888C33.76 57.888 33.488 57.952 33.104 58.08C32.752 58.208 32.352 58.352 31.904 58.512C31.488 58.672 31.072 58.832 30.656 58.992C30.272 59.152 29.984 59.264 29.792 59.328C29.568 59.616 29.312 59.888 29.024 60.144C28.768 60.368 28.448 60.48 28.064 60.48C27.584 60.48 27.136 60.368 26.72 60.144C26.336 59.92 26 59.632 25.712 59.28C25.424 58.928 25.184 58.528 24.992 58.08C24.832 57.632 24.736 57.184 24.704 56.736L24.992 56.064H25.136C25.488 56.064 25.84 56.16 26.192 56.352C26.576 56.512 26.928 56.592 27.248 56.592C27.472 56.592 27.632 56.512 27.728 56.352C27.824 56.192 28.064 56.176 28.448 56.304C29.088 56.208 29.728 56.064 30.368 55.872C31.04 55.648 31.696 55.536 32.336 55.536C32.624 55.184 32.976 54.928 33.392 54.768C33.808 54.576 34.24 54.48 34.688 54.48C34.816 54.48 34.944 54.496 35.072 54.528C35.2 54.56 35.328 54.592 35.456 54.624L35.696 54.816C36.208 54.976 36.736 55.168 37.28 55.392C37.824 55.584 38.32 55.84 38.768 56.16C39.216 56.448 39.584 56.816 39.872 57.264C40.192 57.68 40.352 58.208 40.352 58.848C40.352 59.072 40.144 59.536 39.728 60.24C39.344 60.944 38.896 61.696 38.384 62.496C37.904 63.264 37.408 64 36.896 64.704C36.416 65.408 36.08 65.888 35.888 66.144C35.856 66.304 35.744 66.512 35.552 66.768C35.392 67.024 35.2 67.296 34.976 67.584C34.752 67.84 34.528 68.096 34.304 68.352C34.08 68.576 33.904 68.752 33.776 68.88C33.872 68.88 34.048 68.864 34.304 68.832C34.592 68.8 34.88 68.768 35.168 68.736C35.488 68.672 35.776 68.608 36.032 68.544C36.288 68.48 36.464 68.432 36.56 68.4C36.688 68.368 36.832 68.272 36.992 68.112C37.152 67.952 37.312 67.792 37.472 67.632C37.632 67.44 37.792 67.28 37.952 67.152C38.112 67.024 38.24 66.976 38.336 67.008C38.624 67.328 39.008 67.584 39.488 67.776C39.968 67.936 40.432 68.096 40.88 68.256C41.328 68.416 41.712 68.624 42.032 68.88C42.384 69.136 42.56 69.504 42.56 69.984L42.512 70.752L41.936 71.328C40.944 71.68 39.808 71.968 38.528 72.192C37.248 72.416 36.08 72.624 35.024 72.816C34.8 72.976 34.496 73.168 34.112 73.392C33.76 73.584 33.456 73.696 33.2 73.728C32.656 74.08 32.08 74.432 31.472 74.784C30.896 75.104 30.368 75.488 29.888 75.936V76.032C29.984 76.128 30.16 76.24 30.416 76.368C30.672 76.464 30.944 76.576 31.232 76.704C31.552 76.8 31.84 76.896 32.096 76.992C32.384 77.056 32.592 77.088 32.72 77.088L32.96 77.184C33.984 78.112 34.624 79.088 34.88 80.112C35.168 81.104 35.312 82.272 35.312 83.616C35.312 87.2 35.328 90.784 35.36 94.368C35.424 97.952 35.328 101.536 35.072 105.12C34.848 105.344 34.576 105.504 34.256 105.6C33.936 105.696 33.632 105.776 33.344 105.84C33.056 105.84 32.64 105.632 32.096 105.216C31.584 104.832 31.024 104.336 30.416 103.728C29.808 103.152 29.184 102.496 28.544 101.76C27.936 101.024 27.376 100.304 26.864 99.6C26.352 98.928 25.936 98.32 25.616 97.776C25.296 97.232 25.136 96.832 25.136 96.576ZM26.144 91.344L26.672 91.392L27.056 91.632L27.2 91.488L27.392 90.96L27.488 90.864C27.552 90.96 27.648 91.072 27.776 91.2C27.904 91.296 28.048 91.344 28.208 91.344C28.368 91.344 28.512 91.312 28.64 91.248C28.8 91.152 28.88 91.008 28.88 90.816C29.136 90.816 29.312 90.816 29.408 90.816C29.536 90.784 29.632 90.768 29.696 90.768C29.76 90.736 29.84 90.704 29.936 90.672C30.032 90.608 30.176 90.528 30.368 90.432L30.56 90.24L30.656 89.952C30.56 89.504 30.528 89.04 30.56 88.56C30.592 88.08 30.576 87.6 30.512 87.12L30.32 86.928C30.16 86.896 30 86.88 29.84 86.88C29.712 86.848 29.568 86.832 29.408 86.832C29.216 86.832 28.848 86.896 28.304 87.024C27.76 87.152 27.184 87.312 26.576 87.504C26 87.696 25.456 87.888 24.944 88.08C24.432 88.272 24.128 88.432 24.032 88.56C23.968 89.04 23.872 89.52 23.744 90C23.648 90.48 23.6 90.96 23.6 91.44C24.048 91.504 24.464 91.504 24.848 91.44C25.264 91.376 25.696 91.344 26.144 91.344ZM30.272 80.064C29.92 80.16 29.536 80.352 29.12 80.64C28.736 80.928 28.352 81.264 27.968 81.648C27.616 82 27.28 82.384 26.96 82.8C26.64 83.184 26.4 83.536 26.24 83.856C26.848 83.44 27.52 83.056 28.256 82.704C28.544 82.896 28.864 83.088 29.216 83.28C29.6 83.44 29.92 83.616 30.176 83.808L30.224 83.904V83.856C30.288 83.728 30.384 83.504 30.512 83.184C30.64 82.832 30.704 82.592 30.704 82.464C30.704 82.08 30.64 81.68 30.512 81.264C30.416 80.848 30.336 80.448 30.272 80.064ZM16.016 72.816C16.176 72.752 16.432 72.704 16.784 72.672C17.136 72.608 17.392 72.576 17.552 72.576C17.712 72.576 17.856 72.624 17.984 72.72C18.144 72.784 18.304 72.848 18.464 72.912L17.6 71.04C17.088 71.328 16.576 71.616 16.064 71.904C15.552 72.16 15.072 72.464 14.624 72.816C14.816 72.88 15.056 72.944 15.344 73.008C15.632 73.072 15.888 73.104 16.112 73.104C16.144 73.008 16.112 72.912 16.016 72.816ZM29.84 69.12L29.552 68.4L29.36 68.256C29.264 68.416 29.152 68.624 29.024 68.88C28.896 69.104 28.832 69.312 28.832 69.504L28.976 69.552H29.264C29.328 69.552 29.408 69.536 29.504 69.504C29.632 69.44 29.728 69.392 29.792 69.36L29.84 69.12Z" fill="black"/>
<path d="M21.968 150.448C21.136 151.088 20.256 151.472 19.328 151.6C18.432 151.728 17.472 151.792 16.448 151.792C15.52 151.792 14.688 151.456 13.952 150.784C13.248 150.144 12.896 149.344 12.896 148.384C12.896 148.224 12.896 148.032 12.896 147.808C12.928 147.584 13.056 147.472 13.28 147.472C13.504 147.472 13.728 147.504 13.952 147.568C14.176 147.664 14.416 147.712 14.672 147.712C14.928 147.712 15.296 147.632 15.776 147.472C16.256 147.312 16.608 147.152 16.832 146.992C17.184 146.736 17.488 146.416 17.744 146.032C18 145.648 18.304 145.328 18.656 145.072C18.944 144.848 19.328 144.608 19.808 144.352C20.32 144.096 20.816 143.824 21.296 143.536C21.808 143.248 22.256 142.944 22.64 142.624C23.056 142.304 23.344 141.984 23.504 141.664V141.472L23.168 140.704C22.528 140.96 21.696 141.36 20.672 141.904C19.68 142.416 18.64 142.944 17.552 143.488C16.464 144 15.424 144.464 14.432 144.88C13.472 145.296 12.72 145.504 12.176 145.504C11.856 145.504 11.552 145.44 11.264 145.312C10.976 145.184 10.672 145.088 10.352 145.024C9.808 144.896 9.264 144.768 8.72 144.64C8.208 144.512 7.728 144.32 7.28 144.064C6.864 143.776 6.512 143.392 6.224 142.912C5.968 142.4 5.84 141.712 5.84 140.848C5.84 140.72 5.856 140.592 5.888 140.464C5.92 140.336 5.952 140.208 5.984 140.08L6.224 140.032C6.48 140.32 6.912 140.544 7.52 140.704C8.16 140.832 8.816 140.944 9.488 141.04C10.192 141.136 10.848 141.232 11.456 141.328C12.064 141.424 12.496 141.584 12.752 141.808C12.944 141.68 13.248 141.584 13.664 141.52C14.112 141.456 14.576 141.424 15.056 141.424C15.568 141.392 16.064 141.392 16.544 141.424C17.024 141.424 17.392 141.424 17.648 141.424L17.792 141.04C17.952 140.88 18.144 140.816 18.368 140.848C18.592 140.848 18.8 140.864 18.992 140.896C19.344 140.736 19.728 140.56 20.144 140.368C20.592 140.176 21.024 140.08 21.44 140.08C21.44 140.048 21.488 139.952 21.584 139.792C21.68 139.632 21.744 139.648 21.776 139.84H22.064L22.736 139.408L22.88 138.832L23.072 138.64L23.312 138.592L23.84 138.928L24.368 138.976C24.88 138.976 25.376 138.88 25.856 138.688L26.288 138.208L26.24 137.92C26.048 137.696 25.776 137.296 25.424 136.72C25.104 136.144 24.784 135.536 24.464 134.896C24.144 134.224 23.856 133.584 23.6 132.976C23.344 132.336 23.168 131.856 23.072 131.536C22.528 131.568 21.984 131.696 21.44 131.92C20.896 132.144 20.336 132.4 19.76 132.688C19.216 132.944 18.64 133.184 18.032 133.408C17.456 133.6 16.864 133.696 16.256 133.696L15.92 133.648L15.2 132.736L15.296 132.544C15.456 132.416 15.584 132.32 15.68 132.256C15.776 132.16 15.92 132.112 16.112 132.112L16.832 131.872C16.832 131.424 17.088 130.992 17.6 130.576C18.112 130.16 18.688 129.728 19.328 129.28C20 128.832 20.624 128.368 21.2 127.888C21.776 127.376 22.128 126.816 22.256 126.208C22.352 126.048 22.464 125.936 22.592 125.872C22.752 125.808 22.912 125.744 23.072 125.68C23.232 125.616 23.376 125.536 23.504 125.44C23.632 125.312 23.712 125.104 23.744 124.816L23.648 124.672C23.264 124.672 22.832 124.816 22.352 125.104C21.872 125.392 21.376 125.712 20.864 126.064C20.384 126.384 19.872 126.688 19.328 126.976C18.816 127.232 18.304 127.36 17.792 127.36C17.12 127.36 16.48 127.216 15.872 126.928C15.296 126.608 14.784 126.192 14.336 125.68C13.888 125.168 13.536 124.608 13.28 124C13.024 123.36 12.896 122.72 12.896 122.08C12.896 121.824 12.944 121.568 13.04 121.312C13.168 121.056 13.312 120.832 13.472 120.64C13.664 120.832 14.016 121.088 14.528 121.408C15.072 121.728 15.648 122.032 16.256 122.32C16.864 122.608 17.456 122.864 18.032 123.088C18.608 123.312 19.024 123.424 19.28 123.424C19.696 123.424 20.096 123.376 20.48 123.28C20.896 123.184 21.312 123.104 21.728 123.04L22.496 123.28L22.736 122.944C23.152 122.752 23.632 122.672 24.176 122.704C24.752 122.736 25.264 122.704 25.712 122.608C25.424 122.288 25.136 121.904 24.848 121.456C24.56 121.008 24.416 120.56 24.416 120.112C24.416 120.048 24.448 119.936 24.512 119.776C24.576 119.584 24.624 119.456 24.656 119.392L25.136 119.68L25.28 119.392L25.184 119.104C24.704 118.656 24.288 118.064 23.936 117.328C23.616 116.56 23.456 115.856 23.456 115.216L23.6 114.976C24.144 114.624 24.736 114.432 25.376 114.4C26.048 114.336 26.704 114.304 27.344 114.304C27.568 114.304 27.744 114.224 27.872 114.064C28.032 113.904 28.208 113.792 28.4 113.728C28.624 113.6 28.848 113.472 29.072 113.344C29.296 113.216 29.536 113.152 29.792 113.152C29.92 113.152 30.032 113.232 30.128 113.392C30.192 113.296 30.256 113.12 30.32 112.864C30.416 112.768 30.528 112.656 30.656 112.528C30.816 112.368 30.96 112.208 31.088 112.048C31.248 111.856 31.392 111.68 31.52 111.52C31.648 111.328 31.712 111.184 31.712 111.088L31.472 110.944C30.512 110.944 29.6 111.168 28.736 111.616C27.904 112.064 27.072 112.56 26.24 113.104C25.408 113.648 24.56 114.144 23.696 114.592C22.864 115.04 21.984 115.264 21.056 115.264C20.608 115.264 20.176 115.104 19.76 114.784C19.376 114.464 19.024 114.08 18.704 113.632C18.416 113.152 18.176 112.656 17.984 112.144C17.824 111.6 17.744 111.136 17.744 110.752V110.56L17.888 110.224L18.128 110.176C18.288 110.368 18.512 110.56 18.8 110.752C19.088 110.912 19.36 110.912 19.616 110.752C19.84 110.912 20.096 110.992 20.384 110.992C21.504 110.992 22.624 110.96 23.744 110.896C24.896 110.8 26 110.784 27.056 110.848C27.024 110.688 27.136 110.608 27.392 110.608C27.68 110.608 27.856 110.608 27.92 110.608C28.24 110.544 28.592 110.432 28.976 110.272C29.36 110.112 29.744 109.952 30.128 109.792C30.544 109.6 30.928 109.44 31.28 109.312C31.632 109.152 31.936 109.072 32.192 109.072C32.352 108.816 32.56 108.56 32.816 108.304C33.104 108.016 33.392 107.84 33.68 107.776C33.84 107.648 34.016 107.536 34.208 107.44C34.4 107.344 34.608 107.296 34.832 107.296C34.96 107.296 35.184 107.376 35.504 107.536C35.824 107.696 36.176 107.872 36.56 108.064C36.944 108.256 37.312 108.448 37.664 108.64C38.048 108.832 38.352 108.96 38.576 109.024L38.912 109.312C38.976 109.472 39.024 109.632 39.056 109.792C39.12 109.952 39.152 110.112 39.152 110.272C39.152 110.432 39.12 110.608 39.056 110.8C38.96 110.96 38.704 111.184 38.288 111.472C37.872 111.76 37.36 112.096 36.752 112.48C36.176 112.832 35.536 113.216 34.832 113.632C34.128 114.016 33.44 114.416 32.768 114.832C32.096 115.248 31.472 115.664 30.896 116.08C30.32 116.464 29.872 116.816 29.552 117.136L31.424 117.904H31.616C31.968 117.904 32.288 118.112 32.576 118.528C32.864 118.912 33.072 119.248 33.2 119.536L33.44 119.728L33.68 119.776C33.968 119.616 34.256 119.488 34.544 119.392C34.864 119.264 35.2 119.152 35.552 119.056C35.808 118.8 36.16 118.672 36.608 118.672C36.832 118.416 37.104 118.256 37.424 118.192C37.776 118.096 38.112 118.048 38.432 118.048C38.56 117.888 38.704 117.728 38.864 117.568C39.024 117.376 39.2 117.264 39.392 117.232L39.632 117.472C39.856 117.44 40.08 117.504 40.304 117.664C40.784 118.016 41.328 118.272 41.936 118.432C42.544 118.592 43.056 118.848 43.472 119.2C43.664 119.36 43.824 119.616 43.952 119.968C44.08 120.288 44.16 120.576 44.192 120.832C44.032 121.312 43.68 121.68 43.136 121.936C42.624 122.16 42.032 122.32 41.36 122.416C40.688 122.512 40.016 122.576 39.344 122.608C38.672 122.64 38.128 122.688 37.712 122.752C37.264 123.04 36.768 123.296 36.224 123.52C35.712 123.712 35.2 123.92 34.688 124.144C34.208 124.368 33.728 124.624 33.248 124.912C32.8 125.2 32.4 125.584 32.048 126.064V126.208C32.048 126.88 32.176 127.52 32.432 128.128C32.72 128.736 32.864 129.376 32.864 130.048C32.864 130.304 32.816 130.784 32.72 131.488C32.656 132.192 32.56 132.928 32.432 133.696C32.304 134.464 32.128 135.152 31.904 135.76C31.712 136.368 31.504 136.688 31.28 136.72L31.136 136.912L31.328 137.152C32.288 137.024 33.232 136.816 34.16 136.528C35.12 136.24 36.096 136.128 37.088 136.192L37.664 135.952L38.24 136.144C39.04 135.696 39.776 135.184 40.448 134.608C40.736 134.608 40.96 134.736 41.12 134.992C41.28 135.216 41.488 135.328 41.744 135.328C41.84 135.328 41.968 135.376 42.128 135.472C42.32 135.536 42.512 135.632 42.704 135.76C42.896 135.856 43.072 135.952 43.232 136.048C43.424 136.144 43.584 136.208 43.712 136.24C43.872 136.304 44.032 136.352 44.192 136.384C44.352 136.384 44.512 136.432 44.672 136.528C44.768 136.752 44.864 136.992 44.96 137.248C45.056 137.472 45.104 137.712 45.104 137.968C45.104 138.224 44.896 138.448 44.48 138.64C44.064 138.8 43.52 138.944 42.848 139.072C42.208 139.2 41.488 139.296 40.688 139.36C39.92 139.392 39.168 139.424 38.432 139.456C37.728 139.488 37.088 139.504 36.512 139.504C35.936 139.504 35.52 139.504 35.264 139.504C34.816 139.504 34.416 139.344 34.064 139.024C33.744 138.704 33.616 138.304 33.68 137.824L33.488 137.68C33.136 137.84 32.768 137.968 32.384 138.064C32 138.128 31.632 138.24 31.28 138.4V138.544C31.44 138.736 31.568 138.944 31.664 139.168C31.76 139.36 31.888 139.536 32.048 139.696C32.208 140.144 32.32 140.624 32.384 141.136C32.448 141.616 32.528 142.096 32.624 142.576C33.072 143.248 33.792 143.792 34.784 144.208C35.808 144.624 36.896 144.96 38.048 145.216C39.232 145.472 40.384 145.68 41.504 145.84C42.656 146.032 43.616 146.224 44.384 146.416C44.64 146.576 44.88 146.64 45.104 146.608C45.328 146.608 45.568 146.608 45.824 146.608C46.08 146.608 46.32 146.656 46.544 146.752C46.768 146.848 47.008 146.896 47.264 146.896L47.888 147.184L48.08 146.992C48.304 146.992 48.736 147.056 49.376 147.184C50.016 147.312 50.688 147.456 51.392 147.616C52.096 147.776 52.736 147.936 53.312 148.096C53.888 148.256 54.256 148.4 54.416 148.528V148.864C54.32 148.896 53.968 148.944 53.36 149.008C52.752 149.072 52.016 149.136 51.152 149.2C50.32 149.264 49.408 149.328 48.416 149.392C47.424 149.456 46.464 149.504 45.536 149.536C44.64 149.6 43.84 149.648 43.136 149.68C42.464 149.712 42.016 149.728 41.792 149.728C40.096 149.728 38.48 149.376 36.944 148.672C35.44 148 33.984 147.248 32.576 146.416C32.48 146.992 32.368 147.808 32.24 148.864C32.144 149.952 31.968 151.024 31.712 152.08C31.488 153.136 31.136 154.048 30.656 154.816C30.208 155.616 29.6 156.016 28.832 156.016L27.92 155.968C27.44 155.744 26.912 155.408 26.336 154.96C25.76 154.544 25.184 154.064 24.608 153.52C24.064 153.008 23.552 152.48 23.072 151.936C22.592 151.392 22.224 150.896 21.968 150.448ZM27.2 145.36L27.152 145.264C26.8 145.296 26.416 145.472 26 145.792C25.616 146.144 25.248 146.512 24.896 146.896C24.576 147.312 24.288 147.68 24.032 148C23.776 148.352 23.616 148.544 23.552 148.576C23.488 148.736 23.408 148.864 23.312 148.96C23.216 149.088 23.136 149.232 23.072 149.392L23.168 149.728C23.52 150.048 23.888 150.32 24.272 150.544C24.656 150.8 25.056 151.024 25.472 151.216H25.712C25.936 151.12 26.144 150.8 26.336 150.256C26.528 149.744 26.688 149.168 26.816 148.528C26.944 147.888 27.04 147.264 27.104 146.656C27.168 146.048 27.2 145.616 27.2 145.36ZM27.44 129.856C27.088 130.048 26.752 130.24 26.432 130.432C26.112 130.624 25.76 130.752 25.376 130.816L25.232 131.008C25.296 131.36 25.424 131.664 25.616 131.92C25.84 132.176 26.08 132.432 26.336 132.688H26.624C26.976 132.304 27.184 131.856 27.248 131.344C27.312 130.832 27.376 130.336 27.44 129.856ZM33.872 123.28H34.544L34.64 122.896C35.056 122.736 35.44 122.528 35.792 122.272C36.144 122.016 36.56 121.888 37.04 121.888C37.104 121.792 37.152 121.664 37.184 121.504C37.216 121.312 37.248 121.152 37.28 121.024L37.04 120.688C36.88 120.656 36.736 120.624 36.608 120.592C36.48 120.56 36.336 120.544 36.176 120.544C35.408 120.544 34.672 120.656 33.968 120.88C33.264 121.104 32.512 121.184 31.712 121.12L31.568 121.216C31.6 121.632 31.648 122.048 31.712 122.464C31.776 122.88 31.808 123.296 31.808 123.712L31.856 123.76L32.096 123.856C32.352 123.856 32.592 123.84 32.816 123.808C33.072 123.744 33.28 123.632 33.44 123.472L33.872 123.28Z" fill="black"/>
<path d="M28.016 201.44C27.76 201.76 27.472 201.968 27.152 202.064C26.832 202.192 26.464 202.256 26.048 202.256C25.568 202.256 25.12 202.112 24.704 201.824C24.32 201.568 23.984 201.216 23.696 200.768C23.44 200.352 23.232 199.904 23.072 199.424C22.944 198.944 22.88 198.48 22.88 198.032C22.88 197.712 22.96 197.168 23.12 196.4C23.312 195.664 23.52 194.88 23.744 194.048C24 193.184 24.256 192.384 24.512 191.648C24.768 190.912 24.976 190.416 25.136 190.16C25.328 189.872 25.616 189.36 26 188.624C26.416 187.888 26.848 187.136 27.296 186.368C27.744 185.6 28.16 184.912 28.544 184.304C28.96 183.696 29.264 183.36 29.456 183.296L29.504 183.344C29.568 183.28 29.616 183.184 29.648 183.056C29.68 182.928 29.696 182.816 29.696 182.72L30.32 182.096L30.752 182.144C30.688 182.048 30.656 181.952 30.656 181.856C30.688 181.76 30.704 181.664 30.704 181.568L31.184 180.944L31.472 180.992L31.616 180.512L32.096 180.08L32 180.032L31.184 179.984C30.736 179.984 30.144 180.16 29.408 180.512C28.672 180.864 27.904 181.28 27.104 181.76C26.304 182.208 25.52 182.656 24.752 183.104C24.016 183.552 23.408 183.888 22.928 184.112C22.672 184.368 22.448 184.624 22.256 184.88C22.096 185.104 22 185.408 21.968 185.792C21.488 186.4 21.04 187.024 20.624 187.664C20.208 188.272 19.744 188.864 19.232 189.44C18.56 190.208 17.84 190.928 17.072 191.6C16.336 192.24 15.696 193.008 15.152 193.904C15.024 194.096 14.816 194.496 14.528 195.104C14.24 195.68 13.92 196.288 13.568 196.928C13.248 197.6 12.944 198.192 12.656 198.704C12.4 199.216 12.224 199.488 12.128 199.52C11.776 199.648 11.36 199.712 10.88 199.712C10.336 199.712 9.856 199.568 9.44 199.28C9.056 199.024 8.72 198.688 8.432 198.272C8.144 197.856 7.904 197.392 7.712 196.88C7.552 196.368 7.456 195.888 7.424 195.44C7.712 194.64 7.888 193.84 7.952 193.04C8.048 192.208 8.112 191.376 8.144 190.544C8.176 189.68 8.24 188.848 8.336 188.048C8.432 187.216 8.624 186.4 8.912 185.6L8.864 185.408C8.672 185.408 8.432 185.488 8.144 185.648C7.856 185.776 7.52 185.936 7.136 186.128C6.784 186.288 6.4 186.448 5.984 186.608C5.6 186.736 5.216 186.8 4.832 186.8C4.448 186.8 4.08 186.688 3.728 186.464C3.408 186.208 3.12 185.904 2.864 185.552C2.608 185.2 2.4 184.832 2.24 184.448C2.08 184.032 2 183.648 2 183.296C2 183.136 2.064 182.928 2.192 182.672C2.32 182.416 2.384 182.16 2.384 181.904C2.448 181.808 2.528 181.616 2.624 181.328C2.688 181.04 2.752 180.736 2.816 180.416C2.848 180.064 2.88 179.728 2.912 179.408C2.944 179.088 2.96 178.864 2.96 178.736C2.96 178.32 2.896 177.936 2.768 177.584C2.64 177.2 2.576 176.8 2.576 176.384V176.192L2.816 176.096C3.456 176.352 4.064 176.688 4.64 177.104C5.248 177.52 5.92 177.728 6.656 177.728L6.896 177.968C7.152 178.672 7.264 179.392 7.232 180.128C7.2 180.864 7.248 181.6 7.376 182.336L7.472 182.384C8.08 182.384 8.512 182.272 8.768 182.048C9.024 181.792 9.184 181.488 9.248 181.136C9.344 180.752 9.376 180.336 9.344 179.888C9.312 179.44 9.296 179.008 9.296 178.592C9.296 178.4 9.296 178.208 9.296 178.016C9.328 177.824 9.424 177.648 9.584 177.488V177.2C9.584 176.624 9.488 176.064 9.296 175.52C9.104 174.976 8.896 174.432 8.672 173.888C8.448 173.344 8.224 172.8 8 172.256C7.808 171.712 7.696 171.152 7.664 170.576L7.808 170.192L8.144 170.096C8.688 170.352 9.2 170.672 9.68 171.056C10.16 171.408 10.688 171.664 11.264 171.824C11.488 171.888 11.712 171.936 11.936 171.968C12.192 172 12.4 172.096 12.56 172.256C12.912 172.608 13.168 173.04 13.328 173.552C13.52 174.064 13.792 174.512 14.144 174.896C14.528 175.344 14.976 175.712 15.488 176C16 176.288 16.48 176.608 16.928 176.96C17.568 177.024 18.064 177.344 18.416 177.92C18.768 178.464 18.944 179.024 18.944 179.6V179.792L18.704 180.224C18.416 180.448 18.064 180.624 17.648 180.752C17.232 180.88 16.816 180.992 16.4 181.088C15.984 181.152 15.6 181.232 15.248 181.328C14.896 181.392 14.64 181.488 14.48 181.616L14.432 181.904L14.672 182.624L15.2 182.672C15.552 182.672 15.888 182.624 16.208 182.528C16.528 182.4 16.864 182.336 17.216 182.336L17.408 182.048L17.792 182.096L17.84 181.856L18.08 181.76H18.416L18.848 182C18.848 181.936 18.832 181.888 18.8 181.856C18.8 181.792 18.8 181.728 18.8 181.664L18.848 181.472C19.008 181.344 19.168 181.232 19.328 181.136C19.488 181.04 19.68 180.992 19.904 180.992L20.144 180.656L20.672 180.608C20.736 180.544 20.88 180.448 21.104 180.32C21.36 180.192 21.616 180.064 21.872 179.936C22.16 179.808 22.416 179.696 22.64 179.6C22.896 179.504 23.056 179.456 23.12 179.456C23.088 179.392 23.072 179.328 23.072 179.264C23.072 179.2 23.072 179.136 23.072 179.072L23.264 178.976H23.648L24.656 179.408V179.312C24.496 179.056 24.416 178.784 24.416 178.496C24.448 178.4 24.496 178.352 24.56 178.352C24.656 178.352 24.736 178.384 24.8 178.448C24.832 178.256 24.896 178.112 24.992 178.016C25.088 177.92 25.2 177.856 25.328 177.824C25.456 177.76 25.584 177.712 25.712 177.68C25.84 177.616 25.968 177.52 26.096 177.392L26.864 177.296V176.768C26.992 176.832 27.104 176.864 27.2 176.864L27.344 176.624L27.968 176.864C28 176.8 27.984 176.752 27.92 176.72C27.888 176.688 27.872 176.64 27.872 176.576C27.872 176.576 27.904 176.576 27.968 176.576L28.352 176.672L28.4 176.528C28.208 176.144 27.92 175.872 27.536 175.712C27.184 175.52 26.784 175.376 26.336 175.28C25.888 175.152 25.424 175.024 24.944 174.896C24.496 174.768 24.08 174.576 23.696 174.32C23.344 174.032 23.04 173.648 22.784 173.168C22.56 172.656 22.448 171.968 22.448 171.104L22.496 170.72L22.832 170.48C23.472 170.448 24.096 170.432 24.704 170.432C25.344 170.432 25.984 170.432 26.624 170.432C26.72 170.496 26.848 170.528 27.008 170.528C27.168 170.528 27.344 170.48 27.536 170.384C27.728 170.288 27.904 170.224 28.064 170.192C28.288 170.16 28.56 170.16 28.88 170.192C29.2 170.192 29.504 170.176 29.792 170.144C30.08 170.112 30.32 170.032 30.512 169.904C30.736 169.744 30.848 169.488 30.848 169.136C30.848 168.496 30.832 167.856 30.8 167.216C30.8 166.544 30.784 165.888 30.752 165.248C30.208 165.664 29.584 166.064 28.88 166.448C28.208 166.8 27.52 166.976 26.816 166.976C26.752 166.976 26.544 166.928 26.192 166.832C25.872 166.704 25.664 166.624 25.568 166.592C24.96 166.144 24.448 165.584 24.032 164.912C23.648 164.208 23.456 163.456 23.456 162.656V162.464L23.84 162.272C24.608 162.272 25.36 162.4 26.096 162.656C26.864 162.88 27.568 163.184 28.208 163.568H28.352C28.672 163.472 28.992 163.376 29.312 163.28C29.664 163.152 30.016 163.088 30.368 163.088L30.464 163.04V162.8C30.464 162.576 30.368 162.272 30.176 161.888C29.984 161.504 29.76 161.088 29.504 160.64C29.28 160.192 29.056 159.744 28.832 159.296C28.64 158.816 28.528 158.368 28.496 157.952L28.688 157.472L28.976 157.376C29.36 157.6 29.824 157.904 30.368 158.288C30.944 158.64 31.536 158.992 32.144 159.344C32.752 159.664 33.344 159.952 33.92 160.208C34.528 160.464 35.056 160.592 35.504 160.592C36.048 160.592 36.544 160.528 36.992 160.4C37.472 160.24 37.888 160.08 38.24 159.92C38.624 159.76 38.928 159.616 39.152 159.488C39.408 159.36 39.6 159.296 39.728 159.296L40.592 159.824L40.832 160.16C41.12 160.16 41.424 160.24 41.744 160.4C41.808 160.496 41.936 160.592 42.128 160.688C42.32 160.752 42.528 160.832 42.752 160.928C43.008 160.992 43.248 161.056 43.472 161.12C43.696 161.152 43.856 161.184 43.952 161.216C44.08 161.376 44.16 161.552 44.192 161.744C44.256 161.936 44.32 162.112 44.384 162.272L44.288 163.184L43.52 163.76C43.2 163.856 42.88 163.92 42.56 163.952C42.272 163.952 41.968 163.952 41.648 163.952C40.88 163.952 40.112 163.92 39.344 163.856C38.576 163.76 37.808 163.712 37.04 163.712C36.656 163.712 36.256 163.728 35.84 163.76C35.424 163.76 35.04 163.84 34.688 164C34.56 164.48 34.496 165.024 34.496 165.632C34.496 165.792 34.496 166.032 34.496 166.352C34.496 166.672 34.496 167.008 34.496 167.36C34.528 167.68 34.56 167.984 34.592 168.272C34.624 168.56 34.688 168.752 34.784 168.848H34.88C34.976 168.848 35.024 168.816 35.024 168.752C35.024 168.656 35.024 168.576 35.024 168.512C35.024 168.416 35.056 168.368 35.12 168.368C35.216 168.336 35.296 168.32 35.36 168.32C35.552 168 35.808 167.776 36.128 167.648C36.48 167.488 36.752 167.248 36.944 166.928C37.04 166.768 37.104 166.608 37.136 166.448C37.168 166.256 37.264 166.08 37.424 165.92L37.568 165.872C37.728 165.936 37.872 166.016 38 166.112C38.128 166.208 38.272 166.304 38.432 166.4C39.008 166.784 39.632 167.088 40.304 167.312C40.976 167.504 41.584 167.824 42.128 168.272L42.512 169.28L42.464 169.712C42.4 169.808 42.112 170.016 41.6 170.336C41.088 170.656 40.512 171.008 39.872 171.392C39.232 171.744 38.608 172.096 38 172.448C37.424 172.768 37.04 172.976 36.848 173.072C36.624 173.072 36.336 173.168 35.984 173.36C35.632 173.52 35.28 173.728 34.928 173.984C34.608 174.24 34.32 174.528 34.064 174.848C33.808 175.136 33.68 175.424 33.68 175.712C33.68 176.032 33.696 176.336 33.728 176.624C33.792 176.912 33.92 177.184 34.112 177.44L34.304 177.488C34.336 177.488 34.352 177.456 34.352 177.392C34.352 177.328 34.352 177.28 34.352 177.248L34.304 176.576C34.368 176.576 34.432 176.592 34.496 176.624C34.592 176.624 34.672 176.624 34.736 176.624V176.48C34.928 176.384 35.12 176.272 35.312 176.144C35.504 176.016 35.664 175.856 35.792 175.664C36.24 175.472 36.544 175.264 36.704 175.04C36.896 174.816 37.024 174.608 37.088 174.416C37.184 174.192 37.232 173.984 37.232 173.792C37.264 173.568 37.36 173.392 37.52 173.264C37.616 173.264 37.712 173.248 37.808 173.216C37.904 173.152 37.952 173.056 37.952 172.928L38.048 172.688L38.384 172.496C38.64 172.688 38.976 172.88 39.392 173.072C39.84 173.264 40.288 173.456 40.736 173.648C41.184 173.84 41.584 174.016 41.936 174.176C42.32 174.336 42.56 174.464 42.656 174.56C42.784 174.816 42.864 175.072 42.896 175.328C42.96 175.584 43.024 175.84 43.088 176.096C42.96 176.448 42.528 176.848 41.792 177.296C41.088 177.712 40.288 178.16 39.392 178.64C38.496 179.12 37.616 179.632 36.752 180.176C35.888 180.72 35.248 181.28 34.832 181.856C35.568 182.464 36.24 182.928 36.848 183.248C37.456 183.536 38 183.808 38.48 184.064C38.992 184.288 39.424 184.544 39.776 184.832C40.16 185.12 40.464 185.536 40.688 186.08C40.944 186.624 41.136 187.344 41.264 188.24C41.392 189.136 41.456 190.32 41.456 191.792C41.456 192.688 41.44 193.856 41.408 195.296C41.408 196.704 41.344 198.16 41.216 199.664C41.12 201.168 40.96 202.592 40.736 203.936C40.512 205.312 40.192 206.368 39.776 207.104C39.424 207.392 39.008 207.552 38.528 207.584C38.08 207.648 37.632 207.68 37.184 207.68C36.928 207.68 36.368 207.392 35.504 206.816C34.672 206.272 33.76 205.632 32.768 204.896C31.776 204.192 30.832 203.504 29.936 202.832C29.04 202.16 28.4 201.696 28.016 201.44ZM35.936 199.184C35.936 198.96 35.936 198.736 35.936 198.512C35.936 198.32 35.92 198.112 35.888 197.888L35.792 197.792C35.632 197.984 35.472 198.096 35.312 198.128C35.184 198.192 35.04 198.24 34.88 198.272C34.752 198.336 34.608 198.416 34.448 198.512C34.32 198.608 34.192 198.784 34.064 199.04L31.664 200.048C31.472 200.112 31.216 200.16 30.896 200.192C30.576 200.224 30.24 200.256 29.888 200.288C29.568 200.32 29.264 200.352 28.976 200.384C28.688 200.448 28.496 200.528 28.4 200.624C28.592 200.912 28.928 201.216 29.408 201.536C29.888 201.856 30.416 202.144 30.992 202.4C31.568 202.688 32.128 202.928 32.672 203.12C33.216 203.312 33.664 203.408 34.016 203.408C34.176 203.408 34.384 203.376 34.64 203.312L35.12 203.024C35.312 202.64 35.456 202.288 35.552 201.968C35.648 201.68 35.728 201.392 35.792 201.104C35.856 200.848 35.888 200.56 35.888 200.24C35.92 199.952 35.936 199.6 35.936 199.184ZM30.656 195.92C31.008 195.824 31.36 195.744 31.712 195.68C32.096 195.616 32.48 195.584 32.864 195.584L32.96 195.392C33.408 195.296 33.888 195.2 34.4 195.104C34.912 194.976 35.408 194.912 35.888 194.912L36.224 194.624C36.256 194.56 36.288 194.48 36.32 194.384C36.352 194.256 36.368 194.16 36.368 194.096V193.232C36.368 192.944 36.32 192.656 36.224 192.368L36.032 192.224L35.648 192.176C35.488 192.176 35.12 192.24 34.544 192.368C33.968 192.496 33.344 192.656 32.672 192.848C32.032 193.008 31.424 193.184 30.848 193.376C30.272 193.536 29.904 193.648 29.744 193.712L29.36 194.528L29.024 194.624L28.64 194.528L27.92 193.808L27.824 193.904L27.68 194.24V194.528C27.84 194.752 28.048 194.912 28.304 195.008C28.56 195.104 28.784 195.232 28.976 195.392L29.168 195.824H29.744L30.032 196.208C30.064 196.048 30.128 195.952 30.224 195.92C30.352 195.856 30.496 195.856 30.656 195.92ZM28.16 192.224C28.128 192.416 28.096 192.608 28.064 192.8C28.032 192.992 28.032 193.184 28.064 193.376C28.224 193.376 28.288 193.216 28.256 192.896C28.224 192.544 28.192 192.32 28.16 192.224ZM14.96 192.272C15.024 191.984 15.12 191.776 15.248 191.648C15.408 191.488 15.52 191.312 15.584 191.12L15.968 190.976L16.16 190.592C16.448 190.432 16.64 190.288 16.736 190.16C16.864 190.032 16.944 189.904 16.976 189.776C17.04 189.648 17.104 189.52 17.168 189.392C17.232 189.264 17.344 189.12 17.504 188.96C17.76 188.896 17.984 188.784 18.176 188.624C18.4 188.464 18.528 188.24 18.56 187.952L18.512 187.856C18.512 187.856 18.544 187.856 18.608 187.856L18.8 187.952L19.232 187.712L19.28 186.944L19.52 186.992L19.664 186.8L19.376 186.608L19.04 186.704C18.784 186.992 18.432 187.184 17.984 187.28C17.568 187.344 17.184 187.376 16.832 187.376C16.352 187.376 15.856 187.216 15.344 186.896C14.864 186.544 14.544 186.144 14.384 185.696C14.416 185.664 14.416 185.648 14.384 185.648C14.384 185.616 14.368 185.616 14.336 185.648C14.176 185.872 14.016 186.24 13.856 186.752C13.728 187.264 13.616 187.808 13.52 188.384C13.424 188.96 13.344 189.536 13.28 190.112C13.216 190.656 13.184 191.072 13.184 191.36V192.176C13.184 192.272 13.2 192.384 13.232 192.512C13.264 192.608 13.296 192.704 13.328 192.8L13.52 193.04H13.664C13.984 193.04 14.208 192.912 14.336 192.656C14.496 192.4 14.704 192.272 14.96 192.272ZM31.808 184.64L32.096 184.352H32C31.712 184.352 31.424 184.56 31.136 184.976C30.88 185.36 30.608 185.824 30.32 186.368C30.064 186.88 29.808 187.392 29.552 187.904C29.296 188.384 29.056 188.72 28.832 188.912V189.056C28.96 189.12 29.056 189.152 29.12 189.152H29.552C29.68 189.152 29.872 189.12 30.128 189.056L30.272 188.912C30.4 188.304 30.624 187.6 30.944 186.8C31.296 185.968 31.584 185.248 31.808 184.64ZM36.416 186.608C35.744 186.704 35.248 186.784 34.928 186.848C34.64 186.88 34.4 186.96 34.208 187.088C34.016 187.184 33.824 187.344 33.632 187.568C33.44 187.792 33.12 188.144 32.672 188.624L32.624 188.672L32.672 188.72C33.024 188.72 33.296 188.576 33.488 188.288C33.712 187.968 34 187.808 34.352 187.808C34.928 188.32 35.6 188.72 36.368 189.008C36.368 188.944 36.368 188.896 36.368 188.864C36.4 188.8 36.416 188.736 36.416 188.672V186.608ZM24.704 181.712L24.752 181.664C24.912 181.6 25.12 181.488 25.376 181.328C25.632 181.168 25.888 181.008 26.144 180.848C26.4 180.688 26.656 180.544 26.912 180.416C27.168 180.288 27.392 180.224 27.584 180.224C27.68 180.192 27.824 180.112 28.016 179.984C28.24 179.856 28.464 179.744 28.688 179.648C28.944 179.52 29.184 179.408 29.408 179.312C29.632 179.216 29.776 179.168 29.84 179.168L30.032 178.928C29.904 178.64 29.696 178.304 29.408 177.92C29.12 177.536 28.8 177.344 28.448 177.344C28.32 177.344 28.08 177.472 27.728 177.728C27.376 177.952 26.992 178.224 26.576 178.544C26.192 178.832 25.824 179.12 25.472 179.408C25.152 179.696 24.928 179.904 24.8 180.032C24.704 180.032 24.48 180.08 24.128 180.176C23.808 180.24 23.68 180.352 23.744 180.512C23.488 180.96 23.168 181.248 22.784 181.376C22.432 181.504 22.096 181.712 21.776 182C22.512 182.16 23.248 182.24 23.984 182.24L24.08 182.144C24.176 181.856 24.224 181.712 24.224 181.712C24.256 181.712 24.416 181.712 24.704 181.712ZM14.336 178.4V178.352L14.288 178.304H14.144C14.112 178.304 14.064 178.336 14 178.4V178.544L14.048 178.64V178.688H14.144L14.336 178.4ZM30.752 172.4L28.928 173.84L28.976 173.984L29.456 174.464L29.744 174.56L29.984 174.464C30.24 174.144 30.416 173.824 30.512 173.504C30.608 173.152 30.688 172.784 30.752 172.4ZM34.592 170.768L34.4 170.72L34.16 170.816L33.968 171.2L34.064 171.248H34.208L34.592 170.96V170.768Z" fill="black"/>
</svg>
