<svg width="56" height="210" viewBox="0 0 56 210" fill="none" xmlns="http://www.w3.org/2000/svg">
<path d="M11.168 47.112L11.36 46.872L11.696 46.776C12.08 46.776 12.4 46.904 12.656 47.16C12.944 47.416 13.264 47.544 13.616 47.544C13.776 47.544 13.936 47.496 14.096 47.4C14.256 47.336 14.4 47.272 14.528 47.208C15.424 47.208 16.208 47.032 16.88 46.68C17.552 46.36 18.304 46.088 19.136 45.864L19.376 45.96L20.48 45.192H21.104V44.856L21.248 44.712C21.888 44.776 22.272 44.52 22.4 43.944C22.528 43.816 22.672 43.736 22.832 43.704C22.992 43.704 23.152 43.704 23.312 43.704C23.44 43.512 23.632 43.224 23.888 42.84C24.176 42.456 24.464 42.056 24.752 41.64C25.072 41.256 25.392 40.92 25.712 40.632C26.032 40.312 26.304 40.152 26.528 40.152L26.672 40.008C26.736 39.72 26.912 39.416 27.2 39.096C27.488 38.776 27.776 38.568 28.064 38.472C28.256 38.536 28.368 38.456 28.4 38.232C28.432 38.008 28.48 37.848 28.544 37.752C28.672 37.4 28.864 37.048 29.12 36.696C29.376 36.344 29.6 36.008 29.792 35.688L29.6 35.544C29.216 35.704 28.816 35.88 28.4 36.072C28.016 36.232 27.6 36.312 27.152 36.312C26.672 36.312 26.224 36.2 25.808 35.976C25.392 35.752 25.024 35.464 24.704 35.112C24.416 34.728 24.192 34.312 24.032 33.864C23.872 33.384 23.792 32.92 23.792 32.472C23.792 32.248 23.84 32.04 23.936 31.848L24.224 31.608C24.64 31.512 25.072 31.432 25.52 31.368C25.968 31.272 26.352 31.064 26.672 30.744C27.088 30.584 27.504 30.44 27.92 30.312C28.368 30.184 28.784 30.008 29.168 29.784C29.52 29.72 29.808 29.576 30.032 29.352C30.288 29.128 30.592 29.016 30.944 29.016C31.136 28.664 31.392 28.44 31.712 28.344C32.032 28.248 32.368 28.136 32.72 28.008C32.816 27.752 32.88 27.48 32.912 27.192C32.944 26.904 32.96 26.616 32.96 26.328C32.96 24.408 32.896 22.504 32.768 20.616C32.672 18.728 32.656 16.824 32.72 14.904C32.272 15.352 31.856 15.688 31.472 15.912C31.088 16.104 30.576 16.28 29.936 16.44C29.488 16.408 29.12 16.344 28.832 16.248C28.576 16.12 28.352 15.992 28.16 15.864C27.968 15.736 27.76 15.592 27.536 15.432C27.312 15.272 27.024 15.112 26.672 14.952H26.384C26.224 15.144 26.112 15.288 26.048 15.384C25.984 15.48 25.824 15.56 25.568 15.624L25.184 16.008C25.024 16.584 24.768 17.128 24.416 17.64C24.096 18.152 23.744 18.664 23.36 19.176C23.008 19.656 22.64 20.152 22.256 20.664C21.872 21.144 21.552 21.656 21.296 22.2C20.592 23.608 19.936 24.904 19.328 26.088C18.72 27.24 18.176 28.408 17.696 29.592C17.248 30.744 16.896 31.96 16.64 33.24C16.384 34.52 16.256 35.992 16.256 37.656L15.824 38.232C15.568 38.392 15.28 38.504 14.96 38.568C14.672 38.632 14.368 38.664 14.048 38.664C13.664 38.664 13.296 38.536 12.944 38.28C12.592 37.992 12.288 37.656 12.032 37.272C11.776 36.856 11.568 36.424 11.408 35.976C11.28 35.528 11.216 35.128 11.216 34.776C11.216 34.296 11.28 33.832 11.408 33.384C11.568 32.904 11.728 32.44 11.888 31.992C12.08 31.512 12.24 31.048 12.368 30.6C12.528 30.12 12.608 29.64 12.608 29.16C12.608 28.648 12.512 28.088 12.32 27.48C12.16 26.84 11.904 26.328 11.552 25.944C11.264 25.784 10.944 25.72 10.592 25.752C10.272 25.752 9.952 25.688 9.632 25.56C9.344 25.432 9.056 25.224 8.768 24.936C8.48 24.648 8.224 24.312 8 23.928C7.776 23.544 7.584 23.16 7.424 22.776C7.296 22.392 7.232 22.04 7.232 21.72L7.28 21.24L7.424 20.952L7.616 20.904L8.24 21.096L8.48 21.048L8.72 20.856H9.152C9.312 20.856 9.472 20.904 9.632 21C9.824 21.064 9.984 21.144 10.112 21.24H10.448C10.512 21.24 10.624 21.208 10.784 21.144C10.976 21.048 11.152 20.952 11.312 20.856C11.504 20.76 11.664 20.68 11.792 20.616C11.952 20.52 12.032 20.472 12.032 20.472C12.032 20.344 12.096 20.28 12.224 20.28C12.384 20.248 12.496 20.232 12.56 20.232C12.848 20.232 13.072 20.12 13.232 19.896C13.392 19.64 13.6 19.512 13.856 19.512C13.952 19.416 14.08 19.272 14.24 19.08C14.4 18.888 14.56 18.68 14.72 18.456C14.88 18.232 15.008 18.024 15.104 17.832C15.232 17.64 15.296 17.48 15.296 17.352C15.296 16.904 15.184 16.488 14.96 16.104C14.768 15.72 14.672 15.304 14.672 14.856L14.72 14.424L14.864 14.232H15.104C15.36 14.232 15.632 14.328 15.92 14.52C16.208 14.68 16.512 14.872 16.832 15.096C17.184 15.288 17.52 15.48 17.84 15.672C18.192 15.832 18.544 15.912 18.896 15.912L19.232 16.248C19.552 16.312 19.808 16.408 20 16.536C20.224 16.632 20.464 16.792 20.72 17.016L21.104 18.408C20.912 18.92 20.464 19.32 19.76 19.608C19.056 19.896 18.288 20.184 17.456 20.472C16.656 20.728 15.872 21.032 15.104 21.384C14.368 21.736 13.856 22.2 13.568 22.776C13.984 23.16 14.304 23.64 14.528 24.216C14.784 24.792 14.976 25.4 15.104 26.04C15.232 26.648 15.328 27.272 15.392 27.912C15.488 28.552 15.584 29.144 15.68 29.688C16 29.176 16.32 28.664 16.64 28.152C16.96 27.64 17.248 27.112 17.504 26.568C17.664 26.504 17.792 26.392 17.888 26.232C17.984 26.072 18.064 25.912 18.128 25.752C18.128 25.688 18.272 25.384 18.56 24.84C18.88 24.264 19.216 23.656 19.568 23.016C19.952 22.376 20.304 21.784 20.624 21.24C20.944 20.696 21.136 20.392 21.2 20.328C21.232 20.136 21.28 19.96 21.344 19.8C21.44 19.608 21.488 19.432 21.488 19.272C22.288 18.632 22.944 17.768 23.456 16.68C23.968 15.592 24.384 14.52 24.704 13.464C25.056 12.408 25.312 11.48 25.472 10.68C25.664 9.88 25.808 9.448 25.904 9.384C26 9.416 26.144 9.496 26.336 9.624C26.528 9.72 26.736 9.832 26.96 9.96C27.184 10.056 27.376 10.168 27.536 10.296C27.696 10.392 27.792 10.472 27.824 10.536C28.272 10.888 28.816 11.064 29.456 11.064C29.584 11.064 29.712 11.128 29.84 11.256C29.968 11.384 30.08 11.544 30.176 11.736C30.304 11.896 30.416 12.072 30.512 12.264C30.64 12.424 30.736 12.552 30.8 12.648C31.184 12.808 31.536 12.888 31.856 12.888L31.952 12.504H32.24L32.576 12.312L32.624 11.736C32.624 11.064 32.528 10.392 32.336 9.72C32.176 9.048 32 8.376 31.808 7.704C31.616 7.032 31.424 6.376 31.232 5.736C31.072 5.064 30.992 4.392 30.992 3.72V3.384L31.232 3.048L31.568 3C32.272 3.192 32.976 3.496 33.68 3.912C34.384 4.296 35.056 4.664 35.696 5.016C35.888 5.112 36.144 5.512 36.464 6.216C36.784 6.888 37.12 7.624 37.472 8.424C37.856 9.224 38.224 9.96 38.576 10.632C38.928 11.304 39.216 11.656 39.44 11.688C39.6 11.432 39.84 11.256 40.16 11.16C40.512 11.032 40.88 10.92 41.264 10.824C41.648 10.728 42.016 10.632 42.368 10.536C42.72 10.408 42.992 10.216 43.184 9.96C43.344 9.704 43.488 9.464 43.616 9.24C43.744 9.016 43.936 8.808 44.192 8.616C44.256 8.744 44.336 8.888 44.432 9.048C44.56 9.176 44.704 9.24 44.864 9.24C45.248 9.4 45.664 9.56 46.112 9.72C46.56 9.848 46.976 10.024 47.36 10.248C47.776 10.44 48.128 10.696 48.416 11.016C48.736 11.336 48.944 11.736 49.04 12.216L48.848 12.888C48.656 13.08 48.384 13.256 48.032 13.416C47.68 13.544 47.312 13.656 46.928 13.752C46.544 13.848 46.16 13.928 45.776 13.992C45.424 14.024 45.104 14.04 44.816 14.04C44.592 14.04 44.4 14.008 44.24 13.944C44.08 13.88 43.92 13.8 43.76 13.704C43.568 13.448 43.344 13.144 43.088 12.792C42.864 12.408 42.624 12.136 42.368 11.976C41.952 12.04 41.52 12.12 41.072 12.216C40.656 12.28 40.256 12.392 39.872 12.552L39.824 12.744L42.512 18.84C42.672 19.192 42.912 19.496 43.232 19.752C43.584 19.976 43.856 20.264 44.048 20.616C44.304 21.128 44.48 21.656 44.576 22.2C44.704 22.744 44.928 23.272 45.248 23.784C45.44 24.104 45.728 24.488 46.112 24.936C46.496 25.352 46.864 25.784 47.216 26.232C47.568 26.68 47.872 27.128 48.128 27.576C48.416 28.024 48.56 28.44 48.56 28.824C48.56 28.984 48.528 29.16 48.464 29.352C47.952 29.832 47.152 30.184 46.064 30.408C44.976 30.6 43.792 30.76 42.512 30.888C41.264 31.016 40.016 31.176 38.768 31.368C37.552 31.528 36.56 31.816 35.792 32.232C35.6 32.328 35.456 32.696 35.36 33.336C35.296 33.976 35.232 34.696 35.168 35.496C35.136 36.264 35.12 37.016 35.12 37.752C35.12 38.456 35.12 38.936 35.12 39.192C34.288 40.024 33.6 40.856 33.056 41.688C32.544 42.52 31.968 43.384 31.328 44.28C31.168 44.504 30.736 44.712 30.032 44.904C29.328 45.128 28.48 45.368 27.488 45.624C26.496 45.88 25.424 46.152 24.272 46.44C23.12 46.76 22 47.128 20.912 47.544C19.824 47.96 18.832 48.424 17.936 48.936C17.072 49.48 16.416 50.104 15.968 50.808C15.392 51.16 14.704 51.336 13.904 51.336C13.552 51.336 13.2 51.192 12.848 50.904C12.528 50.616 12.24 50.264 11.984 49.848C11.728 49.464 11.52 49.048 11.36 48.6C11.2 48.152 11.12 47.768 11.12 47.448L11.168 47.112ZM40.208 29.256C40.528 29 40.944 28.712 41.456 28.392C41.968 28.04 42.432 27.864 42.848 27.864C43.104 27.736 43.248 27.416 43.28 26.904C43.344 26.36 43.376 25.96 43.376 25.704C43.376 25.448 43.344 25.176 43.28 24.888C43.216 24.568 43.104 24.296 42.944 24.072L42.752 24.12C42.272 24.472 41.792 24.872 41.312 25.32C40.864 25.736 40.416 26.168 39.968 26.616C39.52 27.032 39.04 27.448 38.528 27.864C38.048 28.248 37.536 28.552 36.992 28.776C36.896 28.872 36.784 29.016 36.656 29.208C36.56 29.4 36.464 29.624 36.368 29.88C36.272 30.104 36.192 30.328 36.128 30.552C36.064 30.744 36.032 30.904 36.032 31.032H36.128C36.544 30.872 36.96 30.76 37.376 30.696C37.824 30.632 38.256 30.52 38.672 30.36C38.96 30.264 39.216 30.056 39.44 29.736C39.664 29.416 39.92 29.256 40.208 29.256ZM39.008 20.808C39.008 20.328 38.864 19.896 38.576 19.512C38.32 19.096 38.192 18.648 38.192 18.168L38.24 17.784L38.432 17.544H38.624C38.72 17.544 38.88 17.608 39.104 17.736C39.328 17.864 39.568 18.008 39.824 18.168C40.112 18.328 40.368 18.488 40.592 18.648C40.848 18.808 41.056 18.904 41.216 18.936C41.152 18.712 40.992 18.296 40.736 17.688C40.512 17.048 40.24 16.392 39.92 15.72C39.6 15.016 39.28 14.392 38.96 13.848C38.672 13.272 38.448 12.936 38.288 12.84H38.096C38 12.84 37.888 12.856 37.76 12.888C37.632 12.92 37.52 12.952 37.424 12.984L37.232 13.224L37.184 13.752C37.184 14.136 37.232 14.504 37.328 14.856C37.456 15.208 37.536 15.576 37.568 15.96C37.632 16.824 37.664 17.704 37.664 18.6C37.664 19.464 37.664 20.328 37.664 21.192V22.968C37.92 22.712 38.208 22.376 38.528 21.96C38.848 21.544 39.008 21.16 39.008 20.808ZM36.512 9.72V9.816C36.512 10.104 36.576 10.504 36.704 11.016C36.864 11.528 37.04 11.88 37.232 12.072L37.472 12.12L37.664 11.832C37.664 11.704 37.616 11.544 37.52 11.352C37.456 11.128 37.36 10.904 37.232 10.68C37.136 10.456 37.008 10.264 36.848 10.104C36.72 9.912 36.608 9.784 36.512 9.72ZM40.304 40.584L40.256 40.296H40.544C40.864 40.296 41.184 40.456 41.504 40.776C41.824 41.064 42.16 41.384 42.512 41.736C42.896 42.088 43.296 42.392 43.712 42.648C44.16 42.936 44.624 43.064 45.104 43.032L45.392 42.792L45.44 42.072C45.248 41.528 44.96 41.096 44.576 40.776C44.224 40.424 43.856 40.088 43.472 39.768C43.088 39.416 42.704 39.016 42.32 38.568C41.968 38.12 41.696 37.48 41.504 36.648L41.6 35.928H41.984C42.048 35.928 42.176 35.976 42.368 36.072C42.56 36.136 42.752 36.232 42.944 36.36C43.168 36.488 43.36 36.616 43.52 36.744C43.712 36.84 43.84 36.92 43.904 36.984C46.24 37.624 47.936 38.632 48.992 40.008C50.048 41.384 50.576 43.288 50.576 45.72C50.576 46.584 50.336 47.128 49.856 47.352C49.376 47.608 48.768 47.736 48.032 47.736C47.488 47.736 46.832 47.448 46.064 46.872C45.328 46.296 44.576 45.608 43.808 44.808C43.04 44.008 42.336 43.208 41.696 42.408C41.056 41.64 40.592 41.032 40.304 40.584ZM26.192 24.12C26.192 24.056 26.224 23.896 26.288 23.64C26.384 23.384 26.48 23.112 26.576 22.824C26.672 22.504 26.768 22.216 26.864 21.96C26.96 21.672 27.024 21.496 27.056 21.432H27.296L27.968 21.72C28.096 21.944 28.304 22.136 28.592 22.296C28.912 22.456 29.232 22.6 29.552 22.728C29.904 22.856 30.24 22.984 30.56 23.112C30.912 23.208 31.2 23.32 31.424 23.448L31.76 23.928L31.856 24.6L31.232 27L30.752 27.624C30.688 27.656 30.528 27.72 30.272 27.816C30.016 27.88 29.856 27.912 29.792 27.912H28.688L27.776 27.48C27.36 27.032 26.992 26.52 26.672 25.944C26.352 25.368 26.192 24.76 26.192 24.12Z" fill="black"/>
<path d="M17.12 96.232C16.768 96.296 16.432 96.36 16.112 96.424C15.792 96.488 15.456 96.52 15.104 96.52C14.656 96.52 14.256 96.36 13.904 96.04C13.584 95.72 13.312 95.336 13.088 94.888C12.896 94.44 12.752 93.96 12.656 93.448C12.56 92.936 12.512 92.504 12.512 92.152C12.512 91.864 12.576 91.608 12.704 91.384C12.832 91.16 12.944 90.92 13.04 90.664C13.2 90.152 13.28 89.608 13.28 89.032C13.312 88.456 13.328 87.896 13.328 87.352C13.328 86.776 13.328 86.216 13.328 85.672C13.36 85.096 13.472 84.552 13.664 84.04L15.44 82.168C15.856 82.04 16.24 81.864 16.592 81.64C16.976 81.384 17.344 81.128 17.696 80.872C18.048 80.616 18.4 80.36 18.752 80.104C19.104 79.848 19.488 79.64 19.904 79.48C20.032 79.48 20.256 79.384 20.576 79.192C20.928 78.968 21.28 78.728 21.632 78.472C21.984 78.184 22.304 77.912 22.592 77.656C22.912 77.368 23.12 77.16 23.216 77.032C22.576 77.032 21.84 77.208 21.008 77.56C20.208 77.912 19.408 78.312 18.608 78.76C17.84 79.176 17.12 79.576 16.448 79.96C15.808 80.312 15.296 80.488 14.912 80.488L14.576 80.392L14.288 79.768V79.672L14.864 79.864C14.8 79.64 14.832 79.416 14.96 79.192L15.2 79C15.424 78.968 15.696 78.872 16.016 78.712C16.368 78.552 16.704 78.392 17.024 78.232C17.344 78.072 17.648 77.928 17.936 77.8C18.224 77.64 18.448 77.56 18.608 77.56C18.928 77.304 19.248 77.08 19.568 76.888C19.92 76.664 20.32 76.552 20.768 76.552L21.248 76.84L21.632 76.264C21.888 76.2 22.192 76.136 22.544 76.072C22.928 75.976 23.248 75.96 23.504 76.024C23.664 75.992 23.808 75.832 23.936 75.544C24.064 75.256 24.176 74.952 24.272 74.632C24.4 74.312 24.528 74.024 24.656 73.768C24.784 73.48 24.944 73.336 25.136 73.336L25.424 73.72C26.608 74.072 27.808 74.584 29.024 75.256L29.408 75.688L29.84 75.352C30.128 75.384 30.432 75.416 30.752 75.448C31.072 75.48 31.36 75.592 31.616 75.784C31.872 75.848 32.128 75.912 32.384 75.976C32.672 76.008 32.944 76.008 33.2 75.976C33.424 76.104 33.648 76.168 33.872 76.168C34.096 76.168 34.32 76.152 34.544 76.12C34.768 76.088 34.96 76.056 35.12 76.024C35.312 75.992 35.488 76.008 35.648 76.072C35.808 76.232 35.984 76.36 36.176 76.456C36.368 76.552 36.544 76.68 36.704 76.84C36.736 76.84 36.928 76.904 37.28 77.032C37.664 77.128 38.048 77.272 38.432 77.464C38.848 77.656 39.216 77.88 39.536 78.136C39.888 78.36 40.064 78.616 40.064 78.904L40.016 79.432L39.632 80.008L38.912 80.296H37.808C37.168 80.296 36.512 80.264 35.84 80.2C35.2 80.104 34.56 80.024 33.92 79.96C33.792 80.6 33.728 81.32 33.728 82.12C33.728 82.568 33.728 83.016 33.728 83.464C33.76 83.88 33.824 84.312 33.92 84.76L34.064 84.808C34.576 84.744 35.056 84.616 35.504 84.424C35.984 84.2 36.48 84.12 36.992 84.184C37.92 83.704 38.848 83.32 39.776 83.032C40.704 82.744 41.68 82.632 42.704 82.696C42.704 82.6 42.704 82.504 42.704 82.408C42.704 82.28 42.736 82.184 42.8 82.12C42.992 81.736 43.136 81.064 43.232 80.104C43.36 79.144 43.44 78.104 43.472 76.984C43.536 75.864 43.568 74.792 43.568 73.768C43.568 72.712 43.568 71.928 43.568 71.416C43.568 71.032 43.552 70.664 43.52 70.312C43.488 69.96 43.424 69.608 43.328 69.256C42.4 69.512 41.472 69.8 40.544 70.12C39.616 70.408 38.736 70.792 37.904 71.272C37.52 71.496 37.2 71.72 36.944 71.944C36.688 72.136 36.432 72.312 36.176 72.472C35.92 72.6 35.632 72.712 35.312 72.808C34.992 72.904 34.592 72.952 34.112 72.952C33.76 72.952 33.424 72.792 33.104 72.472C32.784 72.152 32.496 71.768 32.24 71.32C31.984 70.872 31.76 70.424 31.568 69.976C31.408 69.528 31.312 69.16 31.28 68.872L31.568 68.392C31.792 68.328 32.048 68.136 32.336 67.816C32.656 67.496 32.944 67.176 33.2 66.856C33.488 66.504 33.744 66.216 33.968 65.992C34.192 65.768 34.336 65.72 34.4 65.848C34.4 65.72 34.384 65.608 34.352 65.512C34.352 65.384 34.352 65.256 34.352 65.128C34.352 65.096 34.416 64.92 34.544 64.6C34.672 64.28 34.816 63.928 34.976 63.544C35.136 63.16 35.28 62.792 35.408 62.44C35.568 62.056 35.68 61.8 35.744 61.672L35.6 61.48C35.248 61.384 34.912 61.176 34.592 60.856C34.272 60.504 33.984 60.12 33.728 59.704C33.504 59.256 33.328 58.808 33.2 58.36C33.072 57.912 33.008 57.512 33.008 57.16L33.248 56.776C33.6 56.84 33.936 56.968 34.256 57.16C34.576 57.352 34.896 57.56 35.216 57.784C35.536 57.976 35.872 58.168 36.224 58.36C36.576 58.52 36.976 58.616 37.424 58.648C38.16 59.032 38.736 59.528 39.152 60.136C39.6 60.712 39.824 61.416 39.824 62.248C39.824 63.272 39.536 64.28 38.96 65.272C38.384 66.232 37.808 67.096 37.232 67.864L37.424 68.008C37.776 68.04 38.112 67.96 38.432 67.768C38.784 67.576 39.136 67.48 39.488 67.48C39.52 67.416 39.648 67.304 39.872 67.144C40.128 66.984 40.416 66.808 40.736 66.616C41.056 66.392 41.36 66.152 41.648 65.896C41.968 65.64 42.208 65.384 42.368 65.128C42.592 65.256 42.912 65.432 43.328 65.656C43.744 65.88 44.176 66.104 44.624 66.328C45.072 66.552 45.504 66.76 45.92 66.952C46.336 67.112 46.672 67.192 46.928 67.192L47.84 67.912C48 68.232 48.128 68.824 48.224 69.688C48.352 70.52 48.432 71.432 48.464 72.424C48.528 73.416 48.56 74.376 48.56 75.304C48.592 76.232 48.608 76.904 48.608 77.32C48.608 78.536 48.496 79.752 48.272 80.968C48.08 82.152 47.856 83.352 47.6 84.568C47.376 85.784 47.184 87 47.024 88.216C46.864 89.4 46.816 90.584 46.88 91.768C46.528 92.408 46.256 93.112 46.064 93.88C45.872 94.648 45.632 95.368 45.344 96.04C45.056 96.712 44.656 97.272 44.144 97.72C43.632 98.2 42.848 98.44 41.792 98.44C40.416 98.44 39.28 98.088 38.384 97.384C37.52 96.712 36.768 95.928 36.128 95.032C35.52 94.136 34.976 93.256 34.496 92.392C34.048 91.528 33.552 90.92 33.008 90.568L32.432 90.52C32.176 90.68 31.888 90.824 31.568 90.952C31.28 91.08 30.992 91.208 30.704 91.336L29.648 91.384C28.752 91.128 28.016 90.6 27.44 89.8C26.864 88.968 26.576 88.072 26.576 87.112V86.92L26.72 86.776C27.04 86.648 27.36 86.6 27.68 86.632C28.032 86.632 28.384 86.632 28.736 86.632C29.088 86.632 29.344 86.568 29.504 86.44C29.696 86.28 29.952 86.2 30.272 86.2C30.496 86.104 30.72 86.024 30.944 85.96C31.168 85.864 31.392 85.752 31.616 85.624L31.808 85.24C31.808 84.952 31.744 84.392 31.616 83.56C31.488 82.696 31.312 81.816 31.088 80.92C30.896 80.024 30.656 79.224 30.368 78.52C30.112 77.816 29.84 77.464 29.552 77.464C29.168 77.624 28.56 77.88 27.728 78.232C26.896 78.552 26.048 78.92 25.184 79.336C24.32 79.752 23.536 80.168 22.832 80.584C22.128 81 21.712 81.368 21.584 81.688C21.68 81.784 21.872 81.928 22.16 82.12C22.48 82.28 22.8 82.456 23.12 82.648C23.472 82.808 23.808 82.952 24.128 83.08C24.448 83.208 24.672 83.272 24.8 83.272C24.992 83.368 25.168 83.576 25.328 83.896C25.52 84.184 25.68 84.52 25.808 84.904C25.936 85.288 26.032 85.672 26.096 86.056C26.16 86.408 26.192 86.68 26.192 86.872C26.192 87.896 26.032 88.872 25.712 89.8C25.392 90.728 25.232 91.688 25.232 92.68C24.816 93.768 24.48 94.888 24.224 96.04C23.968 97.224 23.52 98.312 22.88 99.304C22.624 99.528 22.352 99.672 22.064 99.736C21.776 99.8 21.472 99.832 21.152 99.832C20.448 99.832 19.92 99.704 19.568 99.448C19.216 99.224 18.928 98.92 18.704 98.536C18.48 98.184 18.256 97.8 18.032 97.384C17.84 96.968 17.536 96.584 17.12 96.232ZM21.248 95.32L22.736 94.168C22.672 93.976 22.64 93.816 22.64 93.688C22.64 93.304 22.704 92.936 22.832 92.584C22.96 92.2 23.104 91.832 23.264 91.48C22.784 91.32 22.416 91.144 22.16 90.952C21.904 90.76 21.584 90.584 21.2 90.424H20.96C20.576 90.424 20.24 90.504 19.952 90.664C19.664 90.824 19.408 91.032 19.184 91.288C18.96 91.512 18.768 91.768 18.608 92.056C18.448 92.344 18.272 92.616 18.08 92.872C18.592 93.928 19.28 94.968 20.144 95.992L20.288 96.04C20.448 96.04 20.64 95.96 20.864 95.8C21.12 95.672 21.248 95.512 21.248 95.32ZM42.8 83.704C42.32 84.184 41.76 84.728 41.12 85.336C40.512 85.944 39.856 86.568 39.152 87.208C38.48 87.816 37.792 88.392 37.088 88.936C36.416 89.48 35.808 89.896 35.264 90.184C35.36 90.472 35.52 90.824 35.744 91.24C35.968 91.656 36.224 92.072 36.512 92.488C36.8 92.904 37.104 93.272 37.424 93.592C37.776 93.912 38.112 94.088 38.432 94.12C39.392 93.832 40.112 93.272 40.592 92.44C41.072 91.608 41.44 90.68 41.696 89.656C41.952 88.6 42.144 87.544 42.272 86.488C42.4 85.4 42.576 84.472 42.8 83.704ZM22.112 85.288C21.952 85.448 21.696 85.64 21.344 85.864C21.024 86.088 20.896 86.328 20.96 86.584C21.184 86.744 21.552 86.984 22.064 87.304C22.576 87.624 22.944 87.8 23.168 87.832V87.736C23.168 87.64 23.136 87.464 23.072 87.208C23.008 86.92 22.912 86.648 22.784 86.392C22.688 86.104 22.576 85.848 22.448 85.624C22.352 85.4 22.256 85.288 22.16 85.288H22.112ZM18.608 86.248C18.608 86.216 18.624 86.152 18.656 86.056C18.688 85.96 18.72 85.864 18.752 85.768C18.816 85.672 18.88 85.608 18.944 85.576C19.008 85.512 19.072 85.528 19.136 85.624L19.28 85.432C19.44 84.888 19.616 84.376 19.808 83.896C20 83.384 20.16 82.856 20.288 82.312C19.328 82.952 18.64 83.656 18.224 84.424C17.808 85.192 17.52 86.136 17.36 87.256L17.408 87.352C17.568 87.128 17.76 86.952 17.984 86.824C18.24 86.664 18.448 86.472 18.608 86.248ZM2.144 82.888L2.576 82.648C3.024 82.584 3.456 82.52 3.872 82.456C4.32 82.392 4.768 82.36 5.216 82.36C5.504 82.2 5.792 82.04 6.08 81.88C6.368 81.688 6.672 81.544 6.992 81.448L7.328 81.496C7.328 81.432 7.344 81.4 7.376 81.4L7.472 81.016C7.504 80.984 7.616 80.936 7.808 80.872C8.032 80.776 8.256 80.68 8.48 80.584C8.704 80.488 8.912 80.408 9.104 80.344C9.296 80.28 9.408 80.248 9.44 80.248C9.632 80.248 9.808 80.296 9.968 80.392C10.128 80.456 10.288 80.488 10.448 80.488C10.48 80.424 10.48 80.344 10.448 80.248C10.416 80.12 10.384 80.024 10.352 79.96L10.64 79.72L10.976 79.768C11.264 79.608 11.52 79.432 11.744 79.24C12 79.016 12.304 78.904 12.656 78.904V78.28C12.912 78.28 13.152 78.232 13.376 78.136C13.632 78.04 13.888 77.992 14.144 77.992L14.336 77.464C14.496 77.304 14.64 77.176 14.768 77.08C14.928 76.952 15.056 76.776 15.152 76.552L15.68 76.168C15.872 76.2 16.016 76.168 16.112 76.072C16.208 75.944 16.272 75.816 16.304 75.688C16.368 75.528 16.432 75.384 16.496 75.256C16.56 75.128 16.672 75.064 16.832 75.064L17.072 74.536L17.696 74.056L18.032 74.008L18.224 74.056V73.96C18.224 73.896 18.24 73.816 18.272 73.72C18.56 73.368 18.864 73.016 19.184 72.664C19.504 72.28 19.792 71.88 20.048 71.464C20.336 71.048 20.576 70.616 20.768 70.168C20.96 69.72 21.056 69.256 21.056 68.776C21.056 68.424 20.992 68.088 20.864 67.768C20.736 67.416 20.672 67.064 20.672 66.712L20.72 66.28L20.864 66.04L21.056 65.992C21.216 65.992 21.408 66.104 21.632 66.328C21.888 66.552 22.08 66.728 22.208 66.856C22.4 66.856 22.624 66.92 22.88 67.048C23.136 67.144 23.392 67.272 23.648 67.432C23.936 67.56 24.224 67.688 24.512 67.816C24.8 67.912 25.088 67.96 25.376 67.96L25.712 68.44C25.808 68.792 25.872 69.16 25.904 69.544C25.936 69.896 25.952 70.248 25.952 70.6L25.712 71.176C24.528 71.944 23.424 72.824 22.4 73.816C21.376 74.776 20.24 75.592 18.992 76.264H18.944C18.816 76.264 18.416 76.456 17.744 76.84C17.104 77.224 16.416 77.656 15.68 78.136C14.944 78.616 14.256 79.096 13.616 79.576C12.976 80.024 12.592 80.312 12.464 80.44V80.584L12.704 80.632L12.896 80.248L13.376 80.488L13.52 80.056L14.24 80.44L14.384 80.68L14.336 80.872L14.096 80.968C13.84 80.936 13.488 81.08 13.04 81.4C12.592 81.688 12.096 82.072 11.552 82.552C11.008 83.032 10.432 83.56 9.824 84.136C9.216 84.68 8.64 85.192 8.096 85.672C7.552 86.152 7.056 86.552 6.608 86.872C6.16 87.192 5.824 87.352 5.6 87.352C5.12 87.352 4.656 87.24 4.208 87.016C3.792 86.76 3.408 86.456 3.056 86.104C2.736 85.72 2.48 85.304 2.288 84.856C2.096 84.376 2 83.912 2 83.464C2 83.272 2.048 83.08 2.144 82.888ZM11.456 80.92L11.36 80.824C11.328 80.824 11.264 80.872 11.168 80.968V81.16L11.312 81.304H11.408L11.456 81.256V80.92ZM10.4 71.992L10.496 71.752C10.784 71.56 11.008 71.304 11.168 70.984C11.36 70.632 11.488 70.264 11.552 69.88C11.648 69.496 11.696 69.112 11.696 68.728C11.728 68.312 11.76 67.944 11.792 67.624L11.888 67.48H12.176C12.944 67.736 13.744 68.072 14.576 68.488C15.44 68.872 16.24 69.256 16.976 69.64C17.04 69.864 17.12 70.088 17.216 70.312C17.312 70.536 17.36 70.776 17.36 71.032C17.36 71.384 17.216 71.688 16.928 71.944C16.672 72.168 16.464 72.408 16.304 72.664C16.048 73.08 15.872 73.496 15.776 73.912C15.712 74.296 15.616 74.648 15.488 74.968C15.36 75.288 15.136 75.56 14.816 75.784C14.528 75.976 14.048 76.072 13.376 76.072C12.928 76.072 12.528 75.928 12.176 75.64C11.824 75.352 11.52 75 11.264 74.584C11.008 74.168 10.8 73.736 10.64 73.288C10.512 72.808 10.432 72.376 10.4 71.992ZM10.784 62.632C10.784 62.504 10.912 62.36 11.168 62.2C11.456 62.04 11.776 61.896 12.128 61.768C12.48 61.64 12.816 61.544 13.136 61.48C13.456 61.384 13.68 61.336 13.808 61.336C14.256 61.144 14.656 60.936 15.008 60.712C15.392 60.488 15.792 60.248 16.208 59.992L16.448 60.04L16.496 60.088H16.544L16.496 60.04V59.992C16.496 59.928 16.576 59.8 16.736 59.608C16.896 59.416 17.088 59.208 17.312 58.984C17.536 58.728 17.728 58.472 17.888 58.216C18.08 57.96 18.208 57.736 18.272 57.544L18.176 57.016C17.632 56.312 17.168 55.576 16.784 54.808C16.432 54.04 16.256 53.208 16.256 52.312L16.448 52.024C16.736 52.184 17.168 52.392 17.744 52.648C18.32 52.904 18.88 53.192 19.424 53.512C20 53.8 20.496 54.12 20.912 54.472C21.36 54.824 21.584 55.16 21.584 55.48C21.68 55.704 21.824 55.944 22.016 56.2C22.208 56.424 22.4 56.68 22.592 56.968C22.784 57.224 22.944 57.48 23.072 57.736C23.232 57.992 23.312 58.232 23.312 58.456C23.312 58.584 23.296 58.728 23.264 58.888C23.232 59.016 23.2 59.144 23.168 59.272C23.008 59.592 22.8 59.896 22.544 60.184C22.288 60.472 22.032 60.744 21.776 61C21.968 61.16 22.224 61.32 22.544 61.48C22.896 61.64 23.264 61.8 23.648 61.96C24.032 62.12 24.4 62.264 24.752 62.392C25.136 62.52 25.456 62.632 25.712 62.728C25.968 62.952 26.128 63.176 26.192 63.4C26.256 63.624 26.288 63.912 26.288 64.264V64.504L26.096 64.84C25.744 65.096 25.328 65.256 24.848 65.32C24.4 65.384 23.952 65.416 23.504 65.416C22.864 65.416 22.24 65.256 21.632 64.936C21.024 64.616 20.368 64.456 19.664 64.456C19.12 64.456 18.624 64.568 18.176 64.792C17.728 65.016 17.28 65.272 16.832 65.56C16.384 65.848 15.92 66.104 15.44 66.328C14.992 66.552 14.512 66.664 14 66.664C13.552 66.664 13.12 66.536 12.704 66.28C12.32 65.992 11.984 65.656 11.696 65.272C11.408 64.856 11.184 64.424 11.024 63.976C10.864 63.496 10.784 63.048 10.784 62.632Z" fill="black"/>
<path d="M16.976 147.416C16.976 147.064 17.056 146.728 17.216 146.408L17.504 146.12C17.696 146.056 17.904 145.912 18.128 145.688C18.384 145.464 18.624 145.224 18.848 144.968C19.104 144.712 19.328 144.488 19.52 144.296C19.744 144.072 19.952 143.96 20.144 143.96C20.72 143.32 21.232 142.568 21.68 141.704C22.128 140.808 22.352 139.896 22.352 138.968L22.304 138.632C22.016 138.184 21.744 137.816 21.488 137.528C21.232 137.208 20.992 136.904 20.768 136.616C20.544 136.328 20.368 135.992 20.24 135.608C20.112 135.224 20.048 134.728 20.048 134.12L20.096 133.88L20.432 133.736C20.656 133.832 21.072 134.04 21.68 134.36C22.32 134.68 22.976 135 23.648 135.32C24.32 135.64 24.944 135.928 25.52 136.184C26.096 136.408 26.448 136.52 26.576 136.52C27.216 135.816 27.68 135.16 27.968 134.552C28.256 133.912 28.304 133.128 28.112 132.2L28.256 131.672L28.688 131.576C29.136 131.8 29.696 132.04 30.368 132.296C31.072 132.552 31.744 132.856 32.384 133.208C33.056 133.528 33.616 133.912 34.064 134.36C34.544 134.776 34.784 135.272 34.784 135.848C34.784 136.84 34.656 137.816 34.4 138.776C34.144 139.704 33.968 140.664 33.872 141.656C33.808 142.168 33.808 142.68 33.872 143.192C33.936 143.672 33.968 144.168 33.968 144.68L33.92 145.352C33.792 145.64 33.52 145.848 33.104 145.976C32.72 146.136 32.384 146.216 32.096 146.216C31.68 146.216 31.28 146.088 30.896 145.832C30.544 145.576 30.224 145.256 29.936 144.872C29.648 144.488 29.424 144.072 29.264 143.624C29.104 143.176 29.024 142.76 29.024 142.376C29.024 142.28 29.04 142.152 29.072 141.992C29.136 141.832 29.184 141.688 29.216 141.56C29.44 141.336 29.632 141.032 29.792 140.648C29.952 140.232 30.08 139.8 30.176 139.352C30.272 138.904 30.336 138.472 30.368 138.056C30.432 137.608 30.464 137.224 30.464 136.904C30.464 136.84 30.448 136.76 30.416 136.664C30.384 136.568 30.352 136.488 30.32 136.424L30.032 136.328C29.872 136.392 29.664 136.472 29.408 136.568C29.152 136.664 28.896 136.776 28.64 136.904C28.416 137 28.192 137.128 27.968 137.288C27.776 137.416 27.664 137.576 27.632 137.768C27.44 138.536 27.136 139.24 26.72 139.88C26.304 140.52 25.872 141.16 25.424 141.8C25.008 142.44 24.608 143.08 24.224 143.72C23.84 144.36 23.584 145.064 23.456 145.832C23.296 146.056 23.136 146.376 22.976 146.792C22.848 147.24 22.72 147.704 22.592 148.184C22.464 148.664 22.352 149.128 22.256 149.576C22.192 150.024 22.128 150.36 22.064 150.584C21.552 151.16 20.896 151.448 20.096 151.448C19.68 151.448 19.28 151.304 18.896 151.016C18.512 150.728 18.176 150.376 17.888 149.96C17.6 149.576 17.376 149.144 17.216 148.664C17.056 148.216 16.976 147.8 16.976 147.416ZM35.936 143.672C35.936 142.968 36.016 142.28 36.176 141.608C36.336 140.904 36.512 140.216 36.704 139.544C36.928 138.84 37.12 138.152 37.28 137.48C37.44 136.776 37.52 136.072 37.52 135.368C37.52 135.24 37.424 135.08 37.232 134.888C37.04 134.664 36.832 134.392 36.608 134.072C36.416 133.752 36.224 133.368 36.032 132.92C35.84 132.472 35.744 131.928 35.744 131.288L35.792 131.048L35.936 130.904C36.096 130.872 36.32 130.856 36.608 130.856C37.76 131.336 38.704 131.736 39.44 132.056C40.176 132.376 40.752 132.76 41.168 133.208C41.616 133.656 41.92 134.248 42.08 134.984C42.24 135.72 42.32 136.76 42.32 138.104C42.32 138.776 42.256 139.448 42.128 140.12C42 140.76 41.84 141.416 41.648 142.088C41.488 142.728 41.344 143.368 41.216 144.008C41.088 144.648 41.024 145.288 41.024 145.928V146.168C41.088 146.232 41.264 146.312 41.552 146.408C41.84 146.504 42.016 146.552 42.08 146.552C42.688 146.552 43.28 146.408 43.856 146.12C44.432 145.864 45.04 145.736 45.68 145.736C46.416 145.32 47.008 144.696 47.456 143.864C47.936 143 48.304 142.072 48.56 141.08C48.848 140.088 49.04 139.08 49.136 138.056C49.232 137.032 49.28 136.136 49.28 135.368C49.28 134.984 49.216 134.424 49.088 133.688C48.992 132.92 48.864 132.12 48.704 131.288C48.576 130.424 48.432 129.608 48.272 128.84C48.144 128.072 48.032 127.48 47.936 127.064C47.84 126.616 47.696 126.184 47.504 125.768C47.312 125.352 47.2 124.92 47.168 124.472H47.312C47.568 124.6 47.888 125.112 48.272 126.008C48.688 126.904 49.12 128.008 49.568 129.32C50.016 130.632 50.464 132.072 50.912 133.64C51.36 135.176 51.76 136.664 52.112 138.104C52.496 139.512 52.8 140.776 53.024 141.896C53.248 143.016 53.36 143.784 53.36 144.2V144.584C53.2 144.904 53.136 145.24 53.168 145.592C53.2 145.976 53.168 146.344 53.072 146.696C52.784 147.656 52.272 148.408 51.536 148.952C50.8 149.496 49.968 149.912 49.04 150.2C48.112 150.488 47.136 150.664 46.112 150.728C45.12 150.792 44.208 150.824 43.376 150.824C42.288 150.824 41.28 150.648 40.352 150.296C39.456 149.976 38.672 149.512 38 148.904C37.36 148.296 36.848 147.544 36.464 146.648C36.112 145.784 35.936 144.792 35.936 143.672ZM6.896 140.072V137.432C6.896 136.568 6.928 135.72 6.992 134.888C7.056 134.024 7.168 133.176 7.328 132.344C7.104 131.192 6.896 130.04 6.704 128.888C6.544 127.704 6.464 126.52 6.464 125.336C6.464 125.144 6.496 124.888 6.56 124.568L6.752 124.424H6.896C7.12 124.584 7.392 124.76 7.712 124.952C8.032 125.144 8.368 125.336 8.72 125.528C9.072 125.72 9.408 125.88 9.728 126.008C10.08 126.136 10.384 126.2 10.64 126.2L10.736 126.152L10.928 126.392C11.568 126.712 11.888 127.272 11.888 128.072C11.888 128.936 11.76 129.816 11.504 130.712C11.28 131.608 11.024 132.52 10.736 133.448C10.448 134.376 10.176 135.32 9.92 136.28C9.696 137.208 9.584 138.152 9.584 139.112L9.872 139.16C10.128 139.032 10.336 138.856 10.496 138.632C10.656 138.408 10.864 138.312 11.12 138.344L12.08 137.336H12.32L12.368 137.384L12.512 136.952L12.848 137C12.912 136.872 12.976 136.744 13.04 136.616C13.136 136.488 13.248 136.376 13.376 136.28L13.664 136.184L13.952 136.232L13.904 135.704L13.952 135.368L14.336 135.272L14.288 135.032C14.288 134.968 14.352 134.824 14.48 134.6C14.64 134.344 14.816 134.088 15.008 133.832C15.2 133.576 15.392 133.352 15.584 133.16C15.776 132.936 15.936 132.824 16.064 132.824L15.968 132.2H16.064L16.496 132.536V132.44L16.352 132.248L16.256 131.864L16.352 131.672H16.64C16.8 131.736 16.944 131.832 17.072 131.96C17.232 132.056 17.344 132.184 17.408 132.344C17.248 132.6 16.992 133.016 16.64 133.592C16.288 134.136 15.92 134.728 15.536 135.368C15.184 136.008 14.864 136.6 14.576 137.144C14.288 137.688 14.144 138.056 14.144 138.248C13.92 138.76 13.68 139.368 13.424 140.072C13.2 140.744 12.912 141.4 12.56 142.04C12.24 142.648 11.856 143.176 11.408 143.624C10.96 144.04 10.4 144.248 9.728 144.248C9.248 144.248 8.816 144.104 8.432 143.816C8.08 143.528 7.792 143.176 7.568 142.76C7.344 142.344 7.168 141.896 7.04 141.416C6.944 140.936 6.896 140.488 6.896 140.072ZM23.072 128.36C23.072 128.296 23.104 128.2 23.168 128.072C23.264 127.976 23.424 127.864 23.648 127.736C23.904 127.576 24.16 127.432 24.416 127.304C24.672 127.176 24.928 127.064 25.184 126.968C25.44 126.872 25.648 126.824 25.808 126.824C25.808 126.472 25.952 126.232 26.24 126.104C26.528 125.944 26.816 125.864 27.104 125.864L27.248 125.72V125.144L27.536 125L28.064 125.192C28.128 125.064 28.144 124.92 28.112 124.76C28.08 124.6 28.064 124.456 28.064 124.328C28.064 124.264 28.08 124.2 28.112 124.136C28.176 124.04 28.24 124.024 28.304 124.088L28.496 123.608L28.688 123.416L29.024 123.368L29.84 123.704L29.888 123.608L29.84 123.368C29.936 122.536 30.384 122.12 31.184 122.12H31.232C31.2 121.96 31.184 121.912 31.184 121.976C31.184 122.04 31.184 121.992 31.184 121.832C31.28 121.8 31.408 121.72 31.568 121.592C31.728 121.464 31.888 121.336 32.048 121.208C32.208 121.08 32.352 120.984 32.48 120.92C32.64 120.824 32.752 120.776 32.816 120.776C33.36 120.264 33.856 119.752 34.304 119.24C34.784 118.728 35.44 118.472 36.272 118.472L36.32 118.328L36.272 117.8L36.416 117.464L36.608 117.32L36.896 117.272L37.04 117.32L37.184 117.08L37.088 116.84L36.704 116.792C36.608 116.792 36.432 116.84 36.176 116.936C35.952 117 35.712 117.096 35.456 117.224C35.2 117.352 34.944 117.48 34.688 117.608C34.432 117.704 34.224 117.768 34.064 117.8C32.944 118.12 31.84 118.344 30.752 118.472C29.664 118.6 28.56 118.92 27.44 119.432C27.152 119.56 26.752 119.784 26.24 120.104C25.76 120.392 25.264 120.696 24.752 121.016C24.24 121.336 23.744 121.624 23.264 121.88C22.816 122.104 22.464 122.216 22.208 122.216C21.696 122.216 21.2 122.088 20.72 121.832C20.272 121.576 19.872 121.256 19.52 120.872C19.2 120.456 18.928 119.992 18.704 119.48C18.512 118.968 18.416 118.472 18.416 117.992C18.416 117.928 18.432 117.832 18.464 117.704C18.528 117.544 18.576 117.432 18.608 117.368L18.896 117.32L19.136 117.416C19.232 117.416 19.376 117.4 19.568 117.368C19.792 117.304 20.016 117.256 20.24 117.224C20.496 117.16 20.704 117.128 20.864 117.128C21.024 117.128 21.104 117.176 21.104 117.272C21.456 117.048 21.856 116.84 22.304 116.648C22.752 116.456 23.2 116.36 23.648 116.36C23.68 116.232 23.792 116.152 23.984 116.12C24.176 116.056 24.384 116.024 24.608 116.024C24.864 116.024 25.104 116.04 25.328 116.072C25.552 116.104 25.712 116.12 25.808 116.12C25.84 116.056 25.84 115.992 25.808 115.928C25.776 115.832 25.744 115.752 25.712 115.688L26.672 115.736C26.608 115.48 26.656 115.352 26.816 115.352C26.976 115.32 27.136 115.304 27.296 115.304L27.824 115.592C27.792 115.464 27.76 115.352 27.728 115.256C27.728 115.16 27.728 115.048 27.728 114.92L28.736 114.344C28.896 114.344 29.072 114.264 29.264 114.104C29.488 113.912 29.68 113.704 29.84 113.48C30.032 113.224 30.192 112.984 30.32 112.76C30.448 112.504 30.512 112.296 30.512 112.136V112.04C29.936 111.656 29.456 111.112 29.072 110.408C28.688 109.672 28.464 108.968 28.4 108.296L28.688 107.48C28.848 107.448 28.96 107.368 29.024 107.24C29.088 107.08 29.152 106.936 29.216 106.808L29.408 106.76C29.568 106.76 29.984 106.92 30.656 107.24C31.36 107.528 32.096 107.88 32.864 108.296C33.664 108.68 34.384 109.064 35.024 109.448C35.696 109.832 36.096 110.088 36.224 110.216C36.448 110.472 36.608 110.776 36.704 111.128C36.8 111.48 36.848 111.832 36.848 112.184C36.656 112.76 36.32 113.208 35.84 113.528C35.36 113.816 34.816 114.04 34.208 114.2C33.632 114.36 33.024 114.488 32.384 114.584C31.776 114.68 31.248 114.808 30.8 114.968C30.096 115.224 29.408 115.544 28.736 115.928C28.064 116.28 27.376 116.616 26.672 116.936L26.768 117.128L27.008 117.272H27.248L27.632 117.032L28.016 116.984L28.448 117.032L28.976 117.32C28.944 117.256 28.944 117.192 28.976 117.128C29.008 117.032 29.04 116.952 29.072 116.888L29.6 116.648L29.744 116.408L30.416 116.12L31.136 116.264C31.136 116.04 31.152 115.88 31.184 115.784C31.76 115.592 32.336 115.416 32.912 115.256C33.52 115.064 34.128 114.872 34.736 114.68L35.168 114.92L35.456 114.632L36.032 114.92H36.128L36.272 114.44C36.432 114.248 36.624 114.136 36.848 114.104C37.104 114.072 37.328 113.992 37.52 113.864C37.648 113.8 37.792 113.688 37.952 113.528C38.112 113.336 38.288 113.16 38.48 113C38.672 112.84 38.848 112.696 39.008 112.568C39.2 112.408 39.36 112.328 39.488 112.328L39.824 112.712C40.336 112.872 40.8 113.096 41.216 113.384C41.664 113.672 42.144 113.896 42.656 114.056C42.816 114.12 42.992 114.168 43.184 114.2C43.376 114.2 43.536 114.264 43.664 114.392C43.824 114.552 43.92 114.776 43.952 115.064C44.016 115.352 44.048 115.592 44.048 115.784V116.168C43.728 116.552 43.088 116.936 42.128 117.32C41.168 117.672 40.128 118.056 39.008 118.472C37.92 118.888 36.864 119.352 35.84 119.864C34.816 120.376 34.08 120.984 33.632 121.688C33.344 121.848 33.056 122.04 32.768 122.264C32.512 122.488 32.24 122.68 31.952 122.84C31.824 123.096 31.632 123.336 31.376 123.56C31.12 123.752 30.864 123.96 30.608 124.184C30.352 124.376 30.112 124.568 29.888 124.76C29.696 124.952 29.6 125.144 29.6 125.336C29.248 125.752 28.848 126.12 28.4 126.44C27.984 126.728 27.6 127.096 27.248 127.544L27.392 127.592C27.84 127.592 28.208 127.496 28.496 127.304C28.784 127.112 29.04 127.016 29.264 127.016C29.424 126.888 29.68 126.744 30.032 126.584C30.416 126.392 30.8 126.216 31.184 126.056C31.568 125.864 31.904 125.688 32.192 125.528C32.512 125.368 32.688 125.24 32.72 125.144C33.296 124.984 33.792 124.76 34.208 124.472C34.624 124.184 35.024 123.816 35.408 123.368L35.936 123.176C36.064 122.792 36.144 122.408 36.176 122.024C36.208 121.64 36.304 121.272 36.464 120.92C36.528 120.984 36.672 121.096 36.896 121.256C37.12 121.416 37.28 121.448 37.376 121.352H37.76C37.92 121.352 38.24 121.48 38.72 121.736C39.232 121.992 39.776 122.264 40.352 122.552C40.928 122.84 41.472 123.112 41.984 123.368C42.528 123.592 42.912 123.688 43.136 123.656C43.328 123.912 43.456 124.264 43.52 124.712C43.616 125.128 43.664 125.496 43.664 125.816V125.96C43.472 126.312 43.04 126.68 42.368 127.064C41.696 127.416 40.944 127.768 40.112 128.12C39.312 128.44 38.512 128.76 37.712 129.08C36.944 129.4 36.352 129.688 35.936 129.944L35.552 129.992L35.168 129.944L34.88 129.752L34.688 129.416V129.08L34.88 128.84L35.504 128.552L35.456 128.072L35.552 127.88L35.984 127.976C36.016 127.4 36.144 127.032 36.368 126.872C36.624 126.712 36.768 126.52 36.8 126.296L36.704 126.152H36.416C36.32 126.152 36.208 126.184 36.08 126.248C35.888 126.408 35.52 126.664 34.976 127.016C34.464 127.368 33.856 127.768 33.152 128.216C32.448 128.664 31.696 129.128 30.896 129.608C30.128 130.088 29.408 130.536 28.736 130.952C28.064 131.336 27.472 131.656 26.96 131.912C26.448 132.168 26.128 132.296 26 132.296L25.376 132.248C24.64 131.896 24.064 131.368 23.648 130.664C23.264 129.96 23.072 129.192 23.072 128.36ZM9.056 114.44C9.056 114.344 9.088 114.232 9.152 114.104L9.392 113.96C10.256 114.216 11.2 114.552 12.224 114.968C13.248 115.384 14.144 115.816 14.912 116.264C14.976 116.424 15.088 116.552 15.248 116.648C15.408 116.744 15.568 116.824 15.728 116.888C15.888 117.112 16.016 117.352 16.112 117.608C16.24 117.864 16.336 118.12 16.4 118.376C16.336 118.92 16.128 119.272 15.776 119.432C15.456 119.592 15.056 119.672 14.576 119.672C14.256 119.672 13.984 119.576 13.76 119.384C13.536 119.16 13.296 118.984 13.04 118.856C12.624 118.664 12.304 118.584 12.08 118.616C11.856 118.616 11.648 118.616 11.456 118.616C11.296 118.584 11.104 118.472 10.88 118.28C10.656 118.056 10.336 117.608 9.92 116.936C9.664 116.552 9.456 116.152 9.296 115.736C9.136 115.32 9.056 114.888 9.056 114.44Z" fill="black"/>
<path d="M28.064 203.208L28.352 202.584C29.216 201.944 29.792 201.176 30.08 200.28C30.4 199.384 30.688 198.44 30.944 197.448C31.328 197.544 31.696 197.72 32.048 197.976C32.368 198.392 32.464 198.76 32.336 199.08C32.24 199.4 32.192 199.784 32.192 200.232L32.24 200.328L32.528 200.232C32.72 200.008 32.928 199.688 33.152 199.272C33.408 198.856 33.648 198.424 33.872 197.976C34.096 197.56 34.304 197.176 34.496 196.824C34.72 196.44 34.912 196.2 35.072 196.104C35.328 195.528 35.664 194.68 36.08 193.56C36.496 192.408 36.912 191.224 37.328 190.008C37.744 188.76 38.096 187.576 38.384 186.456C38.672 185.336 38.816 184.488 38.816 183.912C38.816 183.816 38.8 183.72 38.768 183.624C38.736 183.528 38.704 183.432 38.672 183.336H38.432C38.368 183.336 38.288 183.352 38.192 183.384C38.128 183.416 38.064 183.448 38 183.48L37.76 183.72L37.664 184.104C37.76 184.456 37.808 184.792 37.808 185.112C37.808 185.336 37.696 185.608 37.472 185.928C37.28 186.248 37.04 186.584 36.752 186.936C36.464 187.256 36.176 187.592 35.888 187.944C35.6 188.264 35.392 188.536 35.264 188.76C34.816 189.496 34.528 190.296 34.4 191.16C34.272 192.024 34.048 192.856 33.728 193.656V193.896C33.504 194.248 33.152 194.472 32.672 194.568C32.192 194.632 31.776 194.664 31.424 194.664C31.104 194.664 30.784 194.536 30.464 194.28C30.144 193.992 29.856 193.672 29.6 193.32C29.344 192.936 29.136 192.552 28.976 192.168C28.816 191.752 28.736 191.4 28.736 191.112L28.784 190.392L29.024 190.104L31.088 189.192C31.12 188.872 31.312 188.6 31.664 188.376L31.712 188.28H31.664L31.424 188.376L30.224 188.28C29.488 187.864 28.88 187.336 28.4 186.696C27.92 186.024 27.68 185.224 27.68 184.296C27.68 184.136 27.712 183.96 27.776 183.768L27.968 183.48C28.288 183.384 28.576 183.224 28.832 183C29.12 182.776 29.44 182.664 29.792 182.664L30.032 182.472C30.096 182.248 30.256 182.024 30.512 181.8C30.768 181.544 31.008 181.4 31.232 181.368L31.52 180.792C31.744 180.6 31.936 180.328 32.096 179.976C32.256 179.592 32.416 179.224 32.576 178.872C32.768 178.488 32.96 178.168 33.152 177.912C33.376 177.624 33.648 177.48 33.968 177.48L34.064 177.384C34.128 177.192 34.16 177.08 34.16 177.048C34.16 177.016 34.272 177.016 34.496 177.048C34.56 176.696 34.672 176.456 34.832 176.328C35.024 176.2 35.184 176.008 35.312 175.752C35.44 175.624 35.52 175.56 35.552 175.56C35.616 175.528 35.648 175.512 35.648 175.512C35.68 175.48 35.68 175.448 35.648 175.416C35.648 175.352 35.648 175.224 35.648 175.032C35.84 174.84 36.032 174.616 36.224 174.36C36.416 174.104 36.544 173.848 36.608 173.592L36.368 173.544C35.792 173.672 35.264 173.912 34.784 174.264C34.304 174.616 33.84 174.984 33.392 175.368C32.944 175.72 32.496 176.04 32.048 176.328C31.632 176.616 31.168 176.76 30.656 176.76C30.144 176.76 29.68 176.632 29.264 176.376C28.88 176.088 28.544 175.736 28.256 175.32C28 174.904 27.792 174.456 27.632 173.976C27.504 173.464 27.44 172.984 27.44 172.536L27.632 172.2L28.16 171.96L28.784 172.2C29.136 172.2 29.488 172.088 29.84 171.864C30.224 171.64 30.576 171.4 30.896 171.144C31.216 170.888 31.52 170.648 31.808 170.424C32.096 170.2 32.352 170.088 32.576 170.088V170.04C32.576 169.88 32.64 169.784 32.768 169.752C32.896 169.72 33.024 169.704 33.152 169.704C33.216 169.32 33.312 169.048 33.44 168.888C33.6 168.696 33.84 168.488 34.16 168.264C32.752 168.264 31.632 167.96 30.8 167.352C30 166.712 29.6 165.64 29.6 164.136L29.648 163.8C29.776 163.64 29.952 163.512 30.176 163.416C30.432 163.288 30.688 163.144 30.944 162.984C31.232 162.792 31.504 162.552 31.76 162.264C32.016 161.944 32.224 161.512 32.384 160.968L32.48 160.488C32.544 160.136 32.592 159.768 32.624 159.384C32.688 159 32.8 158.632 32.96 158.28C32.96 158.248 32.976 158.216 33.008 158.184C33.104 158.088 33.136 158.04 33.104 158.04C33.136 158.04 33.376 158.152 33.824 158.376C34.304 158.568 34.816 158.792 35.36 159.048C35.904 159.304 36.416 159.56 36.896 159.816C37.376 160.04 37.664 160.168 37.76 160.2C37.856 160.264 37.952 160.472 38.048 160.824C38.176 161.176 38.24 161.416 38.24 161.544C38.24 161.896 38.096 162.184 37.808 162.408C37.52 162.6 37.328 162.856 37.232 163.176L37.616 163.32C38 163.704 38.416 163.976 38.864 164.136C39.312 164.296 39.792 164.44 40.304 164.568C40.848 164.856 41.12 165.352 41.12 166.056C41.12 166.216 41.056 166.456 40.928 166.776C40.672 167 40.176 167.32 39.44 167.736C38.736 168.152 38 168.6 37.232 169.08C36.464 169.528 35.776 169.976 35.168 170.424C34.56 170.872 34.256 171.224 34.256 171.48L34.4 171.624H34.784C34.976 171.624 35.184 171.56 35.408 171.432C35.632 171.304 35.856 171.176 36.08 171.048C36.304 170.888 36.512 170.744 36.704 170.616C36.928 170.488 37.136 170.424 37.328 170.424C37.488 170.168 37.632 169.912 37.76 169.656C37.92 169.4 38.096 169.16 38.288 168.936L38.576 168.84C39.344 169.224 40.112 169.624 40.88 170.04C41.648 170.424 42.416 170.824 43.184 171.24C43.312 171.432 43.376 171.656 43.376 171.912C43.408 172.136 43.424 172.36 43.424 172.584L43.376 172.92C43.184 173.112 42.896 173.336 42.512 173.592C42.128 173.816 41.712 174.056 41.264 174.312C40.816 174.568 40.368 174.84 39.92 175.128C39.472 175.416 39.088 175.72 38.768 176.04C37.968 176.872 37.168 177.864 36.368 179.016C35.568 180.168 34.944 181.272 34.496 182.328C34.656 182.392 34.832 182.44 35.024 182.472C35.216 182.472 35.408 182.472 35.6 182.472C35.856 182.472 36.048 182.472 36.176 182.472C36.304 182.44 36.496 182.36 36.752 182.232C36.944 182.296 37.12 182.328 37.28 182.328C37.376 182.328 37.472 182.264 37.568 182.136C37.696 181.976 37.824 181.816 37.952 181.656C38.112 181.464 38.24 181.288 38.336 181.128C38.464 180.936 38.576 180.808 38.672 180.744C38.736 180.68 38.88 180.584 39.104 180.456C39.328 180.328 39.36 180.184 39.2 180.024L39.248 179.784L39.584 179.64L39.968 179.832L40.4 179.88C40.752 179.88 41.04 179.784 41.264 179.592C41.52 179.368 41.792 179.256 42.08 179.256L42.32 179.304C42.384 179.464 42.48 179.592 42.608 179.688C42.736 179.752 42.88 179.784 43.04 179.784C43.2 179.784 43.264 179.688 43.232 179.496C43.232 179.272 43.312 179.08 43.472 178.92C43.504 178.92 43.616 178.888 43.808 178.824C44.032 178.728 44.256 178.632 44.48 178.536C44.736 178.44 44.96 178.36 45.152 178.296C45.376 178.2 45.504 178.152 45.536 178.152C46.144 178.152 46.896 178.344 47.792 178.728C48.688 179.08 49.552 179.544 50.384 180.12C51.216 180.696 51.92 181.368 52.496 182.136C53.104 182.872 53.408 183.624 53.408 184.392C53.408 185.032 53.248 185.752 52.928 186.552C52.64 187.352 52.272 188.168 51.824 189C51.408 189.832 50.976 190.632 50.528 191.4C50.08 192.168 49.696 192.84 49.376 193.416C49.056 193.992 48.688 194.744 48.272 195.672C47.888 196.568 47.44 197.448 46.928 198.312C46.448 199.176 45.888 199.912 45.248 200.52C44.608 201.16 43.888 201.48 43.088 201.48C42.544 201.48 41.984 201.368 41.408 201.144C40.864 200.92 40.368 200.616 39.92 200.232C39.504 199.848 39.152 199.384 38.864 198.84C38.608 198.328 38.48 197.784 38.48 197.208C38.48 197.08 38.528 197.016 38.624 197.016C38.752 196.984 38.848 196.968 38.912 196.968C39.232 196.968 39.552 196.984 39.872 197.016C40.192 197.048 40.512 197.064 40.832 197.064L41.408 197.352L41.504 196.92L41.6 196.872C42.048 197 42.464 197.256 42.848 197.64C42.816 197.576 42.736 197.4 42.608 197.112C42.512 196.824 42.464 196.648 42.464 196.584C42.464 196.296 42.592 195.944 42.848 195.528C43.136 195.112 43.44 194.696 43.76 194.28C44.112 193.832 44.432 193.384 44.72 192.936C45.04 192.488 45.232 192.072 45.296 191.688C45.424 191.496 45.536 191.32 45.632 191.16C45.76 190.968 45.904 190.792 46.064 190.632C46.32 189.96 46.576 189.336 46.832 188.76C47.088 188.184 47.312 187.608 47.504 187.032C47.696 186.456 47.856 185.864 47.984 185.256C48.112 184.648 48.176 183.976 48.176 183.24C48.176 183.08 48.144 182.904 48.08 182.712C47.76 182.552 47.344 182.472 46.832 182.472C46.192 182.472 45.728 182.472 45.44 182.472C45.184 182.472 45.008 182.504 44.912 182.568C44.816 182.632 44.752 182.76 44.72 182.952C44.688 183.144 44.56 183.432 44.336 183.816C44.08 185.256 43.68 186.6 43.136 187.848C42.624 189.064 42.016 190.248 41.312 191.4C40.608 192.52 39.856 193.624 39.056 194.712C38.256 195.8 37.456 196.92 36.656 198.072C36.112 198.808 35.648 199.592 35.264 200.424C34.88 201.256 34.48 202.072 34.064 202.872C33.904 203.16 33.776 203.48 33.68 203.832C33.616 204.184 33.552 204.536 33.488 204.888C33.424 205.272 33.344 205.624 33.248 205.944C33.184 206.264 33.072 206.52 32.912 206.712C32.72 206.968 32.464 207.112 32.144 207.144C31.824 207.208 31.536 207.272 31.28 207.336C30.832 207.272 30.416 207.112 30.032 206.856C29.648 206.6 29.312 206.28 29.024 205.896C28.736 205.544 28.496 205.144 28.304 204.696C28.144 204.28 28.064 203.848 28.064 203.4V203.208ZM4.064 198.024C4.064 197.512 4.208 197.032 4.496 196.584L4.736 196.488L4.928 196.296C5.312 195.272 5.504 194.216 5.504 193.128C5.504 192.04 5.632 190.984 5.888 189.96C5.984 189.832 6.08 189.624 6.176 189.336C6.272 189.048 6.368 188.744 6.464 188.424C6.56 188.072 6.64 187.752 6.704 187.464C6.8 187.144 6.88 186.888 6.944 186.696V186.36C6.944 185.656 6.88 184.968 6.752 184.296C6.624 183.624 6.56 182.936 6.56 182.232C6.624 181.912 6.8 181.704 7.088 181.608C7.408 181.512 7.664 181.352 7.856 181.128C8.208 180.264 8.592 179.368 9.008 178.44C9.424 177.48 9.712 176.536 9.872 175.608C9.968 175.16 10 174.712 9.968 174.264C9.968 173.784 10.064 173.32 10.256 172.872L10.544 172.68C11.28 172.552 11.888 172.344 12.368 172.056C12.848 171.768 13.344 171.336 13.856 170.76C13.984 170.728 14.144 170.6 14.336 170.376C14.56 170.152 14.768 169.912 14.96 169.656C15.184 169.368 15.376 169.096 15.536 168.84C15.728 168.552 15.872 168.344 15.968 168.216C15.232 168.6 14.704 168.92 14.384 169.176C14.064 169.432 13.808 169.672 13.616 169.896C13.424 170.088 13.232 170.312 13.04 170.568C12.848 170.792 12.512 171.08 12.032 171.432C11.872 171.56 11.664 171.64 11.408 171.672C11.184 171.672 10.976 171.672 10.784 171.672C10.4 171.672 10 171.576 9.584 171.384C9.2 171.192 8.848 170.936 8.528 170.616C8.208 170.296 7.936 169.944 7.712 169.56C7.52 169.144 7.424 168.728 7.424 168.312C7.424 167.896 7.44 167.608 7.472 167.448C7.504 167.288 7.568 167.192 7.664 167.16C7.76 167.128 7.904 167.144 8.096 167.208C8.288 167.272 8.528 167.304 8.816 167.304C9.04 167.304 9.36 167.256 9.776 167.16C10.224 167.032 10.528 166.984 10.688 167.016C10.848 167.048 10.992 167.096 11.12 167.16C11.28 167.224 11.44 167.24 11.6 167.208L11.696 167.064L11.84 166.44C11.968 166.28 12.08 166.12 12.176 165.96C12.304 165.8 12.448 165.64 12.608 165.48L12.944 165.432C13.008 165.368 13.104 165.24 13.232 165.048C13.392 164.824 13.536 164.712 13.664 164.712C13.824 164.776 14 164.856 14.192 164.952C14.384 165.016 14.576 165.048 14.768 165.048V165L14.432 164.52V164.136C14.432 164.04 14.464 163.896 14.528 163.704C14.656 163.544 14.768 163.384 14.864 163.224C14.96 163.064 15.008 162.888 15.008 162.696C15.168 162.568 15.328 162.392 15.488 162.168C15.648 161.912 15.776 161.704 15.872 161.544L16.208 161.352L16.4 161.064V160.632C16.4 160.184 16.304 159.768 16.112 159.384C15.952 159 15.872 158.584 15.872 158.136C15.872 158.04 15.888 157.944 15.92 157.848C15.952 157.752 15.984 157.656 16.016 157.56C16.24 157.56 16.672 157.704 17.312 157.992C17.984 158.248 18.656 158.568 19.328 158.952C20.032 159.336 20.64 159.736 21.152 160.152C21.696 160.568 21.968 160.92 21.968 161.208L21.92 161.736C21.824 161.96 21.488 162.264 20.912 162.648C20.336 163 19.68 163.368 18.944 163.752C18.24 164.136 17.552 164.488 16.88 164.808C16.208 165.096 15.728 165.288 15.44 165.384L15.008 165.288C15.072 165.352 15.104 165.448 15.104 165.576C15.104 165.704 15.04 165.832 14.912 165.96C14.784 166.056 14.624 166.168 14.432 166.296C14.272 166.392 14.128 166.504 14 166.632C13.872 166.76 13.808 166.888 13.808 167.016H13.952C13.984 167.016 14.16 166.968 14.48 166.872C14.8 166.744 15.136 166.616 15.488 166.488C15.872 166.328 16.224 166.184 16.544 166.056C16.864 165.928 17.04 165.848 17.072 165.816L17.216 165.24L17.408 165.048L17.744 165.096C17.904 165.192 18.064 165.32 18.224 165.48C18.384 165.64 18.56 165.72 18.752 165.72C19.232 165.976 19.728 166.232 20.24 166.488C20.752 166.712 21.264 166.904 21.776 167.064C22 167.32 22.112 167.64 22.112 168.024L22.064 168.552C21.84 169 21.344 169.496 20.576 170.04C19.84 170.584 19.056 171.144 18.224 171.72C17.424 172.296 16.688 172.888 16.016 173.496C15.376 174.072 15.056 174.616 15.056 175.128C15.056 175.448 15.088 175.736 15.152 175.992C15.216 176.248 15.232 176.664 15.2 177.24L15.248 177.288C15.44 177.288 15.632 177.256 15.824 177.192C16.016 177.096 16.208 177.048 16.4 177.048L16.688 176.568C18.128 176.056 19.488 175.352 20.768 174.456C21.088 174.52 21.344 174.584 21.536 174.648C22.368 174.936 23.12 175.24 23.792 175.56C24.496 175.88 25.088 176.28 25.568 176.76C26.08 177.208 26.464 177.768 26.72 178.44C27.008 179.112 27.152 179.944 27.152 180.936C27.152 181.736 27.072 182.52 26.912 183.288C26.784 184.056 26.688 184.824 26.624 185.592C26.464 187.384 26.352 189.176 26.288 190.968C26.256 192.728 26.24 194.52 26.24 196.344C26.24 196.984 26.304 197.608 26.432 198.216C26.592 198.824 26.672 199.448 26.672 200.088C26.672 200.248 26.64 200.424 26.576 200.616C26.352 200.84 26.096 201 25.808 201.096C25.52 201.224 25.232 201.336 24.944 201.432C24.464 201.432 23.984 201.304 23.504 201.048C23.024 200.824 22.592 200.52 22.208 200.136C21.824 199.752 21.504 199.32 21.248 198.84C21.024 198.36 20.912 197.88 20.912 197.4V197.064L21.104 196.776L21.824 196.968L22.208 196.92C22.432 196.856 22.64 196.712 22.832 196.488C23.056 196.264 23.248 196.072 23.408 195.912C23.504 195.624 23.568 195.24 23.6 194.76C23.632 194.28 23.648 193.8 23.648 193.32C23.648 192.84 23.648 192.392 23.648 191.976C23.68 191.56 23.744 191.288 23.84 191.16V190.392L23.696 190.056L23.456 189.864C23.2 189.8 22.928 189.768 22.64 189.768C22.352 189.736 22.08 189.72 21.824 189.72C21.152 189.72 20.576 189.8 20.096 189.96C19.616 190.12 19.072 190.344 18.464 190.632C18.496 191.496 18.48 192.36 18.416 193.224C18.384 194.088 18.368 194.952 18.368 195.816C18.368 196.392 18.448 196.952 18.608 197.496C18.768 198.072 18.848 198.648 18.848 199.224C18.848 199.288 18.832 199.368 18.8 199.464C18.768 199.56 18.736 199.64 18.704 199.704L18.32 200.04C18.096 200.104 17.872 200.168 17.648 200.232C17.456 200.296 17.248 200.328 17.024 200.328C16.32 200.328 15.76 200.136 15.344 199.752C14.96 199.368 14.64 198.904 14.384 198.36C14.16 197.816 13.968 197.24 13.808 196.632C13.68 195.992 13.52 195.432 13.328 194.952C13.072 195.112 12.784 195.24 12.464 195.336C12.176 195.432 11.888 195.48 11.6 195.48C11.184 195.48 10.816 195.384 10.496 195.192C10.176 194.968 9.888 194.696 9.632 194.376C9.376 194.056 9.152 193.704 8.96 193.32C8.8 192.936 8.656 192.584 8.528 192.264C8.208 192.968 7.984 193.704 7.856 194.472C7.76 195.208 7.712 195.96 7.712 196.728C7.712 196.952 7.728 197.16 7.76 197.352C7.824 197.544 7.872 197.752 7.904 197.976L8.624 198.408C8.784 198.664 8.88 198.936 8.912 199.224C8.944 199.544 8.96 199.848 8.96 200.136V200.52C8.768 200.968 8.448 201.24 8 201.336C7.584 201.432 7.152 201.48 6.704 201.48C6.416 201.48 6.112 201.352 5.792 201.096C5.472 200.84 5.184 200.52 4.928 200.136C4.672 199.784 4.464 199.4 4.304 198.984C4.144 198.6 4.064 198.28 4.064 198.024ZM15.536 192.888L15.488 192.792C15.232 192.952 14.992 193.144 14.768 193.368C14.576 193.592 14.352 193.8 14.096 193.992C14.288 194.056 14.464 194.152 14.624 194.28C14.816 194.408 15.024 194.472 15.248 194.472C15.408 194.312 15.472 194.072 15.44 193.752C15.44 193.4 15.472 193.112 15.536 192.888ZM14.144 189L14.768 189.192C14.8 189.064 14.8 188.936 14.768 188.808C14.736 188.68 14.704 188.552 14.672 188.424C15.088 188.232 15.44 187.944 15.728 187.56C16.016 187.144 16.16 186.712 16.16 186.264L16.112 185.496L15.92 185.112L15.632 185.016C15.088 185.208 14.64 185.416 14.288 185.64C13.936 185.832 13.616 186.056 13.328 186.312C13.04 186.536 12.752 186.808 12.464 187.128C12.176 187.416 11.84 187.752 11.456 188.136L8.864 188.376C8.832 188.536 8.8 188.712 8.768 188.904C8.736 189.096 8.72 189.272 8.72 189.432V190.296L9.056 191.064C9.504 191.064 9.968 191.048 10.448 191.016C10.96 190.952 11.44 190.856 11.888 190.728C12.368 190.568 12.8 190.36 13.184 190.104C13.568 189.816 13.888 189.448 14.144 189ZM15.248 190.632L15.392 190.488C15.68 190.488 15.872 190.424 15.968 190.296C16.096 190.168 16.176 190.008 16.208 189.816C16.272 189.624 16.304 189.416 16.304 189.192C16.304 188.968 16.32 188.76 16.352 188.568C16 188.984 15.632 189.352 15.248 189.672C14.896 189.96 14.528 190.28 14.144 190.632L14 190.776L14.144 190.872L14.48 190.824H14.816L15.2 191.16H15.296L15.344 191.064L15.248 190.632ZM20.672 187.32L20.72 187.176L20.576 186.6L20.432 186.504C20.208 186.504 20 186.6 19.808 186.792C19.616 186.952 19.424 187.064 19.232 187.128L18.896 187.56C18.928 187.816 18.896 188.056 18.8 188.28C18.736 188.472 18.704 188.696 18.704 188.952C18.704 189.112 18.784 189.224 18.944 189.288C19.136 189.32 19.296 189.352 19.424 189.384C19.424 189.352 19.408 189.336 19.376 189.336C19.376 189.304 19.376 189.272 19.376 189.24C19.408 188.984 19.568 188.648 19.856 188.232C20.176 187.784 20.448 187.48 20.672 187.32ZM23.936 185.16C23.584 185.32 23.232 185.48 22.88 185.64C22.528 185.8 22.176 185.928 21.824 186.024L21.872 186.264C21.936 186.328 22.048 186.424 22.208 186.552C22.368 186.648 22.544 186.76 22.736 186.888C22.928 186.984 23.104 187.08 23.264 187.176C23.456 187.24 23.6 187.272 23.696 187.272H24.08L24.224 186.888L23.936 185.16ZM13.52 183.528L13.664 183.192L14.096 183.48H15.2C15.264 183.48 15.344 183.464 15.44 183.432C15.568 183.368 15.664 183.32 15.728 183.288L15.776 183C15.776 182.936 15.744 182.824 15.68 182.664C15.648 182.504 15.6 182.344 15.536 182.184C15.472 182.024 15.408 181.88 15.344 181.752C15.28 181.624 15.2 181.56 15.104 181.56C15.008 181.56 14.848 181.656 14.624 181.848C14.4 182.008 14.176 182.216 13.952 182.472C13.76 182.696 13.568 182.936 13.376 183.192C13.184 183.416 13.072 183.576 13.04 183.672V183.72L13.088 183.768L13.28 183.48L13.52 183.528ZM22.64 179.064L22.112 178.92C21.952 178.952 21.744 178.984 21.488 179.016C21.232 179.048 20.96 179.096 20.672 179.16C20.416 179.224 20.176 179.304 19.952 179.4C19.728 179.464 19.568 179.544 19.472 179.64C19.376 179.992 19.328 180.328 19.328 180.648V181.224C19.328 181.448 19.408 181.608 19.568 181.704L20.096 181.032L20.192 180.984C20.192 180.984 20.32 181.064 20.576 181.224C20.864 181.384 21.184 181.576 21.536 181.8C21.888 181.992 22.24 182.184 22.592 182.376C22.976 182.536 23.296 182.632 23.552 182.664L23.696 182.424C23.696 182.232 23.664 181.976 23.6 181.656C23.536 181.336 23.456 181.016 23.36 180.696C23.264 180.344 23.152 180.024 23.024 179.736C22.896 179.448 22.768 179.224 22.64 179.064ZM31.184 196.728L31.424 195.96C31.648 195.96 31.84 196.04 32 196.2C32.16 196.36 32.304 196.52 32.432 196.68V197.016L32.288 197.352L32.048 197.544L31.808 197.592L31.568 197.544L31.328 197.304L31.184 196.728Z" fill="black"/>
</svg>
