<svg width="56" height="210" viewBox="0 0 56 210" fill="none" xmlns="http://www.w3.org/2000/svg">
<path d="M33.904 41.576V41.384C34.48 41.512 35.056 41.864 35.632 42.44C36.24 42.984 36.832 43.56 37.408 44.168C37.984 44.776 38.544 45.32 39.088 45.8C39.632 46.28 40.128 46.52 40.576 46.52C41.408 46.52 42.112 46.168 42.688 45.464C43.264 44.792 43.6 44.056 43.696 43.256C44.112 39.672 44.496 36.04 44.848 32.36C45.232 28.648 45.424 25 45.424 21.416V17C45.424 16.328 45.296 15.688 45.04 15.08C44.784 14.44 44.656 13.784 44.656 13.112C44.656 12.984 44.688 12.856 44.752 12.728L44.992 12.44C45.248 12.504 45.456 12.616 45.616 12.776C45.776 12.936 45.952 13.096 46.144 13.256C46.432 13.448 46.752 13.624 47.104 13.784C47.456 13.912 47.792 14.04 48.112 14.168C48.464 14.264 48.784 14.376 49.072 14.504C49.392 14.6 49.632 14.744 49.792 14.936C49.952 15.512 50.064 16.184 50.128 16.952C50.192 17.688 50.24 18.472 50.272 19.304C50.304 20.104 50.304 20.904 50.272 21.704C50.272 22.472 50.272 23.16 50.272 23.768C50.272 24.568 50.256 25.72 50.224 27.224C50.192 28.696 50.128 30.344 50.032 32.168C49.968 33.992 49.856 35.88 49.696 37.832C49.536 39.784 49.312 41.608 49.024 43.304C48.768 45 48.448 46.472 48.064 47.72C47.68 49 47.216 49.88 46.672 50.36C46.256 50.712 45.792 50.92 45.28 50.984C44.768 51.08 44.24 51.128 43.696 51.128C43.248 51.128 42.72 50.936 42.112 50.552C41.536 50.2 40.912 49.736 40.24 49.16C39.568 48.584 38.896 47.928 38.224 47.192C37.552 46.488 36.928 45.784 36.352 45.08C35.776 44.376 35.264 43.72 34.816 43.112C34.4 42.472 34.096 41.96 33.904 41.576ZM15.232 43.496L15.28 43.208C15.568 42.984 15.888 42.904 16.24 42.968C16.624 43 16.992 42.952 17.344 42.824C17.504 42.76 17.728 42.632 18.016 42.44C18.336 42.216 18.64 41.976 18.928 41.72C19.248 41.464 19.552 41.224 19.84 41C20.16 40.744 20.4 40.536 20.56 40.376C20.56 40.312 20.576 40.28 20.608 40.28C20.192 40.12 19.76 39.928 19.312 39.704C18.896 39.448 18.512 39.16 18.16 38.84C17.808 38.52 17.52 38.152 17.296 37.736C17.072 37.32 16.96 36.856 16.96 36.344C16.96 35.736 17.088 35.16 17.344 34.616C17.6 34.072 17.728 33.48 17.728 32.84C17.728 32.584 17.696 32.328 17.632 32.072C17.6 31.816 17.504 31.592 17.344 31.4C16.672 31.112 16.08 30.92 15.568 30.824C15.088 30.696 14.672 30.536 14.32 30.344C14 30.12 13.744 29.784 13.552 29.336C13.392 28.856 13.312 28.12 13.312 27.128L13.36 26.84C13.488 26.648 13.888 26.504 14.56 26.408C15.264 26.28 16.016 26.152 16.816 26.024C17.616 25.864 18.352 25.688 19.024 25.496C19.728 25.304 20.16 25.032 20.32 24.68C20.64 24.52 20.944 24.44 21.232 24.44C21.296 24.376 21.328 24.312 21.328 24.248C21.328 24.152 21.328 24.056 21.328 23.96C21.328 23.864 21.376 23.816 21.472 23.816C21.6 23.784 21.696 23.768 21.76 23.768C21.92 23.768 22 23.704 22 23.576C22.032 23.448 22.176 23.384 22.432 23.384C22.496 23.192 22.624 23.064 22.816 23C23.008 22.904 23.184 22.856 23.344 22.856C23.536 22.632 23.696 22.488 23.824 22.424C23.952 22.36 24.064 22.328 24.16 22.328C24.288 22.328 24.416 22.328 24.544 22.328C24.672 22.328 24.832 22.296 25.024 22.232C25.28 21.88 25.552 21.592 25.84 21.368C26.16 21.144 26.416 20.808 26.608 20.36V20.072C26.32 19.912 25.936 19.656 25.456 19.304C25.008 18.952 24.544 18.6 24.064 18.248C23.584 17.864 23.104 17.544 22.624 17.288C22.176 17 21.792 16.856 21.472 16.856C21.184 16.856 20.768 17.016 20.224 17.336C19.68 17.656 19.136 18.04 18.592 18.488C18.048 18.936 17.552 19.4 17.104 19.88C16.656 20.328 16.416 20.696 16.384 20.984C16.192 21.272 15.888 21.688 15.472 22.232C15.056 22.776 14.64 23.352 14.224 23.96C13.84 24.536 13.488 25.096 13.168 25.64C12.848 26.184 12.688 26.6 12.688 26.888C12.496 27.24 12.256 27.592 11.968 27.944C11.712 28.264 11.456 28.6 11.2 28.952C10.976 29.304 10.784 29.672 10.624 30.056C10.464 30.408 10.384 30.792 10.384 31.208C10.384 31.688 10.432 32.168 10.528 32.648C10.624 33.096 10.688 33.56 10.72 34.04L10.432 34.52C10.112 34.712 9.76 34.84 9.376 34.904C9.024 34.936 8.672 34.952 8.32 34.952C7.68 34.952 7.088 34.568 6.544 33.8C6.032 33 5.584 32.088 5.2 31.064C4.816 30.04 4.512 29.016 4.288 27.992C4.096 26.936 4 26.152 4 25.64C4.256 25.768 4.592 25.928 5.008 26.12C5.424 26.28 5.824 26.472 6.208 26.696C6.592 26.92 6.896 27.192 7.12 27.512C7.376 27.832 7.456 28.2 7.36 28.616C7.424 28.776 7.504 29.016 7.6 29.336C7.728 29.656 7.92 29.816 8.176 29.816C8.336 29.816 8.48 29.784 8.608 29.72C8.768 29.624 8.912 29.528 9.04 29.432L9.664 28.184C9.792 28.12 9.968 28.088 10.192 28.088C10.352 28.088 10.368 27.992 10.24 27.8C10.112 27.576 10.064 27.4 10.096 27.272H10.48L10.576 27.176C10.64 26.824 10.832 26.392 11.152 25.88C11.472 25.336 11.776 24.968 12.064 24.776C12.064 24.776 12.128 24.664 12.256 24.44C12.416 24.184 12.56 23.944 12.688 23.72C12.848 23.464 12.976 23.288 13.072 23.192C13.2 23.096 13.248 23.176 13.216 23.432H13.264C13.392 23.432 13.472 23.368 13.504 23.24C13.536 23.112 13.568 22.968 13.6 22.808C13.632 22.648 13.68 22.504 13.744 22.376C13.84 22.248 14.016 22.184 14.272 22.184L14.512 21.08L14.704 21.032L15.28 21.272L15.232 20.84C15.232 20.648 15.28 20.472 15.376 20.312C15.472 20.152 15.568 19.992 15.664 19.832V19.496C15.664 19.304 15.76 19.24 15.952 19.304L16.048 19.208C16.176 18.92 16.32 18.584 16.48 18.2C16.64 17.784 16.848 17.464 17.104 17.24C17.328 17.176 17.44 17.144 17.44 17.144C17.44 17.144 17.424 17.048 17.392 16.856L17.632 16.424L17.872 16.28C18 16.184 18.064 16.072 18.064 15.944C18.064 15.784 18.064 15.64 18.064 15.512C18.064 15.448 18.096 15.416 18.16 15.416C18.224 15.416 18.288 15.416 18.352 15.416V15.368C17.968 14.824 17.632 14.248 17.344 13.64C17.056 13.032 16.896 12.376 16.864 11.672L17.152 11.192C17.568 11.352 17.936 11.576 18.256 11.864C18.576 12.152 18.96 12.296 19.408 12.296C19.6 12.072 19.792 11.848 19.984 11.624C20.176 11.4 20.384 11.208 20.608 11.048L20.848 11C20.976 11.192 21.2 11.4 21.52 11.624C21.872 11.816 22.256 12.008 22.672 12.2C23.088 12.392 23.488 12.552 23.872 12.68C24.256 12.808 24.576 12.904 24.832 12.968C25.248 13.32 25.472 13.672 25.504 14.024C25.568 14.376 25.584 14.824 25.552 15.368C25.68 15.464 25.872 15.656 26.128 15.944C26.416 16.2 26.704 16.456 26.992 16.712C27.312 16.968 27.6 17.208 27.856 17.432C28.144 17.624 28.352 17.72 28.48 17.72L28.72 17.672L29.152 16.952L29.344 16.808L29.584 16.76C29.872 17.208 30.288 17.528 30.832 17.72C31.408 17.912 31.952 18.104 32.464 18.296C33.008 18.488 33.472 18.728 33.856 19.016C34.272 19.304 34.48 19.752 34.48 20.36C34.48 20.456 34.448 20.6 34.384 20.792C34.288 20.888 33.824 21.048 32.992 21.272C32.16 21.496 31.184 21.768 30.064 22.088C28.976 22.408 27.856 22.76 26.704 23.144C25.552 23.528 24.624 23.928 23.92 24.344C24.016 24.568 24.192 24.744 24.448 24.872C24.736 25 25.024 25.128 25.312 25.256C25.632 25.352 25.936 25.448 26.224 25.544C26.512 25.64 26.736 25.784 26.896 25.976C26.992 26.264 27.04 26.552 27.04 26.84C27.04 27.224 26.816 27.48 26.368 27.608C25.952 27.736 25.456 27.816 24.88 27.848C24.304 27.88 23.744 27.912 23.2 27.944C22.656 27.944 22.272 28.008 22.048 28.136C21.408 28.552 20.784 29.032 20.176 29.576C19.6 30.088 19.008 30.584 18.4 31.064H18.496C18.624 31.128 18.864 31.24 19.216 31.4C19.6 31.56 19.984 31.736 20.368 31.928C20.784 32.12 21.152 32.296 21.472 32.456C21.792 32.616 21.984 32.728 22.048 32.792C22.176 33.016 22.256 33.24 22.288 33.464C22.32 33.656 22.336 33.88 22.336 34.136C22.336 34.584 22.288 35.032 22.192 35.48C22.128 35.896 22.096 36.328 22.096 36.776C22.096 37.064 22.144 37.352 22.24 37.64L22.288 37.688C22.544 37.336 22.816 36.936 23.104 36.488C23.424 36.04 23.712 35.576 23.968 35.096C24.256 34.616 24.496 34.136 24.688 33.656C24.88 33.176 24.976 32.712 24.976 32.264C24.976 31.816 24.88 31.384 24.688 30.968C24.496 30.552 24.4 30.12 24.4 29.672C24.4 29.512 24.448 29.352 24.544 29.192C24.736 29.288 24.928 29.384 25.12 29.48C25.312 29.576 25.504 29.656 25.696 29.72C26.304 30.328 26.832 30.68 27.28 30.776C27.728 30.872 28.128 30.984 28.48 31.112C28.864 31.208 29.184 31.448 29.44 31.832C29.728 32.216 30.016 33 30.304 34.184C29.664 34.856 29.024 35.56 28.384 36.296C27.744 37.032 27.072 37.768 26.368 38.504C25.696 39.208 25.008 39.912 24.304 40.616C23.6 41.288 22.896 41.88 22.192 42.392L22.72 42.872C22.656 42.776 22.656 42.728 22.72 42.728C22.784 42.696 22.848 42.68 22.912 42.68C22.976 42.68 23.04 42.68 23.104 42.68C23.168 42.648 23.184 42.584 23.152 42.488C23.248 42.424 23.392 42.344 23.584 42.248C23.808 42.152 24.048 42.072 24.304 42.008C24.56 41.912 24.8 41.848 25.024 41.816C25.28 41.752 25.456 41.72 25.552 41.72C25.68 41.72 25.808 41.592 25.936 41.336C26.064 41.048 26.192 40.728 26.32 40.376C26.48 39.992 26.64 39.64 26.8 39.32C26.96 39 27.12 38.792 27.28 38.696H27.52C27.584 38.696 27.664 38.712 27.76 38.744C27.856 38.776 27.936 38.808 28 38.84C28.32 39.096 28.72 39.32 29.2 39.512C29.712 39.704 30.192 39.912 30.64 40.136C31.12 40.36 31.52 40.648 31.84 41C32.16 41.32 32.32 41.752 32.32 42.296L32.272 42.584C32.048 42.712 31.632 42.952 31.024 43.304C30.416 43.624 29.776 43.96 29.104 44.312C28.432 44.696 27.808 45.016 27.232 45.272C26.656 45.56 26.288 45.704 26.128 45.704L25.552 45.56C25.232 45.304 24.896 44.952 24.544 44.504C24.16 44.856 23.712 45.24 23.2 45.656C22.688 46.072 22.16 46.472 21.616 46.856C21.072 47.24 20.512 47.56 19.936 47.816C19.36 48.072 18.816 48.2 18.304 48.2C17.888 48.2 17.488 48.024 17.104 47.672C16.752 47.32 16.432 46.888 16.144 46.376C15.856 45.896 15.632 45.384 15.472 44.84C15.312 44.296 15.232 43.848 15.232 43.496ZM22.48 25.736L23.104 25.256L22.72 24.872C22.624 24.968 22.464 25.064 22.24 25.16C22.016 25.256 21.792 25.352 21.568 25.448C21.376 25.544 21.2 25.64 21.04 25.736C20.88 25.8 20.8 25.848 20.8 25.88L20.848 26.12L21.04 26.264H21.232C21.424 26.136 21.616 26.024 21.808 25.928C22 25.8 22.224 25.736 22.48 25.736ZM11.248 34.328L11.296 33.8L11.44 33.512H11.488C11.584 33.512 11.744 33.608 11.968 33.8C12.192 33.96 12.4 34.072 12.592 34.136C12.88 34.424 13.248 34.648 13.696 34.808C14.144 34.936 14.576 35.08 14.992 35.24C15.408 35.4 15.76 35.592 16.048 35.816C16.368 36.04 16.528 36.392 16.528 36.872C16.528 37.096 16.48 37.32 16.384 37.544C16.288 37.768 16.24 37.976 16.24 38.168C16.24 38.424 16.352 38.744 16.576 39.128C16.8 39.48 16.912 39.832 16.912 40.184C16.912 40.248 16.896 40.344 16.864 40.472C16.832 40.568 16.8 40.648 16.768 40.712L16.432 41.096C16.24 41.16 16.048 41.224 15.856 41.288C15.664 41.352 15.456 41.384 15.232 41.384C14.592 41.384 14.016 41.112 13.504 40.568C13.024 40.024 12.608 39.384 12.256 38.648C11.936 37.88 11.68 37.096 11.488 36.296C11.328 35.496 11.248 34.84 11.248 34.328ZM36.688 29.96C36.688 29.128 36.512 28.328 36.16 27.56C35.808 26.76 35.632 25.944 35.632 25.112C35.632 25.016 35.664 24.904 35.728 24.776H36.064C36.224 24.776 36.4 24.856 36.592 25.016C36.784 25.144 36.912 25.272 36.976 25.4C36.976 25.496 36.992 25.56 37.024 25.592C37.088 25.624 37.152 25.608 37.216 25.544C37.44 25.544 37.68 25.608 37.936 25.736C38.192 25.864 38.448 26.008 38.704 26.168C38.96 26.296 39.216 26.424 39.472 26.552C39.728 26.68 39.952 26.744 40.144 26.744L40.576 27.08C40.896 27.752 41.056 28.536 41.056 29.432C41.056 29.816 40.992 30.184 40.864 30.536C40.768 30.888 40.688 31.256 40.624 31.64C40.56 32.184 40.56 32.712 40.624 33.224C40.688 33.704 40.72 34.216 40.72 34.76C40.464 35.144 40.224 35.4 40 35.528C39.776 35.656 39.44 35.72 38.992 35.72C38.608 35.72 38.224 35.592 37.84 35.336C37.456 35.08 37.12 34.76 36.832 34.376C36.544 33.992 36.304 33.592 36.112 33.176C35.92 32.728 35.824 32.328 35.824 31.976C35.824 31.592 35.968 31.272 36.256 31.016C36.544 30.728 36.688 30.376 36.688 29.96Z" fill="black"/>
<path d="M24.352 110.904V110.856C24.8 110.664 25.216 110.424 25.6 110.136C25.984 109.848 26.416 109.704 26.896 109.704C26.96 109.704 27.024 109.672 27.088 109.608C27.152 109.576 27.152 109.528 27.088 109.464C27.088 109.336 27.168 109.224 27.328 109.128C27.488 109.064 27.664 109 27.856 108.936C28.048 108.904 28.24 108.872 28.432 108.84C28.624 108.84 28.768 108.84 28.864 108.84C28.896 108.744 28.896 108.632 28.864 108.504C28.832 108.408 28.8 108.312 28.768 108.216C28.8 108.088 28.864 108.024 28.96 108.024C29.088 108.024 29.184 108.056 29.248 108.12C29.44 108.12 29.632 108.04 29.824 107.88C30.048 107.72 30.256 107.544 30.448 107.352C30.64 107.16 30.832 106.968 31.024 106.776C31.248 106.616 31.488 106.504 31.744 106.44C31.968 106.248 32.096 106.04 32.128 105.816C32.16 105.624 32.352 105.544 32.704 105.576L32.8 105.336C33.024 105.08 33.328 104.776 33.712 104.424C34.096 104.072 34.48 103.704 34.864 103.32C35.248 102.936 35.6 102.568 35.92 102.216C36.272 101.864 36.496 101.544 36.592 101.256C36.72 100.968 36.8 100.68 36.832 100.392C36.864 100.136 36.976 99.864 37.168 99.576C37.616 99.352 38.16 98.968 38.8 98.424C39.472 97.912 40.096 97.336 40.672 96.696C41.28 96.056 41.792 95.4 42.208 94.728C42.656 94.056 42.88 93.448 42.88 92.904L43.024 92.712L43.504 92.808C43.632 92.616 43.76 92.376 43.888 92.088C44.048 91.768 44.192 91.432 44.32 91.08C44.448 90.696 44.56 90.344 44.656 90.024C44.784 89.672 44.88 89.368 44.944 89.112C44.304 89.56 43.552 89.992 42.688 90.408C41.856 90.824 41.04 91.064 40.24 91.128L39.04 90.792C38.592 90.376 38.144 89.832 37.696 89.16C37.28 88.488 37.072 87.832 37.072 87.192C37.072 86.936 37.136 86.712 37.264 86.52C37.392 86.296 37.536 86.104 37.696 85.944C37.952 85.88 38.4 85.496 39.04 84.792C39.712 84.056 40.4 83.256 41.104 82.392C41.808 81.496 42.432 80.664 42.976 79.896C43.52 79.096 43.792 78.568 43.792 78.312L43.648 78.216C43.36 78.344 43.04 78.488 42.688 78.648C42.336 78.808 41.968 78.968 41.584 79.128C41.232 79.256 40.864 79.368 40.48 79.464C40.128 79.56 39.808 79.608 39.52 79.608C38.976 79.608 38.48 79.496 38.032 79.272C37.584 79.016 37.2 78.696 36.88 78.312C36.592 77.928 36.352 77.496 36.16 77.016C36 76.504 35.92 75.992 35.92 75.48C35.92 75.416 35.984 75.352 36.112 75.288C36.24 75.192 36.384 75.112 36.544 75.048C36.736 74.984 36.912 74.92 37.072 74.856C37.264 74.792 37.392 74.728 37.456 74.664C37.744 74.472 38.096 74.216 38.512 73.896C38.928 73.576 39.344 73.24 39.76 72.888C40.176 72.536 40.544 72.184 40.864 71.832C41.184 71.448 41.392 71.08 41.488 70.728C41.584 70.6 41.696 70.408 41.824 70.152C41.984 69.864 42.128 69.576 42.256 69.288C42.384 68.968 42.496 68.664 42.592 68.376C42.688 68.088 42.736 67.864 42.736 67.704C42.032 67.096 41.488 66.488 41.104 65.88C40.752 65.24 40.576 64.456 40.576 63.528L40.624 63.24L40.768 63.144H41.056C41.344 63.144 41.808 63.304 42.448 63.624C43.088 63.912 43.728 64.232 44.368 64.584C45.04 64.904 45.648 65.208 46.192 65.496C46.736 65.752 47.088 65.848 47.248 65.784C47.504 66.136 47.744 66.536 47.968 66.984C48.192 67.4 48.304 67.832 48.304 68.28C48.304 68.44 48.176 68.68 47.92 69C47.664 69.32 47.36 69.672 47.008 70.056C46.688 70.408 46.368 70.744 46.048 71.064C45.76 71.384 45.552 71.624 45.424 71.784C44.912 72.072 44.496 72.52 44.176 73.128C43.888 73.736 43.584 74.28 43.264 74.76V74.856L45.04 74.232L45.184 73.8H45.424C45.904 73.96 46.384 74.136 46.864 74.328C47.344 74.488 47.792 74.696 48.208 74.952C48.656 75.208 49.04 75.512 49.36 75.864C49.68 76.216 49.904 76.648 50.032 77.16C49.744 77.704 49.232 78.328 48.496 79.032C47.792 79.704 47.056 80.408 46.288 81.144C45.552 81.848 44.88 82.552 44.272 83.256C43.696 83.928 43.408 84.52 43.408 85.032L43.648 85.224C44 85.064 44.288 84.84 44.512 84.552C44.768 84.264 45.056 84.024 45.376 83.832L45.616 83.784C46.192 84.168 46.784 84.488 47.392 84.744C48.032 84.968 48.608 85.224 49.12 85.512C49.632 85.8 50.048 86.168 50.368 86.616C50.72 87.064 50.896 87.704 50.896 88.536C50.896 88.888 50.784 89.448 50.56 90.216C50.336 90.952 50.064 91.736 49.744 92.568C49.424 93.368 49.104 94.136 48.784 94.872C48.464 95.576 48.208 96.088 48.016 96.408C47.664 96.952 47.264 97.464 46.816 97.944C46.4 98.424 45.968 98.888 45.52 99.336C45.104 99.816 44.688 100.296 44.272 100.776C43.856 101.288 43.488 101.832 43.168 102.408C43.008 102.664 42.832 102.904 42.64 103.128C42.48 103.384 42.272 103.592 42.016 103.752C41.568 104.04 41.072 104.232 40.528 104.328C39.984 104.424 39.472 104.568 38.992 104.76C37.776 105.272 36.56 105.768 35.344 106.248C34.16 106.728 33.008 107.32 31.888 108.024C31.664 108.184 31.232 108.472 30.592 108.888C29.952 109.304 29.28 109.736 28.576 110.184C27.904 110.632 27.264 111.032 26.656 111.384C26.08 111.736 25.728 111.912 25.6 111.912C25.408 111.912 25.152 111.88 24.832 111.816L24.352 110.904ZM17.296 99.288C16.848 99.864 16.352 100.312 15.808 100.632C15.264 100.984 14.624 101.16 13.888 101.16C12.96 100.904 12.304 100.408 11.92 99.672C11.536 98.968 11.344 98.152 11.344 97.224C11.344 96.424 11.392 95.624 11.488 94.824C11.616 93.992 11.92 93.256 12.4 92.616C13.04 92.872 13.808 93.192 14.704 93.576C15.6 93.928 16.304 94.312 16.816 94.728C17.136 94.984 17.408 95.304 17.632 95.688C17.856 96.04 18.096 96.376 18.352 96.696C18.608 97.048 18.896 97.336 19.216 97.56C19.568 97.784 20.016 97.896 20.56 97.896L21.088 97.848L21.52 97.608C21.776 97.288 21.92 96.904 21.952 96.456C21.984 96.008 22 95.592 22 95.208C22 94.632 22 94.056 22 93.48C22 92.904 21.968 92.328 21.904 91.752H21.808C21.296 91.752 20.816 91.864 20.368 92.088C19.952 92.312 19.488 92.424 18.976 92.424C18.496 92.424 18.064 92.28 17.68 91.992C17.296 91.704 16.96 91.352 16.672 90.936C16.416 90.52 16.208 90.072 16.048 89.592C15.888 89.112 15.808 88.664 15.808 88.248C15.808 88.152 15.84 88.04 15.904 87.912C16.192 87.688 16.416 87.416 16.576 87.096C16.736 86.776 16.96 86.52 17.248 86.328V86.136L17.104 85.944C16.368 85.656 15.712 85.128 15.136 84.36C14.56 83.592 14.272 82.792 14.272 81.96L14.32 81.384C14.576 81.064 14.864 80.904 15.184 80.904L15.568 80.664C15.824 80.6 16.096 80.584 16.384 80.616C16.672 80.616 16.944 80.632 17.2 80.664C17.168 80.504 17.136 80.376 17.104 80.28C17.104 80.152 17.104 80.008 17.104 79.848C17.104 79.528 17.152 79.224 17.248 78.936L17.536 78.888C17.664 78.952 17.776 79.032 17.872 79.128C18 79.192 18.144 79.224 18.304 79.224C18.624 79.448 19.008 79.688 19.456 79.944C19.904 80.168 20.32 80.28 20.704 80.28C20.96 80.152 21.168 80.072 21.328 80.04C21.488 80.008 21.696 80.024 21.952 80.088C22.304 79.992 22.688 79.816 23.104 79.56C23.52 79.272 23.888 79.128 24.208 79.128C24.304 78.904 24.448 78.76 24.64 78.696C24.832 78.6 25.008 78.488 25.168 78.36L25.36 77.496L25.552 77.256H25.888C26.144 77.256 26.544 77.368 27.088 77.592C27.632 77.816 28.176 78.088 28.72 78.408C29.264 78.728 29.728 79.08 30.112 79.464C30.528 79.816 30.736 80.152 30.736 80.472C30.736 80.6 30.704 80.728 30.64 80.856C30.384 81.176 30.016 81.48 29.536 81.768C29.088 82.024 28.608 82.28 28.096 82.536C27.584 82.792 27.104 83.048 26.656 83.304C26.24 83.528 25.968 83.752 25.84 83.976C26.192 84.328 26.56 84.568 26.944 84.696C27.36 84.792 27.744 84.904 28.096 85.032C28.448 85.16 28.736 85.368 28.96 85.656C29.216 85.912 29.344 86.36 29.344 87C29.184 87.352 28.896 87.592 28.48 87.72C28.064 87.816 27.68 87.864 27.328 87.864C27.2 87.864 27.04 87.832 26.848 87.768L26.32 87.384C26.16 87.384 25.952 87.448 25.696 87.576C25.472 87.672 25.232 87.8 24.976 87.96C24.72 88.088 24.48 88.248 24.256 88.44C24.032 88.6 23.856 88.728 23.728 88.824L24.88 89.208C25.296 89.56 25.648 90.168 25.936 91.032C26.224 91.896 26.448 92.824 26.608 93.816C26.768 94.808 26.88 95.784 26.944 96.744C27.04 97.704 27.088 98.456 27.088 99C27.088 99.416 27.024 99.832 26.896 100.248C26.8 100.664 26.624 101.032 26.368 101.352C26.144 101.704 25.856 101.976 25.504 102.168C25.184 102.392 24.784 102.504 24.304 102.504C23.632 102.504 22.992 102.392 22.384 102.168C21.776 101.944 21.184 101.672 20.608 101.352C20.032 101.032 19.472 100.68 18.928 100.296C18.384 99.912 17.84 99.576 17.296 99.288ZM21.808 85.656C21.904 85.624 22.016 85.624 22.144 85.656C22.272 85.688 22.384 85.72 22.48 85.752L22.528 85.656L22.384 85.128L22.624 84.552L22.864 84.504L22.96 84.552L23.104 84.408C23.136 84.12 23.216 83.88 23.344 83.688C23.504 83.464 23.664 83.24 23.824 83.016C23.984 82.792 24.112 82.552 24.208 82.296C24.336 82.008 24.4 81.672 24.4 81.288C24.4 81.128 24.368 81.016 24.304 80.952C23.952 80.984 23.6 81.144 23.248 81.432C22.928 81.72 22.688 81.992 22.528 82.248C22.496 82.568 22.32 82.872 22 83.16C21.712 83.416 21.472 83.672 21.28 83.928C21.28 84.376 21.12 84.808 20.8 85.224C20.48 85.608 20.32 86.072 20.32 86.616V86.904L20.464 87.048C20.688 86.696 20.848 86.488 20.944 86.424C21.072 86.36 21.312 86.328 21.664 86.328C21.76 86.328 21.808 86.232 21.808 86.04C21.808 85.848 21.808 85.72 21.808 85.656ZM24.592 85.56L24.88 85.368L24.832 85.128L24.688 84.936L24.544 84.888C24.48 84.888 24.448 84.92 24.448 84.984C24.48 85.048 24.464 85.112 24.4 85.176C24.208 85.368 24 85.544 23.776 85.704C23.584 85.864 23.36 85.976 23.104 86.04L22.96 86.28L23.056 86.472H23.248C23.408 86.472 23.536 86.424 23.632 86.328C23.76 86.232 23.856 86.136 23.92 86.04C24.016 85.912 24.112 85.8 24.208 85.704C24.304 85.608 24.432 85.56 24.592 85.56ZM28.48 95.016C28.48 94.824 28.544 94.632 28.672 94.44C28.832 94.248 28.944 94.072 29.008 93.912V93.72C29.008 93.368 28.96 93.032 28.864 92.712C28.768 92.392 28.72 92.056 28.72 91.704V90.504L28.768 90.264L29.056 90.12C29.152 90.12 29.232 90.152 29.296 90.216C29.36 90.28 29.424 90.36 29.488 90.456C29.552 90.52 29.616 90.584 29.68 90.648C29.776 90.712 29.872 90.728 29.968 90.696C30.576 90.856 31.136 91.096 31.648 91.416C32.16 91.736 32.736 91.976 33.376 92.136C33.664 92.2 33.824 92.408 33.856 92.76C33.92 93.08 33.952 93.352 33.952 93.576C33.952 94.344 33.856 95.112 33.664 95.88C33.504 96.616 33.344 97.352 33.184 98.088L32.848 98.52C32.496 98.744 32.048 98.856 31.504 98.856C31.344 98.856 31.2 98.84 31.072 98.808C30.976 98.808 30.848 98.792 30.688 98.76C30.048 98.408 29.52 97.88 29.104 97.176C28.688 96.472 28.48 95.752 28.48 95.016ZM4.72 76.92L4.96 76.296L5.296 76.344C5.456 76.344 5.616 76.296 5.776 76.2C5.936 76.072 6.096 76.008 6.256 76.008C6.608 76.008 6.928 76.136 7.216 76.392C7.536 76.648 7.872 76.808 8.224 76.872C8.672 76.808 9.12 76.776 9.568 76.776C10.016 76.776 10.464 76.776 10.912 76.776C11.808 76.776 12.672 76.616 13.504 76.296C14.336 75.976 15.2 75.816 16.096 75.816C16.224 75.816 16.352 75.864 16.48 75.96C16.64 76.024 16.768 76.088 16.864 76.152H17.008L17.2 75.72L17.536 76.008L17.728 76.056L17.824 75.912C17.856 75.688 17.968 75.464 18.16 75.24C18.352 74.984 18.544 74.744 18.736 74.52C18.96 74.296 19.152 74.088 19.312 73.896C19.504 73.672 19.6 73.496 19.6 73.368C19.248 72.92 18.848 72.488 18.4 72.072C17.984 71.624 17.584 71.176 17.2 70.728L17.056 70.776C16.896 70.936 16.72 71.064 16.528 71.16C16.368 71.256 16.208 71.368 16.048 71.496C15.92 71.528 15.776 71.576 15.616 71.64C15.456 71.672 15.328 71.688 15.232 71.688C14.72 71.688 14.256 71.56 13.84 71.304C13.456 71.048 13.12 70.728 12.832 70.344C12.544 69.928 12.32 69.48 12.16 69C12 68.488 11.92 68.008 11.92 67.56C12.08 67.304 12.352 67 12.736 66.648C13.152 66.296 13.472 66.008 13.696 65.784L13.648 61.848C13.648 61.528 13.648 61.224 13.648 60.936C13.68 60.616 13.728 60.296 13.792 59.976H13.936L14.128 60.024C14.256 60.152 14.448 60.344 14.704 60.6C14.992 60.824 15.232 60.92 15.424 60.888C15.616 60.984 15.888 61.096 16.24 61.224C16.592 61.352 16.944 61.496 17.296 61.656C17.648 61.784 17.968 61.928 18.256 62.088C18.544 62.248 18.72 62.408 18.784 62.568C18.816 62.856 18.88 63.128 18.976 63.384C19.072 63.64 19.248 63.848 19.504 64.008L19.552 64.248C19.392 64.504 19.264 64.744 19.168 64.968C19.104 65.16 19.072 65.4 19.072 65.688V65.88L19.216 66.12L19.648 65.64C19.68 65.416 19.76 65.304 19.888 65.304C20.048 65.272 20.192 65.336 20.32 65.496C20.448 65.496 20.512 65.448 20.512 65.352C20.544 65.256 20.592 65.16 20.656 65.064C20.752 64.968 20.912 64.872 21.136 64.776C21.36 64.68 21.744 64.632 22.288 64.632C22.576 64.632 22.928 64.696 23.344 64.824C23.792 64.952 24.208 65.096 24.592 65.256C25.008 65.416 25.36 65.56 25.648 65.688C25.968 65.816 26.128 65.88 26.128 65.88C26.512 65.176 26.704 64.44 26.704 63.672C26.704 63.224 26.688 62.792 26.656 62.376C26.624 61.96 26.528 61.544 26.368 61.128L26.176 60.984C25.536 61.272 24.848 61.448 24.112 61.512C23.408 61.544 22.72 61.688 22.048 61.944C21.728 62.36 21.36 62.712 20.944 63C20.528 63.256 20.08 63.464 19.6 63.624L19.312 63.432L19.12 63.096L19.072 62.712L19.264 62.424C19.52 62.264 19.776 62.12 20.032 61.992C20.32 61.832 20.592 61.656 20.848 61.464C20.976 61.336 21.088 61.176 21.184 60.984C21.28 60.792 21.376 60.616 21.472 60.456C21.568 60.264 21.68 60.104 21.808 59.976C21.968 59.848 22.192 59.784 22.48 59.784C22.512 59.592 22.608 59.4 22.768 59.208L22.96 59.064H23.2L23.248 58.776C23.472 58.52 23.824 58.328 24.304 58.2C24.816 58.04 25.232 57.896 25.552 57.768C26.096 58.088 26.64 58.36 27.184 58.584C27.76 58.776 28.256 59.016 28.672 59.304C29.12 59.592 29.472 59.96 29.728 60.408C30.016 60.856 30.16 61.464 30.16 62.232C30.16 62.68 30.064 63.112 29.872 63.528C29.68 63.912 29.472 64.312 29.248 64.728C29.056 65.112 28.864 65.512 28.672 65.928C28.48 66.312 28.384 66.728 28.384 67.176C28.384 67.336 28.416 67.512 28.48 67.704C28.576 67.864 28.624 68.04 28.624 68.232L28.576 68.664L28.288 69C27.648 69.288 27.232 69.592 27.04 69.912C26.88 70.232 26.64 70.664 26.32 71.208L26.032 71.4L25.504 73.848L25.552 73.896C25.936 73.896 26.352 73.832 26.8 73.704C27.248 73.576 27.696 73.416 28.144 73.224C28.592 73.032 29.008 72.808 29.392 72.552C29.776 72.264 30.096 71.976 30.352 71.688L30.496 71.64C31.136 71.896 31.744 72.184 32.32 72.504C32.896 72.824 33.504 73.112 34.144 73.368L34.432 73.656C34.496 73.816 34.544 73.976 34.576 74.136C34.608 74.296 34.624 74.456 34.624 74.616C34.432 75 34.064 75.368 33.52 75.72C33.008 76.072 32.416 76.376 31.744 76.632C31.104 76.888 30.464 77.112 29.824 77.304C29.184 77.496 28.656 77.64 28.24 77.736L27.952 77.688C27.536 77.496 27.328 77.128 27.328 76.584C27.328 76.456 27.36 76.344 27.424 76.248C27.488 76.12 27.6 76.088 27.76 76.152L28.24 74.856H28.288C28.448 74.856 28.544 74.776 28.576 74.616C28.64 74.456 28.688 74.328 28.72 74.232L28.624 74.136C27.984 74.328 27.296 74.536 26.56 74.76C25.824 74.984 25.12 75.096 24.448 75.096C24.128 75.288 23.776 75.56 23.392 75.912C23.04 76.264 22.656 76.616 22.24 76.968C21.856 77.288 21.456 77.576 21.04 77.832C20.656 78.088 20.272 78.216 19.888 78.216C19.632 78.216 19.408 78.136 19.216 77.976C19.056 77.816 18.864 77.736 18.64 77.736C18 78.12 17.264 78.536 16.432 78.984C15.6 79.4 14.736 79.8 13.84 80.184C12.944 80.536 12.048 80.84 11.152 81.096C10.288 81.32 9.488 81.432 8.752 81.432C8.176 81.432 7.632 81.304 7.12 81.048C6.64 80.76 6.224 80.408 5.872 79.992C5.52 79.544 5.232 79.064 5.008 78.552C4.816 78.008 4.72 77.464 4.72 76.92ZM23.056 68.904C23.408 68.776 23.696 68.584 23.92 68.328C24.144 68.072 24.448 67.896 24.832 67.8L24.784 67.704C24.656 67.64 24.544 67.608 24.448 67.608C24.256 67.608 24 67.656 23.68 67.752C23.36 67.848 23.024 67.976 22.672 68.136C22.352 68.264 22.064 68.424 21.808 68.616C21.552 68.776 21.408 68.952 21.376 69.144C21.664 69.24 21.904 69.384 22.096 69.576H22.48L23.056 68.904Z" fill="black"/>
<path d="M23.872 156.232L23.92 155.848L24.064 155.8C24.992 156.056 25.792 156.28 26.464 156.472C27.168 156.664 28.032 156.76 29.056 156.76C29.44 156.76 29.808 156.76 30.16 156.76C30.544 156.76 30.928 156.744 31.312 156.712L31.408 156.616L35.68 154.888C35.744 154.728 35.808 154.648 35.872 154.648C35.968 154.68 36.08 154.696 36.208 154.696C36.848 154.696 37.36 154.392 37.744 153.784C38.16 153.208 38.496 152.456 38.752 151.528C39.008 150.6 39.184 149.56 39.28 148.408C39.408 147.288 39.488 146.2 39.52 145.144C39.552 144.056 39.552 143.08 39.52 142.216C39.52 141.32 39.52 140.664 39.52 140.248C39.52 140.056 39.504 139.864 39.472 139.672C39.472 139.448 39.456 139.24 39.424 139.048H39.328C38.816 139.048 38.192 139.224 37.456 139.576C36.72 139.928 35.968 140.312 35.2 140.728C34.432 141.112 33.68 141.48 32.944 141.832C32.208 142.184 31.584 142.36 31.072 142.36C30.592 142.36 30.16 142.216 29.776 141.928C29.392 141.64 29.072 141.288 28.816 140.872C28.592 140.424 28.416 139.96 28.288 139.48C28.16 138.968 28.096 138.504 28.096 138.088V137.896C28.224 137.896 28.496 137.864 28.912 137.8C29.328 137.736 29.744 137.656 30.16 137.56C30.576 137.432 30.944 137.304 31.264 137.176C31.584 137.048 31.728 136.92 31.696 136.792L31.888 136.456L32.8 135.88C33.024 135.848 33.184 135.768 33.28 135.64C33.408 135.48 33.52 135.336 33.616 135.208C33.712 135.048 33.824 134.92 33.952 134.824C34.112 134.696 34.32 134.632 34.576 134.632L34.72 134.344L35.248 134.152C35.504 134.184 35.728 134.264 35.92 134.392C36.112 134.488 36.32 134.584 36.544 134.68L36.496 133.72C36.688 133.592 36.976 133.432 37.36 133.24C37.776 133.016 38.192 132.776 38.608 132.52C39.024 132.264 39.392 131.992 39.712 131.704C40.032 131.416 40.192 131.144 40.192 130.888H40.144C39.888 130.888 39.648 130.936 39.424 131.032C39.232 131.128 39.008 131.176 38.752 131.176C37.92 131.176 37.104 131.016 36.304 130.696C35.504 130.344 34.688 130.168 33.856 130.168C33.28 130.168 32.768 130.296 32.32 130.552C31.904 130.808 31.488 131.08 31.072 131.368C30.656 131.656 30.208 131.928 29.728 132.184C29.28 132.44 28.768 132.568 28.192 132.568C27.68 132.568 27.216 132.44 26.8 132.184C26.416 131.896 26.08 131.544 25.792 131.128C25.504 130.712 25.28 130.264 25.12 129.784C24.992 129.272 24.928 128.792 24.928 128.344L25.072 127.96C25.456 127.8 26 127.72 26.704 127.72C27.44 127.688 28.192 127.672 28.96 127.672C29.728 127.672 30.432 127.656 31.072 127.624C31.744 127.592 32.208 127.496 32.464 127.336H33.328C33.712 127.176 34.16 127.016 34.672 126.856C35.184 126.664 35.648 126.568 36.064 126.568L36.448 126.424C36.544 126.328 36.736 125.928 37.024 125.224C37.344 124.52 37.664 123.768 37.984 122.968C38.336 122.136 38.64 121.368 38.896 120.664C39.152 119.96 39.28 119.56 39.28 119.464L39.184 119.368L38.944 119.32C38.496 119.448 38.064 119.624 37.648 119.848C37.232 120.072 36.816 120.312 36.4 120.568C35.984 120.792 35.552 121 35.104 121.192C34.688 121.352 34.24 121.432 33.76 121.432C33.12 121.432 32.576 121.272 32.128 120.952C31.68 120.632 31.312 120.232 31.024 119.752C30.736 119.272 30.512 118.744 30.352 118.168C30.224 117.592 30.16 117.032 30.16 116.488C30.16 116.424 30.176 116.328 30.208 116.2C30.272 116.04 30.32 115.928 30.352 115.864H30.448C30.64 115.864 30.784 115.928 30.88 116.056C31.008 116.184 31.184 116.248 31.408 116.248L31.36 116.344C31.36 116.472 31.536 116.616 31.888 116.776C32.24 116.904 32.64 117.032 33.088 117.16C33.536 117.288 33.952 117.4 34.336 117.496C34.752 117.56 35.024 117.592 35.152 117.592C35.28 117.592 35.536 117.576 35.92 117.544C36.336 117.512 36.752 117.48 37.168 117.448C37.616 117.384 38 117.32 38.32 117.256C38.672 117.16 38.848 117.048 38.848 116.92C38.848 116.792 38.64 116.52 38.224 116.104C37.808 115.688 37.344 115.192 36.832 114.616C36.352 114.04 35.904 113.4 35.488 112.696C35.072 111.96 34.864 111.224 34.864 110.488C34.864 110.392 34.896 110.248 34.96 110.056L35.248 109.864L35.92 110.008C35.952 109.944 36.016 109.896 36.112 109.864C36.24 109.832 36.336 109.816 36.4 109.816C36.432 109.816 36.512 109.848 36.64 109.912C36.768 109.944 36.896 109.992 37.024 110.056C37.184 110.088 37.328 110.136 37.456 110.2C37.616 110.264 37.712 110.296 37.744 110.296C37.904 110.36 38.176 110.488 38.56 110.68C38.976 110.84 39.392 111.016 39.808 111.208C40.256 111.4 40.656 111.592 41.008 111.784C41.36 111.944 41.584 112.072 41.68 112.168C42.032 112.52 42.272 112.936 42.4 113.416C42.56 113.864 42.752 114.312 42.976 114.76C43.2 115.176 43.52 115.544 43.936 115.864C44.384 116.152 45.072 116.296 46 116.296C46.32 116.456 46.496 116.744 46.528 117.16C46.592 117.544 46.624 117.896 46.624 118.216L46.144 118.792C45.504 119.08 44.832 119.192 44.128 119.128C43.456 119.064 42.8 119.128 42.16 119.32L41.968 119.512L42.016 119.896C42.016 120.76 41.888 121.64 41.632 122.536C41.408 123.4 41.296 124.28 41.296 125.176V125.224L41.536 125.32C41.856 125.32 42.128 125.192 42.352 124.936C42.576 124.648 42.88 124.504 43.264 124.504C43.552 124.408 43.84 124.312 44.128 124.216C44.448 124.088 44.736 123.944 44.992 123.784C45.28 123.624 45.504 123.448 45.664 123.256C45.856 123.032 45.968 122.744 46 122.392L46.192 122.104H46.528C47.264 122.456 47.92 122.824 48.496 123.208C49.072 123.56 49.776 123.816 50.608 123.976C50.832 124.136 50.992 124.36 51.088 124.648C51.184 124.904 51.232 125.16 51.232 125.416C51.232 125.48 51.2 125.576 51.136 125.704C51.104 125.832 51.072 125.928 51.04 125.992C50.56 126.472 49.936 126.888 49.168 127.24C48.432 127.56 47.648 127.912 46.816 128.296C45.984 128.648 45.136 129.048 44.272 129.496C43.44 129.944 42.688 130.504 42.016 131.176L41.68 131.08L41.392 130.744C41.328 130.616 41.296 130.504 41.296 130.408C41.296 130.248 41.424 130.008 41.68 129.688C41.936 129.336 42.224 128.968 42.544 128.584C42.896 128.2 43.232 127.832 43.552 127.48C43.904 127.128 44.144 126.84 44.272 126.616L44.032 126.52C43.776 126.52 43.52 126.568 43.264 126.664C43.008 126.728 42.736 126.792 42.448 126.856C42.192 126.92 41.92 126.968 41.632 127C41.376 127.032 41.136 127.016 40.912 126.952L40.72 127.096C40.656 127.288 40.624 127.464 40.624 127.624C40.624 128.136 40.624 128.648 40.624 129.16C40.656 129.64 40.688 130.136 40.72 130.648C40.784 130.744 40.928 130.84 41.152 130.936C41.376 131 41.488 131.08 41.488 131.176C41.488 131.432 41.36 131.672 41.104 131.896C40.848 132.12 40.64 132.312 40.48 132.472C40.896 132.696 41.328 132.904 41.776 133.096C42.224 133.256 42.688 133.336 43.168 133.336C43.392 133.336 43.584 133.304 43.744 133.24C43.936 133.176 44.144 133.096 44.368 133C44.56 133.256 44.864 133.384 45.28 133.384C45.312 133.48 45.488 133.624 45.808 133.816C46.128 133.976 46.48 134.152 46.864 134.344C47.28 134.536 47.664 134.696 48.016 134.824C48.368 134.952 48.592 135 48.688 134.968L48.928 135.208C48.992 135.432 49.072 135.656 49.168 135.88C49.264 136.072 49.312 136.296 49.312 136.552C49.312 136.712 49.296 136.856 49.264 136.984C49.008 137.272 48.656 137.48 48.208 137.608C47.792 137.704 47.392 137.752 47.008 137.752C46.72 137.752 46.432 137.72 46.144 137.656C45.888 137.56 45.632 137.48 45.376 137.416L44.848 137.512C44.784 137.768 44.736 138.104 44.704 138.52C44.704 138.904 44.704 139.32 44.704 139.768C44.736 140.216 44.768 140.648 44.8 141.064C44.832 141.48 44.848 141.832 44.848 142.12C44.848 144.552 44.736 146.968 44.512 149.368C44.32 151.768 44.048 154.168 43.696 156.568L43.456 156.856C42.624 157.304 41.808 157.784 41.008 158.296C40.208 158.84 39.408 159.384 38.608 159.928H34.96C34.576 159.928 34.032 159.912 33.328 159.88C32.624 159.848 31.856 159.784 31.024 159.688C30.224 159.592 29.392 159.464 28.528 159.304C27.696 159.144 26.928 158.92 26.224 158.632C25.552 158.376 24.992 158.04 24.544 157.624C24.096 157.24 23.872 156.776 23.872 156.232ZM35.152 137.464L34.624 137.896L34.672 137.992H34.864L35.104 137.704C35.104 137.672 35.104 137.64 35.104 137.608C35.136 137.576 35.152 137.528 35.152 137.464ZM39.568 136.168V135.4C39.568 134.792 39.504 134.248 39.376 133.768L39.136 133.672C38.464 134.088 37.84 134.664 37.264 135.4C36.688 136.104 36.08 136.728 35.44 137.272C35.504 137.304 35.6 137.352 35.728 137.416C35.856 137.448 35.952 137.464 36.016 137.464C36.176 137.464 36.448 137.432 36.832 137.368C37.216 137.304 37.616 137.208 38.032 137.08C38.448 136.952 38.8 136.824 39.088 136.696C39.408 136.536 39.568 136.36 39.568 136.168ZM28.096 146.488L28.528 146.056C28.496 146.184 28.528 146.28 28.624 146.344C28.752 146.376 28.864 146.36 28.96 146.296C29.184 146.36 29.392 146.44 29.584 146.536C29.808 146.6 30.048 146.632 30.304 146.632L30.448 146.44L31.024 146.344L31.408 146.488C31.6 146.488 31.824 146.408 32.08 146.248C32.336 146.088 32.576 145.912 32.8 145.72C33.056 145.496 33.296 145.272 33.52 145.048C33.744 144.824 33.92 144.632 34.048 144.472C34.432 144.696 34.88 144.92 35.392 145.144C35.936 145.368 36.464 145.608 36.976 145.864C37.488 146.12 37.92 146.424 38.272 146.776C38.624 147.096 38.832 147.48 38.896 147.928C38.8 148.184 38.576 148.44 38.224 148.696C37.872 148.952 37.472 149.192 37.024 149.416C36.576 149.672 36.128 149.864 35.68 149.992C35.264 150.152 34.928 150.232 34.672 150.232C34.32 150.232 34.048 150.152 33.856 149.992C33.696 149.864 33.504 149.8 33.28 149.8V149.848C33.088 150.104 32.784 150.28 32.368 150.376C31.984 150.504 31.648 150.568 31.36 150.568C30.944 150.568 30.528 150.44 30.112 150.184C29.728 149.96 29.376 149.656 29.056 149.272C28.768 148.92 28.528 148.52 28.336 148.072C28.176 147.624 28.096 147.208 28.096 146.824V146.488ZM12.592 142.84L12.88 142.024C13.008 141.896 13.136 141.48 13.264 140.776C13.424 140.072 13.568 139.288 13.696 138.424C13.824 137.56 13.92 136.728 13.984 135.928C14.08 135.128 14.128 134.6 14.128 134.344C14.128 134.056 14.112 133.768 14.08 133.48C14.08 133.16 14.032 132.872 13.936 132.616H13.888C13.632 133.16 13.248 133.608 12.736 133.96C12.224 134.312 11.664 134.488 11.056 134.488C10.512 134.488 10 134.344 9.52 134.056C9.072 133.736 8.672 133.336 8.32 132.856C8 132.376 7.744 131.864 7.552 131.32C7.36 130.744 7.264 130.216 7.264 129.736C7.84 129.672 8.384 129.624 8.896 129.592C9.408 129.56 9.952 129.464 10.528 129.304C10.944 129.016 11.344 128.728 11.728 128.44C12.144 128.152 12.544 127.848 12.928 127.528C13.664 127.976 14.384 128.392 15.088 128.776C15.824 129.128 16.608 129.416 17.44 129.64L17.824 129.928C18.208 130.664 18.464 131.432 18.592 132.232C18.752 133.032 18.832 133.848 18.832 134.68C18.832 135.608 18.784 136.536 18.688 137.464C18.592 138.392 18.544 139.32 18.544 140.248C18.544 140.344 18.56 140.456 18.592 140.584C18.624 140.68 18.656 140.776 18.688 140.872L18.88 141.016H19.024C19.12 141.016 19.2 140.984 19.264 140.92C19.36 140.824 19.456 140.728 19.552 140.632C19.68 140.536 19.824 140.456 19.984 140.392C20.144 140.296 20.368 140.248 20.656 140.248L20.704 140.152L20.608 139.624C20.736 139.624 20.832 139.64 20.896 139.672L21.472 139.48L21.376 138.856H21.76C21.856 138.216 21.968 137.864 22.096 137.8C22.256 137.736 22.56 137.704 23.008 137.704V137.56L23.056 137.128C23.12 136.936 23.248 136.712 23.44 136.456C23.632 136.168 23.808 135.976 23.968 135.88C24.096 135.88 24.304 135.912 24.592 135.976C24.912 136.04 25.072 136.168 25.072 136.36C25.072 136.424 24.896 136.664 24.544 137.08C24.224 137.496 23.856 137.96 23.44 138.472C23.056 138.984 22.672 139.448 22.288 139.864C21.904 140.28 21.664 140.52 21.568 140.584C21.024 140.936 20.56 141.432 20.176 142.072C19.824 142.712 19.488 143.368 19.168 144.04C18.848 144.712 18.528 145.336 18.208 145.912C17.92 146.488 17.584 146.888 17.2 147.112C17.008 147.208 16.8 147.272 16.576 147.304C16.352 147.336 16.144 147.352 15.952 147.352C15.44 147.352 14.976 147.208 14.56 146.92C14.176 146.6 13.84 146.216 13.552 145.768C13.264 145.288 13.04 144.792 12.88 144.28C12.72 143.768 12.624 143.288 12.592 142.84ZM10.144 118.792L10.192 118.456L10.336 118.264L10.576 118.216C10.736 118.216 10.88 118.28 11.008 118.408C11.136 118.536 11.232 118.648 11.296 118.744C12.16 119.16 13.104 119.576 14.128 119.992C15.152 120.408 16.064 120.856 16.864 121.336C17.088 121.464 17.248 121.72 17.344 122.104C17.44 122.456 17.504 122.76 17.536 123.016C17.504 123.24 17.392 123.464 17.2 123.688C17.008 123.912 16.784 124.12 16.528 124.312C16.272 124.504 16 124.664 15.712 124.792C15.456 124.888 15.216 124.936 14.992 124.936C14.576 124.936 14.08 124.696 13.504 124.216C12.96 123.704 12.432 123.112 11.92 122.44C11.44 121.768 11.024 121.096 10.672 120.424C10.32 119.72 10.144 119.176 10.144 118.792Z" fill="black"/>
<path d="M17.344 182.024L17.632 181.928C17.952 182.248 18.288 182.456 18.64 182.552C19.024 183 19.376 183.304 19.696 183.464C20.048 183.592 20.368 183.672 20.656 183.704C20.944 183.736 21.2 183.768 21.424 183.8C21.648 183.8 21.84 183.896 22 184.088C22.192 184.248 22.32 184.536 22.384 184.952C22.48 185.368 22.528 185.992 22.528 186.824C22.528 187.176 22.688 187.784 23.008 188.648C23.36 189.48 23.76 190.344 24.208 191.24C24.688 192.136 25.168 192.968 25.648 193.736C26.128 194.472 26.528 194.904 26.848 195.032C26.912 195.032 26.992 195.016 27.088 194.984C27.216 194.952 27.312 194.936 27.376 194.936C27.632 194.936 27.84 195 28 195.128C28.192 195.256 28.416 195.336 28.672 195.368L29.248 195.128L29.488 195.416L29.536 195.368C30.4 195.048 31.264 194.888 32.128 194.888C33.024 194.856 33.936 194.824 34.864 194.792C35.792 194.728 36.736 194.568 37.696 194.312C38.656 194.056 39.648 193.544 40.672 192.776C40.128 192.104 39.52 191.416 38.848 190.712C38.176 189.976 37.456 189.384 36.688 188.936C35.856 188.456 34.944 188.152 33.952 188.024C32.992 187.864 32.08 187.656 31.216 187.4C30.352 187.144 29.632 186.696 29.056 186.056C28.48 185.416 28.192 184.36 28.192 182.888C28.192 182.824 28.208 182.728 28.24 182.6C28.304 182.472 28.352 182.376 28.384 182.312C29.152 182.504 29.872 182.824 30.544 183.272C31.216 183.688 31.936 184.008 32.704 184.232C33.312 184.232 33.824 184.104 34.24 183.848C34.656 183.56 34.992 183.208 35.248 182.792C35.536 182.376 35.76 181.912 35.92 181.4C36.08 180.856 36.208 180.344 36.304 179.864L36.4 179.72C36.496 179.656 36.608 179.608 36.736 179.576C36.864 179.512 36.976 179.48 37.072 179.48L37.408 179.528C37.696 179.784 38.192 179.96 38.896 180.056C39.6 180.12 40.352 180.152 41.152 180.152C41.952 180.152 42.72 180.136 43.456 180.104C44.224 180.072 44.8 180.056 45.184 180.056C45.952 180.056 46.608 180.136 47.152 180.296C47.696 180.456 48.208 180.648 48.688 180.872C49.168 181.096 49.648 181.32 50.128 181.544C50.608 181.768 51.184 181.928 51.856 182.024C52.176 182.184 52.352 182.424 52.384 182.744C52.448 183.064 52.48 183.368 52.48 183.656L52.096 184.664C52.032 184.696 51.632 184.84 50.896 185.096C50.192 185.32 49.376 185.576 48.448 185.864C47.552 186.12 46.688 186.376 45.856 186.632C45.056 186.856 44.544 187 44.32 187.064C44.032 187.16 43.728 187.32 43.408 187.544C43.088 187.768 42.768 188.008 42.448 188.264C42.128 188.488 41.808 188.696 41.488 188.888C41.2 189.08 40.944 189.176 40.72 189.176L40.48 189.128L40.096 188.456L40.144 188.216L40.336 187.976C40.912 187.688 41.392 187.416 41.776 187.16C42.16 186.904 42.704 186.776 43.408 186.776V186.2L43.6 185.912C43.792 185.912 43.968 185.848 44.128 185.72C44.32 185.56 44.4 185.368 44.368 185.144L45.04 184.856C45.008 184.792 44.768 184.728 44.32 184.664C43.904 184.6 43.424 184.552 42.88 184.52C42.368 184.488 41.856 184.472 41.344 184.472C40.864 184.44 40.56 184.424 40.432 184.424L40 184.472C39.808 184.568 39.6 184.76 39.376 185.048C39.184 185.304 38.992 185.592 38.8 185.912C38.608 186.232 38.432 186.552 38.272 186.872C38.144 187.192 38.048 187.464 37.984 187.688C38.4 188.136 39.04 188.696 39.904 189.368C40.8 190.008 41.696 190.696 42.592 191.432C43.52 192.136 44.32 192.84 44.992 193.544C45.696 194.248 46.048 194.888 46.048 195.464L46 195.752C45.84 196.072 45.632 196.328 45.376 196.52C45.12 196.712 44.832 196.872 44.512 197C43.776 197.256 42.96 197.384 42.064 197.384C41.2 197.352 40.384 197.384 39.616 197.48C38.72 197.608 37.84 197.784 36.976 198.008C36.144 198.2 35.296 198.392 34.432 198.584C33.6 198.776 32.752 198.952 31.888 199.112C31.024 199.24 30.128 199.304 29.2 199.304C28.848 199.304 28.512 199.24 28.192 199.112C27.904 198.952 27.584 198.824 27.232 198.728C26.336 198.472 25.6 198.232 25.024 198.008C24.48 197.752 24 197.448 23.584 197.096C23.2 196.744 22.848 196.312 22.528 195.8C22.208 195.288 21.84 194.616 21.424 193.784C21.168 193.272 20.8 192.488 20.32 191.432C19.84 190.376 19.36 189.272 18.88 188.12C18.432 186.968 18.032 185.88 17.68 184.856C17.36 183.8 17.2 183.032 17.2 182.552C17.2 182.36 17.248 182.184 17.344 182.024ZM8.512 188.264V186.776C8.512 186.392 8.448 186.024 8.32 185.672C8.192 185.32 8.128 184.952 8.128 184.568L8.176 183.992L8.32 183.704H8.464C8.784 183.864 9.168 184.04 9.616 184.232C10.096 184.392 10.56 184.584 11.008 184.808C11.456 185.032 11.872 185.272 12.256 185.528C12.64 185.784 12.928 186.072 13.12 186.392L13.216 187.208C13.056 187.688 12.864 188.168 12.64 188.648C12.416 189.096 12.272 189.592 12.208 190.136C12.176 190.2 12.192 190.248 12.256 190.28C12.32 190.312 12.352 190.296 12.352 190.232L12.736 190.52C12.8 190.424 12.832 190.312 12.832 190.184C12.832 190.056 12.848 189.928 12.88 189.8L13.072 189.56H13.36C13.68 189.56 14.096 189.72 14.608 190.04C15.12 190.36 15.456 190.648 15.616 190.904L15.568 191.384C15.216 191.96 14.896 192.552 14.608 193.16C14.32 193.736 14.048 194.344 13.792 194.984C13.824 195.304 13.728 195.608 13.504 195.896C13.312 196.152 13.104 196.376 12.88 196.568C12.816 196.6 12.688 196.648 12.496 196.712C12.336 196.776 12.224 196.808 12.16 196.808H11.056C10.256 196.808 9.664 196.456 9.28 195.752C8.928 195.048 8.688 194.232 8.56 193.304C8.464 192.344 8.432 191.4 8.464 190.472C8.496 189.512 8.512 188.776 8.512 188.264Z" fill="black"/>
</svg>
