<svg width="501" height="146" viewBox="0 0 501 146" fill="none" xmlns="http://www.w3.org/2000/svg">
<path d="M44.4804 124.76L44.6084 123.736L44.9924 123.608C47.4671 124.291 49.6004 124.888 51.3924 125.4C53.2697 125.912 55.5737 126.168 58.3044 126.168C59.3284 126.168 60.3097 126.168 61.2484 126.168C62.2724 126.168 63.2964 126.125 64.3204 126.04L64.5764 125.784L75.9684 121.176C76.1391 120.749 76.3097 120.536 76.4804 120.536C76.7364 120.621 77.0351 120.664 77.3764 120.664C79.0831 120.664 80.4484 119.853 81.4724 118.232C82.5817 116.696 83.4777 114.691 84.1604 112.216C84.8431 109.741 85.3124 106.968 85.5684 103.896C85.9097 100.909 86.1231 98.008 86.2084 95.192C86.2937 92.2907 86.2937 89.688 86.2084 87.384C86.2084 84.9947 86.2084 83.2454 86.2084 82.136C86.2084 81.624 86.1657 81.112 86.0804 80.6C86.0804 80.0027 86.0377 79.448 85.9524 78.936H85.6964C84.3311 78.936 82.6671 79.4054 80.7044 80.344C78.7417 81.2827 76.7364 82.3067 74.6884 83.416C72.6404 84.44 70.6351 85.4214 68.6724 86.36C66.7097 87.2987 65.0457 87.768 63.6804 87.768C62.4004 87.768 61.2484 87.384 60.2244 86.616C59.2004 85.848 58.3471 84.9094 57.6644 83.8C57.0671 82.6054 56.5977 81.368 56.2564 80.088C55.9151 78.7227 55.7444 77.4854 55.7444 76.376V75.864C56.0857 75.864 56.8111 75.7787 57.9204 75.608C59.0297 75.4374 60.139 75.224 61.2484 74.968C62.3577 74.6267 63.3391 74.2854 64.1924 73.944C65.0457 73.6027 65.4297 73.2614 65.3444 72.92L65.8564 72.024L68.2884 70.488C68.8857 70.4027 69.3124 70.1894 69.5684 69.848C69.9097 69.4214 70.2084 69.0374 70.4644 68.696C70.7204 68.2694 71.0191 67.928 71.3604 67.672C71.787 67.3307 72.3417 67.16 73.0244 67.16L73.4084 66.392L74.8164 65.88C75.4991 65.9654 76.0964 66.1787 76.6084 66.52C77.1204 66.776 77.6751 67.032 78.2724 67.288L78.1444 64.728C78.6564 64.3867 79.4244 63.96 80.4484 63.448C81.5577 62.8507 82.6671 62.2107 83.7764 61.528C84.8857 60.8454 85.8671 60.12 86.7204 59.352C87.5737 58.584 88.0004 57.8587 88.0004 57.176H87.8724C87.1897 57.176 86.5497 57.304 85.9524 57.56C85.4404 57.816 84.8431 57.944 84.1604 57.944C81.9417 57.944 79.7657 57.5174 77.6324 56.664C75.4991 55.7254 73.3231 55.256 71.1044 55.256C69.5684 55.256 68.2031 55.5974 67.0084 56.28C65.8991 56.9627 64.7897 57.688 63.6804 58.456C62.5711 59.224 61.3764 59.9494 60.0964 60.632C58.9017 61.3147 57.5364 61.656 56.0004 61.656C54.6351 61.656 53.3977 61.3147 52.2884 60.632C51.2644 59.864 50.3684 58.9254 49.6004 57.816C48.8324 56.7067 48.2351 55.512 47.8084 54.232C47.467 52.8667 47.2964 51.5867 47.2964 50.392L47.6804 49.368C48.7044 48.9414 50.1551 48.728 52.0324 48.728C53.995 48.6427 56.0004 48.6 58.0484 48.6C60.0964 48.6 61.9737 48.5574 63.6804 48.472C65.4724 48.3867 66.7097 48.1307 67.3924 47.704H69.6964C70.7204 47.2774 71.9151 46.8507 73.2804 46.424C74.6457 45.912 75.8831 45.656 76.9924 45.656L78.0164 45.272C78.2724 45.016 78.7844 43.9494 79.5524 42.072C80.4057 40.1947 81.2591 38.1894 82.1124 36.056C83.0511 33.8374 83.8617 31.7894 84.5444 29.912C85.2271 28.0347 85.5684 26.968 85.5684 26.712L85.3124 26.456L84.6724 26.328C83.4777 26.6694 82.3257 27.1387 81.2164 27.736C80.1071 28.3334 78.9977 28.9734 77.8884 29.656C76.7791 30.2534 75.6271 30.808 74.4324 31.32C73.3231 31.7467 72.1284 31.96 70.8484 31.96C69.1417 31.96 67.6911 31.5334 66.4964 30.68C65.3017 29.8267 64.3204 28.76 63.5524 27.48C62.7844 26.2 62.187 24.792 61.7604 23.256C61.419 21.72 61.2484 20.2267 61.2484 18.776C61.2484 18.6054 61.2911 18.3494 61.3764 18.008C61.5471 17.5814 61.6751 17.2827 61.7604 17.112H62.0164C62.5284 17.112 62.9124 17.2827 63.1684 17.624C63.5097 17.9654 63.979 18.136 64.5764 18.136L64.4484 18.392C64.4484 18.7334 64.9177 19.1174 65.8564 19.544C66.795 19.8854 67.8617 20.2267 69.0564 20.568C70.2511 20.9094 71.3604 21.208 72.3844 21.464C73.4937 21.6347 74.2191 21.72 74.5604 21.72C74.9017 21.72 75.5844 21.6774 76.6084 21.592C77.7177 21.5067 78.8271 21.4214 79.9364 21.336C81.1311 21.1654 82.1551 20.9947 83.0084 20.824C83.9471 20.568 84.4164 20.2694 84.4164 19.928C84.4164 19.5867 83.8617 18.8614 82.7524 17.752C81.6431 16.6427 80.4057 15.32 79.0404 13.784C77.7604 12.248 76.5657 10.5414 75.4564 8.66402C74.3471 6.70136 73.7924 4.73869 73.7924 2.77602C73.7924 2.52003 73.8777 2.13603 74.0484 1.62402L74.8164 1.11202L76.6084 1.49603C76.6937 1.32536 76.8644 1.19736 77.1204 1.11202C77.4617 1.02669 77.7177 0.984024 77.8884 0.984024C77.9737 0.984024 78.1871 1.06936 78.5284 1.24003C78.8697 1.32536 79.211 1.45336 79.5524 1.62402C79.979 1.70936 80.363 1.83736 80.7044 2.00803C81.1311 2.17869 81.3871 2.26402 81.4724 2.26402C81.8991 2.43469 82.6244 2.77603 83.6484 3.28802C84.7577 3.71469 85.8671 4.18403 86.9764 4.69603C88.1711 5.20803 89.2377 5.72003 90.1764 6.23203C91.1151 6.65869 91.7124 7.00003 91.9684 7.25603C92.9071 8.19469 93.5471 9.30402 93.8884 10.584C94.3151 11.7787 94.8271 12.9734 95.4244 14.168C96.0217 15.2774 96.8751 16.2587 97.9844 17.112C99.1791 17.88 101.014 18.264 103.488 18.264C104.342 18.6907 104.811 19.4587 104.896 20.568C105.067 21.592 105.152 22.5307 105.152 23.384L103.872 24.92C102.166 25.688 100.374 25.9867 98.4964 25.816C96.7044 25.6454 94.9551 25.816 93.2484 26.328L92.7364 26.84L92.8644 27.864C92.8644 30.168 92.5231 32.5147 91.8404 34.904C91.2431 37.208 90.9444 39.5547 90.9444 41.944V42.072L91.5844 42.328C92.4377 42.328 93.1631 41.9867 93.7604 41.304C94.3577 40.536 95.1684 40.152 96.1924 40.152C96.9604 39.896 97.7284 39.64 98.4964 39.384C99.3497 39.0427 100.118 38.6587 100.8 38.232C101.568 37.8054 102.166 37.336 102.592 36.824C103.104 36.2267 103.403 35.4587 103.488 34.52L104 33.752H104.896C106.859 34.6907 108.608 35.672 110.144 36.696C111.68 37.6347 113.558 38.3174 115.776 38.744C116.374 39.1707 116.8 39.768 117.056 40.536C117.312 41.2187 117.44 41.9014 117.44 42.584C117.44 42.7547 117.355 43.0107 117.184 43.352C117.099 43.6934 117.014 43.9494 116.928 44.12C115.648 45.4 113.984 46.5094 111.936 47.448C109.974 48.3014 107.883 49.24 105.664 50.264C103.446 51.2027 101.184 52.2694 98.8804 53.464C96.6617 54.6587 94.6564 56.152 92.8644 57.944L91.9684 57.688L91.2004 56.792C91.0297 56.4507 90.9444 56.152 90.9444 55.896C90.9444 55.4694 91.2857 54.8294 91.9684 53.976C92.6511 53.0374 93.4191 52.056 94.2724 51.032C95.2111 50.008 96.1071 49.0267 96.9604 48.088C97.8991 47.1494 98.5391 46.3814 98.8804 45.784L98.2404 45.528C97.5577 45.528 96.8751 45.656 96.1924 45.912C95.5097 46.0827 94.7844 46.2534 94.0164 46.424C93.3337 46.5947 92.6084 46.7227 91.8404 46.808C91.1577 46.8934 90.5177 46.8507 89.9204 46.68L89.4084 47.064C89.2377 47.576 89.1524 48.0454 89.1524 48.472C89.1524 49.8374 89.1524 51.2027 89.1524 52.568C89.2377 53.848 89.3231 55.1707 89.4084 56.536C89.5791 56.792 89.9631 57.048 90.5604 57.304C91.1577 57.4747 91.4564 57.688 91.4564 57.944C91.4564 58.6267 91.1151 59.2667 90.4324 59.864C89.7497 60.4614 89.1951 60.9734 88.7684 61.4C89.8777 61.9974 91.0297 62.552 92.2244 63.064C93.4191 63.4907 94.6564 63.704 95.9364 63.704C96.5337 63.704 97.0457 63.6187 97.4724 63.448C97.9844 63.2774 98.5391 63.064 99.1364 62.808C99.6484 63.4907 100.459 63.832 101.568 63.832C101.654 64.088 102.123 64.472 102.976 64.984C103.83 65.4107 104.768 65.88 105.792 66.392C106.902 66.904 107.926 67.3307 108.864 67.672C109.803 68.0134 110.4 68.1414 110.656 68.056L111.296 68.696C111.467 69.2934 111.68 69.8907 111.936 70.488C112.192 71 112.32 71.5974 112.32 72.28C112.32 72.7067 112.278 73.0907 112.192 73.432C111.51 74.2 110.571 74.7547 109.376 75.096C108.267 75.352 107.2 75.48 106.176 75.48C105.408 75.48 104.64 75.3947 103.872 75.224C103.19 74.968 102.507 74.7547 101.824 74.584L100.416 74.84C100.246 75.5227 100.118 76.4187 100.032 77.528C100.032 78.552 100.032 79.6614 100.032 80.856C100.118 82.0507 100.203 83.2027 100.288 84.312C100.374 85.4214 100.416 86.36 100.416 87.128C100.416 93.6134 100.118 100.056 99.5204 106.456C99.0084 112.856 98.2831 119.256 97.3444 125.656L96.7044 126.424C94.4857 127.619 92.3097 128.899 90.1764 130.264C88.0431 131.715 85.9097 133.165 83.7764 134.616H74.0484C73.0244 134.616 71.5737 134.573 69.6964 134.488C67.8191 134.403 65.7711 134.232 63.5524 133.976C61.4191 133.72 59.2004 133.379 56.8964 132.952C54.6777 132.525 52.6297 131.928 50.7524 131.16C48.9604 130.477 47.4671 129.581 46.2724 128.472C45.0777 127.448 44.4804 126.211 44.4804 124.76ZM74.5604 74.712L73.1524 75.864L73.2804 76.12H73.7924L74.4324 75.352C74.4324 75.2667 74.4324 75.1814 74.4324 75.096C74.5177 75.0107 74.5604 74.8827 74.5604 74.712ZM86.3364 71.256V69.208C86.3364 67.5867 86.1657 66.136 85.8244 64.856L85.1844 64.6C83.3924 65.7094 81.7284 67.2454 80.1924 69.208C78.6564 71.0854 77.035 72.7494 75.3284 74.2C75.4991 74.2854 75.7551 74.4134 76.0964 74.584C76.4377 74.6694 76.6937 74.712 76.8644 74.712C77.2911 74.712 78.0164 74.6267 79.0404 74.456C80.0644 74.2854 81.1311 74.0294 82.2404 73.688C83.3497 73.3467 84.2884 73.0054 85.0564 72.664C85.9097 72.2374 86.3364 71.768 86.3364 71.256ZM55.7444 98.776L56.8964 97.624C56.8111 97.9654 56.8964 98.2214 57.1524 98.392C57.4937 98.4774 57.7924 98.4347 58.0484 98.264C58.6457 98.4347 59.2004 98.648 59.7124 98.904C60.3097 99.0747 60.9497 99.16 61.6324 99.16L62.0164 98.648L63.5524 98.392L64.5764 98.776C65.0884 98.776 65.6857 98.5627 66.3684 98.136C67.0511 97.7094 67.6911 97.24 68.2884 96.728C68.9711 96.1307 69.6111 95.5334 70.2084 94.936C70.8057 94.3387 71.2751 93.8267 71.6164 93.4C72.6404 93.9974 73.835 94.5947 75.2004 95.192C76.6511 95.7894 78.0591 96.4294 79.4244 97.112C80.7897 97.7947 81.9417 98.6054 82.8804 99.544C83.8191 100.397 84.3737 101.421 84.5444 102.616C84.2884 103.299 83.6911 103.981 82.7524 104.664C81.8137 105.347 80.747 105.987 79.5524 106.584C78.3577 107.267 77.1631 107.779 75.9684 108.12C74.859 108.547 73.9631 108.76 73.2804 108.76C72.3417 108.76 71.6164 108.547 71.1044 108.12C70.6777 107.779 70.1657 107.608 69.5684 107.608V107.736C69.0564 108.419 68.2457 108.888 67.1364 109.144C66.1124 109.485 65.2164 109.656 64.4484 109.656C63.3391 109.656 62.2297 109.315 61.1204 108.632C60.0964 108.035 59.1577 107.224 58.3044 106.2C57.5364 105.261 56.8964 104.195 56.3844 103C55.9577 101.805 55.7444 100.696 55.7444 99.672V98.776ZM14.4004 89.048L15.1684 86.872C15.5097 86.5307 15.851 85.4214 16.1924 83.544C16.619 81.6667 17.003 79.576 17.3444 77.272C17.6857 74.968 17.9417 72.7494 18.1124 70.616C18.3684 68.4827 18.4964 67.0747 18.4964 66.392C18.4964 65.624 18.4537 64.856 18.3684 64.088C18.3684 63.2347 18.2404 62.4667 17.9844 61.784H17.8564C17.1737 63.2347 16.1497 64.4294 14.7844 65.368C13.419 66.3067 11.9257 66.776 10.3044 66.776C8.85372 66.776 7.48838 66.392 6.20838 65.624C5.01372 64.7707 3.94705 63.704 3.00838 62.424C2.15505 61.144 1.47238 59.7787 0.960382 58.328C0.448383 56.792 0.192383 55.384 0.192383 54.104C1.72838 53.9334 3.17905 53.8054 4.54438 53.72C5.90972 53.6347 7.36038 53.3787 8.89638 52.952C10.0057 52.184 11.0724 51.416 12.0964 50.648C13.2057 49.88 14.2724 49.0694 15.2964 48.216C17.2591 49.4107 19.1791 50.52 21.0564 51.544C23.0191 52.4827 25.1097 53.2507 27.3284 53.848L28.3524 54.616C29.3764 56.5787 30.059 58.6267 30.4004 60.76C30.827 62.8934 31.0404 65.0694 31.0404 67.288C31.0404 69.7627 30.9124 72.2374 30.6564 74.712C30.4004 77.1867 30.2724 79.6614 30.2724 82.136C30.2724 82.392 30.3151 82.6907 30.4004 83.032C30.4857 83.288 30.5711 83.544 30.6564 83.8L31.1684 84.184H31.5524C31.8084 84.184 32.0217 84.0987 32.1924 83.928C32.4484 83.672 32.7044 83.416 32.9604 83.16C33.3017 82.904 33.6857 82.6907 34.1124 82.52C34.5391 82.264 35.1364 82.136 35.9044 82.136L36.0324 81.88L35.7764 80.472C36.1177 80.472 36.3737 80.5147 36.5444 80.6L38.0804 80.088L37.8244 78.424H38.8484C39.1044 76.7174 39.4031 75.7787 39.7444 75.608C40.1711 75.4374 40.9817 75.352 42.1764 75.352V74.968L42.3044 73.816C42.475 73.304 42.8164 72.7067 43.3284 72.024C43.8404 71.256 44.3097 70.744 44.7364 70.488C45.0777 70.488 45.6324 70.5734 46.4004 70.744C47.2537 70.9147 47.6804 71.256 47.6804 71.768C47.6804 71.9387 47.2111 72.5787 46.2724 73.688C45.4191 74.7974 44.4377 76.0347 43.3284 77.4C42.3044 78.7654 41.2804 80.0027 40.2564 81.112C39.2324 82.2214 38.5924 82.8614 38.3364 83.032C36.8857 83.9707 35.6484 85.2934 34.6244 87C33.6857 88.7067 32.7897 90.456 31.9364 92.248C31.083 94.04 30.2297 95.704 29.3764 97.24C28.6084 98.776 27.7124 99.8427 26.6884 100.44C26.1764 100.696 25.6217 100.867 25.0244 100.952C24.4271 101.037 23.8724 101.08 23.3604 101.08C21.995 101.08 20.7577 100.696 19.6484 99.928C18.6244 99.0747 17.7284 98.0507 16.9604 96.856C16.1924 95.576 15.595 94.2534 15.1684 92.888C14.7417 91.5227 14.4857 90.2427 14.4004 89.048ZM7.87238 24.92L8.00038 24.024L8.38438 23.512L9.02438 23.384C9.45105 23.384 9.83505 23.5547 10.1764 23.896C10.5177 24.2374 10.7737 24.536 10.9444 24.792C13.2484 25.9014 15.7657 27.0107 18.4964 28.12C21.227 29.2294 23.659 30.424 25.7924 31.704C26.3897 32.0454 26.8164 32.728 27.0724 33.752C27.3284 34.6907 27.4991 35.5014 27.5844 36.184C27.4991 36.7814 27.2004 37.3787 26.6884 37.976C26.1764 38.5734 25.579 39.128 24.8964 39.64C24.2137 40.152 23.4884 40.5787 22.7204 40.92C22.0377 41.176 21.3977 41.304 20.8004 41.304C19.6911 41.304 18.3684 40.664 16.8324 39.384C15.3817 38.0187 13.9737 36.44 12.6084 34.648C11.3284 32.856 10.2191 31.064 9.28038 29.272C8.34172 27.3947 7.87238 25.944 7.87238 24.92Z" fill="#747474"/>
<path d="M211.904 70.616C211.904 64.3014 212.118 58.072 212.544 51.928C212.971 45.6987 213.184 39.4267 213.184 33.112C213.184 30.8934 213.014 29.144 212.672 27.864C212.331 26.584 211.734 25.6454 210.88 25.048C210.112 24.3654 209.046 23.9387 207.68 23.768C206.4 23.5974 204.822 23.512 202.944 23.512C201.408 23.512 200.043 23.1707 198.848 22.488C197.654 21.72 196.374 21.336 195.008 21.336C193.643 21.336 191.894 22.0187 189.76 23.384C187.712 24.7494 185.579 26.328 183.36 28.12C181.142 29.912 179.008 31.704 176.96 33.496C174.998 35.288 173.419 36.6107 172.224 37.464C171.968 38.3174 171.584 38.9574 171.072 39.384C170.646 39.7254 170.176 40.024 169.664 40.28C169.238 40.536 168.854 40.8347 168.512 41.176C168.171 41.432 168.086 41.816 168.256 42.328L162.496 51.032L161.472 52.568L160.832 52.696L160.064 52.312L159.04 50.648L162.752 44.888C163.691 44.5467 164.16 44.0347 164.16 43.352C164.246 42.584 164.288 41.816 164.288 41.048V40.024L164.928 39.896L167.232 40.792L167.36 40.664C166.934 40.152 166.592 39.2134 166.336 37.848C166.166 36.3974 165.995 34.8187 165.824 33.112C165.739 31.4054 165.654 29.784 165.568 28.248C165.568 26.6267 165.568 25.432 165.568 24.664C165.995 23.8107 166.848 23.0854 168.128 22.488C169.494 21.8907 170.944 21.4214 172.48 21.08C174.016 20.7387 175.51 20.5254 176.96 20.44C178.496 20.2694 179.734 20.184 180.672 20.184C181.611 19.16 182.635 18.6907 183.744 18.776C183.659 19.032 183.702 19.2454 183.872 19.416C184.128 19.5014 184.342 19.544 184.512 19.544C184.939 19.544 185.11 19.288 185.024 18.776C184.939 18.264 185.11 17.9227 185.536 17.752C186.56 17.24 187.456 16.984 188.224 16.984C189.078 16.984 189.803 16.8987 190.4 16.728C190.998 16.5574 191.467 16.1307 191.808 15.448C192.15 14.7654 192.363 13.4427 192.448 11.48L192.96 10.712H194.112C196.758 10.712 198.976 10.968 200.768 11.48C202.646 11.992 204.352 12.632 205.888 13.4C207.51 14.0827 209.131 14.8507 210.752 15.704C212.374 16.472 214.294 17.112 216.512 17.624C218.56 19.0747 220.224 20.8667 221.504 23C222.784 25.1334 223.766 27.4374 224.448 29.912C225.131 32.3014 225.558 34.8187 225.728 37.464C225.984 40.024 226.112 42.456 226.112 44.76C226.112 49.88 225.814 54.9574 225.216 59.992C224.619 65.0267 224.32 70.104 224.32 75.224C224.32 79.32 224.363 83.544 224.448 87.896C224.619 92.248 225.216 96.4294 226.24 100.44L228.544 103.384C229.824 103.64 231.104 103.853 232.384 104.024C233.75 104.195 235.072 104.28 236.352 104.28C237.291 104.28 238.187 104.024 239.04 103.512C239.894 103 240.747 102.616 241.6 102.36C242.368 101.763 243.136 101.165 243.904 100.568C244.672 99.9707 245.056 99.1174 245.056 98.008C245.056 96.3867 244.288 94.8934 242.752 93.528C241.216 92.0774 239.424 90.712 237.376 89.432C235.414 88.0667 233.451 86.7867 231.488 85.592C229.611 84.312 228.246 82.9467 227.392 81.496L227.136 80.088L227.392 79.704C228.928 79.7894 230.72 80.344 232.768 81.368C234.902 82.3067 237.078 83.5867 239.296 85.208C241.6 86.744 243.862 88.536 246.08 90.584C248.384 92.632 250.39 94.68 252.096 96.728C253.888 98.776 255.339 100.781 256.448 102.744C257.558 104.707 258.112 106.456 258.112 107.992L257.984 109.656C257.558 110.851 256.619 111.832 255.168 112.6C253.803 113.453 252.267 114.136 250.56 114.648C248.854 115.16 247.147 115.501 245.44 115.672C243.734 115.928 242.326 116.056 241.216 116.056C233.878 116.056 228.203 114.733 224.192 112.088C220.267 109.528 217.366 106.115 215.488 101.848C213.696 97.5814 212.63 92.76 212.288 87.384C212.032 81.9227 211.904 76.3334 211.904 70.616ZM123.968 79.704C124.992 79.3627 126.187 78.9787 127.552 78.552C128.918 78.04 130.24 77.4854 131.52 76.888C132.886 76.2907 134.123 75.608 135.232 74.84C136.427 74.072 137.323 73.176 137.92 72.152L138.56 72.408L139.072 72.92H139.2L139.072 72.792V72.28L139.968 70.616C140.054 67.9707 140.139 65.368 140.224 62.808C140.31 60.248 140.352 57.6454 140.352 55C140.352 52.952 139.968 51.2027 139.2 49.752C138.518 48.216 137.707 46.808 136.768 45.528C135.915 44.1627 135.104 42.84 134.336 41.56C133.654 40.28 133.312 38.8294 133.312 37.208L133.952 35.8L134.592 35.672C135.19 36.3547 136.043 36.952 137.152 37.464C138.347 37.976 139.371 38.488 140.224 39L140.352 39.256C141.291 39.9387 142.315 40.3227 143.424 40.408C144.619 40.4934 145.686 40.792 146.624 41.304C147.307 41.6454 147.776 42.7547 148.032 44.632C148.374 46.424 148.587 48.472 148.672 50.776C148.843 52.9947 148.886 55.128 148.8 57.176C148.8 59.224 148.8 60.632 148.8 61.4H149.44L150.72 62.168L150.336 60.888L150.464 59.992L150.848 59.352C151.36 59.2667 151.83 59.0107 152.256 58.584C152.683 58.072 153.067 57.56 153.408 57.048C153.835 56.536 154.219 56.1094 154.56 55.768C154.987 55.4267 155.414 55.384 155.84 55.64C156.011 54.9574 156.224 54.36 156.48 53.848C156.736 53.336 157.291 53.08 158.144 53.08L160.192 53.848L160.576 54.36V54.744L160.064 54.872C157.504 58.2 155.2 60.9734 153.152 63.192C151.104 65.3254 149.398 67.544 148.032 69.848C146.667 72.0667 145.6 74.6267 144.832 77.528C144.15 80.344 143.808 84.056 143.808 88.664C143.808 91.224 144.15 93.7414 144.832 96.216C145.515 98.6907 145.856 101.165 145.856 103.64C145.856 104.92 145.216 105.816 143.936 106.328C142.656 106.925 141.504 107.224 140.48 107.224C139.115 107.224 137.792 106.669 136.512 105.56C135.232 104.536 133.995 103.213 132.8 101.592C131.606 99.8854 130.454 98.008 129.344 95.96C128.32 93.912 127.424 91.864 126.656 89.816C125.888 87.768 125.248 85.848 124.736 84.056C124.31 82.264 124.054 80.8134 123.968 79.704ZM139.84 82.52H139.712C139.456 82.52 139.2 82.7334 138.944 83.16C138.688 83.5014 138.432 83.928 138.176 84.44C138.006 84.8667 137.835 85.336 137.664 85.848C137.579 86.2747 137.536 86.616 137.536 86.872V87.64L137.664 87.896C137.835 86.9574 138.219 86.0614 138.816 85.208C139.499 84.3547 139.84 83.4587 139.84 82.52ZM158.272 79.96L158.784 79.448C159.382 79.6187 159.894 79.9174 160.32 80.344C160.832 80.7707 161.43 80.984 162.112 80.984C163.392 80.984 164.502 80.7707 165.44 80.344C166.379 79.832 167.232 79.2774 168 78.68C168.854 77.9974 169.707 77.3574 170.56 76.76C171.414 76.1627 172.395 75.736 173.504 75.48C173.931 75.6507 174.144 75.5227 174.144 75.096C174.23 74.6694 174.23 74.3707 174.144 74.2C174.315 73.688 174.571 73.5174 174.912 73.688C175.254 73.7734 175.382 73.4747 175.296 72.792L176.192 70.744C174.571 69.464 172.864 68.5254 171.072 67.928C169.366 67.2454 167.787 66.52 166.336 65.752C164.971 64.8987 163.819 63.7467 162.88 62.296C162.027 60.8454 161.6 58.6694 161.6 55.768C161.6 55.5974 161.643 55.4267 161.728 55.256C161.814 55.0854 161.899 54.9147 161.984 54.744C163.094 55.1707 164.672 55.896 166.72 56.92C168.854 57.944 171.03 59.0107 173.248 60.12C175.467 61.144 177.515 62.0827 179.392 62.936C181.355 63.704 182.763 64.0454 183.616 63.96C185.238 63.1067 186.56 62.04 187.584 60.76C188.608 59.48 189.376 58.1147 189.888 56.664C190.4 55.128 190.742 53.5494 190.912 51.928C191.168 50.2214 191.339 48.5574 191.424 46.936L192.448 46.168H192.576C193.43 47.1067 194.411 47.832 195.52 48.344C196.715 48.856 197.91 49.3254 199.104 49.752C200.299 50.1787 201.451 50.648 202.56 51.16C203.67 51.672 204.566 52.312 205.248 53.08L205.76 54.616C205.59 56.5787 205.206 58.328 204.608 59.864C204.011 61.4 203.328 62.8507 202.56 64.216C201.792 65.496 200.939 66.8187 200 68.184C199.147 69.5494 198.336 71.0427 197.568 72.664C198.422 73.3467 199.531 74.072 200.896 74.84C202.262 75.608 203.542 76.504 204.736 77.528C205.931 78.4667 206.955 79.4907 207.808 80.6C208.747 81.7094 209.216 82.904 209.216 84.184C209.216 84.5254 209.131 84.8667 208.96 85.208L208.32 86.104C207.552 86.5307 206.784 86.9574 206.016 87.384C205.248 87.8107 204.395 88.024 203.456 88.024C202.603 88.024 201.579 87.896 200.384 87.64C199.19 87.384 197.995 87.0427 196.8 86.616C195.606 86.1894 194.454 85.72 193.344 85.208C192.32 84.6107 191.51 84.056 190.912 83.544L190.4 82.392L190.656 81.88C191.083 81.7094 191.595 81.5387 192.192 81.368C192.79 81.112 193.131 80.728 193.216 80.216L191.68 78.936L190.912 79.064C188.267 80.856 186.304 82.4774 185.024 83.928C183.744 85.3787 182.464 86.6587 181.184 87.768C179.904 88.792 178.24 89.6454 176.192 90.328C174.23 91.0107 171.286 91.48 167.36 91.736C165.056 90.7974 162.923 89.304 160.96 87.256C159.083 85.1227 158.187 82.6907 158.272 79.96Z" fill="#747474"/>
<path d="M270.144 118.36L270.656 117.72L271.552 117.464C272.576 117.464 273.43 117.805 274.112 118.488C274.88 119.171 275.734 119.512 276.672 119.512C277.099 119.512 277.526 119.384 277.952 119.128C278.379 118.957 278.763 118.787 279.104 118.616C281.494 118.616 283.584 118.147 285.376 117.208C287.168 116.355 289.174 115.629 291.392 115.032L292.032 115.288L294.976 113.24H296.64V112.344L297.024 111.96C298.731 112.131 299.755 111.448 300.096 109.912C300.438 109.571 300.822 109.357 301.248 109.272C301.675 109.272 302.102 109.272 302.528 109.272C302.87 108.76 303.382 107.992 304.064 106.968C304.832 105.944 305.6 104.877 306.368 103.768C307.222 102.744 308.075 101.848 308.928 101.08C309.782 100.227 310.507 99.8 311.104 99.8L311.488 99.416C311.659 98.648 312.128 97.8374 312.896 96.984C313.664 96.1307 314.432 95.576 315.2 95.32C315.712 95.4907 316.011 95.2774 316.096 94.68C316.182 94.0827 316.31 93.656 316.48 93.4C316.822 92.4614 317.334 91.5227 318.016 90.584C318.699 89.6454 319.296 88.7494 319.808 87.896L319.296 87.512C318.272 87.9387 317.206 88.408 316.096 88.92C315.072 89.3467 313.963 89.56 312.768 89.56C311.488 89.56 310.294 89.2614 309.184 88.664C308.075 88.0667 307.094 87.2987 306.24 86.36C305.472 85.336 304.875 84.2267 304.448 83.032C304.022 81.752 303.808 80.5147 303.808 79.32C303.808 78.7227 303.936 78.168 304.192 77.656L304.96 77.016C306.07 76.76 307.222 76.5467 308.416 76.376C309.611 76.12 310.635 75.5654 311.488 74.712C312.598 74.2854 313.707 73.9014 314.816 73.56C316.011 73.2187 317.12 72.7494 318.144 72.152C319.083 71.9814 319.851 71.5974 320.448 71C321.131 70.4027 321.942 70.104 322.88 70.104C323.392 69.1654 324.075 68.568 324.928 68.312C325.782 68.056 326.678 67.7574 327.616 67.416C327.872 66.7334 328.043 66.008 328.128 65.24C328.214 64.472 328.256 63.704 328.256 62.936C328.256 57.816 328.086 52.7387 327.744 47.704C327.488 42.6694 327.446 37.592 327.616 32.472C326.422 33.6667 325.312 34.5627 324.288 35.16C323.264 35.672 321.899 36.1414 320.192 36.568C318.998 36.4827 318.016 36.312 317.248 36.056C316.566 35.7147 315.968 35.3734 315.456 35.032C314.944 34.6907 314.39 34.3067 313.792 33.88C313.195 33.4534 312.427 33.0267 311.488 32.6H310.72C310.294 33.112 309.995 33.496 309.824 33.752C309.654 34.008 309.227 34.2214 308.544 34.392L307.52 35.416C307.094 36.952 306.411 38.4027 305.472 39.768C304.619 41.1334 303.68 42.4987 302.656 43.864C301.718 45.144 300.736 46.4667 299.712 47.832C298.688 49.112 297.835 50.4774 297.152 51.928C295.275 55.6827 293.526 59.1387 291.904 62.296C290.283 65.368 288.832 68.4827 287.552 71.64C286.358 74.712 285.419 77.9547 284.736 81.368C284.054 84.7814 283.712 88.7067 283.712 93.144L282.56 94.68C281.878 95.1067 281.11 95.4054 280.256 95.576C279.488 95.7467 278.678 95.832 277.824 95.832C276.8 95.832 275.819 95.4907 274.88 94.808C273.942 94.04 273.131 93.144 272.448 92.12C271.766 91.0107 271.211 89.8587 270.784 88.664C270.443 87.4694 270.272 86.4027 270.272 85.464C270.272 84.184 270.443 82.9467 270.784 81.752C271.211 80.472 271.638 79.2347 272.064 78.04C272.576 76.76 273.003 75.5227 273.344 74.328C273.771 73.048 273.984 71.768 273.984 70.488C273.984 69.1227 273.728 67.6294 273.216 66.008C272.79 64.3014 272.107 62.936 271.168 61.912C270.4 61.4854 269.547 61.3147 268.608 61.4C267.755 61.4 266.902 61.2294 266.048 60.888C265.28 60.5467 264.512 59.992 263.744 59.224C262.976 58.456 262.294 57.56 261.696 56.536C261.099 55.512 260.587 54.488 260.16 53.464C259.819 52.44 259.648 51.5014 259.648 50.648L259.776 49.368L260.16 48.6L260.672 48.472L262.336 48.984L262.976 48.856L263.616 48.344H264.768C265.195 48.344 265.622 48.472 266.048 48.728C266.56 48.8987 266.987 49.112 267.328 49.368H268.224C268.395 49.368 268.694 49.2827 269.12 49.112C269.632 48.856 270.102 48.6 270.528 48.344C271.04 48.088 271.467 47.8747 271.808 47.704C272.235 47.448 272.448 47.32 272.448 47.32C272.448 46.9787 272.619 46.808 272.96 46.808C273.387 46.7227 273.686 46.68 273.856 46.68C274.624 46.68 275.222 46.3814 275.648 45.784C276.075 45.1014 276.63 44.76 277.312 44.76C277.568 44.504 277.91 44.12 278.336 43.608C278.763 43.096 279.19 42.5414 279.616 41.944C280.043 41.3467 280.384 40.792 280.64 40.28C280.982 39.768 281.152 39.3414 281.152 39C281.152 37.8054 280.854 36.696 280.256 35.672C279.744 34.648 279.488 33.5387 279.488 32.344L279.616 31.192L280 30.68H280.64C281.323 30.68 282.048 30.936 282.816 31.448C283.584 31.8747 284.395 32.3867 285.248 32.984C286.187 33.496 287.083 34.008 287.936 34.52C288.875 34.9467 289.814 35.16 290.752 35.16L291.648 36.056C292.502 36.2267 293.184 36.4827 293.696 36.824C294.294 37.08 294.934 37.5067 295.616 38.104L296.64 41.816C296.128 43.1814 294.934 44.248 293.056 45.016C291.179 45.784 289.131 46.552 286.912 47.32C284.779 48.0027 282.688 48.8134 280.64 49.752C278.678 50.6907 277.312 51.928 276.544 53.464C277.654 54.488 278.507 55.768 279.104 57.304C279.787 58.84 280.299 60.4614 280.64 62.168C280.982 63.7894 281.238 65.4534 281.408 67.16C281.664 68.8667 281.92 70.4454 282.176 71.896C283.03 70.5307 283.883 69.1654 284.736 67.8C285.59 66.4347 286.358 65.0267 287.04 63.576C287.467 63.4054 287.808 63.1067 288.064 62.68C288.32 62.2534 288.534 61.8267 288.704 61.4C288.704 61.2294 289.088 60.4187 289.856 58.968C290.71 57.432 291.606 55.8107 292.544 54.104C293.568 52.3974 294.507 50.8187 295.36 49.368C296.214 47.9174 296.726 47.1067 296.896 46.936C296.982 46.424 297.11 45.9547 297.28 45.528C297.536 45.016 297.664 44.5467 297.664 44.12C299.798 42.4134 301.547 40.1094 302.912 37.208C304.278 34.3067 305.387 31.448 306.24 28.632C307.179 25.816 307.862 23.3414 308.288 21.208C308.8 19.0747 309.184 17.9227 309.44 17.752C309.696 17.8374 310.08 18.0507 310.592 18.392C311.104 18.648 311.659 18.9467 312.256 19.288C312.854 19.544 313.366 19.8427 313.792 20.184C314.219 20.44 314.475 20.6534 314.56 20.824C315.755 21.7627 317.206 22.232 318.912 22.232C319.254 22.232 319.595 22.4027 319.936 22.744C320.278 23.0854 320.576 23.512 320.832 24.024C321.174 24.4507 321.472 24.92 321.728 25.432C322.07 25.8587 322.326 26.2 322.496 26.456C323.52 26.8827 324.459 27.096 325.312 27.096L325.568 26.072H326.336L327.232 25.56L327.36 24.024C327.36 22.232 327.104 20.44 326.592 18.648C326.166 16.856 325.696 15.064 325.184 13.272C324.672 11.48 324.16 9.73069 323.648 8.02402C323.222 6.23203 323.008 4.44003 323.008 2.64803V1.75203L323.648 0.856026L324.544 0.728027C326.422 1.24003 328.299 2.05069 330.176 3.16003C332.054 4.18403 333.846 5.16536 335.552 6.10403C336.064 6.36003 336.747 7.42669 337.6 9.30402C338.454 11.096 339.35 13.0587 340.288 15.192C341.312 17.3254 342.294 19.288 343.232 21.08C344.171 22.872 344.939 23.8107 345.536 23.896C345.963 23.2134 346.603 22.744 347.456 22.488C348.395 22.1467 349.376 21.848 350.4 21.592C351.424 21.336 352.406 21.08 353.344 20.824C354.283 20.4827 355.008 19.9707 355.52 19.288C355.947 18.6054 356.331 17.9654 356.672 17.368C357.014 16.7707 357.526 16.216 358.208 15.704C358.379 16.0454 358.592 16.4294 358.848 16.856C359.19 17.1974 359.574 17.368 360 17.368C361.024 17.7947 362.134 18.2214 363.328 18.648C364.523 18.9894 365.632 19.4587 366.656 20.056C367.766 20.568 368.704 21.2507 369.472 22.104C370.326 22.9574 370.88 24.024 371.136 25.304L370.624 27.096C370.112 27.608 369.387 28.0774 368.448 28.504C367.51 28.8454 366.528 29.144 365.504 29.4C364.48 29.656 363.456 29.8694 362.432 30.04C361.494 30.1254 360.64 30.168 359.872 30.168C359.275 30.168 358.763 30.0827 358.336 29.912C357.91 29.7414 357.483 29.528 357.056 29.272C356.544 28.5894 355.947 27.7787 355.264 26.84C354.667 25.816 354.027 25.0907 353.344 24.664C352.235 24.8347 351.083 25.048 349.888 25.304C348.779 25.4747 347.712 25.7734 346.688 26.2L346.56 26.712L353.728 42.968C354.155 43.9067 354.795 44.7174 355.648 45.4C356.587 45.9974 357.312 46.7654 357.824 47.704C358.507 49.0694 358.976 50.4774 359.232 51.928C359.574 53.3787 360.171 54.7867 361.024 56.152C361.536 57.0054 362.304 58.0294 363.328 59.224C364.352 60.3334 365.334 61.4854 366.272 62.68C367.211 63.8747 368.022 65.0694 368.704 66.264C369.472 67.4587 369.856 68.568 369.856 69.592C369.856 70.0187 369.771 70.488 369.6 71C368.235 72.28 366.102 73.2187 363.2 73.816C360.299 74.328 357.142 74.7547 353.728 75.096C350.4 75.4374 347.072 75.864 343.744 76.376C340.502 76.8027 337.856 77.5707 335.808 78.68C335.296 78.936 334.912 79.9174 334.656 81.624C334.486 83.3307 334.315 85.2507 334.144 87.384C334.059 89.432 334.016 91.4374 334.016 93.4C334.016 95.2774 334.016 96.5574 334.016 97.24C331.798 99.4587 329.963 101.677 328.512 103.896C327.147 106.115 325.611 108.419 323.904 110.808C323.478 111.405 322.326 111.96 320.448 112.472C318.571 113.069 316.31 113.709 313.664 114.392C311.019 115.075 308.16 115.8 305.088 116.568C302.016 117.421 299.03 118.403 296.128 119.512C293.227 120.621 290.582 121.859 288.192 123.224C285.888 124.675 284.139 126.339 282.944 128.216C281.408 129.155 279.574 129.624 277.44 129.624C276.502 129.624 275.563 129.24 274.624 128.472C273.771 127.704 273.003 126.765 272.32 125.656C271.638 124.632 271.083 123.523 270.656 122.328C270.23 121.133 270.016 120.109 270.016 119.256L270.144 118.36ZM347.584 70.744C348.438 70.0614 349.547 69.2934 350.912 68.44C352.278 67.5014 353.515 67.032 354.624 67.032C355.307 66.6907 355.691 65.8374 355.776 64.472C355.947 63.0214 356.032 61.9547 356.032 61.272C356.032 60.5894 355.947 59.864 355.776 59.096C355.606 58.2427 355.307 57.5174 354.88 56.92L354.368 57.048C353.088 57.9867 351.808 59.0534 350.528 60.248C349.334 61.3574 348.139 62.5094 346.944 63.704C345.75 64.8134 344.47 65.9227 343.104 67.032C341.824 68.056 340.459 68.8667 339.008 69.464C338.752 69.72 338.454 70.104 338.112 70.616C337.856 71.128 337.6 71.7254 337.344 72.408C337.088 73.0054 336.875 73.6027 336.704 74.2C336.534 74.712 336.448 75.1387 336.448 75.48H336.704C337.814 75.0534 338.923 74.7547 340.032 74.584C341.227 74.4134 342.379 74.1147 343.488 73.688C344.256 73.432 344.939 72.8774 345.536 72.024C346.134 71.1707 346.816 70.744 347.584 70.744ZM344.384 48.216C344.384 46.936 344 45.784 343.232 44.76C342.55 43.6507 342.208 42.456 342.208 41.176L342.336 40.152L342.848 39.512H343.36C343.616 39.512 344.043 39.6827 344.64 40.024C345.238 40.3654 345.878 40.7494 346.56 41.176C347.328 41.6027 348.011 42.0294 348.608 42.456C349.291 42.8827 349.846 43.1387 350.272 43.224C350.102 42.6267 349.675 41.5174 348.992 39.896C348.395 38.1894 347.67 36.44 346.816 34.648C345.963 32.7707 345.11 31.1067 344.256 29.656C343.488 28.12 342.891 27.224 342.464 26.968H341.952C341.696 26.968 341.398 27.0107 341.056 27.096C340.715 27.1814 340.416 27.2667 340.16 27.352L339.648 27.992L339.52 29.4C339.52 30.424 339.648 31.4054 339.904 32.344C340.246 33.2827 340.459 34.264 340.544 35.288C340.715 37.592 340.8 39.9387 340.8 42.328C340.8 44.632 340.8 46.936 340.8 49.24V53.976C341.483 53.2934 342.251 52.3974 343.104 51.288C343.958 50.1787 344.384 49.1547 344.384 48.216ZM337.728 18.648V18.904C337.728 19.672 337.899 20.7387 338.24 22.104C338.667 23.4694 339.136 24.408 339.648 24.92L340.288 25.048L340.8 24.28C340.8 23.9387 340.672 23.512 340.416 23C340.246 22.4027 339.99 21.8054 339.648 21.208C339.392 20.6107 339.051 20.0987 338.624 19.672C338.283 19.16 337.984 18.8187 337.728 18.648ZM347.84 100.952L347.712 100.184H348.48C349.334 100.184 350.187 100.611 351.04 101.464C351.894 102.232 352.79 103.085 353.728 104.024C354.752 104.963 355.819 105.773 356.928 106.456C358.123 107.224 359.36 107.565 360.64 107.48L361.408 106.84L361.536 104.92C361.024 103.469 360.256 102.317 359.232 101.464C358.294 100.525 357.312 99.6294 356.288 98.776C355.264 97.8374 354.24 96.7707 353.216 95.576C352.278 94.3814 351.552 92.6747 351.04 90.456L351.296 88.536H352.32C352.491 88.536 352.832 88.664 353.344 88.92C353.856 89.0907 354.368 89.3467 354.88 89.688C355.478 90.0294 355.99 90.3707 356.416 90.712C356.928 90.968 357.27 91.1814 357.44 91.352C363.67 93.0587 368.192 95.7467 371.008 99.416C373.824 103.085 375.232 108.163 375.232 114.648C375.232 116.952 374.592 118.403 373.312 119C372.032 119.683 370.411 120.024 368.448 120.024C366.998 120.024 365.248 119.256 363.2 117.72C361.238 116.184 359.232 114.349 357.184 112.216C355.136 110.083 353.259 107.949 351.552 105.816C349.846 103.768 348.608 102.147 347.84 100.952ZM310.208 57.048C310.208 56.8774 310.294 56.4507 310.464 55.768C310.72 55.0854 310.976 54.36 311.232 53.592C311.488 52.7387 311.744 51.9707 312 51.288C312.256 50.52 312.427 50.0507 312.512 49.88H313.152L314.944 50.648C315.286 51.2454 315.84 51.7574 316.608 52.184C317.462 52.6107 318.315 52.9947 319.168 53.336C320.107 53.6774 321.003 54.0187 321.856 54.36C322.795 54.616 323.563 54.9147 324.16 55.256L325.056 56.536L325.312 58.328L323.648 64.728L322.368 66.392C322.198 66.4774 321.771 66.648 321.088 66.904C320.406 67.0747 319.979 67.16 319.808 67.16H316.864L314.432 66.008C313.323 64.8134 312.342 63.448 311.488 61.912C310.635 60.376 310.208 58.7547 310.208 57.048Z" fill="black"/>
<path d="M429.76 142.552V142.424C430.955 141.912 432.064 141.272 433.088 140.504C434.112 139.736 435.264 139.352 436.544 139.352C436.715 139.352 436.886 139.267 437.056 139.096C437.227 139.011 437.227 138.883 437.056 138.712C437.056 138.371 437.27 138.072 437.696 137.816C438.123 137.645 438.592 137.475 439.104 137.304C439.616 137.219 440.128 137.133 440.64 137.048C441.152 137.048 441.536 137.048 441.792 137.048C441.878 136.792 441.878 136.493 441.792 136.152C441.707 135.896 441.622 135.64 441.536 135.384C441.622 135.043 441.792 134.872 442.048 134.872C442.39 134.872 442.646 134.957 442.816 135.128C443.328 135.128 443.84 134.915 444.352 134.488C444.95 134.061 445.504 133.592 446.016 133.08C446.528 132.568 447.04 132.056 447.552 131.544C448.15 131.117 448.79 130.819 449.472 130.648C450.07 130.136 450.411 129.581 450.496 128.984C450.582 128.472 451.094 128.259 452.032 128.344L452.288 127.704C452.886 127.021 453.696 126.211 454.72 125.272C455.744 124.333 456.768 123.352 457.792 122.328C458.816 121.304 459.755 120.323 460.608 119.384C461.547 118.445 462.144 117.592 462.4 116.824C462.742 116.056 462.955 115.288 463.04 114.52C463.126 113.837 463.424 113.112 463.936 112.344C465.131 111.747 466.582 110.723 468.288 109.272C470.08 107.907 471.744 106.371 473.28 104.664C474.902 102.957 476.267 101.208 477.376 99.416C478.571 97.624 479.168 96.0027 479.168 94.552L479.552 94.04L480.832 94.296C481.174 93.784 481.515 93.144 481.856 92.376C482.283 91.5227 482.667 90.6267 483.008 89.688C483.35 88.664 483.648 87.7254 483.904 86.872C484.246 85.9334 484.502 85.1227 484.672 84.44C482.966 85.6347 480.96 86.7867 478.656 87.896C476.438 89.0054 474.262 89.6454 472.128 89.816L468.928 88.92C467.734 87.8107 466.539 86.36 465.344 84.568C464.235 82.776 463.68 81.0267 463.68 79.32C463.68 78.6374 463.851 78.04 464.192 77.528C464.534 76.9307 464.918 76.4187 465.344 75.992C466.027 75.8214 467.222 74.7974 468.928 72.92C470.72 70.9574 472.555 68.824 474.432 66.52C476.31 64.1307 477.974 61.912 479.424 59.864C480.875 57.7307 481.6 56.3227 481.6 55.64L481.216 55.384C480.448 55.7254 479.595 56.1094 478.656 56.536C477.718 56.9627 476.736 57.3894 475.712 57.816C474.774 58.1574 473.792 58.456 472.768 58.712C471.83 58.968 470.976 59.096 470.208 59.096C468.758 59.096 467.435 58.7974 466.24 58.2C465.046 57.5174 464.022 56.664 463.168 55.64C462.4 54.616 461.76 53.464 461.248 52.184C460.822 50.8187 460.608 49.4534 460.608 48.088C460.608 47.9174 460.779 47.7467 461.12 47.576C461.462 47.32 461.846 47.1067 462.272 46.936C462.784 46.7654 463.254 46.5947 463.68 46.424C464.192 46.2534 464.534 46.0827 464.704 45.912C465.472 45.4 466.411 44.7174 467.52 43.864C468.63 43.0107 469.739 42.1147 470.848 41.176C471.958 40.2374 472.939 39.2987 473.792 38.36C474.646 37.336 475.2 36.3547 475.456 35.416C475.712 35.0747 476.011 34.5627 476.352 33.88C476.779 33.112 477.163 32.344 477.504 31.576C477.846 30.7227 478.144 29.912 478.4 29.144C478.656 28.376 478.784 27.7787 478.784 27.352C476.907 25.7307 475.456 24.1094 474.432 22.488C473.494 20.7814 473.024 18.6907 473.024 16.216L473.152 15.448L473.536 15.192H474.304C475.072 15.192 476.31 15.6187 478.016 16.472C479.723 17.24 481.43 18.0934 483.136 19.032C484.928 19.8854 486.55 20.696 488 21.464C489.451 22.1467 490.39 22.4027 490.816 22.232C491.499 23.1707 492.139 24.2374 492.736 25.432C493.334 26.5414 493.632 27.6934 493.632 28.888C493.632 29.3147 493.291 29.9547 492.608 30.808C491.926 31.6614 491.115 32.6 490.176 33.624C489.323 34.5627 488.47 35.4587 487.616 36.312C486.848 37.1654 486.294 37.8054 485.952 38.232C484.587 39 483.478 40.1947 482.624 41.816C481.856 43.4374 481.046 44.888 480.192 46.168V46.424L484.928 44.76L485.312 43.608H485.952C487.232 44.0347 488.512 44.504 489.792 45.016C491.072 45.4427 492.267 45.9974 493.376 46.68C494.571 47.3627 495.595 48.1734 496.448 49.112C497.302 50.0507 497.899 51.2027 498.24 52.568C497.472 54.0187 496.107 55.6827 494.144 57.56C492.267 59.352 490.304 61.2294 488.256 63.192C486.294 65.0694 484.502 66.9467 482.88 68.824C481.344 70.616 480.576 72.1947 480.576 73.56L481.216 74.072C482.155 73.6454 482.923 73.048 483.52 72.28C484.203 71.512 484.971 70.872 485.824 70.36L486.464 70.232C488 71.256 489.579 72.1094 491.2 72.792C492.907 73.3894 494.443 74.072 495.808 74.84C497.174 75.608 498.283 76.5894 499.136 77.784C500.075 78.9787 500.544 80.6854 500.544 82.904C500.544 83.8427 500.246 85.336 499.648 87.384C499.051 89.3467 498.326 91.4374 497.472 93.656C496.619 95.7894 495.766 97.8374 494.912 99.8C494.059 101.677 493.376 103.043 492.864 103.896C491.926 105.347 490.859 106.712 489.664 107.992C488.555 109.272 487.403 110.509 486.208 111.704C485.099 112.984 483.99 114.264 482.88 115.544C481.771 116.909 480.79 118.36 479.936 119.896C479.51 120.579 479.04 121.219 478.528 121.816C478.102 122.499 477.547 123.053 476.864 123.48C475.67 124.248 474.347 124.76 472.896 125.016C471.446 125.272 470.08 125.656 468.8 126.168C465.558 127.533 462.315 128.856 459.072 130.136C455.915 131.416 452.843 132.995 449.856 134.872C449.259 135.299 448.107 136.067 446.4 137.176C444.694 138.285 442.902 139.437 441.024 140.632C439.232 141.827 437.526 142.893 435.904 143.832C434.368 144.771 433.43 145.24 433.088 145.24C432.576 145.24 431.894 145.155 431.04 144.984L429.76 142.552ZM410.944 111.576C409.75 113.112 408.427 114.307 406.976 115.16C405.526 116.099 403.819 116.568 401.856 116.568C399.382 115.885 397.632 114.563 396.608 112.6C395.584 110.723 395.072 108.547 395.072 106.072C395.072 103.939 395.2 101.805 395.456 99.672C395.798 97.4534 396.608 95.4907 397.888 93.784C399.595 94.4667 401.643 95.32 404.032 96.344C406.422 97.2827 408.299 98.3067 409.664 99.416C410.518 100.099 411.243 100.952 411.84 101.976C412.438 102.915 413.078 103.811 413.76 104.664C414.443 105.603 415.211 106.371 416.064 106.968C417.003 107.565 418.198 107.864 419.648 107.864L421.056 107.736L422.208 107.096C422.891 106.243 423.275 105.219 423.36 104.024C423.446 102.829 423.488 101.72 423.488 100.696C423.488 99.16 423.488 97.624 423.488 96.088C423.488 94.552 423.403 93.016 423.232 91.48H422.976C421.611 91.48 420.331 91.7787 419.136 92.376C418.027 92.9734 416.79 93.272 415.424 93.272C414.144 93.272 412.992 92.888 411.968 92.12C410.944 91.352 410.048 90.4134 409.28 89.304C408.598 88.1947 408.043 87 407.616 85.72C407.19 84.44 406.976 83.2454 406.976 82.136C406.976 81.88 407.062 81.5814 407.232 81.24C408 80.6427 408.598 79.9174 409.024 79.064C409.451 78.2107 410.048 77.528 410.816 77.016V76.504L410.432 75.992C408.47 75.224 406.72 73.816 405.184 71.768C403.648 69.72 402.88 67.5867 402.88 65.368L403.008 63.832C403.691 62.9787 404.459 62.552 405.312 62.552L406.336 61.912C407.019 61.7414 407.744 61.6987 408.512 61.784C409.28 61.784 410.006 61.8267 410.688 61.912C410.603 61.4854 410.518 61.144 410.432 60.888C410.432 60.5467 410.432 60.1627 410.432 59.736C410.432 58.8827 410.56 58.072 410.816 57.304L411.584 57.176C411.926 57.3467 412.224 57.56 412.48 57.816C412.822 57.9867 413.206 58.072 413.632 58.072C414.486 58.6694 415.51 59.3094 416.704 59.992C417.899 60.5894 419.008 60.888 420.032 60.888C420.715 60.5467 421.27 60.3334 421.696 60.248C422.123 60.1627 422.678 60.2054 423.36 60.376C424.299 60.12 425.323 59.6507 426.432 58.968C427.542 58.2 428.523 57.816 429.376 57.816C429.632 57.2187 430.016 56.8347 430.528 56.664C431.04 56.408 431.51 56.1094 431.936 55.768L432.448 53.464L432.96 52.824H433.856C434.539 52.824 435.606 53.1227 437.056 53.72C438.507 54.3174 439.958 55.0427 441.408 55.896C442.859 56.7494 444.096 57.688 445.12 58.712C446.23 59.6507 446.784 60.5467 446.784 61.4C446.784 61.7414 446.699 62.0827 446.528 62.424C445.846 63.2774 444.864 64.088 443.584 64.856C442.39 65.5387 441.11 66.2214 439.744 66.904C438.379 67.5867 437.099 68.2694 435.904 68.952C434.795 69.5494 434.07 70.1467 433.728 70.744C434.667 71.6827 435.648 72.3227 436.672 72.664C437.782 72.92 438.806 73.2187 439.744 73.56C440.683 73.9014 441.451 74.456 442.048 75.224C442.731 75.9067 443.072 77.1014 443.072 78.808C442.646 79.7467 441.878 80.3867 440.768 80.728C439.659 80.984 438.635 81.112 437.696 81.112C437.355 81.112 436.928 81.0267 436.416 80.856L435.008 79.832C434.582 79.832 434.027 80.0027 433.344 80.344C432.747 80.6 432.107 80.9414 431.424 81.368C430.742 81.7094 430.102 82.136 429.504 82.648C428.907 83.0747 428.438 83.416 428.096 83.672L431.168 84.696C432.278 85.6347 433.216 87.256 433.984 89.56C434.752 91.864 435.35 94.3387 435.776 96.984C436.203 99.6294 436.502 102.232 436.672 104.792C436.928 107.352 437.056 109.357 437.056 110.808C437.056 111.917 436.886 113.027 436.544 114.136C436.288 115.245 435.819 116.227 435.136 117.08C434.539 118.019 433.771 118.744 432.832 119.256C431.979 119.853 430.912 120.152 429.632 120.152C427.84 120.152 426.134 119.853 424.512 119.256C422.891 118.659 421.312 117.933 419.776 117.08C418.24 116.227 416.747 115.288 415.296 114.264C413.846 113.24 412.395 112.344 410.944 111.576ZM422.976 75.224C423.232 75.1387 423.531 75.1387 423.872 75.224C424.214 75.3094 424.512 75.3947 424.768 75.48L424.896 75.224L424.512 73.816L425.152 72.28L425.792 72.152L426.048 72.28L426.432 71.896C426.518 71.128 426.731 70.488 427.072 69.976C427.499 69.3787 427.926 68.7814 428.352 68.184C428.779 67.5867 429.12 66.9467 429.376 66.264C429.718 65.496 429.888 64.6 429.888 63.576C429.888 63.1494 429.803 62.8507 429.632 62.68C428.694 62.7654 427.755 63.192 426.816 63.96C425.963 64.728 425.323 65.4534 424.896 66.136C424.811 66.9894 424.342 67.8 423.488 68.568C422.72 69.2507 422.08 69.9334 421.568 70.616C421.568 71.8107 421.142 72.9627 420.288 74.072C419.435 75.096 419.008 76.3334 419.008 77.784V78.552L419.392 78.936C419.99 77.9974 420.416 77.4427 420.672 77.272C421.014 77.1014 421.654 77.016 422.592 77.016C422.848 77.016 422.976 76.76 422.976 76.248C422.976 75.736 422.976 75.3947 422.976 75.224ZM430.4 74.968L431.168 74.456L431.04 73.816L430.656 73.304L430.272 73.176C430.102 73.176 430.016 73.2614 430.016 73.432C430.102 73.6027 430.059 73.7734 429.888 73.944C429.376 74.456 428.822 74.9254 428.224 75.352C427.712 75.7787 427.115 76.0774 426.432 76.248L426.048 76.888L426.304 77.4H426.816C427.243 77.4 427.584 77.272 427.84 77.016C428.182 76.76 428.438 76.504 428.608 76.248C428.864 75.9067 429.12 75.608 429.376 75.352C429.632 75.096 429.974 74.968 430.4 74.968ZM440.768 100.184C440.768 99.672 440.939 99.16 441.28 98.648C441.707 98.136 442.006 97.6667 442.176 97.24V96.728C442.176 95.7894 442.048 94.8934 441.792 94.04C441.536 93.1867 441.408 92.2907 441.408 91.352V88.152L441.536 87.512L442.304 87.128C442.56 87.128 442.774 87.2134 442.944 87.384C443.115 87.5547 443.286 87.768 443.456 88.024C443.627 88.1947 443.798 88.3654 443.968 88.536C444.224 88.7067 444.48 88.7494 444.736 88.664C446.358 89.0907 447.851 89.7307 449.216 90.584C450.582 91.4374 452.118 92.0774 453.824 92.504C454.592 92.6747 455.019 93.2294 455.104 94.168C455.275 95.0214 455.36 95.7467 455.36 96.344C455.36 98.392 455.104 100.44 454.592 102.488C454.166 104.451 453.739 106.413 453.312 108.376L452.416 109.528C451.478 110.125 450.283 110.424 448.832 110.424C448.406 110.424 448.022 110.381 447.68 110.296C447.424 110.296 447.083 110.253 446.656 110.168C444.95 109.229 443.542 107.821 442.432 105.944C441.323 104.067 440.768 102.147 440.768 100.184ZM377.408 51.928L378.048 50.264L378.944 50.392C379.371 50.392 379.798 50.264 380.224 50.008C380.651 49.6667 381.078 49.496 381.504 49.496C382.443 49.496 383.296 49.8374 384.064 50.52C384.918 51.2027 385.814 51.6294 386.752 51.8C387.947 51.6294 389.142 51.544 390.336 51.544C391.531 51.544 392.726 51.544 393.92 51.544C396.31 51.544 398.614 51.1174 400.832 50.264C403.051 49.4107 405.355 48.984 407.744 48.984C408.086 48.984 408.427 49.112 408.768 49.368C409.195 49.5387 409.536 49.7094 409.792 49.88H410.176L410.688 48.728L411.584 49.496L412.096 49.624L412.352 49.24C412.438 48.6427 412.736 48.0454 413.248 47.448C413.76 46.7654 414.272 46.1254 414.784 45.528C415.382 44.9307 415.894 44.376 416.32 43.864C416.832 43.2667 417.088 42.7974 417.088 42.456C416.15 41.2614 415.083 40.1094 413.888 39C412.779 37.8054 411.712 36.6107 410.688 35.416L410.304 35.544C409.878 35.9707 409.408 36.312 408.896 36.568C408.47 36.824 408.043 37.1227 407.616 37.464C407.275 37.5494 406.891 37.6774 406.464 37.848C406.038 37.9334 405.696 37.976 405.44 37.976C404.075 37.976 402.838 37.6347 401.728 36.952C400.704 36.2694 399.808 35.416 399.04 34.392C398.272 33.2827 397.675 32.088 397.248 30.808C396.822 29.4427 396.608 28.1627 396.608 26.968C397.035 26.2854 397.76 25.4747 398.784 24.536C399.894 23.5974 400.747 22.8294 401.344 22.232L401.216 11.736C401.216 10.8827 401.216 10.072 401.216 9.30402C401.302 8.45069 401.43 7.59736 401.6 6.74403H401.984L402.496 6.87202C402.838 7.21336 403.35 7.72536 404.032 8.40803C404.8 9.00536 405.44 9.26136 405.952 9.17603C406.464 9.43203 407.19 9.7307 408.128 10.072C409.067 10.4134 410.006 10.7974 410.944 11.224C411.883 11.5654 412.736 11.9494 413.504 12.376C414.272 12.8027 414.742 13.2294 414.912 13.656C414.998 14.424 415.168 15.1494 415.424 15.832C415.68 16.5147 416.15 17.0694 416.832 17.496L416.96 18.136C416.534 18.8187 416.192 19.4587 415.936 20.056C415.766 20.568 415.68 21.208 415.68 21.976V22.488L416.064 23.128L417.216 21.848C417.302 21.2507 417.515 20.952 417.856 20.952C418.283 20.8667 418.667 21.0374 419.008 21.464C419.35 21.464 419.52 21.336 419.52 21.08C419.606 20.824 419.734 20.568 419.904 20.312C420.16 20.056 420.587 19.8 421.184 19.544C421.782 19.288 422.806 19.16 424.256 19.16C425.024 19.16 425.963 19.3307 427.072 19.672C428.267 20.0134 429.376 20.3974 430.4 20.824C431.51 21.2507 432.448 21.6347 433.216 21.976C434.07 22.3174 434.496 22.488 434.496 22.488C435.52 20.6107 436.032 18.648 436.032 16.6C436.032 15.4054 435.99 14.2534 435.904 13.144C435.819 12.0347 435.563 10.9254 435.136 9.81602L434.624 9.43203C432.918 10.2 431.083 10.6694 429.12 10.84C427.243 10.9254 425.408 11.3094 423.616 11.992C422.763 13.1014 421.782 14.04 420.672 14.808C419.563 15.4907 418.368 16.0454 417.088 16.472L416.32 15.96L415.808 15.064L415.68 14.04L416.192 13.272C416.875 12.8454 417.558 12.4614 418.24 12.12C419.008 11.6934 419.734 11.224 420.416 10.712C420.758 10.3707 421.056 9.94403 421.312 9.43203C421.568 8.92003 421.824 8.45069 422.08 8.02402C422.336 7.51203 422.635 7.08536 422.976 6.74403C423.403 6.40269 424 6.23203 424.768 6.23203C424.854 5.72003 425.11 5.20803 425.536 4.69603L426.048 4.31203H426.688L426.816 3.54403C427.414 2.86136 428.352 2.34936 429.632 2.00803C430.998 1.58136 432.107 1.19736 432.96 0.856026C434.411 1.70936 435.862 2.43469 437.312 3.03203C438.848 3.54403 440.171 4.18403 441.28 4.95203C442.475 5.72003 443.414 6.70136 444.096 7.89603C444.864 9.09069 445.248 10.712 445.248 12.76C445.248 13.9547 444.992 15.1067 444.48 16.216C443.968 17.24 443.414 18.3067 442.816 19.416C442.304 20.44 441.792 21.5067 441.28 22.616C440.768 23.64 440.512 24.7494 440.512 25.944C440.512 26.3707 440.598 26.84 440.768 27.352C441.024 27.7787 441.152 28.248 441.152 28.76L441.024 29.912L440.256 30.808C438.55 31.576 437.44 32.3867 436.928 33.24C436.502 34.0934 435.862 35.2454 435.008 36.696L434.24 37.208L432.832 43.736L432.96 43.864C433.984 43.864 435.094 43.6934 436.288 43.352C437.483 43.0107 438.678 42.584 439.872 42.072C441.067 41.56 442.176 40.9627 443.2 40.28C444.224 39.512 445.078 38.744 445.76 37.976L446.144 37.848C447.851 38.5307 449.472 39.2987 451.008 40.152C452.544 41.0054 454.166 41.7734 455.872 42.456L456.64 43.224C456.811 43.6507 456.939 44.0774 457.024 44.504C457.11 44.9307 457.152 45.3574 457.152 45.784C456.64 46.808 455.659 47.7894 454.208 48.728C452.843 49.6667 451.264 50.4774 449.472 51.16C447.766 51.8427 446.059 52.44 444.352 52.952C442.646 53.464 441.238 53.848 440.128 54.104L439.36 53.976C438.251 53.464 437.696 52.4827 437.696 51.032C437.696 50.6907 437.782 50.392 437.952 50.136C438.123 49.7947 438.422 49.7094 438.848 49.88L440.128 46.424H440.256C440.683 46.424 440.939 46.2107 441.024 45.784C441.195 45.3574 441.323 45.016 441.408 44.76L441.152 44.504C439.446 45.016 437.611 45.5707 435.648 46.168C433.686 46.7654 431.808 47.064 430.016 47.064C429.163 47.576 428.224 48.3014 427.2 49.24C426.262 50.1787 425.238 51.1174 424.128 52.056C423.104 52.9094 422.038 53.6774 420.928 54.36C419.904 55.0427 418.88 55.384 417.856 55.384C417.174 55.384 416.576 55.1707 416.064 54.744C415.638 54.3174 415.126 54.104 414.528 54.104C412.822 55.128 410.859 56.2374 408.64 57.432C406.422 58.5414 404.118 59.608 401.728 60.632C399.339 61.5707 396.95 62.3814 394.56 63.064C392.256 63.6614 390.123 63.96 388.16 63.96C386.624 63.96 385.174 63.6187 383.808 62.936C382.528 62.168 381.419 61.2294 380.48 60.12C379.542 58.9254 378.774 57.6454 378.176 56.28C377.664 54.8294 377.408 53.3787 377.408 51.928ZM426.304 30.552C427.243 30.2107 428.011 29.6987 428.608 29.016C429.206 28.3334 430.016 27.864 431.04 27.608L430.912 27.352C430.571 27.1814 430.272 27.096 430.016 27.096C429.504 27.096 428.822 27.224 427.968 27.48C427.115 27.736 426.219 28.0774 425.28 28.504C424.427 28.8454 423.659 29.272 422.976 29.784C422.294 30.2107 421.91 30.68 421.824 31.192C422.592 31.448 423.232 31.832 423.744 32.344H424.768L426.304 30.552Z" fill="#747474"/>
</svg>
